<?xml version="1.0" encoding="UTF-8"?>
<svg xmlns="http://www.w3.org/2000/svg" id="Layer_1" data-name="Layer 1" viewBox="0 0 24 24" width="512" height="512"><path d="M18.66,20.9c-.41-.37-1.05-.33-1.41,.09-.57,.65-1.39,1.02-2.25,1.02H5c-1.65,0-3-1.35-3-3V5c0-1.65,1.35-3,3-3h4.51c.16,0,.33,0,.49,.02V7c0,1.65,1.35,3,3,3h5.81c.31,0,.6-.14,.79-.39s.25-.56,.18-.86c-.31-1.22-.94-2.33-1.83-3.22l-3.48-3.48c-1.32-1.32-3.08-2.05-4.95-2.05H5C2.24,0,0,2.24,0,5v14c0,2.76,2.24,5,5,5H15c1.43,0,2.8-.62,3.75-1.69,.37-.41,.33-1.05-.09-1.41ZM12,2.66c.38,.22,.73,.49,1.05,.81l3.48,3.48c.31,.31,.58,.67,.8,1.05h-4.34c-.55,0-1-.45-1-1V2.66Zm11.13,15.43l-1.61,1.61c-.2,.2-.45,.29-.71,.29s-.51-.1-.71-.29c-.39-.39-.39-1.02,0-1.41l1.29-1.29h-7.4c-.55,0-1-.45-1-1s.45-1,1-1h7.4l-1.29-1.29c-.39-.39-.39-1.02,0-1.41s1.02-.39,1.41,0l1.61,1.61c1.15,1.15,1.15,3.03,0,4.19Z"/></svg>
