<?xml version="1.0" encoding="UTF-8"?>
<svg xmlns="http://www.w3.org/2000/svg" id="Layer_1" data-name="Layer 1" viewBox="0 0 24 24" width="512" height="512"><path d="M4,10h6c2.21,0,4-1.79,4-4v-1h3c1.1,0,2,.9,2,2v1h-1.45c-.69,0-1.04,.83-.55,1.32l2.45,2.45c.3,.3,.79,.3,1.1,0l2.45-2.45c.49-.49,.14-1.32-.55-1.32h-1.45v-1c0-2.21-1.79-4-4-4h-3.13c-.45-1.72-2.01-3-3.87-3H4C1.79,0,0,1.79,0,4v2c0,2.21,1.79,4,4,4ZM2,4c0-1.1,.9-2,2-2h6c1.1,0,2,.9,2,2v2c0,1.1-.9,2-2,2H4c-1.1,0-2-.9-2-2v-2ZM20,14H4c-2.21,0-4,1.79-4,4v2c0,2.21,1.79,4,4,4H20c2.21,0,4-1.79,4-4v-2c0-2.21-1.79-4-4-4ZM2,18c0-1.1,.9-2,2-2h.59l-2.59,2.59v-.59Zm2,4c-.7,0-1.32-.36-1.68-.91l5.09-5.09h3.17l-6,6h-.59Zm3.41,0l6-6h3.17l-6,6h-3.17Zm6,0l6-6h.59c.7,0,1.32,.36,1.68,.91l-5.09,5.09h-3.17Zm8.59-2c0,1.1-.9,2-2,2h-.59l2.59-2.59v.59Z"/></svg>
