<?xml version="1.0" encoding="UTF-8"?>
<svg xmlns="http://www.w3.org/2000/svg" id="Layer_1" data-name="Layer 1" viewBox="0 0 24 24" width="512" height="512"><path d="M23,21h-1V6.414l1.299-1.298c.692-.692,.896-1.724,.522-2.627-.375-.904-1.249-1.488-2.228-1.488H2.406C1.428,1,.554,1.584,.179,2.488-.195,3.392,.009,4.423,.701,5.116l1.299,1.298v14.586H1c-.553,0-1,.448-1,1s.447,1,1,1H5c1.654,0,3-1.346,3-3v-5c0-2.206,1.794-4,4-4s4,1.794,4,4v5c0,1.654,1.346,3,3,3h4c.553,0,1-.448,1-1s-.447-1-1-1ZM2.026,3.254c.039-.095,.141-.254,.38-.254H21.594c.239,0,.341,.159,.38,.254s.08,.279-.089,.448l-1.299,1.298H3.414l-1.299-1.298c-.169-.169-.128-.353-.089-.448Zm15.974,16.746v-5c0-3.309-2.691-6-6-6s-6,2.691-6,6v5c0,.551-.448,1-1,1h-1V7H20v14h-1c-.552,0-1-.449-1-1Z"/></svg>
