<?xml version="1.0" encoding="UTF-8"?>
<svg xmlns="http://www.w3.org/2000/svg" id="Layer_1" data-name="Layer 1" viewBox="0 0 24 24" width="512" height="512"><path d="M12,11c0,.553-.447,1-1,1-1.194,0-2.267-.525-3-1.357-.733,.832-1.806,1.357-3,1.357h-1c-.345,0-.68-.044-1-.126v4.126h6c.553,0,1,.447,1,1s-.447,1-1,1H3v2c0,1.103,.897,2,2,2h4c.553,0,1,.447,1,1s-.447,1-1,1H5c-2.206,0-4-1.794-4-4V10.643c-.622-.705-1-1.631-1-2.643,0-.093,1.209-4.373,1.209-4.373C1.82,1.491,3.797,0,6.018,0h11.965c2.221,0,4.197,1.491,4.809,3.626l1.171,4.1c.151,.531-.156,1.084-.688,1.236-.526,.146-1.084-.155-1.236-.688l-1.171-4.099c-.366-1.281-1.553-2.176-2.885-2.176h-.982v2c0,.553-.447,1-1,1s-1-.447-1-1V2h-6v2c0,.553-.447,1-1,1s-1-.447-1-1V2h-.982c-1.332,0-2.519,.895-2.885,2.177l-1.129,3.949c.032,.517,.65,1.874,1.996,1.874h1c1.103,0,2-.897,2-2,0-.553,.447-1,1-1s1,.447,1,1c0,1.103,.897,2,2,2,.553,0,1,.447,1,1Zm6,6.5c-.828,0-1.5,.672-1.5,1.5s.672,1.5,1.5,1.5,1.5-.672,1.5-1.5-.672-1.5-1.5-1.5Zm6,.5v2c0,2.206-1.794,4-4,4h-4c-2.206,0-4-1.794-4-4v-2c0-1.478,.805-2.771,2-3.463v-1.537c0-2.206,1.794-4,4-4s4,1.794,4,4v1.537c1.195,.693,2,1.985,2,3.463Zm-8-4h4v-1c0-1.103-.897-2-2-2s-2,.897-2,2v1Zm6,4c0-1.103-.897-2-2-2h-4c-1.103,0-2,.897-2,2v2c0,1.103,.897,2,2,2h4c1.103,0,2-.897,2-2v-2Z"/></svg>
