<?xml version="1.0" encoding="UTF-8"?>
<svg xmlns="http://www.w3.org/2000/svg" id="Layer_1" data-name="Layer 1" viewBox="0 0 24 24" width="512" height="512"><path d="M14.831,16.998c-.256,0-.512-.098-.707-.293-.391-.391-.391-1.023,0-1.414l2.583-2.584c.189-.189,.293-.44,.293-.707s-.104-.518-.293-.707l-2.583-2.584c-.391-.391-.391-1.023,0-1.414s1.023-.391,1.414,0l2.583,2.583c.567,.566,.879,1.32,.879,2.121s-.312,1.555-.879,2.121l-2.583,2.584c-.195,.195-.451,.293-.707,.293Zm-4.954-.293c.391-.391,.391-1.023,0-1.414l-2.583-2.584c-.189-.188-.293-.439-.293-.707s.104-.518,.293-.707l2.583-2.583c.391-.391,.391-1.023,0-1.414s-1.023-.391-1.414,0l-2.583,2.583c-.567,.567-.879,1.32-.879,2.122s.312,1.555,.879,2.121l2.583,2.584c.195,.195,.451,.293,.707,.293s.512-.098,.707-.293Zm14.124,.295V7c0-2.757-2.243-5-5-5H5C2.243,2,0,4.243,0,7v10c0,2.757,2.243,5,5,5h14c2.757,0,5-2.243,5-5Zm-5-13c1.654,0,3,1.346,3,3v10c0,1.654-1.346,3-3,3H5c-1.654,0-3-1.346-3-3V7c0-1.654,1.346-3,3-3h14Z"/></svg>
