<?xml version="1.0" encoding="UTF-8"?>
<svg xmlns="http://www.w3.org/2000/svg" id="Layer_1" data-name="Layer 1" viewBox="0 0 24 24" width="512" height="512"><path d="M3.771,13.38c-.198,.239-.483,.363-.771,.363-.224,0-.45-.075-.636-.229-1.502-1.24-2.363-3.068-2.363-5.015,0-.602,.083-1.198,.245-1.772,.15-.531,.704-.844,1.234-.689,.532,.15,.84,.702,.69,1.234-.112,.396-.169,.81-.169,1.228,0,1.348,.597,2.613,1.637,3.472,.426,.352,.486,.982,.134,1.408Zm11.229,6.62h-2.5c-2.481,0-4.5-2.019-4.5-4.5,0-.721,.165-1.408,.49-2.045,.251-.492,.056-1.094-.436-1.346-.491-.252-1.094-.056-1.346,.436-.464,.908-.709,1.93-.709,2.955,0,3.584,2.916,6.5,6.5,6.5h2.5c.553,0,1-.447,1-1s-.447-1-1-1Zm8.707,2.293c.391,.391,.391,1.023,0,1.414-.195,.195-.451,.293-.707,.293s-.512-.098-.707-.293L.293,1.707C-.098,1.316-.098,.684,.293,.293S1.316-.098,1.707,.293L3.939,2.525c.804-.344,1.681-.525,2.561-.525h5c3.584,0,6.5,2.916,6.5,6.5,0,2.134-1.056,4.116-2.766,5.32l5.141,5.141c1.026-.851,1.625-2.111,1.625-3.461s-.597-2.613-1.637-3.472c-.426-.352-.486-.982-.135-1.408,.352-.425,.98-.486,1.408-.135,1.502,1.24,2.363,3.068,2.363,5.015,0,1.889-.811,3.654-2.206,4.88l1.913,1.913ZM5.52,4.106l5.154,5.154c.59-.173,1.202-.26,1.826-.26,.553,0,1,.447,1,1s-.447,1-1,1c-.028,0-.057,0-.085,0l1.374,1.374c1.357-.803,2.211-2.277,2.211-3.875,0-2.481-2.019-4.5-4.5-4.5H6.5c-.335,0-.662,.036-.98,.106Z"/></svg>
