<?xml version="1.0" encoding="UTF-8"?>
<svg xmlns="http://www.w3.org/2000/svg" id="Layer_1" data-name="Layer 1" viewBox="0 0 24 24" width="512" height="512"><path d="M11.3,7.93c-.95-.95-2.43-1.18-4.2-.65-1.47,.44-3.01,1.39-4.22,2.61-1.22,1.22-2.17,2.75-2.61,4.22-.53,1.76-.3,3.25,.65,4.2,3.64,3.64,9.4,5.1,12.51,5.65,.18,.03,.35,.05,.53,.05,.8,0,1.57-.31,2.15-.89,.7-.7,1.01-1.7,.84-2.67-.55-3.11-2.01-8.87-5.65-12.51Zm-5.8,11.3c.51-1.1,1.51-2.43,2.9-3.81,1.39-1.39,2.71-2.39,3.81-2.9,.47,.84,.87,1.72,1.21,2.59-1.14,.71-2.2,1.66-2.93,2.39-.73,.73-1.69,1.79-2.39,2.93-.87-.34-1.75-.74-2.59-1.2Zm-3.32-4.54c.35-1.16,1.12-2.4,2.11-3.38,.99-.99,2.22-1.76,3.38-2.11,.43-.13,.82-.19,1.16-.19,.45,0,.81,.11,1.04,.34,.45,.45,.87,.95,1.25,1.47-1.56,.78-3.07,2.11-4.15,3.19-1.08,1.08-2.4,2.59-3.19,4.15-.52-.38-1.02-.8-1.47-1.25-.4-.4-.45-1.2-.15-2.2Zm12.5,7.01c-.24,.24-.58,.35-.91,.29-1.01-.18-2.32-.46-3.73-.89,.47-.69,1.1-1.43,1.86-2.19,.76-.76,1.5-1.39,2.19-1.86,.43,1.41,.71,2.72,.89,3.73,.06,.34-.04,.67-.29,.91ZM24,4.63c0,4.52-2.28,8.97-4.2,11.92-.19,.29-.51,.46-.84,.46-.19,0-.38-.05-.54-.16-.46-.3-.59-.92-.29-1.38,.43-.66,.88-1.41,1.32-2.22-.46-.09-.97-.15-1.52-.19-.55-.04-.96-.52-.92-1.07s.53-.96,1.07-.93c.85,.06,1.61,.17,2.29,.33,.39-.87,.74-1.79,1.01-2.73-1.17-.43-2.86-.66-4.88-.66-.48,0-.96,.01-1.44,.04-.57,.03-1.03-.38-1.06-.94s.38-1.03,.94-1.06c.51-.03,1.04-.05,1.56-.05,1.57,0,3.63,.13,5.33,.7,.11-.69,.17-1.38,.17-2.07,0-1.19-2.45-2.63-5.5-2.63-2.76,0-5.09,1.22-5.45,2.31-.17,.52-.74,.81-1.26,.64-.52-.17-.81-.74-.64-1.26,.79-2.4,4.37-3.69,7.35-3.69,3.61,0,7.5,1.77,7.5,4.63Z"/></svg>
