<?xml version="1.0" encoding="UTF-8"?>
<svg xmlns="http://www.w3.org/2000/svg" id="Layer_1" data-name="Layer 1" viewBox="0 0 24 24" width="512" height="512"><path d="M22.824,17.179L6.821,1.177C5.656,.012,3.986-.322,2.467,.311,.945,.94,0,2.354,0,4.002v14.991c0,2.761,2.246,5.007,5.007,5.007h14.991c1.646,0,3.061-.945,3.691-2.467s.298-3.189-.866-4.354Zm-.981,3.59c-.32,.771-1.009,1.231-1.844,1.231H5.007c-1.658,0-3.007-1.349-3.007-3.007V4.002c0-.835,.46-1.524,1.232-1.844,.261-.108,.526-.161,.787-.161,.509,0,.998,.203,1.388,.594l1.611,1.611-1.908,1.908c-.391,.391-.391,1.023,0,1.414,.195,.195,.451,.293,.707,.293s.512-.098,.707-.293l1.908-1.908,1.466,1.466-1.908,1.908c-.391,.391-.391,1.023,0,1.414,.195,.195,.451,.293,.707,.293s.512-.098,.707-.293l1.908-1.908,1.415,1.414-1.908,1.908c-.391,.391-.391,1.023,0,1.414,.195,.195,.451,.293,.707,.293s.512-.098,.707-.293l1.908-1.908,1.414,1.414-1.908,1.908c-.391,.391-.391,1.023,0,1.414,.195,.195,.451,.293,.707,.293s.512-.098,.707-.293l1.908-1.908,1.414,1.414-1.908,1.908c-.391,.391-.391,1.023,0,1.414,.195,.195,.451,.293,.707,.293s.512-.098,.707-.293l1.908-1.908,1.611,1.611c.59,.591,.752,1.404,.433,2.176Zm-11.135-4.476c.286,.286,.372,.716,.217,1.09s-.52,.617-.924,.617h-3c-.552,0-1-.447-1-1v-3c0-.404,.244-.77,.617-.924,.374-.156,.804-.069,1.09,.217l3,3Z"/></svg>
