<?xml version="1.0" encoding="UTF-8"?>
<svg xmlns="http://www.w3.org/2000/svg" id="Layer_1" data-name="Layer 1" viewBox="0 0 24 24" width="512" height="512"><path d="M22,13h-1c-1.139,0-2.223-.239-3.204-.67,1.97-1.828,3.204-4.438,3.204-7.33,0-2.757-2.243-5-5-5s-5,2.243-5,5c0,2.893,1.234,5.502,3.204,7.33-.981,.431-2.065,.67-3.204,.67-4.411,0-8-3.589-8-8,0-.553-.447-1-1-1s-1,.447-1,1V23c0,.553,.447,1,1,1s1-.447,1-1V10.993c.569,.758,1.243,1.432,2,2.002v10.005c0,.553,.447,1,1,1s1-.447,1-1V14.164c.635,.278,1.304,.493,2,.635v8.201c0,.553,.447,1,1,1s1-.447,1-1V15c.685,0,1.354-.069,2-.201v8.201c0,.553,.447,1,1,1s1-.447,1-1V14.165c.344-.151,.678-.32,1-.507,.322,.187,.656,.356,1,.507v8.835c0,.553,.447,1,1,1s1-.447,1-1V14.799c.646,.132,1.315,.201,2,.201v8c0,.553,.447,1,1,1s1-.447,1-1V14c0-.553-.447-1-1-1Zm-6-1.759c-1.828-1.468-3-3.721-3-6.241,0-1.654,1.346-3,3-3s3,1.346,3,3c0,2.521-1.172,4.773-3,6.241Z"/></svg>
