<?xml version="1.0" encoding="UTF-8"?>
<svg xmlns="http://www.w3.org/2000/svg" id="Layer_1" data-name="Layer 1" viewBox="0 0 24 24" width="512" height="512"><path d="M12,0C5.38,0,0,5.38,0,12s5.38,12,12,12,12-5.38,12-12S18.62,0,12,0Zm10,12c0,2.4-.85,4.6-2.26,6.32l-.86-.86c.07-.14,.13-.29,.13-.46,0-1.31-.85-2.41-2.01-2.82,0-.06,.01-.12,.01-.18,0-.3-.02-.64-.07-1h1.07c.55,0,1-.45,1-1s-.45-1-1-1h-1.41c-.08-.35-.16-.7-.24-1.04,1.49-.17,2.65-1.43,2.65-2.96,0-.55-.45-1-1-1s-1,.45-1,1-.45,1-1,1h-.2c-.11-.36-.2-.62-.23-.69-.61-1.4-2-2.31-3.52-2.31s-2.82,.85-3.46,2.18l-2.92-2.92c1.72-1.41,3.93-2.26,6.32-2.26,5.51,0,10,4.49,10,10Zm-7.02,1.57l-4.78-4.78c.07-.35,.13-.61,.15-.68,.29-.67,.96-1.11,1.69-1.11s1.4,.43,1.69,1.1c.13,.33,1.1,3.54,1.25,5.47Zm-12.98-1.57c0-2.4,.85-4.6,2.26-6.32l14.06,14.06c-1.72,1.41-3.93,2.26-6.32,2.26-5.51,0-10-4.49-10-10Zm11.25,6.84c-.41,.11-.83,.16-1.25,.16-.38,0-.77-.04-1.16-.13-1.47-.33-2.66-1.38-3.31-2.74-.31,.17-.53,.49-.53,.87,0,.55-.45,1-1,1s-1-.45-1-1c0-1.31,.85-2.42,2.03-2.82,0-.12-.03-.24-.03-.36v-.42c0-.22-.18-.4-.4-.4h-.6c-.55,0-1-.45-1-1s.45-1,1-1h.6c1.32,0,2.4,1.08,2.4,2.4v.42c0,1.5,.96,2.8,2.28,3.1,.5,.11,.99,.11,1.47-.01,.53-.14,1.08,.18,1.22,.72,.14,.54-.18,1.08-.72,1.22Z"/></svg>
