<?xml version="1.0" encoding="UTF-8"?>
<svg xmlns="http://www.w3.org/2000/svg" id="Layer_1" data-name="Layer 1" viewBox="0 0 24 24" width="512" height="512"><path d="M9,7.5c0-.83,.67-1.5,1.5-1.5s1.5,.67,1.5,1.5-.67,1.5-1.5,1.5-1.5-.67-1.5-1.5Zm15-.5v6c0,2.76-2.24,5-5,5H10c-2.76,0-5-2.24-5-5V7c0-2.76,2.24-5,5-5h9c2.76,0,5,2.24,5,5ZM7,13c0,.77,.29,1.47,.77,2.01l5.24-5.24c.98-.98,2.69-.98,3.67,0l1.04,1.04c.23,.23,.62,.23,.85,0l3.43-3.43v-.38c0-1.65-1.35-3-3-3H10c-1.65,0-3,1.35-3,3v6Zm15,0v-2.79l-2.02,2.02c-.98,.98-2.69,.98-3.67,0l-1.04-1.04c-.23-.23-.61-.23-.85,0l-4.79,4.79c.12,.02,.24,.02,.37,.02h9c1.65,0,3-1.35,3-3Zm-5,7H5c-1.65,0-3-1.35-3-3v-6c0-.74,.27-1.45,.77-2,.37-.41,.33-1.04-.08-1.41-.41-.37-1.04-.33-1.41,.08-.82,.92-1.28,2.1-1.28,3.34v6c0,2.76,2.24,5,5,5h12c.55,0,1-.45,1-1s-.45-1-1-1Z"/></svg>
