<?xml version="1.0" encoding="UTF-8"?>
<svg xmlns="http://www.w3.org/2000/svg" id="Layer_1" data-name="Layer 1" viewBox="0 0 24 24" width="512" height="512"><path d="M8.5,24c-2.27,0-4.404-.884-6.011-2.489C-3.854,14.954,3.139,4.91,9.141,1.4c.771-.495,1.751-.531,2.556-.092,.804,.438,1.304,1.28,1.304,2.196v.729c.443-.273,.913-.568,1.395-.87,2.076-1.301,4.224-2.646,5.516-3.152h0c1.123-.441,2.351-.182,3.206,.673,.855,.855,1.113,2.084,.673,3.206-.506,1.292-1.852,3.438-3.152,5.516-.302,.481-.597,.951-.87,1.395h.729c.916,0,1.758,.5,2.196,1.304,.439,.806,.404,1.784-.093,2.556-2.841,4.419-8.036,9.141-14.099,9.141ZM10.492,3c-.081,0-.174,.021-.27,.082C5.174,6.134-1.308,14.396,3.903,20.097c5.703,5.21,13.96-1.269,17.014-6.319,.146-.229,.062-.437,.02-.516s-.172-.262-.441-.262h-2.495c-.745,.023-1.257-.862-.868-1.497,.478-.834,1.125-1.866,1.811-2.96,1.193-1.905,2.547-4.064,2.984-5.183,.22-.559-.116-.954-.225-1.062-.108-.107-.505-.444-1.062-.226h0c-1.118,.438-3.277,1.792-5.183,2.985-1.094,.686-2.126,1.333-2.96,1.811-.311,.176-.69,.175-.999-.003-.309-.179-.498-.509-.498-.865V3.505c0-.269-.184-.398-.262-.441-.046-.024-.136-.063-.246-.063Zm-1.492,16c-5.275-.138-5.274-7.863,0-8,5.275,.138,5.273,7.863,0,8Zm0-6c-2.628,.047-2.628,3.953,0,4,2.628-.047,2.628-3.953,0-4Z"/></svg>
