<?xml version="1.0" encoding="UTF-8"?>
<svg xmlns="http://www.w3.org/2000/svg" id="Layer_1" data-name="Layer 1" viewBox="0 0 24 24" width="512" height="512"><path d="M8,5c0-1.654,1.346-3,3-3V1c0-.553,.447-1,1-1s1,.447,1,1v1h.268c1.067,0,2.063,.574,2.598,1.499,.277,.479,.113,1.09-.364,1.366-.48,.277-1.091,.113-1.366-.364-.179-.31-.511-.501-.867-.501h-2.268c-.552,0-1,.448-1,1,0,.379,.271,.698,.645,.761l3.04,.506c1.342,.224,2.315,1.374,2.315,2.733,0,1.654-1.346,3-3,3v1c0,.553-.447,1-1,1s-1-.447-1-1v-1h-.268c-1.067,0-2.063-.574-2.598-1.499-.277-.479-.113-1.09,.364-1.366,.479-.279,1.091-.114,1.366,.364,.179,.31,.511,.501,.867,.501h2.268c.552,0,1-.448,1-1,0-.379-.271-.698-.645-.761l-3.04-.506c-1.342-.224-2.315-1.374-2.315-2.733Zm11.102-2h-.102c-.553,0-1,.447-1,1s.447,1,1,1h.102c1.047,0,1.898,.852,1.898,1.898,0,.465-.17,.912-.479,1.261l-7.268,8.177c-.163,.183-.253,.419-.253,.664v4l-2-1.5v-2.5c0-.245-.09-.481-.253-.664L3.479,8.158c-.31-.348-.479-.795-.479-1.26,0-1.047,.852-1.898,1.898-1.898h.102c.553,0,1-.447,1-1s-.447-1-1-1h-.102c-2.149,0-3.898,1.749-3.898,3.898,0,.955,.35,1.875,.985,2.589l7.015,7.893v2.62c0,.314,.148,.611,.4,.8l4,3c.176,.133,.388,.2,.6,.2,.152,0,.306-.035,.447-.105,.339-.17,.553-.516,.553-.895v-5.62l7.015-7.892c.636-.715,.985-1.635,.985-2.59,0-2.149-1.749-3.898-3.898-3.898Z"/></svg>
