<?xml version="1.0" encoding="UTF-8"?>
<svg xmlns="http://www.w3.org/2000/svg" id="Layer_1" data-name="Layer 1" viewBox="0 0 24 24" width="512" height="512"><path d="M12,0C5.38,0,0,5.38,0,12s5.38,12,12,12,12-5.38,12-12S18.62,0,12,0ZM4.24,5.7c.53-.65,1.13-1.23,1.8-1.72,3.45,.66,9.72,2.27,15.74,5.97,.14,.66,.21,1.35,.21,2.06,0,.15,0,.3-.01,.45C15,7.76,7.25,6.17,4.24,5.7Zm-2.22,5.67c.09-1.37,.45-2.66,1.03-3.82,.62,.08,2.26,.32,4.46,.86-2.54,1.06-4.35,2.16-5.48,2.96ZM20.65,6.98c-4.36-2.33-8.66-3.69-11.84-4.46,1-.34,2.08-.52,3.2-.52,3.69,0,6.91,2,8.65,4.98Zm-8.65,15.02c-4.91,0-9-3.55-9.84-8.22,.58-.48,2.24-1.75,5.06-3.05-.14,.23-.22,.49-.22,.78,0,.83,.67,1.5,1.5,1.5s1.5-.67,1.5-1.5c0-.72-.51-1.32-1.18-1.47,.6-.24,1.24-.48,1.92-.71,1.12,.36,2.32,.79,3.54,1.3-.18,.25-.28,.55-.28,.88,0,.83,.67,1.5,1.5,1.5,.71,0,1.31-.49,1.46-1.16,1.57,.79,3.16,1.71,4.68,2.8-1.16,4.24-5.05,7.36-9.65,7.36Zm4.87-4.51c-.18,.33-.52,.51-.87,.51-.16,0-.33-.04-.48-.12-.02,0-1.61-.88-3.51-.88s-3.5,.87-3.52,.88c-.48,.26-1.09,.09-1.36-.39-.27-.48-.1-1.09,.39-1.36,.08-.05,2.05-1.13,4.49-1.13s4.41,1.08,4.49,1.13c.48,.27,.66,.88,.39,1.36Z"/></svg>
