<?xml version="1.0" encoding="UTF-8"?>
<svg xmlns="http://www.w3.org/2000/svg" id="Layer_1" data-name="Layer 1" viewBox="0 0 24 24" width="512" height="512"><path d="M20.172,0H7.828c-2.11,0-3.828,1.717-3.828,3.829,0,1.022,.398,1.983,1.121,2.707l5.879,5.878v3.586c0,.315,.148,.611,.4,.8l4,3c.176,.132,.388,.2,.6,.2,.152,0,.306-.035,.447-.105,.339-.169,.553-.516,.553-.895v-6.586l5.879-5.879c.723-.723,1.121-1.685,1.121-2.707,0-2.111-1.718-3.829-3.828-3.829Zm1.293,5.122l-6.172,6.171c-.188,.188-.293,.442-.293,.707v5l-2-1.5v-3.5c0-.265-.105-.52-.293-.707L6.535,5.122c-.345-.346-.535-.805-.535-1.293,0-1.008,.82-1.829,1.828-1.829h12.344c1.008,0,1.828,.82,1.828,1.829,0,.488-.19,.948-.535,1.293Zm-8.465,15.878v2c0,.379-.214,.725-.553,.895-.142,.071-.295,.105-.447,.105-.212,0-.424-.068-.6-.2l-4-3c-.252-.188-.4-.485-.4-.8v-3.586L1.121,10.536c-.723-.724-1.121-1.685-1.121-2.707,0-1.126,.493-2.19,1.353-2.92,.423-.358,1.053-.306,1.41,.115,.357,.421,.306,1.052-.115,1.41-.411,.349-.647,.858-.647,1.396,0,.488,.19,.948,.535,1.293l6.172,6.171c.188,.188,.293,.442,.293,.707v3.5l2,1.5c0-.552,.447-1,1-1s1,.448,1,1Z"/></svg>
