<?xml version="1.0" encoding="UTF-8"?>
<svg xmlns="http://www.w3.org/2000/svg" id="Layer_1" data-name="Layer 1" viewBox="0 0 24 24" width="512" height="512"><path d="M23.73,8.41c-.38-.4-1.01-.42-1.41-.04l-1.71,1.62h-7.6v-2c0-.55-.45-1-1-1s-1,.45-1,1v5c0,.55-.45,1-1,1s-1-.45-1-1V7.87c0-1.82,1.23-3.42,3-3.87l3.47-.9c.52-.13,.99-.4,1.37-.78l.61-.61c.39-.39,.39-1.02,0-1.41-.39-.39-1.02-.39-1.41,0l-.61,.61c-.13,.13-.29,.22-.46,.26l-3.47,.9c-2.38,.61-4.12,2.61-4.44,4.99-2.38,.33-4.38,2.06-4.99,4.44l-.9,3.47c-.04,.17-.14,.33-.26,.46l-.61,.61c-.39,.39-.39,1.02,0,1.41,.2,.2,.45,.29,.71,.29s.51-.1,.71-.29l.62-.61c.38-.38,.65-.85,.78-1.37l.9-3.47c.38-1.48,1.56-2.58,3-2.9v3.9c0,1.65,1.35,3,3,3s3-1.35,3-3v-1h6.42l-1.44,5.1c-.48,1.71-2.06,2.91-3.83,2.92l-3.33,.02c-.79,0-1.57,.33-2.12,.9l-1.34,1.37c-.39,.39-.38,1.03,.01,1.41,.19,.19,.45,.29,.7,.29s.52-.1,.71-.3l1.34-1.37c.19-.19,.44-.3,.71-.3l3.33-.02c2.66-.01,5.02-1.81,5.75-4.37,0,0,1.73-5.88,1.78-5.92l2-1.9c.4-.38,.42-1.01,.04-1.41Z"/></svg>
