<?xml version="1.0" encoding="UTF-8"?>
<svg xmlns="http://www.w3.org/2000/svg" id="Layer_1" data-name="Layer 1" viewBox="0 0 24 24" width="512" height="512"><path d="M12,20c5.514,0,10-4.486,10-10S17.514,0,12,0,2,4.486,2,10s4.486,10,10,10Zm0-18c4.411,0,8,3.589,8,8s-3.589,8-8,8S4,14.411,4,10,7.589,2,12,2Zm12,18.5c0,1.93-1.57,3.5-3.5,3.5H3.5c-1.93,0-3.5-1.57-3.5-3.5,0-1.094,.522-2.139,1.396-2.797,.442-.332,1.069-.242,1.4,.197,.332,.441,.244,1.068-.197,1.4-.381,.286-.599,.724-.599,1.199,0,.827,.673,1.5,1.5,1.5H20.5c.827,0,1.5-.673,1.5-1.5,0-.476-.219-.913-.6-1.2-.441-.333-.529-.96-.196-1.401,.331-.439,.959-.529,1.4-.196,.887,.67,1.396,1.689,1.396,2.798ZM14,12c0-.379-.271-.698-.644-.761l-3.041-.506c-1.342-.224-2.315-1.374-2.315-2.733,0-1.654,1.346-3,3-3v-1c0-.553,.448-1,1-1s1,.447,1,1v1h.268c1.067,0,2.063,.574,2.598,1.499,.276,.479,.113,1.09-.365,1.366-.477,.278-1.089,.113-1.366-.364-.179-.31-.511-.501-.867-.501h-2.268c-.551,0-1,.448-1,1,0,.379,.271,.698,.644,.761l3.041,.506c1.342,.224,2.315,1.374,2.315,2.733,0,1.654-1.346,3-3,3v1c0,.553-.448,1-1,1s-1-.447-1-1v-1h-.268c-1.067,0-2.063-.574-2.598-1.499-.276-.479-.113-1.09,.365-1.366,.476-.278,1.089-.113,1.366,.364,.179,.31,.511,.501,.867,.501h2.268c.551,0,1-.448,1-1Z"/></svg>
