<?xml version="1.0" encoding="UTF-8"?>
<svg xmlns="http://www.w3.org/2000/svg" id="Layer_1" data-name="Layer 1" viewBox="0 0 24 24" width="512" height="512"><path d="M20,14H4c-2.21,0-4,1.79-4,4v2c0,2.21,1.79,4,4,4H20c2.21,0,4-1.79,4-4v-2c0-2.21-1.79-4-4-4Zm2,6c0,1.1-.9,2-2,2H4c-1.1,0-2-.9-2-2v-2c0-1.1,.9-2,2-2H20c1.1,0,2,.9,2,2v2ZM4,10h6c2.21,0,4-1.79,4-4v-1h3c1.1,0,2,.9,2,2v1h-1.45c-.69,0-1.04,.83-.55,1.32l2.45,2.45c.3,.3,.79,.3,1.1,0l2.45-2.45c.49-.49,.14-1.32-.55-1.32h-1.45v-1c0-2.21-1.79-4-4-4h-3.13c-.45-1.72-2.01-3-3.87-3H4C1.79,0,0,1.79,0,4v2c0,2.21,1.79,4,4,4Zm6-2h-1.59l3.59-3.59v1.59c0,1.1-.9,2-2,2Zm1.19-5.61l-5.61,5.61h-1.59c-.45,0-.86-.15-1.19-.39L8.41,2h1.59c.45,0,.86,.15,1.19,.39Zm-7.19-.39h1.59l-3.59,3.59v-1.59c0-1.1,.9-2,2-2Z"/></svg>
