<?xml version="1.0" encoding="UTF-8"?>
<svg xmlns="http://www.w3.org/2000/svg" id="Layer_1" data-name="Layer 1" viewBox="0 0 24 24" width="512" height="512"><path d="M23.707,22.293l-1.536-1.536c.538-.813,.829-1.771,.829-2.757v-5.69c0-3.433-1.501-6.648-4.119-8.822C16.373,1.403,13.204,.594,9.962,1.195c-1.838,.343-3.547,1.154-4.991,2.362L1.707,.293C1.316-.098,.684-.098,.293,.293S-.098,1.316,.293,1.707L22.293,23.707c.195,.195,.451,.293,.707,.293s.512-.098,.707-.293c.391-.391,.391-1.023,0-1.414ZM10.329,3.162c2.648-.497,5.232,.167,7.275,1.863,2.127,1.767,3.396,4.489,3.396,7.284v5.69c0,.451-.102,.893-.293,1.293L6.393,4.978c1.151-.925,2.496-1.548,3.936-1.816Zm6.671,18.838c0,.553-.448,1-1,1h-3.015c-3.781,0-7.234-1.509-9.474-4.14C1.474,16.468,.635,13.396,1.149,10.215c.125-.775,.337-1.54,.631-2.272,.204-.513,.787-.764,1.3-.557,.513,.206,.762,.788,.557,1.301-.238,.596-.411,1.217-.513,1.847-.419,2.595,.259,5.092,1.91,7.031,1.859,2.184,4.757,3.436,7.951,3.436h3.015c.552,0,1,.447,1,1Z"/></svg>
