<?xml version="1.0" encoding="UTF-8"?>
<svg xmlns="http://www.w3.org/2000/svg" id="Layer_1" data-name="Layer 1" viewBox="0 0 24 24" width="512" height="512"><path d="M11.71,13.71L1.71,23.71c-.2,.2-.45,.29-.71,.29s-.51-.1-.71-.29c-.39-.39-.39-1.02,0-1.41L10.29,12.29c.39-.39,1.02-.39,1.41,0s.39,1.02,0,1.41ZM23.71,.29c-.39-.39-1.02-.39-1.41,0l-3.65,3.65c-1.43-1.57-3.41-2.64-5.61-2.88-2.56-.29-5.13,.53-7.03,2.23-1.91,1.71-3,4.15-3,6.71,0,.55,.45,1,1,1s1-.45,1-1c0-1.99,.85-3.89,2.34-5.22,1.51-1.35,3.45-1.96,5.48-1.73,3.17,.36,5.74,2.91,6.13,6.06,.25,2.05-.36,4.01-1.71,5.54-.75,.85-1.24,2.16-1.24,3.36,0,2.21-1.79,4-4,4-.55,0-1,.45-1,1s.45,1,1,1c3.31,0,6-2.69,6-6,0-.7,.31-1.55,.73-2.03,1.71-1.93,2.52-4.52,2.2-7.11-.14-1.18-.53-2.29-1.09-3.29l3.87-3.87c.39-.39,.39-1.02,0-1.41ZM14.34,13.4c.19,.17,.43,.25,.66,.25,.28,0,.55-.11,.75-.34,.81-.91,1.25-2.09,1.25-3.31,0-2.76-2.24-5-5-5s-5,2.24-5,5c0,.55,.45,1,1,1s1-.45,1-1c0-1.65,1.35-3,3-3s3,1.35,3,3c0,.73-.27,1.44-.75,1.98-.37,.41-.33,1.05,.09,1.41Z"/></svg>
