<?xml version="1.0" encoding="UTF-8"?>
<svg xmlns="http://www.w3.org/2000/svg" id="Layer_1" data-name="Layer 1" viewBox="0 0 24 24" width="512" height="512"><path d="M12,0C5.383,0,0,5.383,0,12s5.383,12,12,12,12-5.383,12-12S18.617,0,12,0Zm0,22c-5.514,0-10-4.486-10-10S6.486,2,12,2s10,4.486,10,10-4.486,10-10,10Zm4-8c0,2.206-1.794,4-4,4h-3c-.552,0-1-.447-1-1s.448-1,1-1h3c1.103,0,2-.897,2-2s-.897-2-2-2h-2c-.552,0-1-.447-1-1s.448-1,1-1h2c.551,0,1-.448,1-1s-.449-1-1-1h-3c-.552,0-1-.447-1-1s.448-1,1-1h3c1.654,0,3,1.346,3,3,0,.68-.236,1.301-.619,1.805,.977,.73,1.619,1.885,1.619,3.195Z"/></svg>
