<?xml version="1.0" encoding="UTF-8"?>
<svg xmlns="http://www.w3.org/2000/svg" id="Layer_1" data-name="Layer 1" viewBox="0 0 24 24" width="512" height="512"><path d="M15.707,10.707l-4.293,4.293h3.586c.553,0,1,.448,1,1s-.447,1-1,1h-6c-.404,0-.769-.244-.924-.617-.155-.374-.069-.804,.217-1.09l4.293-4.293h-3.586c-.552,0-1-.448-1-1s.448-1,1-1h6c.404,0,.77,.244,.924,.617,.155,.374,.069,.804-.217,1.09Zm7.293,2.293c0,2.738-1.006,5.246-2.668,7.173,.846,.448,1.668,1.317,1.668,2.827,0,.552-.447,1-1,1s-1-.448-1-1c0-1-.858-1.194-1.122-1.229-.065-.009-.128-.024-.189-.045-1.855,1.425-4.175,2.274-6.689,2.274s-4.833-.848-6.687-2.272c-.065,.021-.132,.036-.203,.044-.252,.035-1.11,.229-1.11,1.229,0,.552-.448,1-1,1s-1-.448-1-1c0-1.51,.821-2.378,1.668-2.827-1.662-1.927-2.668-4.435-2.668-7.173C1,7.272,5.401,2.553,11,2.046V1c0-.552,.448-1,1-1s1,.448,1,1v1.046c5.599,.507,10,5.226,10,10.954Zm-11,9c4.963,0,9-4.038,9-9S16.963,4,12,4,3,8.038,3,13s4.038,9,9,9ZM19.215,0c-.553,0-1,.448-1,1s.447,1,1,1c1.809,0,2.785,1.288,2.785,2.5,0,.552,.447,1,1,1s1-.448,1-1c0-2.523-2.102-4.5-4.785-4.5ZM2,4.5c0-1.212,.976-2.5,2.785-2.5,.552,0,1-.448,1-1s-.448-1-1-1C2.102,0,0,1.977,0,4.5c0,.552,.448,1,1,1s1-.448,1-1Z"/></svg>
