<?xml version="1.0" encoding="UTF-8"?>
<svg xmlns="http://www.w3.org/2000/svg" id="Layer_1" data-name="Layer 1" viewBox="0 0 24 24" width="512" height="512"><path d="M2.42,6.49c-.45-.32-.56-.94-.24-1.39,.8-1.13,1.78-2.11,2.91-2.91,.45-.32,1.08-.21,1.39,.24,.32,.45,.21,1.08-.24,1.39-.94,.67-1.76,1.48-2.43,2.43-.19,.28-.5,.42-.82,.42-.2,0-.4-.06-.58-.18Zm1.4,11.26c-.32-.45-.94-.56-1.39-.24-.45,.32-.56,.94-.24,1.39,.8,1.13,1.78,2.11,2.91,2.91,.17,.12,.38,.18,.58,.18,.31,0,.62-.15,.82-.42,.32-.45,.21-1.08-.24-1.39-.95-.67-1.76-1.48-2.43-2.43Zm-1.82-5.75c0-.61,.05-1.22,.16-1.81,.1-.54-.26-1.06-.8-1.16-.54-.1-1.06,.26-1.16,.8-.13,.71-.2,1.44-.2,2.17s.07,1.46,.2,2.17c.09,.48,.51,.82,.98,.82,.06,0,.12,0,.18-.02,.54-.1,.9-.62,.8-1.16-.11-.59-.16-1.2-.16-1.81Zm18.18,5.75c-.67,.95-1.48,1.76-2.43,2.43-.45,.32-.56,.94-.24,1.39,.19,.28,.5,.42,.82,.42,.2,0,.4-.06,.58-.18,1.13-.8,2.11-1.78,2.91-2.91,.32-.45,.21-1.08-.24-1.39-.45-.32-1.08-.21-1.39,.24Zm-6.37,4.09c-.59,.11-1.2,.16-1.81,.16s-1.22-.05-1.81-.16c-.54-.1-1.06,.26-1.16,.8-.1,.54,.26,1.06,.8,1.16,.71,.13,1.44,.2,2.17,.2s1.46-.07,2.17-.2c.54-.1,.9-.62,.8-1.16-.1-.54-.62-.91-1.16-.8ZM14.17,.2c-.71-.13-1.44-.2-2.17-.2s-1.46,.07-2.17,.2c-.54,.1-.9,.62-.8,1.16,.09,.48,.51,.82,.98,.82,.06,0,.12,0,.18-.02,.59-.11,1.2-.16,1.81-.16s1.22,.05,1.81,.16c.06,.01,.12,.02,.18,.02,.47,0,.89-.34,.98-.82,.1-.54-.26-1.06-.8-1.16Zm6.01,6.05c.19,.28,.5,.42,.82,.42,.2,0,.4-.06,.58-.18,.45-.32,.56-.94,.24-1.39-.8-1.13-1.78-2.11-2.91-2.91-.45-.32-1.08-.21-1.39,.24-.32,.45-.21,1.08,.24,1.39,.95,.67,1.76,1.48,2.43,2.43Zm3.62,3.58c-.1-.54-.62-.91-1.16-.8-.54,.1-.9,.62-.8,1.16,.11,.59,.16,1.2,.16,1.81s-.05,1.22-.16,1.81c-.1,.54,.26,1.06,.8,1.16,.06,.01,.12,.02,.18,.02,.47,0,.89-.34,.98-.82,.13-.71,.2-1.44,.2-2.17s-.07-1.46-.2-2.17Z"/></svg>
