<?xml version="1.0" encoding="UTF-8"?>
<svg xmlns="http://www.w3.org/2000/svg" id="Layer_1" data-name="Layer 1" viewBox="0 0 24 24" width="512" height="512"><path d="M4,15v7c0,.552-.448,1-1,1s-1-.448-1-1v-7c0-.552,.448-1,1-1s1,.448,1,1Zm14-1c-.552,0-1,.448-1,1v7c0,.552,.448,1,1,1s1-.448,1-1v-7c0-.552-.448-1-1-1Zm-8,0c-.552,0-1,.448-1,1v7c0,.552,.448,1,1,1s1-.448,1-1v-7c0-.552-.448-1-1-1Zm-3.5,0c-.829,0-1.5,.671-1.5,1.5v6c0,.829,.671,1.5,1.5,1.5s1.5-.671,1.5-1.5v-6c0-.829-.671-1.5-1.5-1.5Zm8,0c-.829,0-1.5,.671-1.5,1.5v6c0,.829,.671,1.5,1.5,1.5s1.5-.671,1.5-1.5v-6c0-.829-.671-1.5-1.5-1.5Zm6.5,0c-.552,0-1,.448-1,1v7c0,.552,.448,1,1,1s1-.448,1-1v-7c0-.552-.448-1-1-1Zm2-4h-1V2c0-.552-.448-1-1-1s-1,.448-1,1V10h-1V2c0-.552-.448-1-1-1s-1,.448-1,1V10h-1V2.5c0-.829-.671-1.5-1.5-1.5s-1.5,.671-1.5,1.5v7.5h-2V2c0-.552-.448-1-1-1s-1,.448-1,1V10h-1V2.5c0-.829-.671-1.5-1.5-1.5s-1.5,.671-1.5,1.5v7.5h-1V2c0-.552-.448-1-1-1s-1,.448-1,1V10H1c-.552,0-1,.448-1,1s.448,1,1,1H23c.552,0,1-.448,1-1s-.448-1-1-1Z"/></svg>
