<?xml version="1.0" encoding="UTF-8"?>
<svg xmlns="http://www.w3.org/2000/svg" id="Layer_1" data-name="Layer 1" viewBox="0 0 24 24" width="512" height="512"><path d="M14,10H5c-.553,0-1,.448-1,1v8c0,.552,.447,1,1,1H14c.553,0,1-.448,1-1V11c0-.552-.447-1-1-1Zm-1,8H6v-6h7v6Zm9.88-9.007c-.691-.345-1.506-.274-2.125,.191l-1.802,1.352c-.238-2.537-2.355-4.536-4.953-4.536h-.073L9.806,1.879c-.566-.567-1.32-.879-2.121-.879H1c-.553,0-1,.448-1,1s.447,1,1,1H7.685c.263,0,.521,.107,.707,.293l2.707,2.707H5C2.243,6,0,8.243,0,11v8c0,2.757,2.243,5,5,5H14c2.598,0,4.714-1.999,4.953-4.535l1.802,1.352c.359,.27,.786,.407,1.215,.407,.31,0,.62-.071,.909-.216,.691-.346,1.121-1.041,1.121-1.814V10.807c0-.773-.43-1.468-1.12-1.814Zm-5.88,10.007c0,1.654-1.346,3-3,3H5c-1.654,0-3-1.346-3-3V11c0-1.654,1.346-3,3-3H14c1.654,0,3,1.346,3,3v8Zm4.954,.216l-2.954-2.216v-3.995l2.999-2.213v.015l-.045,8.41Z"/></svg>
