<?xml version="1.0" encoding="UTF-8"?>
<svg xmlns="http://www.w3.org/2000/svg" id="Layer_1" data-name="Layer 1" viewBox="0 0 24 24" width="512" height="512"><path d="M13,2.046V1c0-.553-.447-1-1-1s-1,.447-1,1v1.046C5.401,2.553,1,7.272,1,13c0,2.738,1.006,5.246,2.667,7.173-.846,.449-1.667,1.317-1.667,2.827,0,.553,.447,1,1,1s1-.447,1-1c0-1,.858-1.194,1.11-1.229,.07-.008,.138-.023,.202-.044,1.855,1.424,4.174,2.273,6.687,2.273s4.835-.849,6.69-2.275c.06,.02,.123,.035,.188,.044,.264,.036,1.122,.23,1.122,1.23,0,.553,.447,1,1,1s1-.447,1-1c0-1.51-.821-2.378-1.667-2.827,1.661-1.927,2.667-4.435,2.667-7.173,0-5.728-4.401-10.447-10-10.954ZM3,13c0-4.963,4.037-9,9-9s9,4.037,9,9-4.037,9-9,9S3,17.963,3,13ZM24,4.5c0,.553-.447,1-1,1s-1-.447-1-1c0-1.212-.977-2.5-2.785-2.5-.553,0-1-.447-1-1s.447-1,1-1c2.684,0,4.785,1.977,4.785,4.5ZM1,5.5c-.553,0-1-.447-1-1C0,1.977,2.102,0,4.785,0c.553,0,1,.447,1,1s-.447,1-1,1c-1.809,0-2.785,1.288-2.785,2.5,0,.553-.447,1-1,1Zm12,1.5v7c0,.553-.447,1-1,1s-1-.447-1-1V7c0-.553,.447-1,1-1s1,.447,1,1Zm.5,11.5c0,.828-.672,1.5-1.5,1.5s-1.5-.672-1.5-1.5,.672-1.5,1.5-1.5,1.5,.672,1.5,1.5Z"/></svg>
