<?xml version="1.0" encoding="UTF-8"?>
<svg xmlns="http://www.w3.org/2000/svg" id="Layer_1" data-name="Layer 1" viewBox="0 0 24 24" width="512" height="512"><path d="M12.836,.028C9.361-.205,5.961,1.066,3.509,3.521,1.057,5.977-.211,9.378,.03,12.854c.44,6.354,6.052,11.146,13.054,11.146h5.917c2.757,0,5-2.243,5-5v-6.66C24,5.861,19.096,.454,12.836,.028Zm9.164,18.972c0,1.654-1.346,3-3,3h-5.917c-6.035,0-10.686-3.904-11.059-9.284-.201-2.899,.855-5.735,2.899-7.781,1.882-1.885,4.435-2.934,7.092-2.934,.228,0,.457,.008,.685,.023,5.215,.354,9.299,4.885,9.299,10.315v6.66Z"/><path d="M15,7h-6c-1.654,0-3,1.346-3,3,0,.553,.448,1,1,1s1-.447,1-1,.449-1,1-1h2v8h-1c-.552,0-1,.447-1,1s.448,1,1,1h4c.552,0,1-.447,1-1s-.448-1-1-1h-1V9h2c.551,0,1,.448,1,1s.448,1,1,1,1-.447,1-1c0-1.654-1.346-3-3-3Z"/></svg>
