<?xml version="1.0" encoding="UTF-8"?>
<svg xmlns="http://www.w3.org/2000/svg" id="Layer_1" data-name="Layer 1" viewBox="0 0 24 24" width="512" height="512"><path d="M16,7H8c-.55,0-1,.45-1,1v8c0,.55,.45,1,1,1h8c.55,0,1-.45,1-1V8c0-.55-.45-1-1-1Zm-1,8h-6v-6h6v6Zm8-4c.55,0,1-.45,1-1s-.45-1-1-1h-1v-2h1c.55,0,1-.45,1-1s-.45-1-1-1h-1.42c-.5-1.15-1.43-2.07-2.58-2.58V1c0-.55-.45-1-1-1s-1,.45-1,1v1h-2V1c0-.55-.45-1-1-1s-1,.45-1,1v1h-2V1c0-.55-.45-1-1-1s-1,.45-1,1v1h-2V1c0-.55-.45-1-1-1s-1,.45-1,1v1.42c-1.15,.5-2.07,1.43-2.58,2.58H1c-.55,0-1,.45-1,1s.45,1,1,1h1v2H1c-.55,0-1,.45-1,1s.45,1,1,1h1v2H1c-.55,0-1,.45-1,1s.45,1,1,1h1v2H1c-.55,0-1,.45-1,1s.45,1,1,1h1.42c.5,1.15,1.43,2.07,2.58,2.58v1.42c0,.55,.45,1,1,1s1-.45,1-1v-1h2v1c0,.55,.45,1,1,1s1-.45,1-1v-1h2v1c0,.55,.45,1,1,1s1-.45,1-1v-1h2v1c0,.55,.45,1,1,1s1-.45,1-1v-1.42c1.15-.5,2.07-1.43,2.58-2.58h1.42c.55,0,1-.45,1-1s-.45-1-1-1h-1v-2h1c.55,0,1-.45,1-1s-.45-1-1-1h-1v-2h1Zm-6,9H7c-1.65,0-3-1.35-3-3V7c0-1.65,1.35-3,3-3h10c1.65,0,3,1.35,3,3v10c0,1.65-1.35,3-3,3Z"/></svg>
