<?xml version="1.0" encoding="UTF-8"?>
<svg xmlns="http://www.w3.org/2000/svg" id="Layer_1" data-name="Layer 1" viewBox="0 0 24 24" width="512" height="512"><path d="M12,2C5.271,2,0,4.855,0,8.5v7c0,3.645,5.271,6.5,12,6.5s12-2.855,12-6.5v-7c0-3.645-5.271-6.5-12-6.5ZM2,15.5v-3.36c.303,.247,.638,.482,1,.703v4.526c-.647-.6-1-1.244-1-1.868Zm1.01-2.651h0Zm3.99,6.517c-.737-.202-1.407-.446-2-.719v-4.835c.623,.239,1.292,.446,2,.617v4.936Zm4,.611c-.697-.032-1.365-.098-2-.193v-4.981c.646,.087,1.314,.146,2,.175v4.998Zm4-.193c-.635,.095-1.303,.16-2,.193v-4.998c.686-.029,1.354-.088,2-.175v4.981Zm4-1.136c-.593,.273-1.263,.516-2,.719v-4.936c.708-.171,1.377-.378,2-.617v4.835Zm1.989-5.798h0Zm1.011,2.651c0,.624-.353,1.268-1,1.868v-4.526c.362-.221,.697-.455,1-.703v3.36Zm-10-2.5c-5.893,0-10-2.372-10-4.5S6.107,4,12,4s10,2.372,10,4.5-4.107,4.5-10,4.5Z"/></svg>
