<?xml version="1.0" encoding="UTF-8"?>
<svg xmlns="http://www.w3.org/2000/svg" id="Layer_1" data-name="Layer 1" viewBox="0 0 24 24" width="512" height="512"><path d="M24,23c0,.55-.45,1-1,1H5c-.55,0-1-.45-1-1s.45-1,1-1H23c.55,0,1,.45,1,1ZM3.41,20l-1.71,1.71c-.2,.2-.45,.29-.71,.29s-.51-.1-.71-.29c-.39-.39-.39-1.02,0-1.41l1.71-1.71v-4.35c0-1.71,.73-3.34,2.01-4.48L14.17,1.1c1.77-1.54,4.46-1.44,6.12,.22l.39,.39c1.66,1.66,1.76,4.36,.22,6.13l-8.65,10.14c-1.15,1.29-2.78,2.02-4.49,2.02H3.41Zm4.35-2c.25,0,.5-.03,.75-.08l-4.43-4.43c-.05,.24-.08,.49-.08,.75v3.76h3.76Zm-2.44-6.73c-.11,.1-.2,.22-.3,.33l5.38,5.38c.12-.1,.24-.2,.35-.32L19.38,6.53c.86-.99,.81-2.49-.11-3.41l-.39-.39c-.92-.92-2.42-.98-3.41-.12L5.32,11.27Z"/></svg>
