<?xml version="1.0" encoding="UTF-8"?>
<svg xmlns="http://www.w3.org/2000/svg" id="Layer_1" data-name="Layer 1" viewBox="0 0 24 24" width="512" height="512"><path d="M19,8.99c0-.88-.39-1.71-1.06-2.29-.67-.57-1.56-.82-2.44-.67-1.22,.2-2.18,1.19-2.44,2.42l-2.68-2.68c-.55-.55-1.32-.84-2.09-.77-.78,.06-1.49,.47-1.95,1.11-.05,.07-.09,.14-.13,.21-.52-.41-1.18-.61-1.85-.55-.78,.06-1.49,.47-1.95,1.11-.41,.57-.55,1.28-.44,1.96-.52,.18-.99,.51-1.32,.98-.75,1.04-.6,2.54,.35,3.49l.29,.29c-.31,.19-.59,.44-.81,.74-.75,1.04-.6,2.54,.35,3.49l4.13,4.13c1.38,1.38,3.19,2.07,5.01,2.07s3.63-.69,5.01-2.07l1.98-1.98c1.32-1.32,2.05-3.08,2.05-4.95v-6.01Zm-2,6.01c0,1.32-.53,2.6-1.46,3.54l-1.98,1.98c-1.98,1.98-5.2,1.98-7.18,0l-4.13-4.13c-.26-.26-.32-.65-.14-.9,.16-.22,.38-.27,.49-.28,.19,0,.38,.05,.52,.19l2.1,2.1c.39,.39,1.02,.39,1.41,0s.39-1.02,0-1.41L2.42,11.86c-.26-.26-.32-.65-.14-.9,.16-.22,.38-.27,.49-.28,.19-.02,.38,.05,.52,.19l4.28,4.28c.39,.39,1.02,.39,1.41,0s.39-1.02,0-1.41l-4.8-4.8c-.26-.26-.32-.65-.14-.9,.16-.22,.38-.27,.49-.28,.19-.02,.38,.05,.52,.19l4.86,4.86c.2,.2,.45,.29,.71,.29s.51-.1,.71-.29c.39-.39,.39-1.02,0-1.41l-3.2-3.2s-.01-.01-.02-.02c-.26-.26-.32-.65-.14-.9,.16-.22,.38-.27,.49-.28,.19-.02,.38,.05,.52,.19l4.32,4.32c.29,.29,.71,.37,1.09,.22,.37-.15,.62-.52,.62-.92v-1.7c0-.54,.36-1.02,.82-1.09,.3-.05,.6,.03,.82,.22,.22,.19,.35,.47,.35,.76v6.01Zm7-6.01v6.3c0,1.66-.59,3.26-1.66,4.53l-2.51,2.96c-.45,.45-.88,.79-1.34,1.08-.16,.1-.35,.15-.52,.15-.34,0-.66-.17-.85-.47-.29-.47-.15-1.09,.33-1.38,.33-.2,.64-.45,.92-.73l2.46-2.9c.77-.9,1.19-2.05,1.19-3.23v-6.3c0-.29-.13-.57-.35-.76-.23-.19-.52-.27-.82-.22-.55,.1-1.06-.28-1.15-.83-.09-.55,.28-1.06,.83-1.15,.88-.15,1.77,.1,2.44,.67,.67,.57,1.06,1.4,1.06,2.29ZM10.29,3.71c-.39-.39-.39-1.02,0-1.41l1-1c.39-.39,1.02-.39,1.41,0s.39,1.02,0,1.41l-1,1c-.2,.2-.45,.29-.71,.29s-.51-.1-.71-.29ZM3.29,2.71c-.39-.39-.39-1.02,0-1.41s1.02-.39,1.41,0l1,1c.39,.39,.39,1.02,0,1.41-.2,.2-.45,.29-.71,.29s-.51-.1-.71-.29l-1-1Zm3.71-.71V1c0-.55,.45-1,1-1s1,.45,1,1v1c0,.55-.45,1-1,1s-1-.45-1-1Z"/></svg>
