<?xml version="1.0" encoding="UTF-8"?>
<svg xmlns="http://www.w3.org/2000/svg" id="Layer_1" data-name="Layer 1" viewBox="0 0 24 24" width="512" height="512"><path d="M2.5,2.5C2.5,1.12,3.62,0,5,0s2.5,1.12,2.5,2.5-1.12,2.5-2.5,2.5-2.5-1.12-2.5-2.5Zm7.5,7.5v3c0,1.48-.81,2.77-2,3.46v6.54c0,.55-.45,1-1,1s-1-.45-1-1v-6h-2v6c0,.55-.45,1-1,1s-1-.45-1-1v-6.54c-1.19-.69-2-1.99-2-3.46v-3c0-2.21,1.79-4,4-4h2c2.21,0,4,1.79,4,4Zm-2,0c0-1.1-.9-2-2-2h-2c-1.1,0-2,.9-2,2v3c0,1.1,.9,2,2,2h2c1.1,0,2-.9,2-2v-3Zm11-5c1.38,0,2.5-1.12,2.5-2.5s-1.12-2.5-2.5-2.5-2.5,1.12-2.5,2.5,1.12,2.5,2.5,2.5Zm5,5v3c0,1.48-.81,2.77-2,3.46v6.54c0,.55-.45,1-1,1s-1-.45-1-1v-6h-2v6c0,.55-.45,1-1,1s-1-.45-1-1v-6.54c-1.19-.69-2-1.99-2-3.46v-3c0-2.21,1.79-4,4-4h2c2.21,0,4,1.79,4,4Zm-2,0c0-1.1-.9-2-2-2h-2c-1.1,0-2,.9-2,2v3c0,1.1,.9,2,2,2h2c1.1,0,2-.9,2-2v-3Z"/></svg>
