<?xml version="1.0" encoding="UTF-8"?>
<svg xmlns="http://www.w3.org/2000/svg" id="Layer_1" data-name="Layer 1" viewBox="0 0 24 24" width="512" height="512"><path d="M24,16V8c0-2.76-2.24-5-5-5H4.2L1.74,.32C1.36-.08,.73-.11,.32,.26-.08,.64-.11,1.27,.26,1.68l5.88,6.39c-.1,.18-.18,.37-.23,.59l-1.62,7.12c-.12,.54,.21,1.07,.75,1.2,.53,.12,1.07-.22,1.2-.75l.28-1.22h2.96l.28,1.22c.11,.46,.52,.78,.97,.78,.07,0,.15,0,.22-.02,.54-.12,.88-.66,.75-1.2l-1.62-7.12c-.23-1-1.06-1.66-2.08-1.66h0s-.08,0-.12,0l-1.84-2h12.96c1.65,0,3,1.35,3,3V16c0,1.22-.73,2.29-1.83,2.76l-2.26-2.26c1.24-.68,2.09-1.98,2.09-3.49v-2c0-2.21-1.79-4-4-4h-1c-1.1,0-2,.9-2,2v6c0,1.1,.9,2,2,2h.59l6.71,6.71c.2,.2,.45,.29,.71,.29s.51-.1,.71-.29c.39-.39,.39-1.02,0-1.41l-2.06-2.06c1.43-.9,2.35-2.47,2.35-4.23ZM6.98,13l.89-3.9s.02-.11,.13-.11,.12,.06,.14,.11l.89,3.9h-2.05Zm8.02-4h1c1.1,0,2,.9,2,2v2c0,1.1-.9,2-2,2h-1v-6Zm1,11c0,.55-.45,1-1,1H5C2.24,21,0,18.76,0,16V8C0,7.58,.05,7.16,.16,6.75c.14-.54,.69-.86,1.22-.72,.54,.14,.86,.68,.72,1.22-.06,.24-.09,.5-.09,.75V16c0,1.65,1.35,3,3,3H15c.55,0,1,.45,1,1Z"/></svg>
