<?xml version="1.0" encoding="UTF-8"?>
<svg xmlns="http://www.w3.org/2000/svg" id="Layer_1" data-name="Layer 1" viewBox="0 0 24 24" width="512" height="512"><path d="M12,9C17.934,8.844,17.933,.155,12,0c-5.934,.156-5.933,8.845,0,9Zm0-7c3.286,.059,3.285,4.942,0,5-3.285-.059-3.285-4.942,0-5Zm10.204,9.162c-1.143-.953-2.64-1.347-4.099-1.081l-3.821,.695c-.913,.166-1.707,.634-2.284,1.289-.578-.655-1.371-1.123-2.285-1.289l-3.821-.695c-1.461-.264-2.956,.128-4.098,1.081-1.142,.953-1.796,2.352-1.796,3.839v2.793c0,2.417,1.727,4.486,4.106,4.919l6.284,1.143c1.068,.194,2.151,.194,3.219,0l6.285-1.143c2.379-.433,4.105-2.502,4.105-4.919v-2.793c0-1.487-.654-2.886-1.796-3.838Zm-11.204,10.767c-.084-.012-.168-.026-.252-.041l-6.284-1.143c-1.428-.26-2.464-1.501-2.464-2.952v-2.793c0-.892,.393-1.731,1.078-2.303,.685-.573,1.59-.808,2.459-.648l3.821,.695c.952,.173,1.642,1,1.642,1.968v7.217Zm11-4.135c0,1.451-1.036,2.692-2.463,2.952l-6.285,1.143c-.084,.015-.168,.029-.252,.041v-7.217c0-.967,.69-1.795,1.642-1.968l3.821-.695c.875-.16,1.774,.077,2.46,.648,.685,.572,1.077,1.411,1.077,2.303v2.793Z"/></svg>
