<?xml version="1.0" encoding="UTF-8"?>
<svg xmlns="http://www.w3.org/2000/svg" id="Layer_1" data-name="Layer 1" viewBox="0 0 24 24" width="512" height="512"><path d="M24,15c0,.55-.45,1-1,1h-7c-.55,0-1,.45-1,1s.45,1,1,1h3c1.65,0,3,1.35,3,3s-1.35,3-3,3H1c-.55,0-1-.45-1-1s.45-1,1-1H19c.55,0,1-.45,1-1s-.45-1-1-1h-3c-1.65,0-3-1.35-3-3s1.35-3,3-3h7c.55,0,1,.45,1,1ZM.29,19.71c-.24-.24-.35-.6-.27-.94l1.64-7.01c.33-1.41,1.4-2.56,2.78-3l3.7-1.16L14.88,.88c1.13-1.13,3.11-1.13,4.24,0h0s0,0,0,0c.57,.57,.88,1.32,.88,2.12s-.31,1.55-.88,2.12l-6.72,6.72-1.16,3.7c-.44,1.38-1.58,2.45-3,2.78l-7.01,1.64c-.08,.02-.15,.03-.23,.03-.26,0-.52-.1-.71-.29ZM10,8.59l1.41,1.41,6.29-6.29c.19-.19,.29-.44,.29-.71s-.1-.52-.29-.71t0,0c-.38-.38-1.04-.38-1.41,0l-6.29,6.29Zm-6.38,3.63l-.84,3.59,2.52-2.52c.39-.39,1.02-.39,1.41,0s.39,1.02,0,1.41l-2.52,2.52,3.59-.84c.73-.17,1.32-.72,1.54-1.43l1.01-3.2-2.08-2.08-3.2,1.01c-.71,.22-1.26,.82-1.43,1.54Z"/></svg>
