<?xml version="1.0" encoding="UTF-8"?>
<svg xmlns="http://www.w3.org/2000/svg" id="Layer_1" data-name="Layer 1" viewBox="0 0 24 24" width="512" height="512"><path d="M23.968,10.229c-.127-.719-.609-1.307-1.288-1.572l-2.561-1.004,.412-2.72c.109-.723-.16-1.434-.719-1.903-.561-.468-1.309-.608-1.999-.377l-2.606,.878-1.433-2.349c-.744-1.312-2.804-1.312-3.548,0l-1.433,2.348-2.606-.877c-.694-.233-1.439-.092-1.999,.376-.56,.47-.829,1.181-.719,1.903l.412,2.72-2.56,1.003c-.68,.267-1.162,.854-1.289,1.573-.127,.719,.124,1.437,.672,1.921l2.062,1.819-1.316,2.414c-.35,.641-.34,1.401,.025,2.033,.365,.633,1.019,1.021,1.749,1.039l2.75,.067,.543,2.694c.144,.716,.64,1.292,1.325,1.542,.687,.252,1.436,.127,2.009-.328l2.149-1.716,2.149,1.717c.573,.458,1.328,.577,2.008,.327,.686-.25,1.181-.826,1.325-1.541l.543-2.695,2.75-.067c.729-.018,1.383-.406,1.749-1.039,.365-.632,.375-1.393,.025-2.033l-1.316-2.414,2.063-1.819c.547-.484,.798-1.202,.671-1.921Zm-4.656,2.768c-.351,.309-.44,.818-.217,1.229l1.698,3.115-.066,.115-3.547,.087c-.467,.012-.863,.345-.956,.802l-.702,3.478-.125,.047-2.773-2.214c-.365-.291-.883-.291-1.248,0l-2.773,2.214-.125-.047-.702-3.478c-.093-.457-.489-.79-.956-.802l-3.547-.087-.066-.115,1.698-3.115c.224-.41,.134-.92-.217-1.229l-2.662-2.347,.023-.132,3.304-1.295c.435-.17,.694-.618,.624-1.08l-.531-3.509,.103-.085,3.363,1.132c.442,.146,.929-.028,1.172-.428l1.849-3.029h.134l1.849,3.029c.244,.399,.731,.574,1.172,.428l3.363-1.132,.103,.085-.531,3.509c-.07,.462,.189,.91,.624,1.08l3.304,1.295,.023,.132-2.662,2.347Z"/></svg>
