<?xml version="1.0" encoding="UTF-8"?>
<svg xmlns="http://www.w3.org/2000/svg" id="Layer_1" data-name="Layer 1" viewBox="0 0 24 24" width="512" height="512"><path d="M19,12h-2.22l1.11-3.93c.46-1.7-.54-3.48-2.24-3.95-.25-.07-.51-.11-.78-.11l.09-.49c.13-.79-.05-1.59-.51-2.24S13.29,.18,12.48,.04c-1.19-.21-2.35,.33-2.99,1.28C8.85,.38,7.69-.16,6.5,.04c-.79,.13-1.48,.57-1.94,1.22s-.64,1.45-.5,2.29l.1,.45c-.27,0-.53,.05-.79,.12-1.7,.48-2.71,2.25-2.24,3.96l1.13,4.02c-.61,.16-1.16,.5-1.57,1C.11,13.79-.12,14.7,.06,15.59l.88,4.41c.46,2.33,2.53,4,4.9,4h13.16c2.76,0,5-2.24,5-5v-2c0-2.76-2.24-5-5-5Zm3,5H10c0-1.65,1.35-3,3-3h6c1.65,0,3,1.35,3,3ZM15.11,6.04c.65,.18,1.03,.85,.85,1.49l-1.26,4.46h-1.28l1.08-5.97c.2-.05,.41-.04,.61,.01Zm-2.94-4.03c.26,.04,.49,.19,.65,.41,.15,.22,.21,.48,.17,.74l-1.61,8.84h-2.09l1.7-9.18c.1-.54,.62-.89,1.18-.8Zm-5.98,.4c.15-.22,.39-.36,.65-.41,.54-.09,1.06,.27,1.16,.84l.49,2.48-.91,4.93-1.08-4.89c0-.12-.03-.25-.08-.36l-.41-1.84c-.04-.26,.02-.53,.17-.75Zm-2.29,3.62c.24-.07,.48-.06,.71,.02l1.31,5.94h-1.61l-1.26-4.46c-.18-.65,.21-1.32,.85-1.5Zm-.99,13.56l-.88-4.41c-.06-.29,.02-.6,.21-.83,.19-.23,.47-.37,.77-.37h6c-.63,.84-1,1.88-1,3v2c0,1.13,.38,2.18,1.02,3.02h-3.18c-1.43,0-2.66-1.01-2.94-2.41Zm16.1,2.39h-6c-1.65,0-3-1.35-3-3h4l1.89,1.26c.67,.45,1.55,.45,2.22,0l1.89-1.26h2c0,1.65-1.35,3-3,3Z"/></svg>
