<?xml version="1.0" encoding="UTF-8"?>
<svg xmlns="http://www.w3.org/2000/svg" id="Layer_1" data-name="Layer 1" viewBox="0 0 24 24" width="512" height="512"><path d="M23,24c-.55,0-1-.45-1-1V1c0-.55,.45-1,1-1s1,.45,1,1V23c0,.55-.45,1-1,1ZM1.5,3c.83,0,1.5-.67,1.5-1.5C3,.67,2.33,0,1.5,0S0,.67,0,1.5s.67,1.5,1.5,1.5Zm5,0c.83,0,1.5-.67,1.5-1.5C8,.67,7.33,0,6.5,0s-1.5,.67-1.5,1.5,.67,1.5,1.5,1.5Zm0,21c.83,0,1.5-.67,1.5-1.5s-.67-1.5-1.5-1.5-1.5,.67-1.5,1.5,.67,1.5,1.5,1.5ZM17.5,3c.83,0,1.5-.67,1.5-1.5C19,.67,18.33,0,17.5,0s-1.5,.67-1.5,1.5,.67,1.5,1.5,1.5Zm0,21c.83,0,1.5-.67,1.5-1.5s-.67-1.5-1.5-1.5-1.5,.67-1.5,1.5,.67,1.5,1.5,1.5Zm-16,0c.83,0,1.5-.67,1.5-1.5s-.67-1.5-1.5-1.5S0,21.67,0,22.5s.67,1.5,1.5,1.5Zm0-5c.83,0,1.5-.67,1.5-1.5,0-.83-.67-1.5-1.5-1.5S0,16.67,0,17.5s.67,1.5,1.5,1.5Zm0-5.5c.83,0,1.5-.67,1.5-1.5,0-.83-.67-1.5-1.5-1.5S0,11.17,0,12s.67,1.5,1.5,1.5Zm0-5.5c.83,0,1.5-.67,1.5-1.5s-.67-1.5-1.5-1.5S0,5.67,0,6.5s.67,1.5,1.5,1.5ZM12,3c.83,0,1.5-.67,1.5-1.5C13.5,.67,12.83,0,12,0s-1.5,.67-1.5,1.5,.67,1.5,1.5,1.5Zm0,21c.83,0,1.5-.67,1.5-1.5s-.67-1.5-1.5-1.5-1.5,.67-1.5,1.5,.67,1.5,1.5,1.5Zm0-5c.83,0,1.5-.67,1.5-1.5,0-.83-.67-1.5-1.5-1.5s-1.5,.67-1.5,1.5,.67,1.5,1.5,1.5Zm0-5.5c.83,0,1.5-.67,1.5-1.5,0-.83-.67-1.5-1.5-1.5s-1.5,.67-1.5,1.5,.67,1.5,1.5,1.5Zm0-5.5c.83,0,1.5-.67,1.5-1.5s-.67-1.5-1.5-1.5-1.5,.67-1.5,1.5,.67,1.5,1.5,1.5Zm7,4c0-.83-.67-1.5-1.5-1.5s-1.5,.67-1.5,1.5,.67,1.5,1.5,1.5,1.5-.67,1.5-1.5Zm-11,0c0-.83-.67-1.5-1.5-1.5s-1.5,.67-1.5,1.5,.67,1.5,1.5,1.5,1.5-.67,1.5-1.5Z"/></svg>
