<?xml version="1.0" encoding="UTF-8"?>
<svg xmlns="http://www.w3.org/2000/svg" id="Layer_1" data-name="Layer 1" viewBox="0 0 24 24" width="512" height="512"><path d="M3,2.5C3,1.119,4.119,0,5.5,0s2.5,1.119,2.5,2.5-1.119,2.5-2.5,2.5-2.5-1.119-2.5-2.5Zm15.5,2.5c1.381,0,2.5-1.119,2.5-2.5S19.881,0,18.5,0s-2.5,1.119-2.5,2.5,1.119,2.5,2.5,2.5ZM2.418,18.038c-.53-.147-1.084,.156-1.236,.688L.038,22.726c-.152,.53,.156,1.084,.687,1.236,.092,.025,.185,.038,.275,.038,.435,0,.835-.286,.961-.726l1.143-4c.152-.53-.156-1.084-.687-1.236Zm21.543,4.688l-1.143-4c-.151-.531-.705-.835-1.236-.688-.531,.152-.838,.705-.687,1.236l1.143,4c.125,.439,.526,.726,.961,.726,.091,0,.184-.013,.275-.038,.531-.152,.838-.705,.687-1.236Zm-1.824-6.712l-3.138,2.045v4.941c0,.553-.448,1-1,1s-1-.447-1-1v-5.483c0-.338,.171-.653,.454-.838l1.497-.975-1.633-6.115-1.317,2.22v2.691c0,1.379-1.122,2.5-2.5,2.5h-3c-1.378,0-2.5-1.121-2.5-2.5v-2.691l-1.311-2.211-1.589,6.137,1.446,.943c.283,.185,.454,.5,.454,.838v5.483c0,.553-.448,1-1,1s-1-.447-1-1v-4.941l-3.149-2.053C.463,15.129-.252,13.445,.083,11.824l.747-2.761c.36-1.75,1.973-3.063,3.82-3.063,1.376,0,2.666,.735,3.368,1.919l.957,1.614c.423-.329,.948-.533,1.525-.533h3c.577,0,1.102,.204,1.525,.533l.958-1.614c.701-1.184,1.991-1.919,3.367-1.919,1.848,0,3.46,1.313,3.834,3.123l.719,2.642c.349,1.681-.366,3.364-1.766,4.249ZM3.332,14.583l1.692-6.534c-.123-.025-.246-.049-.373-.049-.904,0-1.693,.643-1.875,1.527l-.747,2.761c-.154,.751,.204,1.593,.903,2.034l.401,.261Zm10.668-3.083c0-.275-.224-.5-.5-.5h-3c-.276,0-.5,.225-.5,.5v3c0,.275,.224,.5,.5,.5h3c.276,0,.5-.225,.5-.5v-3Zm7.958,.729l-.719-2.642c-.197-.944-.986-1.587-1.89-1.587-.127,0-.251,.025-.373,.049l1.737,6.505,.344-.224c.711-.449,1.068-1.291,.901-2.102Z"/></svg>
