<?xml version="1.0" encoding="UTF-8"?>
<svg xmlns="http://www.w3.org/2000/svg" id="Layer_1" data-name="Layer 1" viewBox="0 0 24 24" width="512" height="512"><path d="M24,4c0-2.206-1.794-4-4-4s-4,1.794-4,4c0,1.86,1.277,3.428,3,3.873v.127c0,1.654-1.346,3-3,3h-1c-1.193,0-2.267,.525-3,1.357-.733-.832-1.807-1.357-3-1.357h-1c-1.654,0-3-1.346-3-3v-.127c1.723-.445,3-2.013,3-3.873C8,1.794,6.206,0,4,0S0,1.794,0,4c0,1.86,1.277,3.428,3,3.873v.127c0,2.757,2.243,5,5,5h1c1.103,0,2,.897,2,2v1.127c-1.723,.445-3,2.013-3,3.873,0,2.206,1.794,4,4,4s4-1.794,4-4c0-1.86-1.277-3.428-3-3.873v-1.127c0-1.103,.897-2,2-2h1c2.757,0,5-2.243,5-5v-.127c1.723-.445,3-2.013,3-3.873ZM2,4c0-1.103,.897-2,2-2s2,.897,2,2-.897,2-2,2-2-.897-2-2ZM14,20c0,1.103-.897,2-2,2s-2-.897-2-2,.897-2,2-2,2,.897,2,2Zm6-14c-1.103,0-2-.897-2-2s.897-2,2-2,2,.897,2,2-.897,2-2,2Z"/></svg>
