<?xml version="1.0" encoding="UTF-8"?>
<svg xmlns="http://www.w3.org/2000/svg" id="Layer_1" data-name="Layer 1" viewBox="0 0 24 24" width="512" height="512"><path d="M24,11c0-1.57-.75-3.04-2-3.98,0-1.9-1.33-3.51-3.1-3.92-.41-1.77-2-3.1-3.9-3.1-1.19,0-2.27,.53-3,1.36-.73-.83-1.81-1.36-3-1.36-1.9,0-3.49,1.33-3.9,3.1-1.77,.41-3.1,2.02-3.1,3.92-1.25,.94-2,2.41-2,3.98,0,.89,.24,1.74,.69,2.5-.45,.76-.69,1.61-.69,2.5,0,1.69,.86,3.24,2.27,4.17,.72,2.28,2.81,3.83,5.23,3.83,1.86,0,3.5-.93,4.5-2.34,1,1.41,2.64,2.34,4.5,2.34,2.42,0,4.51-1.56,5.23-3.83,1.41-.92,2.27-2.48,2.27-4.17,0-.89-.24-1.74-.69-2.5,.45-.76,.69-1.61,.69-2.5Zm-13,7.5c0,1.93-1.57,3.5-3.5,3.5-1.63,0-3.03-1.12-3.4-2.71-.06-.28-.25-.52-.5-.66-.98-.53-1.6-1.54-1.6-2.63,0-.67,.23-1.32,.68-1.87,.3-.37,.3-.89,0-1.26-.44-.55-.68-1.2-.68-1.87,0-1.07,.59-2.07,1.54-2.6,.37-.21,.57-.63,.49-1.05-.02-.11-.04-.23-.04-.35,0-1.1,.9-2,2-2,.55,0,1-.45,1-1,0-1.1,.9-2,2-2s2,.9,2,2v14.5Zm10.32-4.37c.44,.55,.68,1.2,.68,1.87,0,1.1-.61,2.1-1.6,2.63-.25,.14-.44,.38-.5,.66-.37,1.6-1.77,2.71-3.4,2.71-1.93,0-3.5-1.57-3.5-3.5V4c0-1.1,.9-2,2-2s2,.9,2,2c0,.55,.45,1,1,1,1.1,0,2,.9,2,2,0,.12-.02,.24-.04,.35-.08,.42,.12,.84,.49,1.05,.95,.54,1.54,1.53,1.54,2.6,0,.68-.23,1.32-.68,1.87-.3,.37-.3,.89,0,1.26Z"/></svg>
