<?xml version="1.0" encoding="UTF-8"?>
<svg xmlns="http://www.w3.org/2000/svg" id="Layer_1" data-name="Layer 1" viewBox="0 0 24 24" width="512" height="512"><path d="M20,3c0-1.654-1.346-3-3-3H3C1.346,0,0,1.346,0,3v2c0,1.654,1.346,3,3,3h14c1.654,0,3-1.346,3-3,1.103,0,2,.897,2,2v1c0,1.103-.897,2-2,2h-7c-2.206,0-4,1.794-4,4v.184c-1.161,.414-2,1.514-2,2.816v4c0,1.654,1.346,3,3,3s3-1.346,3-3v-4c0-1.302-.839-2.402-2-2.816v-.184c0-1.103,.897-2,2-2h7c2.206,0,4-1.794,4-4v-1c0-2.206-1.794-4-4-4Zm-2,2c0,.552-.449,1-1,1H3c-.551,0-1-.448-1-1V3c0-.552,.449-1,1-1h14c.551,0,1,.448,1,1v2Zm-7,16c0,.552-.449,1-1,1s-1-.448-1-1v-4c0-.552,.449-1,1-1s1,.448,1,1v4Z"/></svg>
