<?xml version="1.0" encoding="UTF-8"?>
<svg xmlns="http://www.w3.org/2000/svg" id="Layer_1" data-name="Layer 1" viewBox="0 0 24 24" width="512" height="512"><path d="M19.17,12h-2.23l.87-8.66c.1-.85-.17-1.7-.74-2.34-.57-.64-1.38-1-2.24-1H2.83C1.97,.01,1.16,.38,.59,1.01,.02,1.65-.25,2.5-.15,3.34L1.47,19.5c.26,2.56,2.4,4.5,4.98,4.5h12.73c2.76,0,5-2.24,5-5v-2c0-2.76-2.24-5-5-5Zm3,5H10.17c0-1.65,1.35-3,3-3h6c1.65,0,3,1.35,3,3ZM2.08,2.35c.19-.22,.46-.33,.75-.33H14.83c.29-.01,.55,.11,.75,.32,.19,.22,.28,.49,.25,.79l-.29,2.87H2.12l-.29-2.88c-.03-.29,.06-.56,.25-.78Zm1.38,16.95l-1.14-11.3H15.33l-.4,4h-1.76c-2.76,0-5,2.24-5,5v2c0,1.13,.39,2.16,1.03,3h-2.75c-1.55,0-2.83-1.16-2.99-2.7Zm15.71,2.7h-6c-1.65,0-3-1.35-3-3h3.7l2.75,1.83c.17,.11,.36,.17,.55,.17s.39-.06,.55-.17l2.75-1.83h1.7c0,1.65-1.35,3-3,3Z"/></svg>
