<?xml version="1.0" encoding="UTF-8"?>
<svg xmlns="http://www.w3.org/2000/svg" id="Layer_1" data-name="Layer 1" viewBox="0 0 24 24" width="512" height="512"><path d="M12,24C5.383,24,0,18.617,0,12S5.383,0,12,0s12,5.383,12,12-5.383,12-12,12Zm0-22C6.486,2,2,6.486,2,12s4.486,10,10,10,10-4.486,10-10S17.514,2,12,2Zm2.901,14.754c.763-.804,1.151-1.857,1.094-2.968-.111-2.123-1.941-3.786-4.165-3.786h-1.83v-2h4c.553,0,1-.447,1-1s-.447-1-1-1h-4c-1.103,0-2,.897-2,2v3c0,.553,.447,1,1,1h2.83c1.141,0,2.112,.849,2.167,1.891,.029,.557-.165,1.084-.547,1.486-.382,.401-.896,.623-1.45,.623h-3c-.553,0-1,.447-1,1s.447,1,1,1h3c1.092,0,2.149-.454,2.901-1.246Z"/></svg>
