<?xml version="1.0" encoding="UTF-8"?>
<svg xmlns="http://www.w3.org/2000/svg" id="Layer_1" data-name="Layer 1" viewBox="0 0 24 24" width="512" height="512"><path d="M0,6c0-.552,.447-1,1-1H17c.553,0,1,.448,1,1s-.447,1-1,1H1c-.553,0-1-.448-1-1Zm1,6H17c.553,0,1-.448,1-1s-.447-1-1-1H1c-.553,0-1,.448-1,1s.447,1,1,1Zm16,3H1c-.553,0-1,.447-1,1s.447,1,1,1H17c.553,0,1-.447,1-1s-.447-1-1-1Zm-2,5H1c-.553,0-1,.447-1,1s.447,1,1,1H15c.553,0,1-.447,1-1s-.447-1-1-1Zm9,1c0,1.654-1.346,3-3,3s-3-1.346-3-3c0-1.304,.836-2.415,2-2.828V5c0-1.654-1.346-3-3-3H1c-.553,0-1-.448-1-1S.447,0,1,0H17c2.757,0,5,2.243,5,5v13.172c1.164,.413,2,1.524,2,2.828Zm-2,0c0-.552-.448-1-1-1s-1,.448-1,1,.448,1,1,1,1-.448,1-1Z"/></svg>
