<?xml version="1.0" encoding="UTF-8"?>
<svg xmlns="http://www.w3.org/2000/svg" id="Layer_1" data-name="Layer 1" viewBox="0 0 24 24" width="512" height="512"><path d="M17,10h3c1.65,0,3-1.35,3-3v-3c0-1.65-1.35-3-3-3h-3c-1.65,0-3,1.35-3,3v3c0,1.65,1.35,3,3,3Zm-1-6c0-.55,.45-1,1-1h3c.55,0,1,.45,1,1v3c0,.55-.45,1-1,1h-3c-.55,0-1-.45-1-1v-3Zm-4.28,14.31c.38,.4,.37,1.03-.03,1.41l-3.59,3.41c-.55,.55-1.3,.86-2.1,.86s-1.55-.31-2.12-.88L.31,19.72c-.4-.38-.42-1.01-.03-1.41,.38-.4,1.01-.42,1.41-.03l3.31,3.15V1c0-.55,.45-1,1-1s1,.45,1,1V21.43l3.31-3.15c.4-.38,1.03-.36,1.41,.03Zm11.47,1.27l-2.69-4.39c-.4-.74-1.17-1.2-2.01-1.2s-1.61,.46-1.98,1.15l-2.74,4.48c-.39,.71-.37,1.56,.05,2.26s1.15,1.12,1.96,1.12h5.43c.81,0,1.55-.42,1.96-1.12s.43-1.54,.02-2.3Zm-1.74,1.28c-.04,.06-.11,.14-.24,.14h-5.43c-.13,0-.21-.08-.24-.14-.04-.06-.07-.16-.03-.23l2.74-4.48c.07-.12,.17-.15,.25-.15s.18,.03,.28,.19l2.69,4.39c.06,.12,.03,.22,0,.28Z"/></svg>
