<?xml version="1.0" encoding="UTF-8"?>
<svg xmlns="http://www.w3.org/2000/svg" id="Layer_1" data-name="Layer 1" viewBox="0 0 24 24" width="512" height="512"><path d="M12,4c0-2.21-1.79-4-4-4S4,1.79,4,4v3c0,2.21,1.79,4,4,4s4-1.79,4-4v-3Zm-2,3c0,1.1-.9,2-2,2s-2-.9-2-2v-3c0-1.1,.9-2,2-2s2,.9,2,2v3Zm6,6c-2.21,0-4,1.79-4,4v3c0,2.21,1.79,4,4,4s4-1.79,4-4v-3c0-2.21-1.79-4-4-4Zm2,7c0,1.1-.9,2-2,2s-2-.9-2-2v-3c0-1.1,.9-2,2-2s2,.9,2,2v3Zm-3.15-15.85c-.39-.39-.39-1.02,0-1.41L17.29,.29c.29-.29,.72-.37,1.09-.22,.37,.15,.62,.52,.62,.92V10c0,.55-.45,1-1,1s-1-.45-1-1V3.41l-.74,.74c-.39,.39-1.02,.39-1.41,0Zm-5.85,9.85v9c0,.55-.45,1-1,1s-1-.45-1-1v-6.59l-.74,.74c-.39,.39-1.02,.39-1.41,0s-.39-1.02,0-1.41l2.44-2.44c.29-.29,.72-.37,1.09-.22,.37,.15,.62,.52,.62,.92Z"/></svg>
