<?xml version="1.0" encoding="UTF-8"?>
<svg xmlns="http://www.w3.org/2000/svg" id="Layer_1" data-name="Layer 1" viewBox="0 0 24 24" width="512" height="512"><path d="M21.998,24h-2.998c-.553,0-1-.448-1-1s.447-1,1-1h2.998l-5.991-10.005-6.011,10.015,3.004-.01c.553,0,1,.448,1,1s-.447,1-1,1h-2.999c-.725,0-1.373-.375-1.734-1.004-.361-.628-.359-1.377,.006-2.004l6.003-10.025c.358-.612,1.004-.982,1.723-.982s1.364,.371,1.728,.992l5.992,10.006c.372,.636,.374,1.385,.013,2.014s-1.01,1.004-1.734,1.004Zm-4.998-4v-3c0-.552-.447-1-1-1s-1,.448-1,1v3c0,.552,.447,1,1,1s1-.448,1-1Zm-11,3c0-.552-.448-1-1-1-1.654,0-3-1.346-3-3V5c0-1.654,1.346-3,3-3h14c1.654,0,3,1.346,3,3V14c0,.552,.447,1,1,1s1-.448,1-1V5c0-2.757-2.243-5-5-5H5C2.243,0,0,2.243,0,5v14c0,2.757,2.243,5,5,5,.552,0,1-.448,1-1ZM5,4c-.552,0-1,.448-1,1s.448,1,1,1,1-.448,1-1-.448-1-1-1Zm4,0c-.552,0-1,.448-1,1s.448,1,1,1,1-.448,1-1-.448-1-1-1Zm7,18c-.552,0-1,.448-1,1s.448,1,1,1,1-.448,1-1-.448-1-1-1Z"/></svg>
