<?xml version="1.0" encoding="UTF-8"?>
<svg xmlns="http://www.w3.org/2000/svg" id="Layer_1" data-name="Layer 1" viewBox="0 0 24 24" width="512" height="512"><path d="M2,12c0,6.41,4.58,10.18,4.63,10.22,.43,.35,.5,.98,.15,1.41-.2,.25-.49,.37-.78,.37-.22,0-.44-.07-.62-.22-.22-.18-5.38-4.39-5.38-11.78S5.16,.39,5.38,.22c.43-.34,1.06-.28,1.41,.16,.35,.43,.28,1.06-.16,1.41-.04,.04-4.62,3.81-4.62,10.22ZM18.62,.22c-.43-.35-1.06-.27-1.4,.15-.35,.43-.28,1.06,.15,1.41,.05,.04,4.63,3.81,4.63,10.22s-4.54,10.15-4.63,10.22c-.43,.35-.5,.97-.16,1.4,.2,.25,.49,.38,.78,.38,.22,0,.44-.07,.62-.22,.22-.18,5.38-4.39,5.38-11.78S18.84,.39,18.62,.22Z"/></svg>
