<?xml version="1.0" encoding="UTF-8"?>
<svg xmlns="http://www.w3.org/2000/svg" id="Layer_1" data-name="Layer 1" viewBox="0 0 24 24" width="512" height="512"><path d="M23.707,22.293l-5.946-5.946c1.412-1.725,2.261-3.928,2.261-6.325C20.021,4.508,15.535,.021,10.021,.021S.021,4.508,.021,10.021s4.486,10,10,10c2.398,0,4.601-.849,6.325-2.261l5.946,5.946c.195,.195,.451,.293,.707,.293s.512-.098,.707-.293c.391-.391,.391-1.023,0-1.414ZM2.021,10.021C2.021,5.61,5.61,2.021,10.021,2.021s8,3.589,8,8-3.589,8-8,8S2.021,14.433,2.021,10.021Zm7.979-6.021c-1.336,0-2.592,.521-3.535,1.465-.944,.943-1.465,2.199-1.465,3.535s.521,2.592,1.473,3.543l1.812,1.773c.474,.463,1.094,.693,1.715,.693s1.241-.23,1.714-.693l1.821-1.781c.944-.943,1.465-2.199,1.465-3.535s-.521-2.591-1.465-3.535-2.2-1.465-3.535-1.465Zm2.129,7.113l-1.813,1.773c-.174,.17-.458,.17-.632,0l-1.805-1.766c-.566-.566-.879-1.319-.879-2.121s.312-1.555,.88-2.121c.565-.567,1.318-.879,2.12-.879s1.555,.312,2.121,.879c.566,.566,.879,1.319,.879,2.121s-.313,1.555-.871,2.113Zm-1.129-2.12c0,.552-.448,1-1,1s-1-.448-1-1,.448-1,1-1,1,.448,1,1Z"/></svg>
