<?xml version="1.0" encoding="UTF-8"?>
<svg xmlns="http://www.w3.org/2000/svg" id="Layer_1" data-name="Layer 1" viewBox="0 0 24 24" width="512" height="512"><path d="M23.659,9.248l-2.881-2.526c-.918-1.055-2.269-1.722-3.772-1.722h-5.672l-2.36-1.77c.017-.074,.027-.151,.027-.23v-1c0-.552-.448-1-1-1s-1,.448-1,1v.101c-.271-.067-.55-.101-.83-.101-.057,0-.113,.002-.17,.004v-.004c0-.552-.448-1-1-1s-1,.448-1,1v.757c-.188,.15-.362,.319-.519,.508L.975,6.318c-1.298,1.299-1.298,3.413,0,4.712,.635,.635,1.502,.97,2.508,.97,.527,0,1.098-.205,1.793-.514l.723,3.613v3.904c0,1.652,1.344,2.997,2.997,2.997,.802,0,1.556-.313,2.123-.881,.566-.568,.877-1.323,.868-2.119l4.025,.018c.006,1.645,1.348,2.982,2.992,2.982s2.996-1.344,2.997-2.995l.005-8.547,.335,.294c.19,.167,.425,.248,.659,.248,.278,0,.555-.115,.752-.341,.364-.416,.323-1.047-.093-1.411Zm-19.191,.41c-.669,.296-.904,.341-.984,.342-.323,0-.776-.067-1.094-.385-.519-.519-.519-1.364,.064-1.955l2.569-3.122c.488-.588,1.429-.699,2.041-.241l3.336,2.502c.173,.13,.384,.2,.6,.2h6.006c1.652,0,2.998,1.344,3,2.994l-.002,3.006H7.62l-.381-1.906c-.119-.598-.498-1.102-1.038-1.382-.542-.281-1.173-.301-1.732-.053Zm14.537,10.342c-.545,0-.99-.444-.992-1.012-.003-1.096-.897-1.988-1.994-1.988h-4.032c-.534,0-1.036,.208-1.413,.586-.376,.378-.583,.88-.581,1.413,0,.267-.103,.519-.291,.708s-.439,.293-.706,.293c-.549,0-.997-.447-.997-.997v-4.003h12.003l-.002,4.004c0,.549-.447,.996-.997,.996Zm-7.004-10c0-.552,.448-1,1-1s1,.448,1,1-.448,1-1,1-1-.448-1-1Zm4,0c0-.552,.448-1,1-1s1,.448,1,1-.448,1-1,1-1-.448-1-1Zm-8,0c0-.552,.448-1,1-1s1,.448,1,1-.448,1-1,1-1-.448-1-1Z"/></svg>
