<?xml version="1.0" encoding="UTF-8"?>
<svg xmlns="http://www.w3.org/2000/svg" id="Layer_1" data-name="Layer 1" viewBox="0 0 24 24" width="512" height="512"><path d="M3.52,2.5c0-1.38,1.12-2.5,2.5-2.5s2.5,1.12,2.5,2.5-1.12,2.5-2.5,2.5-2.5-1.12-2.5-2.5Zm7.48,14.13c.11,.85-.16,1.71-.73,2.36-.34,.39-.77,.67-1.25,.84v3.17c0,.55-.45,1-1,1s-1-.45-1-1v-3h-2v3c0,.55-.45,1-1,1s-1-.45-1-1v-3.17c-.48-.17-.91-.46-1.25-.84-.57-.65-.83-1.5-.73-2.36l.88-7.01c.26-2.06,2.02-3.62,4.1-3.62s3.84,1.56,4.1,3.62l.88,7.01Zm-1.98,.25l-.88-7.01c-.13-1.06-1.04-1.87-2.12-1.87s-1.98,.8-2.12,1.87l-.88,7.01c-.04,.29,.05,.57,.24,.79,.19,.22,.46,.34,.75,.34h4c.29,0,.56-.12,.75-.34,.19-.22,.28-.5,.24-.79ZM18,5c1.38,0,2.5-1.12,2.5-2.5s-1.12-2.5-2.5-2.5-2.5,1.12-2.5,2.5,1.12,2.5,2.5,2.5Zm4.25,13.99c-.34,.39-.77,.67-1.25,.84v3.17c0,.55-.45,1-1,1s-1-.45-1-1v-3h-2v3c0,.55-.45,1-1,1s-1-.45-1-1v-3.17c-.48-.17-.91-.46-1.25-.84-.57-.64-.83-1.5-.73-2.36l.88-7.01c.26-2.06,2.02-3.62,4.1-3.62s3.84,1.56,4.1,3.62l.88,7.01c.11,.85-.16,1.71-.73,2.36Zm-1.26-2.11l-.88-7.01c-.13-1.07-1.04-1.87-2.12-1.87s-1.98,.8-2.12,1.87l-.88,7.01c-.04,.29,.05,.57,.24,.79,.19,.22,.46,.34,.75,.34h4c.29,0,.56-.12,.75-.34,.19-.22,.28-.5,.24-.79Z"/></svg>
