<?xml version="1.0" encoding="UTF-8"?>
<svg xmlns="http://www.w3.org/2000/svg" id="Layer_1" data-name="Layer 1" viewBox="0 0 24 24" width="512" height="512"><path d="M16,18H8c-.55,0-1-.45-1-1s.45-1,1-1h8c.55,0,1,.45,1,1s-.45,1-1,1Zm-3-9V4c0-.55-.45-1-1-1s-1,.45-1,1v5c0,.55,.45,1,1,1s1-.45,1-1ZM5,17c0-.55-.45-1-1-1H1c-.55,0-1,.45-1,1s.45,1,1,1h3c.55,0,1-.45,1-1Zm19,0c0-.55-.45-1-1-1h-3c-.55,0-1,.45-1,1s.45,1,1,1h3c.55,0,1-.45,1-1Zm-5.29-5.29l3-3c.39-.39,.39-1.02,0-1.41s-1.02-.39-1.41,0l-3,3c-.39,.39-.39,1.02,0,1.41,.2,.2,.45,.29,.71,.29s.51-.1,.71-.29Zm-12,0c.39-.39,.39-1.02,0-1.41l-3-3c-.39-.39-1.02-.39-1.41,0s-.39,1.02,0,1.41l3,3c.2,.2,.45,.29,.71,.29s.51-.1,.71-.29Z"/></svg>
