<?xml version="1.0" encoding="UTF-8"?>
<svg xmlns="http://www.w3.org/2000/svg" id="Layer_1" data-name="Layer 1" viewBox="0 0 24 24" width="512" height="512"><path d="M22,21c-.553,0-1-.448-1-1V4c0-.552,.447-1,1-1s1,.448,1,1V20c0,.552-.447,1-1,1Zm-4,0c-.553,0-1-.448-1-1V4c0-.552,.447-1,1-1s1,.448,1,1V20c0,.552-.447,1-1,1Zm-13.673-.271c-.509,0-1.023-.122-1.509-.367-1.139-.578-1.818-1.683-1.818-2.958V6.597c0-1.275,.679-2.381,1.817-2.958,1.119-.567,2.452-.457,3.46,.285l7.368,5.402c.86,.631,1.354,1.606,1.354,2.674s-.494,2.043-1.355,2.674l-7.368,5.403c-.588,.432-1.265,.651-1.949,.651Zm-.003-15.455c-.205,0-.408,.05-.603,.149-.458,.232-.721,.66-.721,1.174v10.807c0,.514,.263,.941,.721,1.174,.459,.232,.959,.19,1.372-.112l7.369-5.404c.347-.254,.538-.631,.538-1.061s-.191-.807-.538-1.061L5.094,5.536c-.233-.172-.5-.262-.77-.262Z"/></svg>
