<?xml version="1.0" encoding="UTF-8"?>
<svg xmlns="http://www.w3.org/2000/svg" id="Layer_1" data-name="Layer 1" viewBox="0 0 24 24" width="512" height="512"><path d="M19,3h-6.528c-.154,0-.31-.036-.447-.105l-3.153-1.576c-.415-.208-.879-.318-1.344-.318h-2.528C2.243,1,0,3.243,0,6v12c0,2.757,2.243,5,5,5h3c.552,0,1-.447,1-1s-.448-1-1-1h-3c-1.654,0-3-1.346-3-3V9H22v9c0,1.654-1.346,3-3,3h-3c-.552,0-1,.447-1,1s.448,1,1,1h3c2.757,0,5-2.243,5-5V8c0-2.757-2.243-5-5-5ZM2,6c0-1.654,1.346-3,3-3h2.528c.154,0,.308,.036,.447,.106l3.156,1.577c.415,.207,.878,.316,1.341,.316h6.528c1.302,0,2.402,.839,2.816,2H2v-1ZM14.293,15.896l-1.293-1.293v7.397c0,.553-.448,1-1,1s-1-.447-1-1v-7.397l-1.293,1.293c-.195,.195-.451,.293-.707,.293s-.512-.098-.707-.293c-.391-.391-.391-1.023,0-1.414l1.613-1.613c1.118-1.119,3.069-1.119,4.188,0l1.613,1.613c.391,.391,.391,1.023,0,1.414s-1.023,.391-1.414,0Z"/></svg>
