<?xml version="1.0" encoding="UTF-8"?>
<svg xmlns="http://www.w3.org/2000/svg" id="Layer_1" data-name="Layer 1" viewBox="0 0 24 24" width="512" height="512"><path d="M19,0H5C2.243,0,0,2.243,0,5v1c0,.886,.387,1.684,1,2.234v10.766c0,2.757,2.243,5,5,5h12c2.757,0,5-2.243,5-5V8.234c.613-.55,1-1.347,1-2.234v-1c0-2.757-2.243-5-5-5ZM2,5c0-1.654,1.346-3,3-3h14c1.654,0,3,1.346,3,3v1c0,.552-.448,1-1,1H3c-.551,0-1-.448-1-1v-1Zm19,14c0,1.654-1.346,3-3,3H6c-1.654,0-3-1.346-3-3V9H21v10Zm-14.705-3.29c-.392-.39-.394-1.022-.005-1.414,.39-.393,1.021-.395,1.415-.006l2.432,2.414c.383,.385,1.039,.382,1.416,.003l4.766-4.438c.403-.376,1.038-.354,1.413,.05,.377,.404,.354,1.037-.05,1.413l-4.74,4.414c-.541,.542-1.294,.854-2.096,.854s-1.555-.312-2.122-.879l-2.429-2.411Z"/></svg>
