<?xml version="1.0" encoding="UTF-8"?>
<svg xmlns="http://www.w3.org/2000/svg" id="Layer_1" data-name="Layer 1" viewBox="0 0 24 24" width="512" height="512"><path d="M7.5,24c-.93,0-1.83-.28-2.6-.83-.82-.58-1.42-1.42-1.7-2.37-.95-.29-1.79-.89-2.37-1.7-.73-1.03-.99-2.29-.73-3.55,.36-1.75,1.79-3.15,3.56-3.48,1.16-.21,2.33,.02,3.3,.65l5.81-5.74c-.67-1-.9-2.18-.69-3.34,.32-1.77,1.72-3.2,3.48-3.56,1.25-.26,2.52,0,3.55,.73,.82,.58,1.42,1.42,1.7,2.37,.95,.29,1.79,.89,2.37,1.7,.73,1.03,.99,2.29,.73,3.55-.36,1.75-1.79,3.15-3.56,3.48-1.16,.21-2.33-.02-3.3-.65l-5.81,5.74c.67,1,.9,2.18,.69,3.34-.32,1.77-1.72,3.2-3.48,3.56-.32,.07-.64,.1-.95,.1Zm-3-10c-.16,0-.32,.01-.48,.04-.96,.18-1.76,.96-1.96,1.91-.15,.71,0,1.41,.4,1.99,.4,.57,1.02,.94,1.71,1.03,.45,.06,.8,.41,.86,.86,.09,.68,.47,1.3,1.03,1.7,.57,.41,1.28,.55,1.99,.4,.95-.2,1.74-1,1.91-1.96,.12-.65,0-1.31-.36-1.85-.54-.83-.45-1.87,.22-2.54l5.78-5.78c.67-.67,1.72-.76,2.54-.22,.54,.35,1.2,.48,1.85,.36,.96-.18,1.76-.96,1.96-1.91,.15-.71,0-1.41-.4-1.99-.4-.57-1.02-.94-1.71-1.03-.45-.06-.8-.41-.86-.86-.09-.68-.47-1.3-1.03-1.7-.57-.41-1.28-.55-1.99-.4-.95,.2-1.74,1-1.91,1.96-.12,.65,0,1.31,.36,1.85,.54,.83,.45,1.87-.22,2.54l-5.78,5.78c-.67,.67-1.72,.76-2.54,.22-.41-.27-.88-.4-1.37-.4Z"/></svg>
