<?xml version="1.0" encoding="UTF-8"?>
<svg xmlns="http://www.w3.org/2000/svg" id="Layer_1" data-name="Layer 1" viewBox="0 0 24 24" width="512" height="512"><path d="M1,8c-.55,0-1-.45-1-1v-2C0,2.24,2.24,0,5,0h2c.55,0,1,.45,1,1s-.45,1-1,1h-2c-1.65,0-3,1.35-3,3v2c0,.55-.45,1-1,1Zm7,15c0-.55-.45-1-1-1h-2c-1.65,0-3-1.35-3-3v-2c0-.55-.45-1-1-1s-1,.45-1,1v2c0,2.76,2.24,5,5,5h2c.55,0,1-.45,1-1Zm16-4v-2c0-.55-.45-1-1-1s-1,.45-1,1v2c0,1.65-1.35,3-3,3h-2c-.55,0-1,.45-1,1s.45,1,1,1h2c2.76,0,5-2.24,5-5Zm-14.48-1.78l2.48-1.66,2.52,1.64c.33,.21,.75,.2,1.06-.04,.31-.24,.43-.64,.31-1.01l-.9-2.73,2.17-1.77c.29-.25,.4-.65,.27-1.02s-.48-.6-.86-.6h-2.75l-.97-2.61c-.13-.36-.48-.6-.86-.6s-.73,.24-.86,.6l-.97,2.61h-2.75c-.38,0-.73,.24-.86,.6-.13,.36-.03,.77,.27,1.01l2.18,1.77-.86,2.76c-.12,.37,.01,.78,.32,1.01,.16,.12,.36,.18,.55,.18,.18,0,.36-.05,.51-.15ZM18.95,7.76l4.04-2.02c.63-.36,1.01-1.01,1.01-1.74s-.38-1.38-1.06-1.76l-3.94-1.97c-.63-.36-1.37-.36-2,0-.62,.36-1,1.01-1,1.73v3.99c0,.72,.37,1.37,1,1.73,.32,.19,.67,.28,1.02,.28s.65-.08,.93-.24Zm3.1-3.78l-4.05,2.02V2l4.05,1.97Z"/></svg>
