<?xml version="1.0" encoding="UTF-8"?>
<svg xmlns="http://www.w3.org/2000/svg" id="Layer_1" data-name="Layer 1" viewBox="0 0 24 24" width="512" height="512"><path d="M12,9c-1.654,0-3-1.346-3-3s1.346-3,3-3,3,1.346,3,3-1.346,3-3,3Zm-3,3c0,1.654,1.346,3,3,3s3-1.346,3-3-1.346-3-3-3-3,1.346-3,3Zm0,6c0,1.654,1.346,3,3,3s3-1.346,3-3-1.346-3-3-3-3,1.346-3,3ZM20,5v14c0,2.757-2.243,5-5,5h-6c-2.757,0-5-2.243-5-5V5C4,2.243,6.243,0,9,0h6c2.757,0,5,2.243,5,5Zm-2,0c0-1.654-1.346-3-3-3h-6c-1.654,0-3,1.346-3,3v14c0,1.654,1.346,3,3,3h6c1.654,0,3-1.346,3-3V5Z"/></svg>
