<?xml version="1.0" encoding="UTF-8"?>
<svg xmlns="http://www.w3.org/2000/svg" id="Layer_1" data-name="Layer 1" viewBox="0 0 24 24" width="512" height="512"><path d="M23.3,9.49l-3.48-6c-.89-1.54-2.55-2.49-4.32-2.49h-7.01c-1.78,0-3.43,.95-4.32,2.49L.68,9.49c-.9,1.55-.9,3.47,0,5.02l3.48,6c.89,1.54,2.55,2.49,4.32,2.49h7.01c1.78,0,3.43-.95,4.32-2.49l3.48-6c.9-1.55,.9-3.47,0-5.02Zm-1.73,4.02l-3.48,6c-.54,.92-1.53,1.49-2.59,1.49h-7.01c-1.07,0-2.06-.57-2.59-1.49l-3.48-6c-.54-.93-.54-2.08,0-3.01l3.48-6c.54-.92,1.53-1.49,2.59-1.49h7.01c1.06,0,2.06,.57,2.59,1.49l3.48,6c.54,.93,.54,2.08,0,3.01Zm-5.56-.51l-2.28-3.99c.17-.3,.27-.64,.27-1.01,0-1.1-.9-2-2-2s-2,.9-2,2c0,.37,.1,.71,.27,1.01l-2.28,3.99c-1.1,0-1.99,.9-1.99,2s.9,2,2,2c.74,0,1.39-.4,1.73-1h4.54c.35,.6,.99,1,1.73,1,1.1,0,2-.9,2-2s-.89-1.99-1.99-2Zm-6.28,.99l2.27-3.98,2.27,3.98s0,0,0,0h-4.54s0,0,0,0Z"/></svg>
