<?xml version="1.0" encoding="UTF-8"?>
<svg xmlns="http://www.w3.org/2000/svg" id="Layer_1" data-name="Layer 1" viewBox="0 0 24 24" width="512" height="512"><path d="M22.828,1.62c-.738-.568-1.675-.758-2.573-.52-.356,.094-.736,.23-1.131,.374-.716,.259-1.455,.526-2.122,.526-1.36,0-3.07-.489-4.726-.961-1.786-.511-3.635-1.039-5.274-1.039C4.948,0,2.939,.813,1.615,1.496c-.996,.515-1.615,1.535-1.615,2.663V23c0,.552,.447,1,1,1s1-.448,1-1v-7.437c.892-.509,2.981-1.563,5.002-1.563,1.348,0,3.039,.48,4.68,.948,1.774,.507,3.693,1.052,5.32,1.052,1.804,0,3.713-.436,5.107-1.167,1.203-.63,1.893-1.643,1.893-2.78V4.004c0-.941-.428-1.811-1.174-2.384ZM4.999,12.235c-1.148,.256-2.197,.681-2.999,1.068v-3.741c.594-.34,1.718-.919,2.999-1.269v3.942Zm0-6.001c-1.148,.256-2.197,.681-3,1.068v-3.144c0-.376,.204-.716,.532-.885,.564-.291,1.46-.701,2.468-.977v3.938Zm5.999,6.446c-1.374-.372-2.746-.68-3.997-.68h-.003v-4h0c1.162,0,2.579,.357,3.999,.755v3.924Zm0-5.999c-1.375-.373-2.748-.68-4-.68h0V2h.002c1.162,0,2.578,.356,3.998,.755v3.926Zm6,7.32c-1.163,0-2.58-.357-4.001-.756v-3.924c1.375,.373,2.749,.681,4.001,.681h0v4Zm0-6h0c-1.162,0-2.58-.357-4-.756V3.319c1.375,.373,2.749,.681,4.001,.681v4Zm5.001,4.053c0,.479-.446,.812-.82,1.009-.621,.325-1.377,.578-2.182,.738v-3.964c1.158-.18,2.213-.48,3.002-.745v2.961Zm0-5.086c-.641,.243-1.747,.616-3.001,.841V3.634c.278-.09,.546-.187,.804-.28,.337-.122,.659-.24,.962-.32,.401-.105,.7,.062,.842,.171,.25,.192,.394,.483,.394,.799v2.963Z"/></svg>
