<?xml version="1.0" encoding="UTF-8"?>
<svg xmlns="http://www.w3.org/2000/svg" id="Layer_1" data-name="Layer 1" viewBox="0 0 24 24" width="512" height="512"><path d="M23.74,23.67c-.2,.22-.47,.33-.74,.33-.24,0-.48-.09-.67-.26L12,14.35,1.67,23.74c-.41,.37-1.04,.34-1.41-.07-.37-.41-.34-1.04,.07-1.41L11,12.56V1c0-.55,.45-1,1-1s1,.45,1,1V12.56l10.67,9.7c.41,.37,.44,1,.07,1.41ZM17.5,3c.83,0,1.5-.67,1.5-1.5s-.67-1.5-1.5-1.5-1.5,.67-1.5,1.5,.67,1.5,1.5,1.5Zm5,5c.83,0,1.5-.67,1.5-1.5s-.67-1.5-1.5-1.5-1.5,.67-1.5,1.5,.67,1.5,1.5,1.5Zm-13,12c-.83,0-1.5,.67-1.5,1.5s.67,1.5,1.5,1.5,1.5-.67,1.5-1.5-.67-1.5-1.5-1.5Zm6,1c-.83,0-1.5,.67-1.5,1.5s.67,1.5,1.5,1.5,1.5-.67,1.5-1.5-.67-1.5-1.5-1.5ZM6.5,8c.83,0,1.5-.67,1.5-1.5s-.67-1.5-1.5-1.5-1.5,.67-1.5,1.5,.67,1.5,1.5,1.5ZM1.5,3c.83,0,1.5-.67,1.5-1.5S2.33,0,1.5,0,0,.67,0,1.5s.67,1.5,1.5,1.5Zm.5,10.5c0,.83,.67,1.5,1.5,1.5s1.5-.67,1.5-1.5-.67-1.5-1.5-1.5-1.5,.67-1.5,1.5Zm16-1c0,.83,.67,1.5,1.5,1.5s1.5-.67,1.5-1.5-.67-1.5-1.5-1.5-1.5,.67-1.5,1.5Z"/></svg>
