<?xml version="1.0" encoding="UTF-8"?>
<svg xmlns="http://www.w3.org/2000/svg" id="Layer_1" data-name="Layer 1" viewBox="0 0 24 24" width="512" height="512"><path d="M6,18c-.257,0-.514-.099-.709-.295-.39-.392-.388-1.025,.004-1.415l6.001-5.964c.391-.388,1.02-.387,1.41,0l5.999,5.964c.392,.389,.394,1.022,.004,1.414-.389,.393-1.021,.395-1.414,.004l-5.294-5.263-5.296,5.264c-.195,.194-.45,.291-.705,.291Zm12.712-6.56c.388-.393,.384-1.026-.01-1.414l-3.925-3.875c-.741-.742-1.728-1.151-2.777-1.151s-2.036,.409-2.772,1.146l-3.93,3.88c-.394,.388-.397,1.021-.01,1.414,.39,.394,1.021,.396,1.414,.009l3.935-3.884c.729-.729,1.993-.733,2.731,.004l3.93,3.88c.194,.192,.448,.289,.702,.289,.258,0,.516-.099,.712-.297Z"/></svg>
