<?xml version="1.0" encoding="UTF-8"?>
<svg xmlns="http://www.w3.org/2000/svg" id="Layer_1" data-name="Layer 1" viewBox="0 0 24 24" width="512" height="512"><path d="M23.328,8.426l-3.001-4.502c-.432-.647-1.038-1.151-1.752-1.458L13.576,.324c-1.002-.43-2.151-.43-3.152,0L5.426,2.466c-.715,.307-1.321,.811-1.752,1.458L.672,8.426c-.439,.659-.672,1.426-.672,2.219v8.355c0,2.757,2.243,5,5,5h14c2.757,0,5-2.243,5-5V10.645c0-.792-.232-1.56-.672-2.219Zm-9.749,9.665l3.421-2.799v5.598l-3.421-2.799Zm1.619,3.909h-6.397l3.199-2.617,3.199,2.617Zm-3.199-5.201l-3.421-2.799h6.842l-3.421,2.799Zm-5-1.507l3.421,2.799-3.421,2.799v-5.598Zm15,3.708c0,1.654-1.346,3-3,3v-7c0-1.654-1.346-3-3-3H8c-1.654,0-3,1.346-3,3v7c-1.654,0-3-1.346-3-3V10.645c0-.396,.116-.78,.336-1.109l3.001-4.502c.216-.323,.519-.576,.876-.729l4.999-2.142c.25-.107,.519-.161,.787-.161s.537,.054,.788,.161l4.999,2.142c.357,.153,.661,.406,.876,.729l3.001,4.502c.22,.33,.336,.713,.336,1.109v8.355ZM12,4c-1.654,0-3,1.346-3,3s1.346,3,3,3,3-1.346,3-3-1.346-3-3-3Zm0,4c-.551,0-1-.449-1-1s.449-1,1-1,1,.449,1,1-.449,1-1,1Z"/></svg>
