<?xml version="1.0" encoding="UTF-8"?>
<svg xmlns="http://www.w3.org/2000/svg" id="Layer_1" data-name="Layer 1" viewBox="0 0 24 24" width="512" height="512"><path d="M19,2H7.463c-.693-1.195-1.985-2-3.463-2C1.794,0,0,1.794,0,4v15c0,2.757,2.243,5,5,5h14c2.757,0,5-2.243,5-5V7c0-2.757-2.243-5-5-5Zm2.828,4h-4.828c-.552,0-1-.448-1-1v-1h3c1.304,0,2.415,.836,2.828,2ZM2,4c0-1.103,.897-2,2-2s2,.897,2,2v12c0,1.103-.897,2-2,2s-2-.897-2-2V4ZM19,22H5c-1.489,0-2.727-1.09-2.96-2.514,.58,.327,1.248,.514,1.96,.514,2.206,0,4-1.794,4-4V4h6v1c0,1.654,1.346,3,3,3h5v11c0,1.654-1.346,3-3,3Zm-3-11c0,.552-.448,1-1,1s-1-.448-1-1,.448-1,1-1,1,.448,1,1Zm-4,0c0,.552-.448,1-1,1s-1-.448-1-1,.448-1,1-1,1,.448,1,1Zm8,0c0,.552-.448,1-1,1s-1-.448-1-1,.448-1,1-1,1,.448,1,1Zm-4,4c0,.552-.448,1-1,1s-1-.448-1-1,.448-1,1-1,1,.448,1,1Zm-4,0c0,.552-.448,1-1,1s-1-.448-1-1,.448-1,1-1,1,.448,1,1Zm8,0c0,.552-.448,1-1,1s-1-.448-1-1,.448-1,1-1,1,.448,1,1Zm-4,4c0,.552-.448,1-1,1s-1-.448-1-1,.448-1,1-1,1,.448,1,1Zm-4,0c0,.552-.448,1-1,1s-1-.448-1-1,.448-1,1-1,1,.448,1,1Zm8,0c0,.552-.448,1-1,1s-1-.448-1-1,.448-1,1-1,1,.448,1,1Z"/></svg>
