<?xml version="1.0" encoding="UTF-8"?>
<svg xmlns="http://www.w3.org/2000/svg" id="Layer_1" data-name="Layer 1" viewBox="0 0 24 24" width="512" height="512"><path d="M24,23c0,.552-.447,1-1,1H1c-.553,0-1-.448-1-1s.447-1,1-1H23c.553,0,1,.448,1,1ZM3,18v-6h-1c-.553,0-1-.448-1-1s.447-1,1-1h1.056c.463-4.165,3.779-7.482,7.944-7.944V1c0-.552,.447-1,1-1s1,.448,1,1v1.056c4.165,.463,7.482,3.779,7.944,7.944h1.056c.553,0,1,.448,1,1s-.447,1-1,1h-1v6h1c.553,0,1,.448,1,1s-.447,1-1,1H2c-.553,0-1-.448-1-1s.447-1,1-1h1Zm7-6v6h4v-6h-4Zm9,6v-6h-3v6h3ZM5.072,10h13.857c-.487-3.388-3.408-6-6.928-6s-6.441,2.612-6.928,6Zm-.072,8h3v-6h-3v6Z"/></svg>
