<?xml version="1.0" encoding="UTF-8"?>
<svg xmlns="http://www.w3.org/2000/svg" id="Layer_1" data-name="Layer 1" viewBox="0 0 24 24" width="512" height="512"><path d="M23,24H3c-1.654,0-3-1.346-3-3V1C0,.448,.448,0,1,0s1,.448,1,1V21c0,.551,.449,1,1,1H23c.552,0,1,.448,1,1s-.448,1-1,1Zm1.006-6.991l.015-4.979c.002-.794-.318-1.571-.879-2.13l-2.021-2.021c-1.134-1.134-3.11-1.134-4.243,0l-1.879,1.878-3.879-3.878c-1.133-1.134-3.109-1.134-4.242,0l-2,2c-.567,.566-.879,1.32-.879,2.121v7c0,1.654,1.346,3,3,3h14.006c1.65,0,2.996-1.342,3-2.991ZM9.707,7.293h0l4.586,4.585c.391,.391,1.023,.391,1.414,0l2.586-2.585c.377-.378,1.036-.378,1.414,0l2.021,2.021c.189,.189,.293,.441,.292,.71l-.015,4.979c-.001,.549-.45,.997-1,.997H7c-.551,0-1-.449-1-1v-7c0-.263,.107-.521,.293-.707l2-2c.188-.189,.439-.293,.707-.293s.518,.104,.707,.293Z"/></svg>
