<?xml version="1.0" encoding="UTF-8"?>
<svg xmlns="http://www.w3.org/2000/svg" id="Layer_1" data-name="Layer 1" viewBox="0 0 24 24" width="512" height="512"><path d="M11,14c0,.553-.448,1-1,1h-1c-.552,0-1-.447-1-1s.448-1,1-1h1c.552,0,1,.447,1,1Zm4-1h-1c-.552,0-1,.447-1,1s.448,1,1,1h1c.552,0,1-.447,1-1s-.448-1-1-1Zm-5,4h-1c-.552,0-1,.447-1,1s.448,1,1,1h1c.552,0,1-.447,1-1s-.448-1-1-1Zm5,0h-1c-.552,0-1,.447-1,1s.448,1,1,1h1c.552,0,1-.447,1-1s-.448-1-1-1ZM10,5h-1c-.552,0-1,.447-1,1s.448,1,1,1h1c.552,0,1-.447,1-1s-.448-1-1-1Zm5,0h-1c-.552,0-1,.447-1,1s.448,1,1,1h1c.552,0,1-.447,1-1s-.448-1-1-1Zm-5,4h-1c-.552,0-1,.447-1,1s.448,1,1,1h1c.552,0,1-.447,1-1s-.448-1-1-1Zm5,0h-1c-.552,0-1,.447-1,1s.448,1,1,1h1c.552,0,1-.447,1-1s-.448-1-1-1Zm9,1v9c0,2.757-2.243,5-5,5H5c-2.757,0-5-2.243-5-5v-5c0-2.415,1.721-4.435,4-4.899V5C4,2.243,6.243,0,9,0h6c2.757,0,5,2.243,5,5v.101c2.279,.465,4,2.484,4,4.899Zm-2,0c0-1.654-1.346-3-3-3-.552,0-1-.447-1-1v-1c0-1.654-1.346-3-3-3h-6c-1.654,0-3,1.346-3,3v5c0,.553-.448,1-1,1-1.654,0-3,1.346-3,3v5c0,1.654,1.346,3,3,3h14c1.654,0,3-1.346,3-3V10Zm-3,3h-1c-.552,0-1,.447-1,1s.448,1,1,1h1c.552,0,1-.447,1-1s-.448-1-1-1Zm0,4h-1c-.552,0-1,.447-1,1s.448,1,1,1h1c.552,0,1-.447,1-1s-.448-1-1-1ZM6,13h-1c-.552,0-1,.447-1,1s.448,1,1,1h1c.552,0,1-.447,1-1s-.448-1-1-1Zm0,4h-1c-.552,0-1,.447-1,1s.448,1,1,1h1c.552,0,1-.447,1-1s-.448-1-1-1Zm13-8h-1c-.552,0-1,.447-1,1s.448,1,1,1h1c.552,0,1-.447,1-1s-.448-1-1-1Z"/></svg>
