<?xml version="1.0" encoding="UTF-8"?>
<svg xmlns="http://www.w3.org/2000/svg" id="Layer_1" data-name="Layer 1" viewBox="0 0 24 24" width="512" height="512"><path d="M19,10H7v-3h1.5c1.93,0,3.5-1.57,3.5-3.5s-1.57-3.5-3.5-3.5H3.5C1.57,0,0,1.57,0,3.5s1.57,3.5,3.5,3.5h1.5v3c-2.757,0-5,2.243-5,5v4c0,2.757,2.243,5,5,5h14c2.757,0,5-2.243,5-5v-4c0-2.757-2.243-5-5-5ZM2,3.5c0-.827,.673-1.5,1.5-1.5h5c.827,0,1.5,.673,1.5,1.5s-.673,1.5-1.5,1.5H3.5c-.827,0-1.5-.673-1.5-1.5Zm3,8.5h14c1.654,0,3,1.346,3,3v3H2v-3c0-1.654,1.346-3,3-3Zm14,10H5c-1.304,0-2.415-.836-2.828-2H21.828c-.413,1.164-1.524,2-2.828,2Zm-10-7c0-.552,.448-1,1-1s1,.448,1,1-.448,1-1,1-1-.448-1-1Zm-4,0c0-.552,.448-1,1-1s1,.448,1,1-.448,1-1,1-1-.448-1-1Zm8,0c0-.552,.448-1,1-1s1,.448,1,1-.448,1-1,1-1-.448-1-1Zm4,0c0-.552,.448-1,1-1s1,.448,1,1-.448,1-1,1-1-.448-1-1Z"/></svg>
