<?xml version="1.0" encoding="UTF-8"?>
<svg xmlns="http://www.w3.org/2000/svg" id="Layer_1" data-name="Layer 1" viewBox="0 0 24 24" width="512" height="512"><path d="M12,16c.828,0,1.5,.672,1.5,1.5s-.672,1.5-1.5,1.5-1.5-.672-1.5-1.5,.672-1.5,1.5-1.5Zm1-2c0-.561,.408-1.225,.928-1.512,1.5-.827,2.307-2.523,2.009-4.222-.283-1.614-1.608-2.938-3.221-3.22-1.178-.205-2.379,.11-3.287,.873-.908,.763-1.429,1.879-1.429,3.064,0,.552,.448,1,1,1s1-.448,1-1c0-.592,.261-1.151,.715-1.533,.461-.388,1.049-.542,1.656-.435,.787,.138,1.458,.809,1.596,1.596,.153,.87-.241,1.704-1.004,2.125-1.156,.637-1.963,1.979-1.963,3.264,0,.553,.448,1,1,1s1-.447,1-1Zm11,5V5c0-2.757-2.243-5-5-5H5C2.243,0,0,2.243,0,5v14c0,2.757,2.243,5,5,5h14c2.757,0,5-2.243,5-5ZM19,2c1.654,0,3,1.346,3,3v14c0,1.654-1.346,3-3,3H5c-1.654,0-3-1.346-3-3V5c0-1.654,1.346-3,3-3h14Z"/></svg>
