<?xml version="1.0" encoding="UTF-8"?>
<svg xmlns="http://www.w3.org/2000/svg" id="Layer_1" data-name="Layer 1" viewBox="0 0 24 24" width="512" height="512"><path d="M21.672,14.366c.149-.291,.251-.608,.298-.942,.113-.794-.089-1.584-.57-2.226-.992-1.321-2.877-1.591-4.2-.599-.507,.38-.898,.848-1.2,1.336-.302-.487-.693-.956-1.2-1.336-.641-.48-1.431-.683-2.224-.57-.793,.113-1.495,.528-1.977,1.17-.48,.641-.683,1.431-.569,2.225,.048,.333,.149,.65,.298,.942-1.373,.634-2.328,2.024-2.328,3.634v2c0,.728,.196,1.411,.537,2h-3.537c-1.654,0-3-1.346-3-3V9c0-1.654,1.346-3,3-3h6c1.37,0,2.564,.925,2.906,2.249,.138,.535,.681,.856,1.218,.72,.535-.138,.856-.684,.719-1.218-.568-2.209-2.56-3.751-4.842-3.751h-.586l1.293-1.293c.391-.391,.391-1.023,0-1.414s-1.023-.391-1.414,0l-1.293,1.293V1c0-.553-.448-1-1-1s-1,.447-1,1v1.586l-1.293-1.293c-.391-.391-1.023-.391-1.414,0s-.391,1.023,0,1.414l1.293,1.293h-.586C2.243,4,0,6.243,0,9v10c0,2.757,2.243,5,5,5h15c2.206,0,4-1.794,4-4v-2c0-1.609-.955-2.999-2.328-3.634Zm-3.272-2.166c.213-.16,.475-.229,.742-.19,.264,.038,.498,.177,.658,.39,.161,.214,.228,.478,.19,.742-.038,.264-.176,.498-.391,.659-.101,.075-.214,.142-.336,.199h-2.026c.198-.61,.549-1.34,1.163-1.8Zm-6.2,.2c.161-.214,.395-.353,.659-.391s.527,.03,.742,.19c.614,.46,.965,1.19,1.163,1.8h-2.025c-.123-.057-.237-.124-.339-.201-.213-.159-.352-.394-.39-.657-.038-.265,.029-.528,.189-.741Zm-2.2,7.6v-2c0-1.103,.897-2,2-2h3v6h-3c-1.103,0-2-.897-2-2Zm12,0c0,1.103-.897,2-2,2h-3l-.003-6h3.003c1.103,0,2,.897,2,2v2Z"/></svg>
