<?xml version="1.0" encoding="UTF-8"?>
<svg xmlns="http://www.w3.org/2000/svg" id="Layer_1" data-name="Layer 1" viewBox="0 0 24 24" width="512" height="512"><path d="M15,24c-.553,0-1-.447-1-1v-1.398c0-1.505,.805-2.853,2.1-3.516,3.022-1.55,4.9-4.62,4.9-8.013,0-3.455-1.928-6.55-5.03-8.078l.03,6.005c0,2.206-1.794,4-4,4s-4-1.794-4-4V2.012C4.928,3.523,3,6.618,3,10.073c0,3.393,1.878,6.463,4.9,8.013,1.295,.663,2.1,2.011,2.1,3.516v1.398c0,.553-.447,1-1,1s-1-.447-1-1v-1.398c0-.739-.397-1.421-1.012-1.736-3.693-1.894-5.988-5.646-5.988-9.792C1,5.852,3.355,2.068,7.146,.2c.61-.3,1.321-.263,1.901,.101,.597,.371,.953,1.011,.953,1.711v5.988c0,1.103,.897,2,2,2s2-.897,2-2V2.012c0-.7,.356-1.34,.953-1.711,.581-.362,1.293-.399,1.9-.101,3.791,1.868,6.146,5.651,6.146,9.873,0,4.146-2.295,7.898-5.988,9.792-.614,.315-1.012,.997-1.012,1.736v1.398c0,.553-.447,1-1,1Z"/></svg>
