<?xml version="1.0" encoding="UTF-8"?>
<svg xmlns="http://www.w3.org/2000/svg" id="Layer_1" data-name="Layer 1" viewBox="0 0 24 24" width="512" height="512"><path d="M9,17v2c0,.552-.448,1-1,1s-1-.448-1-1v-2c0-.552,.448-1,1-1s1,.448,1,1Zm7-3c-.553,0-1,.448-1,1v4c0,.552,.447,1,1,1s1-.448,1-1v-4c0-.552-.447-1-1-1Zm-4-3c-.552,0-1,.448-1,1v7c0,.552,.448,1,1,1s1-.448,1-1v-7c0-.552-.448-1-1-1Zm10-.515v8.515c0,2.757-2.243,5-5,5H7c-2.757,0-5-2.243-5-5V5C2,2.243,4.243,0,7,0h4.515c1.869,0,3.627,.728,4.95,2.05l3.484,3.486c1.322,1.321,2.051,3.079,2.051,4.95ZM15.051,3.464c-.318-.318-.671-.587-1.051-.805V7c0,.551,.448,1,1,1h4.341c-.218-.379-.488-.732-.805-1.05l-3.484-3.486Zm4.949,7.021c0-.163-.008-.325-.023-.485h-4.977c-1.654,0-3-1.346-3-3V2.023c-.16-.015-.322-.023-.485-.023H7c-1.654,0-3,1.346-3,3v14c0,1.654,1.346,3,3,3h10c1.654,0,3-1.346,3-3V10.485Z"/></svg>
