<?xml version="1.0" encoding="UTF-8"?>
<svg xmlns="http://www.w3.org/2000/svg" id="Layer_1" data-name="Layer 1" viewBox="0 0 24 24" width="512" height="512"><path d="M21,24H5.912c-1.725,0-3.186-1.06-3.723-2.698-.537-1.64,.016-3.358,1.407-4.379L19.222,5.464c.827-.606,.897-1.505,.688-2.144-.209-.638-.797-1.32-1.822-1.32H3C1.692,1.994,1.693,.005,3,0h15.088c1.725,0,3.186,1.06,3.723,2.698,.537,1.64-.016,3.358-1.407,4.379L4.778,18.536c-.827,.606-.897,1.505-.688,2.144,.209,.638,.797,1.32,1.822,1.32h15.088c1.308,.006,1.307,1.995,0,2Z"/></svg>
