<?xml version="1.0" encoding="UTF-8"?>
<svg xmlns="http://www.w3.org/2000/svg" id="Layer_1" data-name="Layer 1" viewBox="0 0 24 24" width="512" height="512"><path d="M19.45,8.02c.249-2.698,.55-6.029,.55-6.393,0-.883-.643-1.591-1.463-1.611-.684-.02-1.36,.408-2.146,1.336-.342,.403-.679,.646-.881,.647-.253-.003-.829-.519-1.124-.783-.575-.517-1.373-1.227-2.387-1.217-1.037-.018-1.811,.7-2.387,1.217-.295,.265-.871,.78-1.103,.783-.224-.002-.561-.244-.901-.646C6.838,.442,6.129,.017,5.463,.017c-.82,.021-1.463,.729-1.463,1.611,0,.364,.301,3.697,.55,6.393-2.547,.228-4.55,2.374-4.55,4.979v6c0,2.757,2.243,5,5,5h14c2.757,0,5-2.243,5-5v-6c0-2.605-2.003-4.751-4.55-4.98ZM6.083,2.647c.755,.889,1.564,1.344,2.428,1.353,1.007-.011,1.786-.71,2.355-1.221,.313-.281,.893-.779,1.145-.779s.81,.498,1.123,.779c.569,.511,1.349,1.21,2.377,1.221,.842-.009,1.651-.464,2.407-1.354l.007-.009c-.156,1.86-.52,5.799-.77,8.445-.043,.523-.471,.917-.995,.917h-1.074l.243-2.917c.046-.551-.362-1.034-.913-1.079-.564-.057-1.034,.363-1.079,.913l-.257,3.083h-2.161l-.424-5.083c-.045-.551-.517-.974-1.079-.913-.551,.046-.959,.528-.913,1.079l.41,4.917h-1.074c-.524,0-.952-.394-.997-.928-.248-2.64-.611-6.578-.768-8.435l.008,.01Zm12.917,19.353H5c-1.654,0-3-1.346-3-3H22c0,1.654-1.346,3-3,3Zm3-5H2v-4c0-1.565,1.204-2.853,2.735-2.988,.051,.546,.092,.98,.116,1.237,.128,1.542,1.441,2.751,2.989,2.751h8.32c1.548,0,2.861-1.209,2.987-2.74,.024-.259,.066-.697,.117-1.247,1.531,.134,2.735,1.423,2.735,2.988v4Z"/></svg>
