<?xml version="1.0" encoding="UTF-8"?>
<svg xmlns="http://www.w3.org/2000/svg" id="Layer_1" data-name="Layer 1" viewBox="0 0 24 24" width="512" height="512"><path d="M16,14c0,.552-.448,1-1,1h-1c-.552,0-1-.448-1-1s.448-1,1-1h1c.552,0,1,.448,1,1Zm3-1h-1c-.552,0-1,.448-1,1s.448,1,1,1h1c.552,0,1-.448,1-1s-.448-1-1-1Zm-4,4h-1c-.552,0-1,.448-1,1s.448,1,1,1h1c.552,0,1-.448,1-1s-.448-1-1-1Zm4,0h-1c-.552,0-1,.448-1,1s.448,1,1,1h1c.552,0,1-.448,1-1s-.448-1-1-1ZM15,5h-1c-.552,0-1,.448-1,1s.448,1,1,1h1c.552,0,1-.448,1-1s-.448-1-1-1Zm4,0h-1c-.552,0-1,.448-1,1s.448,1,1,1h1c.552,0,1-.448,1-1s-.448-1-1-1Zm-4,4h-1c-.552,0-1,.448-1,1s.448,1,1,1h1c.552,0,1-.448,1-1s-.448-1-1-1Zm4,0h-1c-.552,0-1,.448-1,1s.448,1,1,1h1c.552,0,1-.448,1-1s-.448-1-1-1Zm5-4v14c0,2.757-2.243,5-5,5H5c-2.757,0-5-2.243-5-5V9.258c0-1.351,.558-2.664,1.531-3.601l1.888-1.818c1.167-1.125,2.995-1.124,4.162,0l1.419,1.367v-.206c0-2.757,2.243-5,5-5h5c2.757,0,5,2.243,5,5Zm-15,4.258c0-.811-.335-1.598-.919-2.161l-1.888-1.818c-.194-.188-.444-.281-.693-.281s-.499,.093-.693,.281l-1.888,1.818c-.584,.562-.919,1.35-.919,2.161v9.742c0,1.654,1.346,3,3,3h4V9.258Zm13-4.258c0-1.654-1.346-3-3-3h-5c-1.654,0-3,1.346-3,3V22h8c1.654,0,3-1.346,3-3V5ZM6,13h-1c-.552,0-1,.448-1,1s.448,1,1,1h1c.552,0,1-.448,1-1s-.448-1-1-1Zm0-4h-1c-.552,0-1,.448-1,1s.448,1,1,1h1c.552,0,1-.448,1-1s-.448-1-1-1Zm0,8h-1c-.552,0-1,.448-1,1s.448,1,1,1h1c.552,0,1-.448,1-1s-.448-1-1-1Z"/></svg>
