<?xml version="1.0" encoding="UTF-8"?>
<svg xmlns="http://www.w3.org/2000/svg" id="Layer_1" data-name="Layer 1" viewBox="0 0 24 24" width="512" height="512"><path d="M24,18c0-.552-.447-1-1-1H9c-1.654,0-3-1.346-3-3V5C6,2.243,3.757,0,1,0,.447,0,0,.448,0,1s.447,1,1,1c1.654,0,3,1.346,3,3V14c0,1.92,1.089,3.591,2.681,4.428-.428,.58-.681,1.297-.681,2.072,0,1.93,1.57,3.5,3.5,3.5s3.5-1.57,3.5-3.5c0-.536-.122-1.045-.338-1.5h4.677c-.217,.455-.338,.964-.338,1.5,0,1.93,1.57,3.5,3.5,3.5s3.5-1.57,3.5-3.5c0-.608-.156-1.18-.43-1.679,.26-.181,.43-.481,.43-.821Zm-13,2.5c0,.827-.673,1.5-1.5,1.5s-1.5-.673-1.5-1.5,.673-1.5,1.5-1.5,1.5,.673,1.5,1.5Zm9.5,1.5c-.827,0-1.5-.673-1.5-1.5s.673-1.5,1.5-1.5,1.5,.673,1.5,1.5-.673,1.5-1.5,1.5Zm-.5-18v-1c0-1.654-1.346-3-3-3h-2c-1.654,0-3,1.346-3,3v1c-2.206,0-4,1.794-4,4v3c0,2.206,1.794,4,4,4h8c2.206,0,4-1.794,4-4v-3c0-2.206-1.794-4-4-4Zm-6-1c0-.551,.448-1,1-1h2c.552,0,1,.449,1,1v1h-4v-1Zm4,3v7h-4V6h4Zm-8,5v-3c0-1.103,.897-2,2-2v7c-1.103,0-2-.897-2-2Zm12,0c0,1.103-.897,2-2,2V6c1.103,0,2,.897,2,2v3Z"/></svg>
