<?xml version="1.0" encoding="UTF-8"?>
<svg xmlns="http://www.w3.org/2000/svg" id="Layer_1" data-name="Layer 1" viewBox="0 0 24 24" width="512" height="512"><path d="M23.71,22.29l-1.75-1.75c-.18-1.54-1.23-2.81-2.65-3.3,.45-1.01,.69-2.11,.69-3.24,0-.29-.04-.63-.1-1h2.1c.55,0,1-.45,1-1s-.45-1-1-1h-2.58c-.3-1.02-.66-2.09-.99-3h.57c2.21,0,4-1.79,4-4v-1c0-.55-.45-1-1-1s-1,.45-1,1v1c0,1.1-.9,2-2,2h-1.34c-.1-.24-.16-.39-.16-.4-.96-2.19-3.11-3.6-5.5-3.6-2.24,0-4.27,1.26-5.32,3.27L1.71,.29C1.32-.1,.68-.1,.29,.29S-.1,1.32,.29,1.71L22.29,23.71c.2,.2,.45,.29,.71,.29s.51-.1,.71-.29c.39-.39,.39-1.02,0-1.41ZM8.33,6.4c.64-1.46,2.08-2.4,3.67-2.4s3.03,.94,3.67,2.4c.41,.94,2.33,5.93,2.33,7.6,0,.75-.15,1.48-.42,2.17L8.18,6.76c.06-.14,.11-.26,.16-.36Z"/><path d="M15.9,19.9c-.24-.5-.83-.71-1.33-.47-.81,.38-1.67,.58-2.57,.58-3.31,0-6-2.69-6-6,0-.29,.07-1.04,.58-2.71,.16-.53-.14-1.09-.67-1.25-.53-.16-1.09,.14-1.25,.67-.03,.1-.05,.19-.08,.29H2c-.55,0-1,.45-1,1s.45,1,1,1h2.1c-.06,.38-.1,.72-.1,1,0,1.15,.25,2.25,.69,3.24-1.56,.55-2.69,2.02-2.69,3.76v1c0,.55,.45,1,1,1s1-.45,1-1v-1c0-1.03,.78-1.87,1.78-1.98,1.47,1.81,3.71,2.98,6.22,2.98,1.2,0,2.35-.26,3.43-.77,.5-.24,.71-.83,.47-1.33Z"/></svg>
