<?xml version="1.0" encoding="UTF-8"?>
<svg xmlns="http://www.w3.org/2000/svg" id="Layer_1" data-name="Layer 1" viewBox="0 0 24 24" width="512" height="512"><path d="M17.994,2.286C16.086,.582,13.524-.23,10.956,.059,6.904,.517,3.59,3.782,3.075,7.822c-.374,2.931,.644,5.76,2.793,7.761,1.375,1.279,2.132,2.9,2.132,4.566v.161c0,2.035,1.655,3.69,3.69,3.69h.619c2.035,0,3.69-1.655,3.69-3.69v-.549c0-1.486,.687-2.906,1.932-3.998,1.95-1.708,3.068-4.173,3.068-6.763,0-2.56-1.096-5.007-3.006-6.714Zm-5.685,19.714h-.619c-.932,0-1.69-.758-1.69-1.69v-.161c0-.05-.001-.1-.002-.149h4.002v.31c0,.932-.759,1.69-1.69,1.69Zm4.304-7.741c-1.177,1.032-1.998,2.34-2.376,3.741h-4.548c-.42-1.431-1.258-2.765-2.458-3.881-1.671-1.556-2.463-3.759-2.171-6.043,.399-3.138,2.974-5.673,6.121-6.029,.278-.031,.554-.047,.828-.047,1.725,0,3.353,.617,4.652,1.778,1.486,1.328,2.339,3.231,2.339,5.222,0,2.013-.87,3.93-2.387,5.259Zm-.613-2.259c0,1.654-1.346,3-3,3v1c0,.552-.447,1-1,1s-1-.448-1-1v-1h-.268c-1.067,0-2.063-.574-2.598-1.499-.277-.478-.113-1.089,.364-1.366,.479-.278,1.09-.113,1.366,.365,.179,.308,.511,.5,.867,.5h2.268c.552,0,1-.449,1-1,0-.378-.271-.698-.644-.76l-3.041-.507c-1.342-.223-2.315-1.373-2.315-2.733,0-1.654,1.346-3,3-3v-1c0-.552,.447-1,1-1s1,.448,1,1v1h.268c1.067,0,2.063,.575,2.598,1.5,.277,.478,.113,1.089-.364,1.366-.48,.276-1.091,.113-1.366-.365-.179-.309-.511-.5-.867-.5h-2.268c-.552,0-1,.449-1,1,0,.378,.271,.698,.644,.76l3.041,.507c1.342,.223,2.315,1.373,2.315,2.733Z"/></svg>
