<?xml version="1.0" encoding="UTF-8"?>
<svg xmlns="http://www.w3.org/2000/svg" id="Layer_1" data-name="Layer 1" viewBox="0 0 24 24" width="512" height="512"><path d="M22,5.724V2c0-.552-.447-1-1-1s-1,.448-1,1v2.366L14.797,.855c-1.699-1.146-3.895-1.146-5.594,0L2.203,5.579c-1.379,.931-2.203,2.48-2.203,4.145v9.276c0,2.757,2.243,5,5,5h3c.553,0,1-.448,1-1V15c0-.551,.448-1,1-1h4c.552,0,1,.449,1,1v8c0,.552,.447,1,1,1h3c2.757,0,5-2.243,5-5V9.724c0-1.581-.744-3.058-2-4Zm0,13.276c0,1.654-1.346,3-3,3h-2v-7c0-1.654-1.346-3-3-3h-4c-1.654,0-3,1.346-3,3v7h-2c-1.654,0-3-1.346-3-3V9.724c0-.999,.494-1.929,1.322-2.487L10.322,2.513c1.02-.688,2.336-.688,3.355,0l7,4.724c.828,.558,1.322,1.488,1.322,2.487v9.276Z"/></svg>
