<?xml version="1.0" encoding="UTF-8"?>
<svg xmlns="http://www.w3.org/2000/svg" id="Layer_1" data-name="Layer 1" viewBox="0 0 24 24" width="512" height="512"><path d="M21,24H3c-.552,0-1-.448-1-1s.448-1,1-1H21c.553,0,1,.448,1,1s-.447,1-1,1Zm3-6c0-2.757-2.243-5-5-5h-3c-.404,0-.653-.223-.766-.356-.111-.133-.289-.416-.22-.813,.58-3.334,.985-6.555,.985-7.831,0-2.206-1.794-4-4-4s-4,1.794-4,4c0,1.278,.405,4.498,.985,7.831,.069,.397-.107,.68-.219,.812-.112,.133-.36,.357-.766,.357h-3c-2.757,0-5,2.243-5,5,0,.97,.701,2,2,2H22c1.299,0,2-1.03,2-2Zm-16-3c.888,0,1.725-.39,2.296-1.07,.571-.679,.811-1.569,.659-2.442-.554-3.181-.956-6.331-.956-7.488,0-1.103,.897-2,2-2s2,.897,2,2c0,1.156-.402,4.305-.956,7.488-.151,.874,.089,1.764,.66,2.443,.572,.679,1.408,1.069,2.296,1.069h3c1.654,0,3,1.346,3,3H2c0-1.654,1.346-3,3-3h3Z"/></svg>
