<?xml version="1.0" encoding="UTF-8"?>
<svg xmlns="http://www.w3.org/2000/svg" id="Layer_1" data-name="Layer 1" viewBox="0 0 24 24" width="512" height="512"><path d="M22.49,12.13l-3.99-2.28V5.3c0-1.07-.58-2.07-1.51-2.6L13.49,.7c-.92-.52-2.06-.52-2.98,0l-3.5,2c-.93,.53-1.51,1.53-1.51,2.6v4.55l-3.99,2.28c-.93,.53-1.51,1.53-1.51,2.6v3.96c0,1.07,.58,2.07,1.51,2.6l3.5,2c.46,.26,.97,.39,1.49,.39s1.03-.13,1.49-.39l4.01-2.29,4.01,2.29c.46,.26,.97,.39,1.49,.39s1.03-.13,1.49-.39l3.5-2c.93-.53,1.51-1.53,1.51-2.6v-3.96c0-1.07-.58-2.07-1.51-2.6Zm-4.99,3.43l-3.48-1.99,3.48-1.99,3.48,1.99-3.48,1.99Zm-11,0l-3.48-1.99,3.48-1.99,3.48,1.99-3.48,1.99Zm4.5-7.7v3.98l-3.5-2v-3.98l3.5,2Zm5.5-2v3.98l-3.5,2v-3.98l3.5-2Zm-5-3.43c.3-.17,.69-.17,.99,0l2.99,1.71-3.48,1.99-3.48-1.99,2.99-1.71ZM2.5,19.56c-.31-.18-.5-.51-.5-.87v-3.4l3.5,2v3.98l-3-1.71Zm5,1.71v-3.98l3.5-2v3.98l-3.5,2Zm5.5-2v-3.98l3.5,2v3.98l-3.5-2Zm8.5,.29l-3,1.71v-3.98l3.5-2v3.4c0,.36-.19,.69-.5,.87Z"/></svg>
