<?xml version="1.0" encoding="UTF-8"?>
<svg xmlns="http://www.w3.org/2000/svg" id="Layer_1" data-name="Layer 1" viewBox="0 0 24 24" width="512" height="512"><path d="M1.067,15.411l2.075,1.477c1.062,.755,2.317,1.14,3.572,1.14,.893,0,1.787-.195,2.612-.59l12.953-5.698c1.486-.71,2.133-2.504,1.441-4-.694-1.497-2.475-2.152-3.976-1.465l-3.143,1.402L9.982,3.591c-.882-.656-2.05-.774-3.052-.311l-.781,.366c-.611,.287-1.033,.857-1.129,1.525-.096,.669,.148,1.335,.654,1.783l4.204,3.72-3.591,1.602-3.057-1.122c-.984-.359-2.084-.041-2.735,.791-.392,.501-.556,1.132-.462,1.776,.099,.677,.475,1.292,1.033,1.688ZM7,5.457l.776-.364c.332-.154,.721-.113,1.085,.151l5.531,3.418-2.506,1.118L7,5.457ZM2.071,13.179c.098-.125,.224-.169,.334-.169,.05,0,3.574,1.285,3.574,1.285,.245,.09,.515,.081,.752-.025l13.833-6.171,.013-.006c.501-.231,1.096-.012,1.328,.487,.234,.507,.016,1.114-.46,1.342l-12.953,5.698c-1.357,.647-2.964,.51-4.191-.362l-2.075-1.476c-.114-.081-.193-.211-.213-.348-.015-.102,.005-.188,.058-.256Zm21.929,9.821c0,.553-.448,1-1,1H1c-.552,0-1-.447-1-1s.448-1,1-1H23c.552,0,1,.447,1,1Z"/></svg>
