<?xml version="1.0" encoding="UTF-8"?>
<svg xmlns="http://www.w3.org/2000/svg" id="Layer_1" data-name="Layer 1" viewBox="0 0 24 24" width="512" height="512"><path d="M12.836,.029C9.371-.205,5.962,1.065,3.509,3.521,1.057,5.976-.211,9.378,.029,12.854c.441,6.354,6.053,11.146,13.054,11.146h5.917c2.757,0,5-2.243,5-5v-6.66C24,5.862,19.097,.454,12.836,.029Zm9.164,18.971c0,1.654-1.346,3-3,3h-5.917c-6.034,0-10.686-3.905-11.058-9.285-.201-2.899,.855-5.735,2.898-7.782,1.882-1.884,4.435-2.933,7.091-2.933,.229,0,.457,.007,.687,.023,5.214,.354,9.299,4.886,9.299,10.316v6.66Zm-6-5c0,1.654-1.346,3-3,3v1c0,.552-.447,1-1,1s-1-.448-1-1v-1h-.268c-1.067,0-2.063-.574-2.598-1.499-.277-.478-.113-1.089,.364-1.366,.479-.278,1.09-.114,1.366,.365,.179,.308,.511,.5,.867,.5h2.268c.552,0,1-.449,1-1,0-.378-.271-.698-.644-.76l-3.041-.507c-1.342-.223-2.315-1.373-2.315-2.733,0-1.654,1.346-3,3-3v-1c0-.552,.447-1,1-1s1,.448,1,1v1h.268c1.067,0,2.063,.575,2.598,1.5,.277,.478,.113,1.089-.364,1.366-.48,.277-1.091,.113-1.366-.365-.179-.309-.511-.5-.867-.5h-2.268c-.552,0-1,.449-1,1,0,.378,.271,.698,.644,.76l3.041,.507c1.342,.223,2.315,1.373,2.315,2.733Z"/></svg>
