<?xml version="1.0" encoding="UTF-8"?>
<svg xmlns="http://www.w3.org/2000/svg" id="Layer_1" data-name="Layer 1" viewBox="0 0 24 24" width="512" height="512"><path d="M18.37,24.006c-1.411,0-2.662-.813-3.246-2.178L7.038,2.96c-.375-.876-1.163-1.051-1.773-.927-.611,.125-1.265,.599-1.265,1.551V23c-.005,1.308-1.995,1.307-2,0V3.583C2,1.835,3.15,.425,4.862,.074c1.708-.353,3.325,.491,4.014,2.098l8.086,18.869c.375,.874,1.159,1.049,1.773,.927,.611-.126,1.265-.6,1.265-1.551V1c.006-1.308,1.995-1.307,2,0V20.417c0,1.748-1.15,3.158-2.862,3.51-.259,.053-.516,.079-.768,.079Z"/></svg>
