<?xml version="1.0" encoding="UTF-8"?>
<svg xmlns="http://www.w3.org/2000/svg" id="Layer_1" data-name="Layer 1" viewBox="0 0 24 24" width="512" height="512"><path d="M5,6.5c0-.83,.67-1.5,1.5-1.5s1.5,.67,1.5,1.5-.67,1.5-1.5,1.5-1.5-.67-1.5-1.5Zm19-.5V14c0,2.76-2.24,5-5,5h-6v2h4c.55,0,1,.45,1,1s-.45,1-1,1H7c-.55,0-1-.45-1-1s.45-1,1-1h4v-2H5c-2.76,0-5-2.24-5-5V6C0,3.24,2.24,1,5,1h14c2.76,0,5,2.24,5,5ZM2,14c0,.72,.26,1.38,.68,1.9l5.93-5.93c1.32-1.32,3.46-1.32,4.78,0l.63,.64c.54,.54,1.41,.54,1.95,0l5.78-5.78c-.46-1.07-1.52-1.83-2.76-1.83H5c-1.65,0-3,1.35-3,3V14Zm20,0V7.41l-4.61,4.61c-1.32,1.32-3.46,1.32-4.78,0l-.63-.64c-.54-.54-1.41-.54-1.95,0l-5.56,5.56c.17,.03,.35,.05,.54,.05h14c1.65,0,3-1.35,3-3Z"/></svg>
