<?xml version="1.0" encoding="UTF-8"?>
<svg xmlns="http://www.w3.org/2000/svg" id="Layer_1" data-name="Layer 1" viewBox="0 0 24 24" width="512" height="512"><path d="M20,0H4C1.79,0,0,1.79,0,4v12c0,2.21,1.79,4,4,4h2.92l3.75,3.16c.38,.34,.86,.51,1.34,.51s.93-.16,1.29-.49l3.85-3.18h2.85c2.21,0,4-1.79,4-4V4c0-2.21-1.79-4-4-4Zm2,16c0,1.1-.9,2-2,2h-3.21c-.23,0-.46,.08-.64,.23l-4.17,3.42-4.05-3.41c-.18-.15-.41-.24-.64-.24h-3.29c-1.1,0-2-.9-2-2V4c0-1.1,.9-2,2-2H20c1.1,0,2,.9,2,2v12Zm-4.25-4.66c.37,.41,.33,1.04-.08,1.41-.1,.09-2.56,2.25-5.67,2.25s-5.56-2.16-5.67-2.25c-.41-.37-.45-1-.08-1.41,.37-.41,1-.45,1.41-.08,.02,.02,2,1.75,4.33,1.75s4.32-1.73,4.34-1.75c.41-.37,1.05-.33,1.41,.08ZM7,7.5c0-.83,.67-1.5,1.5-1.5s1.5,.67,1.5,1.5-.67,1.5-1.5,1.5-1.5-.67-1.5-1.5Zm7,0c0-.83,.67-1.5,1.5-1.5s1.5,.67,1.5,1.5-.67,1.5-1.5,1.5-1.5-.67-1.5-1.5Z"/></svg>
