<?xml version="1.0" encoding="UTF-8"?>
<svg xmlns="http://www.w3.org/2000/svg" id="Layer_1" data-name="Layer 1" viewBox="0 0 24 24" width="512" height="512"><path d="M19,0H5C2.239,0,0,2.239,0,5v14c0,2.761,2.239,5,5,5h14c2.761,0,5-2.239,5-5V5c0-2.761-2.239-5-5-5Zm0,2c1.654,0,3,1.346,3,3v14c0,.463-.105,.901-.293,1.293l-6.592-6.593c1.686-.65,2.886-2.288,2.886-4.2,0-2.481-2.019-4.5-4.5-4.5h-2.5c-1.226,0-2.359,.563-3.105,1.48L3.708,2.293c.392-.188,.83-.293,1.292-.293h14Zm-5.586,10l-4.091-4.091c.364-.557,.992-.909,1.677-.909h2.5c1.379,0,2.5,1.122,2.5,2.5s-1.121,2.5-2.5,2.5h-.086ZM5,22c-1.654,0-3-1.346-3-3V5c0-.463,.105-.901,.293-1.293L20.292,21.707c-.392,.188-.83,.293-1.292,.293H5Zm4-9v5c0,.552-.447,1-1,1s-1-.448-1-1v-5c0-.552,.447-1,1-1s1,.448,1,1Z"/></svg>
