<?xml version="1.0" encoding="UTF-8"?>
<svg xmlns="http://www.w3.org/2000/svg" id="Layer_1" data-name="Layer 1" viewBox="0 0 24 24" width="512" height="512"><path d="M11,9c0,.55-.45,1-1,1h-1v1c0,.55-.45,1-1,1s-1-.45-1-1v-2c0-.55,.45-1,1-1h2c.55,0,1,.45,1,1Zm-3,5c-.55,0-1,.45-1,1v2c0,.55,.45,1,1,1h2c.55,0,1-.45,1-1s-.45-1-1-1h-1v-1c0-.55-.45-1-1-1Zm8-2c.55,0,1-.45,1-1v-2c0-.55-.45-1-1-1h-2c-.55,0-1,.45-1,1s.45,1,1,1h1v1c0,.55,.45,1,1,1ZM21,0h-4.34c-1.25,0-2.36,.7-2.81,1.78-.31,.74-1.04,1.22-1.84,1.22s-1.53-.48-1.84-1.22c-.46-1.08-1.56-1.78-2.81-1.78H3C1.35,0,0,1.35,0,3v1.56c0,1.29,.82,2.44,2.05,2.85l.26,.09c.41,.14,.68,.52,.68,.95v10.56c0,2.76,2.24,5,5,5h4c.55,0,1-.45,1-1s-.45-1-1-1h-4c-1.65,0-3-1.35-3-3V8.44c0-1.29-.82-2.44-2.05-2.85l-.26-.09c-.41-.14-.68-.52-.68-.95v-1.56c0-.55,.45-1,1-1H7.34c.44,0,.83,.22,.97,.56,.63,1.48,2.08,2.44,3.69,2.44s3.06-.96,3.69-2.44c.14-.33,.53-.56,.97-.56h4.34c.55,0,1,.45,1,1v1.56c0,.43-.27,.81-.68,.95l-.27,.09c-1.23,.41-2.05,1.55-2.05,2.85v3.56c0,.55,.45,1,1,1s1-.45,1-1v-3.56c0-.43,.27-.81,.68-.95l.27-.09c1.23-.41,2.05-1.55,2.05-2.85v-1.56c0-1.65-1.35-3-3-3Zm2,16.95c.02,.4-.2,.77-.55,.94l-3.7,1.85-1.85,3.7c-.17,.34-.52,.55-.89,.55-.02,0-.03,0-.05,0-.4-.02-.74-.27-.88-.64l-2.94-7.67c-.26-.76-.08-1.55,.46-2.1,.54-.54,1.33-.73,2.06-.48,.01,0,.02,0,.03,.01l7.67,2.94c.37,.14,.62,.49,.64,.88Zm-3.48,.17l-5.53-2.12,2.12,5.52,.99-1.97c.1-.19,.25-.35,.45-.45l1.97-.98Z"/></svg>
