<?xml version="1.0" encoding="UTF-8"?>
<svg xmlns="http://www.w3.org/2000/svg" id="Layer_1" data-name="Layer 1" viewBox="0 0 24 24" width="512" height="512"><path d="M10,6.5c0-.83,.67-1.5,1.5-1.5s1.5,.67,1.5,1.5-.67,1.5-1.5,1.5-1.5-.67-1.5-1.5Zm2.5,9.5c-.83,0-1.5,.67-1.5,1.5s.67,1.5,1.5,1.5,1.5-.67,1.5-1.5-.67-1.5-1.5-1.5Zm11.5-4c0,6.62-5.38,12-12,12S0,18.62,0,12,5.38,0,12,0s12,5.38,12,12ZM6.73,20.5c-.47-.9-.73-1.92-.73-3,0-3.34,2.6-6.2,5.91-6.5,2.29-.21,4.09-2.18,4.09-4.5s-1.91-4.39-4.3-4.5C6.33,2.16,2,6.59,2,12c0,3.58,1.89,6.73,4.73,8.5Zm15.27-8.5c0-3.58-1.89-6.73-4.73-8.5,.47,.9,.73,1.92,.73,3,0,3.34-2.6,6.2-5.91,6.5-2.29,.21-4.09,2.18-4.09,4.5s1.91,4.39,4.3,4.5c5.38-.16,9.7-4.58,9.7-10Z"/></svg>
