<?xml version="1.0" encoding="UTF-8"?>
<svg xmlns="http://www.w3.org/2000/svg" id="Layer_1" data-name="Layer 1" viewBox="0 0 24 24" width="512" height="512"><path d="M0,1.5C0,.67,.67,0,1.5,0s1.5,.67,1.5,1.5-.67,1.5-1.5,1.5S0,2.33,0,1.5Zm1.5,6.5c.83,0,1.5-.67,1.5-1.5s-.67-1.5-1.5-1.5-1.5,.67-1.5,1.5,.67,1.5,1.5,1.5ZM17.5,3c.83,0,1.5-.67,1.5-1.5s-.67-1.5-1.5-1.5-1.5,.67-1.5,1.5,.67,1.5,1.5,1.5Zm5,0c.83,0,1.5-.67,1.5-1.5s-.67-1.5-1.5-1.5-1.5,.67-1.5,1.5,.67,1.5,1.5,1.5ZM1.5,16c-.83,0-1.5,.67-1.5,1.5s.67,1.5,1.5,1.5,1.5-.67,1.5-1.5-.67-1.5-1.5-1.5ZM6.5,3c.83,0,1.5-.67,1.5-1.5s-.67-1.5-1.5-1.5-1.5,.67-1.5,1.5,.67,1.5,1.5,1.5ZM1.5,21c-.83,0-1.5,.67-1.5,1.5s.67,1.5,1.5,1.5,1.5-.67,1.5-1.5-.67-1.5-1.5-1.5Zm21-5c-.83,0-1.5,.67-1.5,1.5s.67,1.5,1.5,1.5,1.5-.67,1.5-1.5-.67-1.5-1.5-1.5Zm.5-5H13V1c0-.55-.45-1-1-1s-1,.45-1,1V11H1c-.55,0-1,.45-1,1s.45,1,1,1H11v10c0,.55,.45,1,1,1s1-.45,1-1V13h10c.55,0,1-.45,1-1s-.45-1-1-1Zm-.5-6c-.83,0-1.5,.67-1.5,1.5s.67,1.5,1.5,1.5,1.5-.67,1.5-1.5-.67-1.5-1.5-1.5ZM6.5,21c-.83,0-1.5,.67-1.5,1.5s.67,1.5,1.5,1.5,1.5-.67,1.5-1.5-.67-1.5-1.5-1.5Zm11,0c-.83,0-1.5,.67-1.5,1.5s.67,1.5,1.5,1.5,1.5-.67,1.5-1.5-.67-1.5-1.5-1.5Zm5,0c-.83,0-1.5,.67-1.5,1.5s.67,1.5,1.5,1.5,1.5-.67,1.5-1.5-.67-1.5-1.5-1.5Z"/></svg>
