<?xml version="1.0" encoding="UTF-8"?>
<svg xmlns="http://www.w3.org/2000/svg" id="Layer_1" data-name="Layer 1" viewBox="0 0 24 24" width="512" height="512"><path d="M19,2H5C2.243,2,0,4.243,0,7v10c0,2.757,2.243,5,5,5h14c2.757,0,5-2.243,5-5V7c0-2.757-2.243-5-5-5Zm3,15c0,1.654-1.346,3-3,3H5c-1.654,0-3-1.346-3-3V7c0-1.654,1.346-3,3-3h14c1.654,0,3,1.346,3,3v10Zm-3-11c-.552,0-1,.448-1,1v4.338c-.455-.217-.964-.338-1.5-.338-1.93,0-3.5,1.57-3.5,3.5s1.57,3.5,3.5,3.5c.608,0,1.18-.156,1.679-.43,.181,.26,.481,.43,.821,.43,.552,0,1-.448,1-1V7c0-.552-.448-1-1-1Zm-2.5,10c-.827,0-1.5-.673-1.5-1.5s.673-1.5,1.5-1.5,1.5,.673,1.5,1.5-.673,1.5-1.5,1.5ZM8.958,6.713c-.127-.423-.517-.713-.958-.713s-.831,.29-.958,.713l-3,10c-.159,.529,.142,1.086,.671,1.245s1.086-.141,1.245-.671l.386-1.287h3.312l.386,1.287c.13,.434,.527,.713,.958,.713,.095,0,.192-.014,.288-.042,.529-.159,.83-.716,.671-1.245l-3-10Zm-2.014,7.287l1.056-3.52,1.056,3.52h-2.112Z"/></svg>
