<?xml version="1.0" encoding="UTF-8"?>
<svg xmlns="http://www.w3.org/2000/svg" id="Layer_1" data-name="Layer 1" viewBox="0 0 24 24" width="512" height="512"><path d="M12,24c-1.431,0-2.783-.551-3.807-1.552l-3.943-3.643c-2.106-2.105-3.25-4.867-3.25-7.805s1.144-5.701,3.222-7.778C6.299,1.145,9.062,0,12,0s5.7,1.145,7.778,3.222c2.078,2.077,3.222,4.839,3.222,7.778s-1.145,5.7-3.222,7.778l-3.992,3.689c-1.003,.981-2.355,1.533-3.787,1.533Zm0-22c-2.404,0-4.665,.936-6.364,2.636-1.7,1.7-2.636,3.959-2.636,6.364s.936,4.664,2.636,6.364l3.935,3.635c1.336,1.306,3.542,1.286,4.837,.02l3.984-3.682c1.671-1.673,2.608-3.933,2.608-6.336s-.937-4.664-2.636-6.364h0c-1.7-1.7-3.96-2.636-6.364-2.636Zm1,12v-1c0-.551,.408-1.208,.929-1.495,1.5-.827,2.307-2.523,2.008-4.222-.283-1.613-1.607-2.937-3.221-3.22-1.181-.205-2.379,.11-3.287,.873-.908,.763-1.429,1.879-1.429,3.064,0,.552,.448,1,1,1s1-.448,1-1c0-.592,.261-1.151,.715-1.533,.46-.388,1.05-.542,1.655-.435,.787,.138,1.458,.81,1.597,1.596,.153,.87-.242,1.704-1.004,2.125-1.156,.637-1.963,1.972-1.963,3.247v1c0,.552,.448,1,1,1s1-.448,1-1Zm.5,3.5h0c0-.828-.672-1.5-1.5-1.5h0c-.828,0-1.5,.672-1.5,1.5h0c0,.828,.672,1.5,1.5,1.5h0c.828,0,1.5-.672,1.5-1.5Z"/></svg>
