<?xml version="1.0" encoding="UTF-8"?>
<svg xmlns="http://www.w3.org/2000/svg" id="Layer_1" data-name="Layer 1" viewBox="0 0 24 24" width="512" height="512"><path d="M12,20c-.552,0-1-.447-1-1,0-2.318,1.382-4.357,3.891-5.741,2.287-1.26,3.469-3.755,3.012-6.355-.423-2.408-2.399-4.385-4.808-4.808-1.812-.318-3.57,.147-4.952,1.307-1.363,1.144-2.144,2.82-2.144,4.597,0,.552-.448,1-1,1s-1-.448-1-1c0-2.37,1.042-4.604,2.858-6.129C8.673,.347,11.074-.289,13.441,.126c3.222,.565,5.866,3.21,6.432,6.432,.598,3.402-1.017,6.798-4.016,8.453-1.303,.718-2.857,1.993-2.857,3.989,0,.553-.448,1-1,1Zm-1.5,2.5c0,.828,.672,1.5,1.5,1.5s1.5-.672,1.5-1.5-.672-1.5-1.5-1.5-1.5,.672-1.5,1.5Z"/></svg>
