<?xml version="1.0" encoding="UTF-8"?>
<svg xmlns="http://www.w3.org/2000/svg" id="Layer_1" data-name="Layer 1" viewBox="0 0 24 24" width="512" height="512"><path d="M19,22H5c-2.757,0-5-2.243-5-5V7C0,4.243,2.243,2,5,2h14c2.757,0,5,2.243,5,5v10c0,2.757-2.243,5-5,5ZM5,4c-1.654,0-3,1.346-3,3v10c0,1.654,1.346,3,3,3h14c1.654,0,3-1.346,3-3V7c0-1.654-1.346-3-3-3H5Zm1,13V7c0-.552-.447-1-1-1s-1,.448-1,1v10c0,.553,.447,1,1,1s1-.447,1-1Zm4,0V7c0-.552-.447-1-1-1s-1,.448-1,1v10c0,.553,.447,1,1,1s1-.447,1-1Zm10,0V7c0-.552-.447-1-1-1s-1,.448-1,1v10c0,.553,.447,1,1,1s1-.447,1-1Zm-6-.5V7.5c0-.829-.672-1.5-1.5-1.5s-1.5,.671-1.5,1.5v9c0,.828,.672,1.5,1.5,1.5s1.5-.672,1.5-1.5Zm1.5,1.5h0c-.276,0-.5-.224-.5-.5V6.5c0-.276,.224-.5,.5-.5h0c.276,0,.5,.224,.5,.5v11c0,.276-.224,.5-.5,.5Z"/></svg>
