<?xml version="1.0" encoding="UTF-8"?>
<svg xmlns="http://www.w3.org/2000/svg" id="Layer_1" data-name="Layer 1" viewBox="0 0 24 24" width="512" height="512"><path d="M13,24H6c-1.65,0-3-1.35-3-3v-.97c0-.9-.26-1.73-.74-2.35C.58,15.48-.2,12.75,.05,9.98,.5,4.95,4.46,.79,9.45,.11c4.04-.56,7.91,1.06,10.35,4.31,1.27,1.57,4.2,7.16,4.2,8.58,0,.97-.7,2-2,2h-.33l-.22,1.66c-.33,2.48-2.46,4.34-4.96,4.34h-.49c0,1.65-1.35,3-3,3ZM11.01,2c-.42,0-.85,.03-1.28,.09-4.08,.56-7.31,3.96-7.69,8.07-.21,2.27,.44,4.5,1.81,6.3,.74,.97,1.15,2.24,1.15,3.57v.97c0,.55,.45,1,1,1h7c.55,0,1-.45,1-1v-1c0-.55,.45-1,1-1h1.49c1.5,0,2.78-1.12,2.97-2.61l.33-2.52c.07-.5,.49-.87,.99-.87h1.2c-.12-.9-2.47-5.74-3.78-7.35-1.76-2.34-4.38-3.65-7.22-3.65Zm0,14.01c-.39,0-.77-.12-1.1-.38-1.78-1.38-3.9-3.44-3.9-5.47,0-1.74,1.35-3.16,3-3.16,.78,0,1.48,.27,2,.73,.52-.46,1.22-.73,2-.73,1.65,0,3,1.42,3,3.16,0,2.03-2.12,4.09-3.9,5.47-.32,.25-.71,.38-1.1,.38Zm-2-7c-.55,0-1,.52-1,1.16,0,.87,1.17,2.35,3,3.79,1.83-1.44,3-2.92,3-3.79,0-.64-.45-1.16-1-1.16-.5,0-1,.31-1,1,0,.55-.45,1-1,1s-1-.45-1-1c0-.69-.5-1-1-1Z"/></svg>
