<?xml version="1.0" encoding="UTF-8"?>
<svg xmlns="http://www.w3.org/2000/svg" id="Layer_1" data-name="Layer 1" viewBox="0 0 24 24" width="512" height="512"><path d="M6.843,24.013c-.097,0-.195-.004-.294-.012-1.654-.129-2.949-1.316-3.221-2.953L.014,1.164C-.077,.62,.291,.104,.835,.014c.551-.098,1.06,.277,1.151,.822l3.314,19.884c.146,.88,.822,1.242,1.405,1.288,.578,.038,1.307-.207,1.589-1.054l2.757-8.271c.266-.895,1.632-.895,1.897,0l2.756,8.271c.282,.846,.997,1.093,1.589,1.054,.583-.046,1.259-.408,1.405-1.288L22.014,.836c.091-.545,.604-.916,1.15-.822,.545,.091,.913,.606,.822,1.15l-3.314,19.884c-.272,1.637-1.567,2.824-3.221,2.953-1.644,.129-3.118-.841-3.643-2.414l-1.809-5.425-1.808,5.425c-.493,1.479-1.817,2.426-3.349,2.426Z"/></svg>
