<?xml version="1.0" encoding="UTF-8"?>
<svg xmlns="http://www.w3.org/2000/svg" id="Layer_1" data-name="Layer 1" viewBox="0 0 24 24" width="512" height="512"><path d="M6,9h6c1.654,0,3-1.346,3-3V3c0-1.654-1.346-3-3-3H6c-1.654,0-3,1.346-3,3v3c0,1.654,1.346,3,3,3Zm-1-6c0-.552,.449-1,1-1h6c.551,0,1,.448,1,1v3c0,.552-.449,1-1,1H6c-.551,0-1-.448-1-1V3Zm2,1c0-.553,.448-1,1-1h2c.552,0,1,.447,1,1s-.448,1-1,1h-2c-.552,0-1-.447-1-1Zm16.017,4.785c-.595-.542-1.364-.816-2.168-.782-.804,.038-1.544,.387-2.086,.981l-3.216,3.534c-.551-.909-1.55-1.519-2.689-1.519H4c-2.206,0-4,1.794-4,4v5c0,2.206,1.794,4,4,4h4.965c2.849,0,5.57-1.22,7.466-3.348l6.805-7.638c1.093-1.227,.994-3.124-.219-4.229Zm-1.274,2.899l-6.805,7.638c-1.517,1.701-3.694,2.678-5.973,2.678H4c-1.103,0-2-.897-2-2v-5c0-1.103,.897-2,2-2H12.858c.63,0,1.142,.513,1.142,1.143,0,.564-.421,1.051-.981,1.13l-5.161,.737c-.546,.078-.926,.585-.848,1.132,.079,.548,.585,.929,1.131,.849l5.16-.737c1.175-.168,2.13-.988,2.515-2.059l4.426-4.864c.182-.199,.43-.316,.7-.329,.274-.016,.528,.081,.728,.263,.407,.371,.44,1.009,.073,1.421Z"/></svg>
