<?xml version="1.0" encoding="UTF-8"?>
<svg xmlns="http://www.w3.org/2000/svg" id="Layer_1" data-name="Layer 1" viewBox="0 0 24 24" width="512" height="512"><path d="M12,24C5.383,24,0,18.617,0,12S5.383,0,12,0s12,5.383,12,12-5.383,12-12,12Zm0-22C6.486,2,2,6.486,2,12s4.486,10,10,10,10-4.486,10-10S17.514,2,12,2Zm.793,10.609l2.437-3.172c.337-.438,.254-1.066-.184-1.402-.439-.337-1.065-.253-1.402,.184l-.644,.838v-3.057c0-.552-.447-1-1-1s-1,.448-1,1v6c0,.428,.272,.809,.679,.947,.105,.036,.214,.053,.321,.053,.305,0,.6-.14,.793-.391Z"/></svg>
