<?xml version="1.0" encoding="UTF-8"?>
<svg xmlns="http://www.w3.org/2000/svg" id="Layer_1" data-name="Layer 1" viewBox="0 0 24 24" width="512" height="512"><path d="M17,10v4c0,.552-.447,1-1,1s-1-.448-1-1v-3.559l-6.294,6.268c-.195,.194-.451,.292-.706,.292-.257,0-.514-.098-.709-.294-.39-.391-.388-1.024,.003-1.414l6.318-6.292h-3.612c-.553,0-1-.448-1-1s.447-1,1-1h4c1.654,0,3,1.346,3,3Zm7,2.34v6.66c0,2.757-2.243,5-5,5h-5.917C6.082,24,.471,19.208,.029,12.854-.211,9.378,1.057,5.976,3.509,3.521,5.962,1.065,9.371-.205,12.836,.029c6.261,.425,11.164,5.833,11.164,12.311Zm-2,0c0-5.431-4.085-9.962-9.299-10.316-.229-.016-.458-.023-.687-.023-2.656,0-5.209,1.048-7.091,2.933-2.043,2.046-3.1,4.883-2.898,7.782,.372,5.38,5.023,9.285,11.058,9.285h5.917c1.654,0,3-1.346,3-3v-6.66Z"/></svg>
