<?xml version="1.0" encoding="UTF-8"?>
<svg xmlns="http://www.w3.org/2000/svg" id="Layer_1" data-name="Layer 1" viewBox="0 0 24 24" width="512" height="512"><path d="M16,5h-3V2.023c3.2,.144,5.668,.921,5.694,.929,.524,.168,1.089-.12,1.258-.647,.168-.525-.121-1.088-.646-1.257-.133-.043-3.307-1.048-7.306-1.048S4.827,1.005,4.694,1.048c-.526,.169-.815,.732-.646,1.258,.137,.425,.529,.694,.952,.694,.102,0,.204-.016,.306-.048,.027-.009,2.482-.786,5.694-.93v2.977h-3c-2.757,0-5,2.243-5,5v7c0,2.259,1.507,4.173,3.568,4.791l-.421,.687c-.289,.472-.141,1.087,.33,1.375,.163,.1,.344,.147,.521,.147,.337,0,.665-.17,.854-.478l.932-1.522h6.431l.932,1.522c.188,.308,.517,.478,.854,.478,.178,0,.358-.048,.521-.147,.471-.288,.619-.903,.33-1.375l-.421-.687c2.061-.617,3.568-2.531,3.568-4.791v-7c0-2.757-2.243-5-5-5Zm-3,9v-3h6v3h-6Zm-8,0v-3h6v3H5Zm3-7h8c1.304,0,2.415,.836,2.828,2H5.172c.413-1.164,1.524-2,2.828-2Zm8,13H8c-1.654,0-3-1.346-3-3v-1h2v1c0,.553,.447,1,1,1s1-.447,1-1v-1h6v1c0,.553,.447,1,1,1s1-.447,1-1v-1h2v1c0,1.654-1.346,3-3,3Z"/></svg>
