<?xml version="1.0" encoding="UTF-8"?>
<svg xmlns="http://www.w3.org/2000/svg" id="Layer_1" data-name="Layer 1" viewBox="0 0 24 24" width="512" height="512"><path d="M24,23c0,.55-.45,1-1,1H5c-2.76,0-5-2.24-5-5V1C0,.45,.45,0,1,0s1,.45,1,1V19c0,1.65,1.35,3,3,3H23c.55,0,1,.45,1,1ZM15,11V5c0-1.1,.9-2,2-2V1c0-.55,.45-1,1-1s1,.45,1,1V3c1.1,0,2,.9,2,2v6c0,1.1-.9,2-2,2v2c0,.55-.45,1-1,1s-1-.45-1-1v-2c-1.1,0-2-.9-2-2Zm2,0h2V5h-2v6Zm-11,3V5c0-1.1,.9-2,2-2V1c0-.55,.45-1,1-1s1,.45,1,1V3c1.1,0,2,.9,2,2V14c0,1.1-.9,2-2,2v2c0,.55-.45,1-1,1s-1-.45-1-1v-2c-1.1,0-2-.9-2-2Zm2,0h2V5h-2V14Z"/></svg>
