<?xml version="1.0" encoding="UTF-8"?>
<svg xmlns="http://www.w3.org/2000/svg" id="Layer_1" data-name="Layer 1" viewBox="0 0 24 24" width="512" height="512"><path d="M15,6h-6c-2.757,0-5,2.243-5,5v6c0,1.901,1.333,3.496,3.113,3.901l-.966,1.577c-.289,.471-.141,1.087,.33,1.375,.163,.1,.343,.147,.521,.147,.336,0,.665-.17,.854-.478l1.545-2.522h5.205l1.545,2.522c.188,.308,.517,.478,.854,.478,.178,0,.358-.048,.521-.147,.471-.288,.619-.904,.33-1.375l-.966-1.577c1.78-.404,3.113-1.999,3.113-3.901v-6c0-2.757-2.243-5-5-5Zm3,5v2h-5v-5h2c1.654,0,3,1.346,3,3Zm-9-3h2v5H6v-2c0-1.654,1.346-3,3-3Zm7,11H8c-1.103,0-2-.897-2-2v-2h2v1c0,.553,.448,1,1,1s1-.447,1-1v-1h4v1c0,.553,.448,1,1,1s1-.447,1-1v-1h2v2c0,1.103-.897,2-2,2Zm8-7v11c0,.553-.448,1-1,1s-1-.447-1-1V12c0-5.514-4.486-10-10-10S2,6.486,2,12v11c0,.553-.448,1-1,1s-1-.447-1-1V12C0,5.383,5.383,0,12,0s12,5.383,12,12Z"/></svg>
