<?xml version="1.0" encoding="UTF-8"?>
<svg xmlns="http://www.w3.org/2000/svg" id="Layer_1" data-name="Layer 1" viewBox="0 0 24 24" width="512" height="512"><path d="M10,24h-1c-.55,0-1-.45-1-1s.45-1,1-1h1c1.65,0,3-1.35,3-3v-2.34c0-1.34,.52-2.59,1.46-3.54l1.12-1.12-1.12-1.12c-.94-.94-1.46-2.2-1.46-3.54v-2.34c0-1.65-1.35-3-3-3h-1c-.55,0-1-.45-1-1s.45-1,1-1h1c2.76,0,5,2.24,5,5v2.34c0,.79,.32,1.56,.88,2.12l1.83,1.83c.39,.39,.39,1.02,0,1.41l-1.83,1.83c-.56,.56-.88,1.33-.88,2.12v2.34c0,2.76-2.24,5-5,5Z"/></svg>
