<?xml version="1.0" encoding="UTF-8"?>
<svg xmlns="http://www.w3.org/2000/svg" id="Layer_1" data-name="Layer 1" viewBox="0 0 24 24" width="512" height="512"><path d="M2.293,8.224c.237,2.224,1.638,4.203,3.679,5.175l11.822,5.289c.402,.192,.831,.289,1.262,.289,.346,0,.691-.062,1.026-.187,.752-.279,1.344-.838,1.666-1.575,.661-1.511-.027-3.279-1.535-3.946l-2.321-1.07-1.514-8.22c-.099-1.094-.786-2.045-1.8-2.485l-.794-.338c-.619-.265-1.328-.2-1.891,.174-.562,.373-.896,.999-.894,1.67v6.024l-3.166-1.459-1.186-3.036c-.383-.976-1.341-1.601-2.405-1.524-.635,.039-1.216,.333-1.637,.831-.441,.522-.652,1.211-.58,1.893l.267,2.495ZM13,2.996l.788,.336c.336,.146,.565,.462,.61,.917l1.272,6.927-2.671-1.231V2.996ZM4.134,5.128c.066-.079,.144-.121,.23-.126h.031c.213,0,.343,.136,.39,.257l1.333,3.41c.095,.241,.278,.436,.513,.544,0,0,12.764,5.882,12.77,5.884,.505,.221,.736,.812,.516,1.316-.103,.235-.292,.414-.531,.502-.241,.09-.499,.077-.752-.042L6.811,11.584c-1.396-.666-2.365-2.035-2.529-3.573l-.267-2.495c-.015-.138,.03-.284,.119-.389ZM24,23c0,.552-.447,1-1,1H1c-.553,0-1-.448-1-1s.447-1,1-1H23c.553,0,1,.448,1,1Z"/></svg>
