<?xml version="1.0" encoding="UTF-8"?>
<svg xmlns="http://www.w3.org/2000/svg" id="Layer_1" data-name="Layer 1" viewBox="0 0 24 24" width="512" height="512"><path d="M12,24c-1.432,0-2.784-.551-3.807-1.552l-3.943-3.643c-2.106-2.105-3.25-4.867-3.25-7.805s1.144-5.701,3.222-7.778C6.3,1.145,9.062,0,12,0s5.7,1.144,7.778,3.222h0c2.078,2.077,3.222,4.839,3.222,7.778s-1.144,5.7-3.222,7.778l-3.992,3.689c-1.002,.981-2.354,1.533-3.786,1.533Zm0-22c-2.404,0-4.664,.936-6.364,2.636-1.7,1.7-2.636,3.959-2.636,6.364s.936,4.664,2.636,6.364l3.936,3.635c1.336,1.306,3.542,1.286,4.837,.02l3.984-3.682c1.672-1.673,2.607-3.933,2.607-6.336s-.937-4.664-2.636-6.364c-1.7-1.7-3.961-2.636-6.364-2.636Zm-2.828,14h-1.172c-.553,0-1-.448-1-1v-1.171c0-1.335,.521-2.591,1.465-3.536l3.414-3.414c1.17-1.17,3.072-1.17,4.242,0,.566,.566,.879,1.32,.879,2.121s-.313,1.555-.879,2.122l-3.414,3.414c-.944,.944-2.199,1.464-3.535,1.464Zm-.172-2h.172c.79,0,1.562-.32,2.121-.878l3.414-3.415c.189-.189,.293-.44,.293-.707s-.104-.518-.293-.707c-.391-.391-1.023-.39-1.414,0l-3.414,3.414c-.566,.567-.879,1.32-.879,2.122v.171Z"/></svg>
