<?xml version="1.0" encoding="UTF-8"?>
<svg xmlns="http://www.w3.org/2000/svg" id="Layer_1" data-name="Layer 1" viewBox="0 0 24 24" width="512" height="512"><path d="M4,11C1.79,11,0,9.21,0,7v-3C0,1.79,1.79,0,4,0s4,1.79,4,4v3c0,2.21-1.79,4-4,4Zm0-9c-1.1,0-2,.9-2,2v3c0,1.1,.9,2,2,2s2-.9,2-2v-3c0-1.1-.9-2-2-2Zm5.75,20.9c.37-.41,.33-1.04-.08-1.41-.42-.38-.67-.92-.67-1.49v-4c0-.55-.45-1-1-1s-1,.45-1,1v4c0,1.14,.49,2.22,1.33,2.98,.19,.17,.43,.25,.67,.25,.27,0,.55-.11,.75-.33Zm4.25-13.9V1c0-.4-.24-.77-.62-.92-.37-.15-.8-.07-1.09,.22l-2.44,2.44c-.39,.39-.39,1.02,0,1.41s1.02,.39,1.41,0l.74-.74v5.59c0,.55,.45,1,1,1s1-.45,1-1ZM5,23V14c0-.4-.24-.77-.62-.92-.37-.15-.8-.07-1.09,.22L.85,15.74c-.39,.39-.39,1.02,0,1.41s1.02,.39,1.41,0l.74-.74v6.59c0,.55,.45,1,1,1s1-.45,1-1Zm12,1c-3.86,0-7-3.14-7-7s3.14-7,7-7,7,3.14,7,7-3.14,7-7,7Zm0-12c-2.76,0-5,2.24-5,5s2.24,5,5,5,5-2.24,5-5-2.24-5-5-5Zm1,7.41l2.71-2.71c.39-.39,.39-1.02,0-1.41s-1.02-.39-1.41,0l-2.71,2.71-1.71-1.71c-.39-.39-1.02-.39-1.41,0s-.39,1.02,0,1.41l1.71,1.71c.39,.39,.9,.58,1.41,.58s1.02-.19,1.41-.58Z"/></svg>
