<?xml version="1.0" encoding="UTF-8"?>
<svg xmlns="http://www.w3.org/2000/svg" id="Layer_1" data-name="Layer 1" viewBox="0 0 24 24" width="512" height="512"><path d="M20.94,8.71c-.67-.57-1.56-.82-2.44-.67-.57,.09-1.08,.36-1.49,.74-.53-.48-1.24-.78-2.01-.78-.02,0-.04,0-.06,0l.98-4.33c.2-.86,0-1.76-.52-2.47C14.88,.5,14.07,.06,13.18,0c-1.43-.09-2.79,.95-3.13,2.43l-.55,2.39-.55-2.39C8.61,.95,7.26-.08,5.82,0c-.89,.06-1.7,.5-2.22,1.2-.53,.71-.71,1.61-.52,2.46l1.82,7.95s-.02,.01-.02,.02l-1.29,1.28c-1.02,1.02-1.59,2.38-1.59,3.83,0,1.45,.56,2.81,1.58,3.83l1.37,1.37c1.32,1.32,3.08,2.05,4.95,2.05h5.1c3.86,0,7-3.14,7-7v-6c0-.88-.38-1.71-1.06-2.29Zm-2.12,1.3c.3-.05,.6,.03,.82,.22,.22,.19,.35,.47,.35,.76v2c0,.55-.45,1-1,1s-1-.45-1-1v-1.89c0-.54,.36-1.02,.82-1.09Zm-2.82,.99v2c0,.55-.45,1-1,1s-1-.45-1-1v-2c0-.55,.45-1,1-1s1,.45,1,1Zm-1,11h-5.1c-1.32,0-2.6-.53-3.54-1.46l-1.37-1.37c-.64-.64-1-1.5-1-2.41,0-.91,.36-1.77,1-2.41l1.29-1.28c.39-.39,1.03-.39,1.41,0,.19,.19,.29,.44,.29,.71,0,.27-.1,.52-.29,.71l-1.86,1.85c-.39,.39-.39,1.02,0,1.41,.39,.39,1.02,.39,1.41,0l1.86-1.85c.57-.57,.88-1.32,.88-2.12,0-.8-.31-1.56-.88-2.12-.64-.64-1.51-.93-2.36-.87l-1.73-7.56c-.07-.29,0-.59,.17-.82,.18-.24,.44-.38,.75-.4,.46-.03,.93,.36,1.05,.88l1.53,6.6c.11,.45,.51,.77,.97,.77s.87-.32,.97-.77l1.53-6.6c.12-.52,.61-.91,1.05-.88,.31,.02,.57,.16,.75,.4,.18,.24,.24,.54,.17,.83l-1.35,5.94c-.39,.51-.63,1.14-.63,1.83v2c0,1.65,1.35,3,3,3,.77,0,1.47-.29,2-.77,.53,.48,1.23,.77,2,.77,.35,0,.69-.06,1-.17v1.17c0,2.76-2.24,5-5,5Z"/></svg>
