<?xml version="1.0" encoding="UTF-8"?>
<svg xmlns="http://www.w3.org/2000/svg" id="Layer_1" data-name="Layer 1" viewBox="0 0 24 24" width="512" height="512"><path d="M15.943,20.154c.184,.521-.089,1.092-.61,1.276-.762,.269-1.545,.44-2.333,.516v1.053c0,.553-.448,1-1,1s-1-.447-1-1v-1.058c-2.256-.231-4.419-1.22-6.071-2.871-1.651-1.651-2.64-3.815-2.871-6.071H1c-.552,0-1-.447-1-1s.448-1,1-1h1.053c.077-.787,.247-1.57,.516-2.333,.184-.52,.754-.791,1.275-.61,.521,.184,.794,.755,.61,1.276-1.02,2.891-.278,6.158,1.888,8.324,2.167,2.166,5.435,2.909,8.324,1.887,.521-.18,1.092,.091,1.275,.61Zm-5.193-3.312c.084,.021,.168,.031,.25,.031,.445,0,.852-.299,.968-.75,.138-.535-.184-1.08-.718-1.219-.517-.133-.991-.404-1.372-.784-.379-.38-.65-.854-.784-1.37-.137-.534-.679-.857-1.217-.72-.535,.138-.857,.683-.719,1.218,.222,.863,.673,1.653,1.307,2.286,.633,.633,1.423,1.085,2.285,1.308Zm12.957,5.45c.391,.391,.391,1.023,0,1.414-.195,.195-.451,.293-.707,.293s-.512-.098-.707-.293l-4.626-4.626-.01-.009-.009-.01L8.474,9.888l-.01-.009-.009-.01L.293,1.707C-.098,1.316-.098,.684,.293,.293S1.316-.098,1.707,.293l3.964,3.964c1.525-1.251,3.366-2.014,5.329-2.208V1c0-.553,.448-1,1-1s1,.447,1,1v1.049c2.293,.226,4.42,1.229,6.071,2.88,1.651,1.651,2.654,3.778,2.88,6.071h1.049c.552,0,1,.447,1,1s-.448,1-1,1h-1.049c-.194,1.963-.956,3.804-2.207,5.329l3.964,3.964ZM7.094,5.68l2.149,2.149c1.94-1.283,4.586-1.071,6.293,.636,.944,.944,1.464,2.199,1.464,3.535,0,.996-.289,1.947-.828,2.758l2.148,2.148c1.089-1.397,1.68-3.107,1.68-4.906,0-2.137-.832-4.146-2.343-5.657-2.88-2.88-7.427-3.101-10.563-.663Zm7.614,7.614c.191-.399,.292-.839,.292-1.294,0-.802-.312-1.555-.878-2.121-.923-.923-2.3-1.117-3.414-.586l4.001,4.001Z"/></svg>
