<?xml version="1.0" encoding="UTF-8"?>
<svg xmlns="http://www.w3.org/2000/svg" id="Layer_1" data-name="Layer 1" viewBox="0 0 24 24" width="512" height="512"><path d="M20,19c0,.552-.448,1-1,1H9c-.552,0-1-.448-1-1s.448-1,1-1h10c.552,0,1,.448,1,1Zm4-14v14c0,2.757-2.243,5-5,5H5c-2.757,0-5-2.243-5-5V5C0,2.243,2.243,0,5,0h14c2.757,0,5,2.243,5,5Zm-2,0c0-1.654-1.346-3-3-3H5c-1.654,0-3,1.346-3,3v14c0,1.654,1.346,3,3,3h14c1.654,0,3-1.346,3-3V5Zm-2.907,2.867c-1.154-1.154-3.032-1.154-4.187,0l-.907,.907-.907-.907c-1.154-1.154-3.032-1.154-4.187,0l-1.614,1.614c-.391,.391-.391,1.023,0,1.414s1.023,.391,1.414,0l1.293-1.293v5.398c0,.552,.448,1,1,1s1-.448,1-1v-5.398l1.293,1.293c.195,.195,.451,.293,.707,.293s.512-.098,.707-.293l1.293-1.293v5.398c0,.552,.448,1,1,1s1-.448,1-1v-5.398l1.293,1.293c.195,.195,.451,.293,.707,.293s.512-.098,.707-.293c.391-.391,.391-1.023,0-1.414l-1.614-1.614Z"/></svg>
