<?xml version="1.0" encoding="UTF-8"?>
<svg xmlns="http://www.w3.org/2000/svg" id="Layer_1" data-name="Layer 1" viewBox="0 0 24 24" width="512" height="512"><path d="M14.648,5.493c.872-.701,1.772-1.643,2.227-2.788,.238-.598,.163-1.276-.203-1.816-.377-.557-1.002-.889-1.672-.889h-6c-.67,0-1.295,.333-1.672,.889-.366,.54-.441,1.218-.204,1.814,.456,1.146,1.355,2.089,2.228,2.789C4.695,7.221,1,13.159,1,18c0,3.309,2.691,6,6,6h10c3.309,0,6-2.691,6-6,0-4.841-3.695-10.779-8.352-12.507Zm.368-3.528c-.515,1.296-2.094,2.393-3.018,2.91-.923-.513-2.495-1.6-2.999-2.875l6.017-.035Zm1.983,20.035H7c-2.206,0-4-1.794-4-4,0-5.243,4.71-11,9-11s9,5.757,9,11c0,2.206-1.794,4-4,4Z"/></svg>
