<?xml version="1.0" encoding="UTF-8"?>
<svg xmlns="http://www.w3.org/2000/svg" id="Layer_1" data-name="Layer 1" viewBox="0 0 24 24" width="512" height="512"><path d="M18,24H6c-3.309,0-6-2.691-6-6V2.5C0,1.121,1.121,0,2.5,0h1.29c1.169,0,2.196,.829,2.443,1.971l1.851,8.534s3.121-3.108,3.149-3.131c.515-.414,1.207-.491,1.802-.204,.595,.286,.965,.874,.965,1.534v.888s2.205-2.195,2.233-2.218c.515-.414,1.206-.491,1.802-.204,.595,.286,.965,.874,.965,1.534v.888s2.205-2.195,2.233-2.218c.515-.414,1.207-.491,1.802-.204,.595,.286,.965,.874,.965,1.534v9.296c0,3.309-2.691,6-6,6ZM2.5,2c-.275,0-.5,.225-.5,.5v15.5c0,2.206,1.794,4,4,4h12c2.206,0,4-1.794,4-4V9.425l-3.294,3.283c-.286,.285-.715,.368-1.09,.216-.373-.155-.616-.52-.616-.924v-2.575l-3.294,3.283c-.287,.285-.717,.368-1.09,.216-.373-.155-.616-.52-.616-.924v-2.575l-3.294,3.283c-.188,.188-.441,.292-.706,.292h-.615c-.471,0-.878-.328-.978-.788L4.278,2.395c-.049-.229-.255-.395-.488-.395h-1.29Zm7.5,16v-1c0-.552-.448-1-1-1h-1c-.552,0-1,.448-1,1v1c0,.552,.448,1,1,1h1c.552,0,1-.448,1-1Zm5,0v-1c0-.552-.448-1-1-1h-1c-.552,0-1,.448-1,1v1c0,.552,.448,1,1,1h1c.552,0,1-.448,1-1Zm5,0v-1c0-.552-.448-1-1-1h-1c-.552,0-1,.448-1,1v1c0,.552,.448,1,1,1h1c.552,0,1-.448,1-1Z"/></svg>
