<?xml version="1.0" encoding="UTF-8"?>
<svg xmlns="http://www.w3.org/2000/svg" id="Layer_1" data-name="Layer 1" viewBox="0 0 24 24" width="512" height="512"><path d="M16,14c0,2.206-1.794,4-4,4h-3c-.553,0-1-.448-1-1s.447-1,1-1h3c1.103,0,2-.897,2-2s-.897-2-2-2h-2c-.553,0-1-.448-1-1s.447-1,1-1h2c.552,0,1-.449,1-1s-.448-1-1-1h-3c-.553,0-1-.448-1-1s.447-1,1-1h3c1.654,0,3,1.346,3,3,0,.68-.236,1.301-.619,1.805,.977,.73,1.619,1.885,1.619,3.195ZM24,5v14c0,2.757-2.243,5-5,5H5c-2.757,0-5-2.243-5-5V5C0,2.243,2.243,0,5,0h14c2.757,0,5,2.243,5,5Zm-2,0c0-1.654-1.346-3-3-3H5c-1.654,0-3,1.346-3,3v14c0,1.654,1.346,3,3,3h14c1.654,0,3-1.346,3-3V5Z"/></svg>
