<?xml version="1.0" encoding="UTF-8"?>
<svg xmlns="http://www.w3.org/2000/svg" id="Layer_1" data-name="Layer 1" viewBox="0 0 24 24" width="512" height="512"><path d="M19,3h-6.528c-.154,0-.31-.036-.447-.105l-3.156-1.578c-.415-.207-.878-.316-1.341-.316h-2.528C2.243,1,0,3.243,0,6v12c0,2.757,2.243,5,5,5h1c.552,0,1-.447,1-1s-.448-1-1-1h-1c-1.654,0-3-1.346-3-3V9H22v9c0,1.654-1.346,3-3,3h-1c-.553,0-1,.447-1,1s.447,1,1,1h1c2.757,0,5-2.243,5-5V8c0-2.757-2.243-5-5-5ZM2,6c0-1.654,1.346-3,3-3h2.528c.154,0,.31,.036,.447,.105l3.156,1.578c.415,.207,.878,.316,1.341,.316h6.528c1.302,0,2.402,.839,2.816,2H2v-1Zm13.707,13.105c.391,.391,.391,1.023,0,1.414l-1.613,1.613c-.577,.577-1.335,.865-2.094,.865s-1.516-.288-2.093-.865l-1.614-1.613c-.391-.391-.391-1.023,0-1.414s1.023-.391,1.414,0l1.293,1.293v-7.398c0-.553,.448-1,1-1s1,.447,1,1v7.398l1.293-1.293c.391-.391,1.023-.391,1.414,0Z"/></svg>
