<?xml version="1.0" encoding="UTF-8"?>
<svg xmlns="http://www.w3.org/2000/svg" id="Layer_1" data-name="Layer 1" viewBox="0 0 24 24" width="512" height="512"><path d="M20.74,10.312l-4.303-6.172c-.935-1.34-2.468-2.141-4.102-2.141h-3.835c-2.064,0-3.943,1.297-4.675,3.228L1.753,10.692c-1.058,.721-1.753,1.934-1.753,3.308v1.5c0,1.207,.86,2.217,2,2.45v.55c0,1.93,1.57,3.5,3.5,3.5s3.5-1.57,3.5-3.5v-.5h6v.5c0,1.93,1.57,3.5,3.5,3.5s3.5-1.57,3.5-3.5v-.55c1.14-.232,2-1.242,2-2.45v-.5c0-2.145-1.359-3.979-3.26-4.688ZM7,18.5c0,.827-.673,1.5-1.5,1.5s-1.5-.673-1.5-1.5v-.5h3v.5Zm11.5,1.5c-.827,0-1.5-.673-1.5-1.5v-.5h3v.5c0,.827-.673,1.5-1.5,1.5Zm3.5-4.5c0,.276-.224,.5-.5,.5H2.5c-.276,0-.5-.224-.5-.5v-1.5c0-1.103,.897-2,2-2h1c.552,0,1-.448,1-1s-.448-1-1-1h-.845l1.54-4.063c.439-1.158,1.566-1.937,2.805-1.937h3.835c.98,0,1.9,.48,2.461,1.284l3.288,4.716h-1.084c-.552,0-1,.448-1,1s.448,1,1,1h2c1.654,0,3,1.346,3,3v.5Zm-8.191-5.654c.28,.521,.25,1.151-.077,1.645l-1.881,3.037c-.189,.305-.517,.473-.851,.473-.18,0-.362-.048-.526-.15-.469-.291-.614-.908-.323-1.377l1.533-2.473h-2.068c-.509,0-.994-.244-1.297-.653s-.396-.943-.249-1.43c.025-.082,2.079-3.441,2.079-3.441,.29-.471,.905-.618,1.375-.328,.471,.289,.617,.905,.328,1.375l-1.523,2.476h2.067c.592,0,1.133,.324,1.413,.846Z"/></svg>
