<?xml version="1.0" encoding="UTF-8"?>
<svg xmlns="http://www.w3.org/2000/svg" id="Layer_1" data-name="Layer 1" viewBox="0 0 24 24" width="512" height="512"><path d="M21,1h-2c-1.654,0-3,1.346-3,3H8c0-1.654-1.346-3-3-3H3C1.346,1,0,2.346,0,4v2c0,1.654,1.346,3,3,3h2c.297,0,.583-.044,.854-.125l4.517,7.68c-.237,.429-.372,.921-.372,1.445v2c0,1.654,1.346,3,3,3h2c1.654,0,3-1.346,3-3v-2c0-1.654-1.346-3-3-3h-2c-.388,0-.758,.075-1.099,.209L7.478,7.689c.329-.482,.522-1.063,.522-1.689h8c0,1.654,1.346,3,3,3h2c1.654,0,3-1.346,3-3v-2c0-1.654-1.346-3-3-3ZM3,7c-.552,0-1-.449-1-1v-2c0-.551,.448-1,1-1h2c.552,0,1,.449,1,1v2c0,.551-.448,1-1,1H3Zm12,10c.552,0,1,.448,1,1v2c0,.552-.448,1-1,1h-2c-.552,0-1-.448-1-1v-2c0-.552,.448-1,1-1h2Zm7-11c0,.551-.448,1-1,1h-2c-.552,0-1-.449-1-1v-2c0-.551,.448-1,1-1h2c.552,0,1,.449,1,1v2Z"/></svg>
