<?xml version="1.0" encoding="UTF-8"?>
<svg xmlns="http://www.w3.org/2000/svg" id="Layer_1" data-name="Layer 1" viewBox="0 0 24 24" width="512" height="512"><path d="M15.461,10h-.5v-.5c0-1.379-1.122-2.5-2.5-2.5h-1c-1.378,0-2.5,1.121-2.5,2.5v.5h-.5c-1.378,0-2.5,1.121-2.5,2.5v1c0,1.379,1.122,2.5,2.5,2.5h.5v.5c0,1.379,1.122,2.5,2.5,2.5h1c1.378,0,2.5-1.121,2.5-2.5v-.5h.5c1.378,0,2.5-1.121,2.5-2.5v-1c0-1.379-1.122-2.5-2.5-2.5Zm.5,3.5c0,.275-.224,.5-.5,.5h-1.5c-.552,0-1,.447-1,1v1.5c0,.275-.224,.5-.5,.5h-1c-.276,0-.5-.225-.5-.5v-1.5c0-.553-.448-1-1-1h-1.5c-.276,0-.5-.225-.5-.5v-1c0-.275,.224-.5,.5-.5h1.5c.552,0,1-.447,1-1v-1.5c0-.275,.224-.5,.5-.5h1c.276,0,.5,.225,.5,.5v1.5c0,.553,.448,1,1,1h1.5c.276,0,.5,.225,.5,.5v1Zm5.797-7.921L14.758,.855c-1.699-1.146-3.895-1.146-5.594,0L2.165,5.579C.785,6.51-.039,8.059-.039,9.724v9.276c0,2.757,2.243,5,5,5h14c2.757,0,5-2.243,5-5V9.724c0-1.665-.824-3.214-2.203-4.145Zm.203,13.421c0,1.654-1.346,3-3,3H4.961c-1.654,0-3-1.346-3-3V9.724c0-.999,.494-1.928,1.322-2.486L10.284,2.514c.51-.345,1.094-.517,1.678-.517s1.168,.172,1.678,.517l7,4.724c.828,.559,1.322,1.487,1.322,2.486v9.276Z"/></svg>
