<?xml version="1.0" encoding="UTF-8"?>
<svg xmlns="http://www.w3.org/2000/svg" id="Layer_1" data-name="Layer 1" viewBox="0 0 24 24" width="512" height="512"><path d="M12,24c-1.431,0-2.783-.551-3.807-1.552l-3.943-3.643c-2.106-2.105-3.25-4.867-3.25-7.805s1.144-5.701,3.222-7.778C6.299,1.145,9.062,0,12,0s5.7,1.145,7.778,3.222c2.078,2.077,3.222,4.839,3.222,7.778s-1.145,5.7-3.222,7.778l-3.992,3.689c-1.003,.981-2.355,1.533-3.787,1.533Zm0-22c-2.404,0-4.665,.936-6.364,2.636-1.7,1.7-2.636,3.959-2.636,6.364s.936,4.664,2.636,6.364l3.935,3.635c1.336,1.306,3.543,1.286,4.837,.02l3.984-3.682c1.671-1.673,2.608-3.933,2.608-6.336s-.937-4.664-2.636-6.364h0c-1.7-1.7-3.96-2.636-6.364-2.636Zm4.707,11.05c.391-.391,.391-1.023,0-1.414s-1.023-.391-1.414,0c-.879,.879-2.049,1.364-3.293,1.364s-2.414-.484-3.293-1.364c-.391-.391-1.023-.391-1.414,0s-.391,1.023,0,1.414c1.257,1.257,2.929,1.95,4.707,1.95s3.45-.692,4.707-1.95Zm-7.207-6.05c-.828,0-1.5,.672-1.5,1.5s.672,1.5,1.5,1.5,1.5-.672,1.5-1.5-.672-1.5-1.5-1.5Zm5,0c-.828,0-1.5,.672-1.5,1.5s.672,1.5,1.5,1.5,1.5-.672,1.5-1.5-.672-1.5-1.5-1.5Z"/></svg>
