<?xml version="1.0" encoding="UTF-8"?>
<svg xmlns="http://www.w3.org/2000/svg" id="Layer_1" data-name="Layer 1" viewBox="0 0 24 24" width="512" height="512"><path d="M8.293,15.36c-.39,.39-.39,1.024,0,1.415l2.019,2.019c.391,.391,.391,1.023,0,1.414-.195,.195-.451,.293-.707,.293s-.512-.098-.707-.293l-2.019-2.019c-1.17-1.169-1.17-3.073,0-4.243l2.062-2.062c.391-.391,1.023-.391,1.414,0,.391,.39,.391,1.023,0,1.414l-2.062,2.062Zm6.766-3.477c-.391-.391-1.023-.391-1.414,0-.391,.39-.391,1.023,0,1.414l2.062,2.062c.39,.39,.39,1.024,0,1.415l-2.019,2.019c-.391,.391-.391,1.023,0,1.414,.195,.195,.451,.293,.707,.293s.512-.098,.707-.293l2.019-2.019c1.17-1.169,1.17-3.073,0-4.243l-2.062-2.062Zm6.941-1.398v8.515c0,2.757-2.243,5-5,5H7c-2.757,0-5-2.243-5-5V5C2,2.243,4.243,0,7,0h4.515c1.87,0,3.627,.728,4.95,2.05l3.485,3.485c1.322,1.322,2.05,3.08,2.05,4.95ZM15.05,3.464c-.318-.318-.671-.587-1.05-.805V7c0,.551,.449,1,1,1h4.341c-.218-.379-.487-.733-.805-1.05l-3.485-3.485Zm4.95,7.021c0-.163-.008-.325-.023-.485h-4.977c-1.654,0-3-1.346-3-3V2.023c-.16-.015-.322-.023-.485-.023H7c-1.654,0-3,1.346-3,3v14c0,1.654,1.346,3,3,3h10c1.654,0,3-1.346,3-3V10.485Z"/></svg>
