<?xml version="1.0" encoding="UTF-8"?>
<svg xmlns="http://www.w3.org/2000/svg" id="Layer_1" data-name="Layer 1" viewBox="0 0 24 24" width="512" height="512"><path d="M16.998,21c-1.634,0-3.098-.399-4.513-.785-1.347-.368-2.619-.715-3.985-.715-1.571,0-2.563,.101-3.42,.349-1.207,.347-2.476,.113-3.481-.644C.582,18.439,0,17.271,0,16v-7.548c0-2.063,1.299-3.944,3.233-4.681,1.341-.512,2.608-.771,3.768-.771,1.634,0,3.098,.399,4.513,.785,1.349,.368,2.621,.715,3.987,.715,1.57,0,2.561-.101,3.418-.349,1.207-.347,2.475-.113,3.481,.644,1.017,.765,1.6,1.933,1.6,3.205v7.548h0c0,2.063-1.3,3.944-3.234,4.681-1.341,.512-2.608,.771-3.768,.771Zm-8.498-3.5c1.634,0,3.098,.399,4.513,.785,1.347,.368,2.619,.715,3.985,.715,.914,0,1.942-.215,3.056-.64,1.183-.45,1.946-1.554,1.946-2.812v-7.548c0-.637-.293-1.223-.803-1.606-.499-.375-1.125-.493-1.725-.321-1.051,.303-2.202,.427-3.973,.427-1.634,0-3.098-.399-4.513-.785-1.349-.368-2.621-.715-3.987-.715-.914,0-1.942,.215-3.056,.64-1.183,.45-1.946,1.554-1.946,2.812v7.548c0,.637,.293,1.223,.803,1.606,.5,.376,1.128,.495,1.725,.321,1.051-.303,2.202-.427,3.975-.427Zm5.5-2.5v-6c0-.404-.243-.769-.617-.924-.374-.155-.804-.07-1.09,.217l-2,2c-.391,.391-.391,1.023,0,1.414s1.023,.391,1.414,0l.293-.293v3.586c0,.552,.447,1,1,1s1-.448,1-1ZM5,7c-.552,0-1,.448-1,1s.448,1,1,1,1-.448,1-1-.448-1-1-1Zm13,3c0,.552,.448,1,1,1s1-.448,1-1-.448-1-1-1-1,.448-1,1Zm-13,3c-.552,0-1,.448-1,1s.448,1,1,1,1-.448,1-1-.448-1-1-1Zm13,3c0,.552,.448,1,1,1s1-.448,1-1-.448-1-1-1-1,.448-1,1Z"/></svg>
