<?xml version="1.0" encoding="UTF-8"?>
<svg xmlns="http://www.w3.org/2000/svg" id="Layer_1" data-name="Layer 1" viewBox="0 0 24 24" width="512" height="512"><path d="M19.673,10.045c-.812-2.352-3.048-4.045-5.673-4.045-2.608,0-4.831,1.672-5.657,4h-3.343c-2.757,0-5,2.243-5,5v2c0,2.046,1.236,3.809,3,4.582v1.418c0,.553,.448,1,1,1s1-.447,1-1v-1h14v1c0,.553,.447,1,1,1s1-.447,1-1v-1.418c1.764-.773,3-2.536,3-4.582v-2c0-2.529-1.887-4.625-4.327-4.955Zm-5.673-2.045c2.206,0,4,1.794,4,4s-1.794,4-4,4-4-1.794-4-4,1.794-4,4-4Zm8,9c0,1.654-1.346,3-3,3H5c-1.654,0-3-1.346-3-3v-2c0-1.654,1.346-3,3-3h3c0,3.309,2.691,6,6,6,3.251,0,5.906-2.599,5.997-5.829,1.165,.412,2.003,1.524,2.003,2.829v2Zm-15-1.5c0,.828-.672,1.5-1.5,1.5s-1.5-.672-1.5-1.5,.672-1.5,1.5-1.5,1.5,.672,1.5,1.5ZM13,3V1c0-.553,.447-1,1-1s1,.447,1,1V3c0,.553-.447,1-1,1s-1-.447-1-1Zm4.668,.445l1-1.5c.306-.459,.925-.584,1.387-.277,.46,.307,.584,.927,.277,1.387l-1,1.5c-.192,.289-.51,.445-.833,.445-.19,0-.383-.055-.554-.168-.46-.307-.584-.927-.277-1.387Zm-10-.391c-.306-.46-.182-1.08,.277-1.387,.458-.307,1.081-.182,1.387,.277l1,1.5c.306,.46,.182,1.08-.277,1.387-.17,.113-.363,.168-.554,.168-.323,0-.64-.156-.833-.445l-1-1.5Z"/></svg>
