<?xml version="1.0" encoding="UTF-8"?>
<svg xmlns="http://www.w3.org/2000/svg" id="Layer_1" data-name="Layer 1" viewBox="0 0 24 24" width="512" height="512"><path d="M19,2H5C2.243,2,0,4.243,0,7v10c0,2.757,2.243,5,5,5h14c2.757,0,5-2.243,5-5V7c0-2.757-2.243-5-5-5ZM5,4h14c1.654,0,3,1.346,3,3H2c0-1.654,1.346-3,3-3Zm14,16H5c-1.654,0-3-1.346-3-3V9h3v7c0,1.103,.897,2,2,2h4c.553,0,1-.447,1-1s-.447-1-1-1H7v-2h2c.553,0,1-.447,1-1s-.447-1-1-1h-2v-3h15v8c0,1.654-1.346,3-3,3Zm-1-3c0,.553-.447,1-1,1h-2c-.553,0-1-.447-1-1s.447-1,1-1h2c.553,0,1,.447,1,1Zm-3-3h-2c-.553,0-1-.447-1-1s.447-1,1-1h2c.553,0,1,.447,1,1s-.447,1-1,1Z"/></svg>
