<?xml version="1.0" encoding="UTF-8"?>
<svg xmlns="http://www.w3.org/2000/svg" id="Layer_1" data-name="Layer 1" viewBox="0 0 24 24" width="512" height="512"><path d="M7.835,16.17c-.23-.23-.446-.482-.641-.748-.325-.446-.227-1.072,.22-1.397,.446-.325,1.071-.227,1.397,.219,.129,.178,.274,.349,.437,.511,.803,.803,1.87,1.245,3.005,1.245s2.203-.442,3.005-1.245l5.5-5.5c1.657-1.657,1.657-4.354,0-6.011s-4.354-1.657-6.011,0l-1.058,1.058c-.391,.391-1.023,.391-1.414,0s-.391-1.023,0-1.414l1.058-1.058c2.437-2.438,6.402-2.438,8.839,0,2.437,2.437,2.437,6.402,0,8.839l-5.5,5.5c-1.18,1.181-2.75,1.831-4.419,1.831s-3.239-.65-4.418-1.83Zm-1.582,7.83c1.67,0,3.239-.65,4.419-1.831l1.058-1.058c.391-.39,.391-1.023,0-1.414-.39-.391-1.023-.39-1.414,0l-1.059,1.058c-.803,.803-1.87,1.245-3.005,1.245s-2.202-.442-3.005-1.245-1.245-1.87-1.245-3.005,.442-2.203,1.245-3.005l5.5-5.5c.803-.803,1.87-1.245,3.005-1.245s2.203,.442,3.005,1.245c.16,.161,.306,.332,.436,.51,.324,.447,.949,.547,1.397,.221,.447-.325,.546-.95,.221-1.397-.19-.262-.405-.513-.639-.747-1.181-1.182-2.751-1.832-4.42-1.832s-3.239,.65-4.419,1.831L1.834,13.331C.653,14.511,.003,16.081,.003,17.75c0,1.669,.65,3.239,1.831,4.419,1.18,1.181,2.749,1.831,4.419,1.831Z"/></svg>
