<?xml version="1.0" encoding="UTF-8"?>
<svg xmlns="http://www.w3.org/2000/svg" id="Layer_1" data-name="Layer 1" viewBox="0 0 24 24" width="512" height="512"><path d="M23,0c-.552,0-1,.447-1,1v1h-2V1c0-.553-.448-1-1-1s-1,.447-1,1v1h-2V1c0-.553-.448-1-1-1s-1,.447-1,1v1h-2V1c0-.553-.448-1-1-1s-1,.447-1,1v3c0,2.206,1.794,4,4,4h6v12c0,1.103-.897,2-2,2-.552,0-1,.447-1,1s.448,1,1,1c2.206,0,4-1.794,4-4V7.463c1.195-.693,2-1.985,2-3.463V1c0-.553-.448-1-1-1Zm-3,6h-6c-1.103,0-2-.897-2-2h10c0,1.103-.897,2-2,2Zm-5.918,5.41l-3-2.349c-1.814-1.418-4.349-1.42-6.163,0l-3,2.348c-1.219,.955-1.918,2.39-1.918,3.938v4.152c0,2.481,2.019,4.5,4.5,4.5h7c2.481,0,4.5-2.019,4.5-4.5v-4.152c0-1.548-.699-2.982-1.918-3.938Zm-.082,8.09c0,1.379-1.122,2.5-2.5,2.5H4.5c-1.378,0-2.5-1.121-2.5-2.5v-4.152c0-.929,.419-1.79,1.151-2.363l3-2.347c.544-.427,1.197-.64,1.849-.64s1.305,.214,1.849,.639l3,2.348c.732,.573,1.151,1.435,1.151,2.363v4.152Zm-4-3.5v2c0,.552-.448,1-1,1h-2c-.552,0-1-.448-1-1v-2c0-.552,.448-1,1-1h2c.552,0,1,.448,1,1Z"/></svg>
