<?xml version="1.0" encoding="UTF-8"?>
<svg xmlns="http://www.w3.org/2000/svg" id="Layer_1" data-name="Layer 1" viewBox="0 0 24 24" width="512" height="512"><path d="M23,0c-.553,0-1,.447-1,1v1h-2V1c0-.553-.447-1-1-1s-1,.447-1,1v1h-2V1c0-.553-.447-1-1-1s-1,.447-1,1v3.5c0,1.393,.819,2.599,2,3.162v3.338H8v-3.338c1.181-.563,2-1.769,2-3.162V1c0-.553-.447-1-1-1s-1,.447-1,1v1h-2V1c0-.553-.447-1-1-1s-1,.447-1,1v1H2V1c0-.553-.447-1-1-1S0,.447,0,1v3.5c0,1.393,.819,2.599,2,3.162v12.338c0,2.206,1.794,4,4,4h12c2.206,0,4-1.794,4-4V7.662c1.181-.563,2-1.769,2-3.162V1c0-.553-.447-1-1-1Zm-7,13v9h-2v-4c0-1.105-.895-2-2-2s-2,.895-2,2v4h-2V13h8ZM8,4v.5c0,.827-.673,1.5-1.5,1.5H3.5c-.827,0-1.5-.673-1.5-1.5v-.5h6ZM4,20V8h2v14c-1.103,0-2-.897-2-2Zm14,2V8h2v12c0,1.103-.897,2-2,2Zm2.5-16h-3c-.827,0-1.5-.673-1.5-1.5v-.5h6v.5c0,.827-.673,1.5-1.5,1.5Z"/></svg>
