<?xml version="1.0" encoding="UTF-8"?>
<svg xmlns="http://www.w3.org/2000/svg" id="Layer_1" data-name="Layer 1" viewBox="0 0 24 24" width="512" height="512"><path d="M19,24H5c-2.757,0-5-2.243-5-5V5C0,2.243,2.243,0,5,0h14c2.757,0,5,2.243,5,5v14c0,2.757-2.243,5-5,5ZM5,2c-1.654,0-3,1.346-3,3v14c0,1.654,1.346,3,3,3h14c1.654,0,3-1.346,3-3V5c0-1.654-1.346-3-3-3H5Zm8,15V7c0-.404-.244-.769-.617-.924-.375-.155-.804-.069-1.09,.217l-2.444,2.444c-.391,.391-.391,1.023,0,1.414s1.023,.391,1.414,0l.737-.737v7.586c0,.552,.448,1,1,1s1-.448,1-1Z"/></svg>
