<?xml version="1.0" encoding="UTF-8"?>
<svg xmlns="http://www.w3.org/2000/svg" id="Layer_1" data-name="Layer 1" viewBox="0 0 24 24" width="512" height="512"><path d="M9.5,11c-1.93,0-3.5,1.57-3.5,3.5v2c0,1.93,1.57,3.5,3.5,3.5s3.5-1.57,3.5-3.5v-2c0-1.93-1.57-3.5-3.5-3.5Zm1.5,5.5c0,.83-.67,1.5-1.5,1.5s-1.5-.67-1.5-1.5v-2c0-.83,.67-1.5,1.5-1.5s1.5,.67,1.5,1.5v2Zm7-4.5v7c0,.55-.45,1-1,1s-1-.45-1-1v-4.59l-.29,.29c-.39,.39-1.02,.39-1.41,0s-.39-1.02,0-1.41l2-2c.29-.29,.72-.37,1.09-.22,.37,.15,.62,.52,.62,.92Zm1.95-6.46l-3.48-3.48c-1.32-1.32-3.08-2.05-4.95-2.05H7C4.24,0,2,2.24,2,5v14c0,2.76,2.24,5,5,5h10c2.76,0,5-2.24,5-5V10.49c0-1.87-.73-3.63-2.05-4.95Zm-1.41,1.41c.32,.32,.56,.67,.78,1.05h-4.32c-.55,0-1-.45-1-1V2.68c.38,.22,.74,.47,1.05,.78l3.48,3.48Zm1.46,12.05c0,1.65-1.35,3-3,3H7c-1.65,0-3-1.35-3-3V5c0-1.65,1.35-3,3-3h4.51c.16,0,.32,.03,.49,.05V7c0,1.65,1.35,3,3,3h4.95c.02,.16,.05,.32,.05,.49v8.51Z"/></svg>
