<?xml version="1.0" encoding="UTF-8"?>
<svg xmlns="http://www.w3.org/2000/svg" id="Layer_1" data-name="Layer 1" viewBox="0 0 24 24" width="512" height="512"><path d="M6,11c-.55,0-1-.45-1-1v-1c0-1.65,1.35-3,3-3s3,1.35,3,3v1c0,.55-.45,1-1,1s-1-.45-1-1v-.65c-.15,.09-.31,.15-.5,.15-.55,0-1-.45-1-1,0-.15,.04-.28,.09-.41-.35,.16-.59,.5-.59,.91v1c0,.55-.45,1-1,1Z"/><path d="M19,9v1c0,.55-.45,1-1,1s-1-.45-1-1v-.65c-.15,.09-.31,.15-.5,.15-.55,0-1-.45-1-1,0-.15,.04-.28,.09-.41-.35,.16-.59,.5-.59,.91v1c0,.55-.45,1-1,1s-1-.45-1-1v-1c0-1.65,1.35-3,3-3s3,1.35,3,3Z"/><g><path d="M12,0C5.38,0,0,5.38,0,12s5.38,12,12,12,12-5.38,12-12S18.62,0,12,0Zm0,22c-5.51,0-10-4.49-10-10S6.49,2,12,2s10,4.49,10,10-4.49,10-10,10Z"/><path d="M18.08,13.32H5.92c-.59,0-1.05,.56-.88,1.13,.88,3.02,3.66,5.22,6.97,5.22s6.08-2.21,6.97-5.22c.17-.57-.29-1.13-.88-1.13Zm-6.08,4.54s-.02,0-.04,0c.49-1.57,1.94-2.72,3.67-2.72,.38,0,.73,.01,1.04,.05-.95,1.6-2.68,2.67-4.67,2.67Z"/></g></svg>
