<?xml version="1.0" encoding="UTF-8"?>
<svg xmlns="http://www.w3.org/2000/svg" id="Layer_1" data-name="Layer 1" viewBox="0 0 24 24" width="512" height="512"><path d="M19,0H5C2.243,0,0,2.243,0,5v14c0,2.757,2.243,5,5,5h14c2.757,0,5-2.243,5-5V5c0-2.757-2.243-5-5-5Zm3,19c0,1.654-1.346,3-3,3H5c-1.654,0-3-1.346-3-3V5c0-1.654,1.346-3,3-3h14c1.654,0,3,1.346,3,3v14Zm-5-13v4c0,2.414-1.721,4.435-4,4.899v3.101h2c.552,0,1,.448,1,1s-.448,1-1,1h-6c-.552,0-1-.448-1-1s.448-1,1-1h2v-3.101c-2.338-.484-4-2.683-4-5.122v-3.777c0-1.105,.895-2,2-2h1.783s-1.689,2.838-1.713,2.917c-.147,.487-.055,1.021,.249,1.43s.788,.653,1.297,.653h2.068l-1.533,2.473c-.291,.469-.146,1.086,.323,1.377,.164,.102,.346,.15,.526,.15,.334,0,.662-.168,.851-.473l1.881-3.037c.327-.493,.357-1.123,.077-1.645s-.821-.846-1.413-.846h-2.079l1.798-3h1.885c1.105,0,2,.895,2,2Z"/></svg>
