<?xml version="1.0" encoding="UTF-8"?>
<svg xmlns="http://www.w3.org/2000/svg" id="Layer_1" data-name="Layer 1" viewBox="0 0 24 24" width="512" height="512"><path d="M14.519,11.419c.604-.629,.981-1.479,.981-2.419,0-1.93-1.57-3.5-3.5-3.5s-3.5,1.57-3.5,3.5c0,.939,.377,1.789,.981,2.419-.896,.734-1.481,1.835-1.481,3.081,0,2.206,1.794,4,4,4s4-1.794,4-4c0-1.246-.585-2.347-1.481-3.081Zm-4.019-2.419c0-.827,.673-1.5,1.5-1.5s1.5,.673,1.5,1.5-.673,1.5-1.5,1.5-1.5-.673-1.5-1.5Zm1.5,7.5c-1.103,0-2-.897-2-2s.897-2,2-2,2,.897,2,2-.897,2-2,2ZM19,0H5C2.243,0,0,2.243,0,5v14c0,2.757,2.243,5,5,5h14c2.757,0,5-2.243,5-5V5c0-2.757-2.243-5-5-5Zm3,19c0,1.654-1.346,3-3,3H5c-1.654,0-3-1.346-3-3V5c0-1.654,1.346-3,3-3h14c1.654,0,3,1.346,3,3v14Z"/></svg>
