<?xml version="1.0" encoding="UTF-8"?>
<svg xmlns="http://www.w3.org/2000/svg" id="Layer_1" data-name="Layer 1" viewBox="0 0 24 24" width="512" height="512"><path d="M5,1c0-.552,.448-1,1-1s1,.448,1,1-.448,1-1,1-1-.448-1-1Zm9,1c.552,0,1-.448,1-1s-.448-1-1-1-1,.448-1,1,.448,1,1,1Zm-4,0c.552,0,1-.448,1-1s-.448-1-1-1-1,.448-1,1,.448,1,1,1ZM2,0c-.552,0-1,.448-1,1s.448,1,1,1,1-.448,1-1-.448-1-1-1ZM22,0c-.552,0-1,.448-1,1s.448,1,1,1,1-.448,1-1-.448-1-1-1Zm-4,0c-.552,0-1,.448-1,1s.448,1,1,1,1-.448,1-1-.448-1-1-1Zm-3.879,4.879c-1.133-1.134-3.123-1.12-4.229-.014l-4.586,4.414c-.398,.383-.41,1.016-.027,1.414,.385,.399,1.017,.411,1.414,.027l4.307-4.145V23c0,.552,.448,1,1,1s1-.448,1-1V6.575l4.307,4.145c.194,.187,.443,.279,.693,.279,.263,0,.524-.103,.721-.307,.383-.398,.371-1.031-.027-1.414l-4.572-4.4Z"/></svg>
