<?xml version="1.0" encoding="UTF-8"?>
<svg xmlns="http://www.w3.org/2000/svg" id="Layer_1" data-name="Layer 1" viewBox="0 0 24 24" width="512" height="512"><path d="M14,19c0,1.1-.9,2-2,2s-2-.9-2-2,.9-2,2-2,2,.9,2,2Zm9.73-10.88c-2.03-2.19-4.61-3.76-7.47-4.55-.53-.15-1.08,.17-1.23,.7-.15,.53,.17,1.08,.7,1.23,2.5,.69,4.76,2.07,6.53,3.98,.2,.21,.46,.32,.73,.32,.24,0,.49-.09,.68-.27,.4-.38,.43-1.01,.05-1.41ZM7.73,3.58c-2.86,.79-5.44,2.36-7.47,4.55-.38,.4-.35,1.04,.05,1.41,.19,.18,.44,.27,.68,.27,.27,0,.54-.11,.73-.32,1.78-1.91,4.03-3.29,6.53-3.98,.53-.15,.84-.7,.7-1.23-.15-.53-.7-.85-1.23-.7Zm8.76,7.6c-.48-.27-1.09-.1-1.36,.38s-.1,1.09,.38,1.36c.65,.37,1.24,.83,1.75,1.38,.2,.21,.46,.32,.73,.32,.24,0,.49-.09,.68-.27,.4-.38,.43-1.01,.05-1.41-.65-.7-1.4-1.29-2.23-1.76Zm-8.98,0c-.83,.47-1.58,1.06-2.23,1.76-.38,.4-.35,1.04,.05,1.41,.19,.18,.44,.27,.68,.27,.27,0,.54-.11,.73-.32,.51-.55,1.1-1.01,1.75-1.38,.48-.27,.65-.88,.38-1.36-.27-.48-.88-.65-1.36-.38Zm4.49,3.83c.55,0,1-.45,1-1V4c0-.55-.45-1-1-1s-1,.45-1,1V14c0,.55,.45,1,1,1Z"/></svg>
