<?xml version="1.0" encoding="UTF-8"?>
<svg xmlns="http://www.w3.org/2000/svg" id="Layer_1" data-name="Layer 1" viewBox="0 0 24 24" width="512" height="512"><path d="M17,0H7C3.141,0,0,3.14,0,7v12c0,2.757,2.243,5,5,5h14c2.757,0,5-2.243,5-5V7c0-3.86-3.141-7-7-7Zm5,7v2h-2V3.003c1.214,.913,2,2.365,2,3.997Zm-5-5c.342,0,.677,.035,1,.101v6.899h-3c0-1.654-1.346-3-3-3s-3,1.346-3,3h-3V2.101c.323-.066,.658-.101,1-.101h10Zm-6,7c0-.551,.448-1,1-1s1,.449,1,1v3c0,.551-.448,1-1,1s-1-.449-1-1v-3ZM4,3.003v5.997H2v-2c0-1.632,.786-3.084,2-3.997ZM20,21.828v-7.828c0-.552-.447-1-1-1s-1,.448-1,1v8H6V14c0-.552-.447-1-1-1s-1,.448-1,1v7.828c-1.164-.413-2-1.524-2-2.828V11h7v1c0,1.654,1.346,3,3,3s3-1.346,3-3v-1h7v8c0,1.304-.836,2.415-2,2.828Z"/></svg>
