<?xml version="1.0" encoding="UTF-8"?>
<svg xmlns="http://www.w3.org/2000/svg" id="Layer_1" data-name="Layer 1" viewBox="0 0 24 24" width="512" height="512"><path d="M17.5,1c-2.31,0-4.35,1.31-5.5,3.27-1.15-1.96-3.19-3.27-5.5-3.27C2.92,1,0,4.14,0,8c0,4.61,4.73,9.51,8.7,12.81,.96,.79,2.13,1.19,3.3,1.19s2.34-.4,3.3-1.19c3.97-3.3,8.7-8.21,8.7-12.81,0-3.86-2.92-7-6.5-7Zm-3.48,18.28c-1.17,.97-2.87,.97-4.04,0-2.98-2.48-7.98-7.24-7.98-11.28,0-2.71,2.06-5,4.5-5s4.29,2.07,4.49,4.6l-1.31,1.31c-.9,.9-.9,2.36,0,3.26l2.34,2.4-1.72,1.72c-.39,.39-.39,1.02,0,1.41s1.02,.39,1.41,0l1.72-1.72c.8-.8,.8-2.1,0-2.9l-2.34-2.34c-.07-.07-.09-.16-.09-.22s.02-.14,.09-.22l1.62-1.62s.02-.02,.02-.02h0s0,0,0,0h0c.17-.18,.27-.42,.27-.68,0-2.71,2.06-5,4.5-5s4.5,2.29,4.5,5c0,4.03-5,8.8-7.98,11.28Z"/></svg>
