<?xml version="1.0" encoding="UTF-8"?>
<svg xmlns="http://www.w3.org/2000/svg" id="Layer_1" data-name="Layer 1" viewBox="0 0 24 24" width="512" height="512"><path d="M12.99,24h-1.98c-2.21,0-4.01-1.78-4.01-3.97v-7.03h-2.06c-1.23,0-2.28-.71-2.75-1.85-.47-1.13-.22-2.38,.65-3.25L9.17,1.18c1.57-1.57,4.09-1.57,5.64-.02,0,0,6.37,6.77,6.37,6.77,.85,.84,1.1,2.09,.63,3.22-.47,1.13-1.52,1.84-2.74,1.85h-2.06v7.03c0,2.19-1.8,3.97-4.01,3.97Zm-.99-22c-.51,0-1.01,.19-1.4,.58l-6.33,6.72c-.45,.45-.29,.95-.24,1.09,.06,.14,.3,.61,.9,.61h3.05c.55,0,1,.45,1,1v8.03c0,1.09,.9,1.97,2.01,1.97h1.98c1.11,0,2.01-.89,2.01-1.97V12c0-.55,.45-1,1-1h3.06c.6,0,.84-.47,.9-.61,.06-.14,.22-.64-.21-1.07L13.39,2.57c-.38-.38-.88-.57-1.38-.57Z"/></svg>
