<?xml version="1.0" encoding="UTF-8"?>
<svg xmlns="http://www.w3.org/2000/svg" id="Layer_1" data-name="Layer 1" viewBox="0 0 24 24" width="512" height="512"><path d="M23.707,22.293l-2.546-2.546c.537-.813,.839-1.762,.839-2.747V7c0-2.757-2.243-5-5-5H7c-.986,0-1.934,.302-2.747,.839L1.707,.293C1.316-.098,.684-.098,.293,.293S-.098,1.316,.293,1.707L22.293,23.707c.195,.195,.451,.293,.707,.293s.512-.098,.707-.293c.391-.391,.391-1.023,0-1.414Zm-5.293-5.293h1.586c0,.45-.112,.885-.302,1.284l-1.284-1.284ZM8,4h8v7h-3.586l-4.414-4.414v-2.586Zm10,9h2v2h-2v-2Zm2-2h-2v-2h2v2Zm-4,2v1.586l-1.586-1.586h1.586Zm4-6h-2v-2.816c1.161,.414,2,1.514,2,2.816Z"/><path d="M15,20h-7V12c0-.552-.447-1-1-1h-3v-2c0-.552-.447-1-1-1s-1,.448-1,1v8c0,2.757,2.243,5,5,5H15c.553,0,1-.448,1-1s-.447-1-1-1ZM6,13v2h-2v-2h2Zm-2,4h2v2.816c-1.161-.414-2-1.514-2-2.816Z"/></svg>
