<?xml version="1.0" encoding="UTF-8"?>
<svg xmlns="http://www.w3.org/2000/svg" id="Layer_1" data-name="Layer 1" viewBox="0 0 24 24" width="512" height="512"><path d="M19.5,16c0,.553-.447,1-1,1h-2c-.553,0-1-.447-1-1s.447-1,1-1h2c.553,0,1,.447,1,1Zm4.5-1v5c0,2.206-1.794,4-4,4H4c-2.206,0-4-1.794-4-4v-5c0-2.206,1.794-4,4-4h1V4C5,1.794,6.794,0,9,0h6c2.206,0,4,1.794,4,4v7h1c2.206,0,4,1.794,4,4ZM7,11h10V4c0-1.103-.897-2-2-2h-6c-1.103,0-2,.897-2,2v7Zm-3,11h7V13H4c-1.103,0-2,.897-2,2v5c0,1.103,.897,2,2,2Zm18-7c0-1.103-.897-2-2-2h-7v9h7c1.103,0,2-.897,2-2v-5Zm-14.5,0h-2c-.553,0-1,.447-1,1s.447,1,1,1h2c.553,0,1-.447,1-1s-.447-1-1-1ZM14,5c0-.553-.447-1-1-1h-2c-.553,0-1,.447-1,1s.447,1,1,1h2c.553,0,1-.447,1-1Z"/></svg>
