<?xml version="1.0" encoding="UTF-8"?>
<svg xmlns="http://www.w3.org/2000/svg" id="Layer_1" data-name="Layer 1" viewBox="0 0 24 24" width="512" height="512"><path d="M24,12c0,.553-.448,1-1,1H1c-.552,0-1-.447-1-1s.448-1,1-1H23c.552,0,1,.447,1,1Zm-13.414-3.586c.39,.39,.902,.585,1.414,.585s1.024-.195,1.414-.585l3.293-3.293c.391-.391,.391-1.023,0-1.414s-1.023-.391-1.414,0l-2.293,2.293V1c0-.553-.448-1-1-1s-1,.447-1,1V6l-2.293-2.293c-.391-.391-1.023-.391-1.414,0s-.391,1.023,0,1.414l3.293,3.293Zm2.828,7.172c-.779-.779-2.049-.779-2.828,0l-3.293,3.293c-.391,.391-.391,1.023,0,1.414s1.023,.391,1.414,0l2.293-2.293v5c0,.553,.448,1,1,1s1-.447,1-1v-5l2.293,2.293c.195,.195,.451,.293,.707,.293s.512-.098,.707-.293c.391-.391,.391-1.023,0-1.414l-3.293-3.293Z"/></svg>
