<?xml version="1.0" encoding="UTF-8"?>
<svg xmlns="http://www.w3.org/2000/svg" id="Layer_1" data-name="Layer 1" viewBox="0 0 24 24" width="512" height="512"><path d="M10,11c.552,0,1,.448,1,1s-.448,1-1,1-1-.448-1-1,.448-1,1-1Zm-8,0c-.552,0-1,.448-1,1s.448,1,1,1,1-.448,1-1-.448-1-1-1Zm11,1c0,.552,.448,1,1,1s1-.448,1-1-.448-1-1-1-1,.448-1,1Zm-7-1c-.552,0-1,.448-1,1s.448,1,1,1,1-.448,1-1-.448-1-1-1Zm16,0c-.552,0-1,.448-1,1s.448,1,1,1,1-.448,1-1-.448-1-1-1Zm-4,0c-.552,0-1,.448-1,1s.448,1,1,1,1-.448,1-1-.448-1-1-1ZM8.707,5.293l2.293-2.293v5c0,.552,.447,1,1,1s1-.448,1-1V3l2.293,2.293c.195,.195,.451,.293,.707,.293s.512-.098,.707-.293c.391-.391,.391-1.023,0-1.414L13.414,.586c-.779-.78-2.049-.78-2.828,0l-3.293,3.293c-.391,.391-.391,1.023,0,1.414s1.023,.391,1.414,0Zm6.586,13.414l-2.293,2.293v-5c0-.552-.447-1-1-1s-1,.448-1,1v5l-2.293-2.293c-.391-.391-1.023-.391-1.414,0s-.391,1.023,0,1.414l3.293,3.293c.39,.39,.902,.585,1.414,.585s1.024-.195,1.414-.585l3.293-3.293c.391-.391,.391-1.023,0-1.414s-1.023-.391-1.414,0Z"/></svg>
