<?xml version="1.0" encoding="UTF-8"?>
<svg xmlns="http://www.w3.org/2000/svg" id="Layer_1" data-name="Layer 1" viewBox="0 0 24 24" width="512" height="512"><path d="M23,11c0-2.206-1.794-4-4-4v-2c0-2.757-2.243-5-5-5h-4c-2.757,0-5,2.243-5,5v2c-2.206,0-4,1.794-4,4v5c0,.017,0,.035,.001,.052,.028,1.63,1.362,2.948,2.999,2.948h7v3H7c-.552,0-1,.447-1,1s.448,1,1,1h10c.552,0,1-.447,1-1s-.448-1-1-1h-4v-3h7c1.637,0,2.971-1.318,2.999-2.948,0-.017,.001-.034,.001-.052v-5Zm-2,0v2.172c-.313-.111-.649-.172-1-.172h-1v-4c1.103,0,2,.897,2,2ZM7,5c0-1.654,1.346-3,3-3h4c1.654,0,3,1.346,3,3V13H7V5Zm-2,4v4h-1c-.351,0-.687,.061-1,.172v-2.172c0-1.103,.897-2,2-2Zm15,8H4c-.551,0-1-.448-1-1s.449-1,1-1H20c.551,0,1,.448,1,1s-.449,1-1,1Z"/></svg>
