<?xml version="1.0" encoding="UTF-8"?>
<svg xmlns="http://www.w3.org/2000/svg" id="Layer_1" data-name="Layer 1" viewBox="0 0 24 24" width="512" height="512"><path d="M22.73,19.05l-.98-.55c.15-.48,.26-.98,.26-1.5s-.1-1.03-.26-1.5l.98-.55c.48-.27,.65-.88,.39-1.36-.27-.48-.88-.66-1.36-.39l-.98,.55c-.71-.82-1.67-1.42-2.77-1.65v-1.1c0-.55-.45-1-1-1s-1,.45-1,1v1.1c-1.1,.22-2.06,.83-2.77,1.65l-.98-.55c-.48-.27-1.09-.1-1.36,.39-.27,.48-.1,1.09,.39,1.36l.98,.55c-.15,.48-.26,.98-.26,1.5s.1,1.03,.26,1.5l-.98,.55c-.48,.27-.65,.88-.39,1.36,.18,.33,.52,.51,.87,.51,.17,0,.33-.04,.49-.13l.98-.55c.71,.82,1.67,1.42,2.77,1.65v1.1c0,.55,.45,1,1,1s1-.45,1-1v-1.1c1.1-.22,2.06-.83,2.77-1.65l.98,.55c.15,.09,.32,.13,.49,.13,.35,0,.69-.18,.87-.51,.27-.48,.1-1.09-.39-1.36Zm-5.73,.95c-1.65,0-3-1.35-3-3s1.35-3,3-3,3,1.35,3,3-1.35,3-3,3Zm-6.23-9.75l.98,.55c.15,.09,.32,.13,.49,.13,.35,0,.69-.18,.87-.51,.27-.48,.1-1.09-.39-1.36l-.98-.55c.15-.48,.26-.98,.26-1.5s-.1-1.03-.26-1.5l.98-.55c.48-.27,.65-.88,.39-1.36-.27-.48-.88-.66-1.36-.39l-.98,.55c-.71-.82-1.67-1.42-2.77-1.65V1c0-.55-.45-1-1-1s-1,.45-1,1v1.1c-1.1,.22-2.06,.83-2.77,1.65l-.98-.55c-.48-.27-1.09-.1-1.36,.39-.27,.48-.1,1.09,.39,1.36l.98,.55c-.15,.48-.26,.98-.26,1.5s.1,1.03,.26,1.5l-.98,.55c-.48,.27-.65,.88-.39,1.36,.18,.33,.52,.51,.87,.51,.17,0,.33-.04,.49-.13l.98-.55c.71,.82,1.67,1.42,2.77,1.65v1.1c0,.55,.45,1,1,1s1-.45,1-1v-1.1c1.1-.22,2.06-.83,2.77-1.65Zm-3.77-.25c-1.65,0-3-1.35-3-3s1.35-3,3-3,3,1.35,3,3-1.35,3-3,3Z"/></svg>
