<?xml version="1.0" encoding="UTF-8"?>
<svg xmlns="http://www.w3.org/2000/svg" id="Layer_1" data-name="Layer 1" viewBox="0 0 24 24" width="512" height="512"><path d="M23.707,22.293l-5.968-5.968c1.412-1.725,2.261-3.928,2.261-6.325C20,4.486,15.514,0,10,0S0,4.486,0,10s4.486,10,10,10c2.398,0,4.601-.849,6.325-2.261l5.968,5.968c.195,.195,.451,.293,.707,.293s.512-.098,.707-.293c.391-.391,.391-1.023,0-1.414ZM2,10C2,5.589,5.589,2,10,2s8,3.589,8,8-3.589,8-8,8S2,14.411,2,10Zm12,2c0,1.654-1.346,3-3,3v1c0,.553-.448,1-1,1s-1-.447-1-1v-1h-.268c-1.067,0-2.063-.574-2.598-1.499-.276-.479-.113-1.09,.365-1.366,.477-.278,1.09-.114,1.366,.364,.179,.31,.511,.501,.867,.501h2.268c.551,0,1-.448,1-1,0-.379-.271-.698-.644-.761l-3.041-.506c-1.342-.224-2.315-1.374-2.315-2.733,0-1.654,1.346-3,3-3v-1c0-.553,.448-1,1-1s1,.447,1,1v1h.268c1.067,0,2.063,.574,2.598,1.499,.277,.479,.113,1.09-.364,1.366-.48,.279-1.09,.114-1.367-.364-.179-.31-.511-.501-.867-.501h-2.268c-.551,0-1,.448-1,1,0,.379,.271,.698,.644,.761l3.041,.506c1.342,.224,2.315,1.374,2.315,2.733Z"/></svg>
