<?xml version="1.0" encoding="UTF-8"?>
<svg xmlns="http://www.w3.org/2000/svg" id="Layer_1" data-name="Layer 1" viewBox="0 0 24 24" width="512" height="512"><path d="M20.19,15.06l.008-.05c-1.069-1.857-3.061-3.011-5.198-3.011-.966,0-1.893,.231-2.756,.686-.155,.082-.332,.082-.487,0-.863-.456-1.791-.687-2.756-.687-2.137,0-4.129,1.154-5.174,3.058C1.511,15.407-.13,17.433,.008,19.772c.14,2.371,2.198,4.228,4.684,4.228h14.615c2.486,0,4.544-1.857,4.684-4.228,.138-2.333-1.495-4.356-3.802-4.711Zm-.882,6.939H4.693c-1.405,0-2.611-1.052-2.688-2.346-.077-1.299,.834-2.424,2.12-2.618,.579-.087,1.08-.452,1.412-1.027,.713-1.239,2.041-2.009,3.464-2.009,.637,0,1.25,.153,1.824,.456,.737,.389,1.617,.388,2.352,0,.573-.302,1.187-.455,1.824-.455,1.424,0,2.752,.77,3.465,2.008,.331,.575,.832,.94,1.412,1.027h0c1.285,.193,2.195,1.319,2.119,2.618-.077,1.294-1.283,2.346-2.688,2.346ZM5.016,9.428c-.002-.141-.013-.283-.013-.427v-.021c0-3.879,2.483-5.36,2.483-5.36,.123-.078,.26-.135,.417-.135,.438,0,.793,.355,.793,.792,0,.245-.194,.519-.194,.973,0,.828,.481,1.75,1.759,1.75s1.741-.922,1.741-1.75c0-1-1-1.454-1-2.954,0-.435,.19-1.339,.404-1.753,.181-.35,.536-.544,.9-.544,.193,0,.39,.055,.564,.169l.94,.886c.28,.263,.571,.515,.882,.74,1.23,.892,4.301,3.492,4.309,7.196v.011c0,.172-.006,.342-.019,.51-.053,.704-.759,1.187-1.412,.918-.889-.367-.57-1.439-.57-1.439-.006-2.835-2.668-4.986-3.484-5.577l-.033-.024c.359,.65,.75,1.623,.348,2.983-.463,1.565-1.968,2.637-3.599,2.627-1.409-.008-2.431-.633-3.045-1.516-.112,.426-.183,.922-.183,1.496,0,.427,.203,1.123-.485,1.423-.687,.3-1.492-.044-1.502-.975Z"/></svg>
