<?xml version="1.0" encoding="UTF-8"?>
<svg xmlns="http://www.w3.org/2000/svg" id="Layer_1" data-name="Layer 1" viewBox="0 0 24 24" width="512" height="512"><path d="M16,0H8C5.243,0,3,2.243,3,5v14c0,2.757,2.243,5,5,5h2c.552,0,1-.448,1-1v-5h2v5c0,.552,.448,1,1,1h2c2.757,0,5-2.243,5-5V5c0-2.757-2.243-5-5-5Zm3,19c0,1.654-1.346,3-3,3h-1v-4h1c.552,0,1-.448,1-1s-.448-1-1-1H8c-.552,0-1,.448-1,1s.448,1,1,1h1v4h-1c-1.654,0-3-1.346-3-3V5c0-1.654,1.346-3,3-3h8c1.654,0,3,1.346,3,3v14Zm-8-6c0,.552-.448,1-1,1h-1c-.552,0-1-.448-1-1s.448-1,1-1h1c.552,0,1,.448,1,1Zm5,0c0,.552-.448,1-1,1h-1c-.552,0-1-.448-1-1s.448-1,1-1h1c.552,0,1,.448,1,1ZM11,5c0,.552-.448,1-1,1h-1c-.552,0-1-.448-1-1s.448-1,1-1h1c.552,0,1,.448,1,1Zm5,0c0,.552-.448,1-1,1h-1c-.552,0-1-.448-1-1s.448-1,1-1h1c.552,0,1,.448,1,1Zm-5,4c0,.552-.448,1-1,1h-1c-.552,0-1-.448-1-1s.448-1,1-1h1c.552,0,1,.448,1,1Zm5,0c0,.552-.448,1-1,1h-1c-.552,0-1-.448-1-1s.448-1,1-1h1c.552,0,1,.448,1,1Z"/></svg>
