<?xml version="1.0" encoding="UTF-8"?>
<svg xmlns="http://www.w3.org/2000/svg" id="Layer_1" data-name="Layer 1" viewBox="0 0 24 24" width="512" height="512"><path d="M8.586,18h-1.586c-.553,0-1-.448-1-1v-1.586c0-1.068,.416-2.073,1.172-2.828l5.707-5.707c1.17-1.17,3.072-1.17,4.242,0,.566,.566,.879,1.32,.879,2.121s-.313,1.555-.879,2.122l-5.707,5.707c-.755,.755-1.76,1.172-2.828,1.172Zm-.586-2h.586c.534,0,1.036-.208,1.414-.586l5.707-5.707c.189-.189,.293-.44,.293-.707s-.104-.518-.293-.707c-.391-.391-1.023-.39-1.414,0l-5.707,5.707c-.372,.373-.586,.888-.586,1.414v.586Zm11,8h-5.917C6.082,24,.471,19.208,.029,12.854-.211,9.378,1.057,5.976,3.509,3.521,5.962,1.065,9.371-.205,12.836,.029c6.261,.425,11.164,5.833,11.164,12.312v6.66c0,2.757-2.243,5-5,5ZM12.015,2.001c-2.656,0-5.209,1.048-7.091,2.933-2.043,2.046-3.1,4.883-2.898,7.782,.372,5.38,5.023,9.285,11.058,9.285h5.917c1.654,0,3-1.346,3-3v-6.66c0-5.431-4.085-9.962-9.299-10.316-.229-.016-.458-.023-.687-.023Z"/></svg>
