<?xml version="1.0" encoding="UTF-8"?>
<svg xmlns="http://www.w3.org/2000/svg" id="Layer_1" data-name="Layer 1" viewBox="0 0 24 24" width="512" height="512"><path d="M23.141,9.794l-7.127-7.202C12.848-.536,9.633-.169,7.992,.33c-.688,.21-1.201,.751-1.371,1.447-.168,.689,.033,1.396,.539,1.896l4.481,4.506L.863,18.892c-1.161,1.178-1.149,3.08,.026,4.241,.565,.56,1.313,.867,2.108,.867h.018c.802-.005,1.554-.321,2.11-.886L15.872,12.433l2.285,2.298c.567,.572,1.323,.887,2.129,.887h.005c.807,0,1.563-.318,2.129-.892l.713-.721c1.144-1.156,1.148-3.044,.008-4.211ZM8.575,2.243c.474-.145,1.026-.248,1.634-.248,1.29,0,2.829,.468,4.391,2.011l4.964,5.017-2.128,2.147L8.574,2.259v-.016ZM3.709,21.702c-.188,.19-.438,.296-.704,.298-.277-.016-.519-.101-.709-.29-.393-.387-.396-1.021-.016-1.407L13.052,9.597l1.41,1.418L3.709,21.702ZM21.711,12.599l-.714,.722c-.188,.191-.44,.297-.709,.297h-.002c-.269,0-.521-.104-.71-.296l-.73-.734,2.125-2.143,.744,.752c.379,.388,.377,1.017-.004,1.402Z"/></svg>
