<?xml version="1.0" encoding="UTF-8"?>
<svg xmlns="http://www.w3.org/2000/svg" id="Layer_1" data-name="Layer 1" viewBox="0 0 24 24" width="512" height="512"><path d="M15.18,6.25c-.72-.85-1.79-1.33-2.94-1.24-.56-.64-1.37-1.01-2.24-1.01s-1.75,.42-2.32,1.11c-1.56,.37-2.68,1.75-2.68,3.39,0,.09,0,.17,.01,.26-.64,.56-1.01,1.37-1.01,2.24,0,1.65,1.35,3,3,3,.35,0,.68-.06,1-.17v5.17c0,.55,.45,1,1,1s1-.45,1-1v-6.03c.74-.1,1.41-.44,1.94-.97h2.06c1.65,0,3-1.35,3-3,0-1.22-.72-2.28-1.82-2.75Zm-1.18,3.75h-2.51c-.31,0-.61,.15-.8,.4-.29,.38-.72,.6-1.19,.6-.12,0-.26-.02-.43-.07-.47-.14-.97,.08-1.18,.51-.17,.35-.51,.56-.89,.56-.55,0-1-.45-1-1,0-.38,.21-.72,.56-.89,.44-.22,.65-.72,.51-1.18-.05-.17-.07-.3-.07-.43,0-.77,.58-1.41,1.36-1.48,.33-.03,.62-.22,.78-.5,.18-.32,.5-.51,.86-.51,.38,0,.72,.21,.89,.56,.22,.44,.72,.65,1.18,.51,.17-.05,.3-.07,.43-.07,.49,0,.96,.25,1.24,.66,.13,.19,.32,.33,.54,.39,.43,.13,.72,.51,.72,.95,0,.55-.45,1-1,1Zm5.8-5.58C17.36,1.16,13.5-.45,9.45,.11,4.46,.79,.5,4.95,.05,9.98c-.25,2.77,.54,5.5,2.21,7.69,.48,.62,.74,1.46,.74,2.35v.97c0,1.65,1.35,3,3,3h7c1.65,0,3-1.35,3-3h.49c2.5,0,4.63-1.87,4.96-4.34l.22-1.66h.33c1.3,0,2-1.03,2-2,0-1.42-2.93-7.02-4.2-8.58Zm.99,8.58c-.5,0-.93,.37-.99,.87l-.33,2.52c-.2,1.49-1.48,2.61-2.97,2.61h-1.49c-.55,0-1,.45-1,1v1c0,.55-.45,1-1,1H6c-.55,0-1-.45-1-1v-.97c0-1.33-.41-2.6-1.15-3.57-1.37-1.79-2.02-4.03-1.81-6.3,.37-4.12,3.6-7.51,7.69-8.07,.43-.06,.86-.09,1.28-.09,2.83,0,5.46,1.3,7.22,3.65,1.31,1.62,3.65,6.45,3.78,7.35h-1.2Z"/></svg>
