<?xml version="1.0" encoding="UTF-8"?>
<svg xmlns="http://www.w3.org/2000/svg" id="Layer_1" data-name="Layer 1" viewBox="0 0 24 24" width="512" height="512"><path d="M13.5,22.5c0,.83-.67,1.5-1.5,1.5s-1.5-.67-1.5-1.5,.67-1.5,1.5-1.5,1.5,.67,1.5,1.5Zm3.5-1.5c-.83,0-1.5,.67-1.5,1.5s.67,1.5,1.5,1.5,1.5-.67,1.5-1.5-.67-1.5-1.5-1.5Zm5,0c-.83,0-1.5,.67-1.5,1.5s.67,1.5,1.5,1.5,1.5-.67,1.5-1.5-.67-1.5-1.5-1.5Zm-15,0c-.83,0-1.5,.67-1.5,1.5s.67,1.5,1.5,1.5,1.5-.67,1.5-1.5-.67-1.5-1.5-1.5Zm-5,0c-.83,0-1.5,.67-1.5,1.5s.67,1.5,1.5,1.5,1.5-.67,1.5-1.5-.67-1.5-1.5-1.5ZM14.12,.88c-1.13-1.13-3.12-1.12-4.23-.01L5.31,5.28c-.4,.38-.41,1.02-.03,1.41,.38,.4,1.02,.41,1.41,.03L11,2.58v15.42c0,.55,.45,1,1,1s1-.45,1-1V2.58l4.31,4.15c.19,.19,.44,.28,.69,.28,.26,0,.52-.1,.72-.31,.38-.4,.37-1.03-.03-1.41L14.12,.88Z"/></svg>
