<?xml version="1.0" encoding="UTF-8"?>
<svg xmlns="http://www.w3.org/2000/svg" id="Layer_1" data-name="Layer 1" viewBox="0 0 24 24" width="512" height="512"><path d="M21.923,3.5v1.5c0,3.645-1.962,6-5,6-.552,0-1-.447-1-1s.448-1,1-1c1.71,0,2.456-1.115,2.774-2.24-.395,.155-.825,.24-1.274,.24-1.93,0-3.5-1.57-3.5-3.5s1.57-3.5,3.5-3.5,3.5,1.57,3.5,3.5Zm-2,0c0-.827-.673-1.5-1.5-1.5s-1.5,.673-1.5,1.5,.673,1.5,1.5,1.5,1.5-.673,1.5-1.5Zm.383,9.576c-.375-.157-.804-.069-1.09,.217l-2,2c-.391,.391-.391,1.023,0,1.414s1.023,.391,1.414,0l.293-.293v6.586c0,.553,.448,1,1,1s1-.447,1-1V14c0-.404-.244-.77-.617-.924Zm-9.013,4.631l-3.293,3.293V1c0-.553-.447-1-1-1s-1,.447-1,1V21l-3.293-3.293c-.391-.391-1.023-.391-1.414,0s-.391,1.023,0,1.414l4.293,4.293c.39,.39,.902,.585,1.414,.585s1.024-.195,1.414-.585l4.293-4.293c.391-.391,.391-1.023,0-1.414s-1.023-.391-1.414,0Z"/></svg>
