<?xml version="1.0" encoding="UTF-8"?>
<svg xmlns="http://www.w3.org/2000/svg" id="Layer_1" data-name="Layer 1" viewBox="0 0 24 24" width="512" height="512"><path d="M19,13.257V5c0-2.757-2.243-5-5-5h-4c-2.757,0-5,2.243-5,5V13.257c-1.746,.619-3,2.287-3,4.243v5.5c0,.553,.448,1,1,1s1-.447,1-1v-4H20v4c0,.553,.448,1,1,1s1-.447,1-1v-5.5c0-1.956-1.254-3.624-3-4.243Zm-2-8.257V13h-2V2.172c1.164,.413,2,1.524,2,2.828Zm-6,8V2h2V13h-2ZM9,2.172V13h-2V5c0-1.304,.836-2.415,2-2.828Zm-2.5,12.828h11c1.207,0,2.217,.86,2.45,2H4.05c.232-1.14,1.242-2,2.45-2Z"/></svg>
