<?xml version="1.0" encoding="UTF-8"?>
<svg xmlns="http://www.w3.org/2000/svg" id="Layer_1" data-name="Layer 1" viewBox="0 0 24 24" width="512" height="512"><path d="M6.41,23c-1.07,0-2.07-.42-2.83-1.17l-1.41-1.41c-.76-.76-1.17-1.76-1.17-2.83s.42-2.07,1.17-2.83l7.17-7.17-1.47-1.47c-.87-.88-1.12-2.13-.64-3.27,.47-1.14,1.54-1.85,2.77-1.85h9.01c2.2,0,4,1.8,4,4h0V14c0,1.23-.7,2.29-1.84,2.77-1.14,.47-2.39,.23-3.27-.64l-1.48-1.48-7.17,7.17c-.76,.76-1.76,1.17-2.83,1.17ZM10,3c-.62,0-.86,.47-.92,.62-.06,.14-.22,.65,.21,1.09l2.18,2.18c.19,.19,.29,.44,.29,.71s-.11,.52-.29,.71l-7.88,7.88c-.38,.38-.59,.88-.59,1.41s.21,1.04,.59,1.41l1.41,1.41c.76,.76,2.07,.76,2.83,0l7.88-7.88c.39-.39,1.02-.39,1.41,0l2.18,2.18c.44,.43,.94,.27,1.09,.21,.14-.06,.62-.3,.61-.92V5c0-1.1-.9-2-2-2H10s0,0,0,0Z"/></svg>
