<?xml version="1.0" encoding="UTF-8"?>
<svg xmlns="http://www.w3.org/2000/svg" id="Layer_1" data-name="Layer 1" viewBox="0 0 24 24" width="512" height="512"><path d="M18.201,9.429l.454-.874c.373-.72,.441-1.539,.191-2.31s-.787-1.394-1.474-1.736L11.213,1.092C7.267-.959,4.302,.343,2.887,1.301c-.597,.403-.927,1.072-.883,1.789,.043,.708,.446,1.324,1.076,1.65l4.024,2.168L.314,19.665c-.723,1.455-.139,3.247,1.303,3.997,.434,.226,.905,.339,1.379,.339,.313,0,.628-.049,.935-.149,.771-.252,1.395-.791,1.742-1.492l6.707-12.609,1.797,.968c.433,.221,.896,.326,1.354,.326,1.086,0,2.138-.591,2.671-1.615ZM3.894,21.445c-.12,.242-.327,.421-.584,.505-.258,.084-.531,.062-.771-.063-.48-.249-.675-.847-.447-1.307L8.865,7.857l1.754,.945L3.894,21.445ZM16.88,7.633l-.453,.874c-.253,.485-.857,.678-1.321,.439L4.02,2.975c-.006-.003-.005-.015-.012-.018,.744-.504,1.776-.958,3.069-.958,.931,0,1.997,.235,3.19,.854l6.173,3.424c.241,.121,.42,.328,.504,.585,.083,.257,.061,.53-.064,.771Zm7.12-1.633c0,.553-.447,1-1,1h-1c-.553,0-1-.447-1-1s.447-1,1-1h1c.553,0,1,.447,1,1Zm-3.947,7.384c.341,.435,.265,1.062-.171,1.403-.183,.144-.399,.213-.615,.213-.297,0-.591-.132-.788-.384l-.783-1c-.341-.435-.265-1.062,.171-1.403,.434-.342,1.062-.265,1.403,.171l.783,1Zm2.938-2.393c-.184,.325-.522,.509-.872,.509-.166,0-.335-.041-.49-.129l-.888-.5c-.48-.271-.651-.881-.38-1.362,.271-.479,.88-.653,1.362-.38l.888,.5c.48,.271,.651,.881,.38,1.362Z"/></svg>
