<?xml version="1.0" encoding="UTF-8"?>
<svg xmlns="http://www.w3.org/2000/svg" id="Layer_1" data-name="Layer 1" viewBox="0 0 24 24" width="512" height="512"><path d="M5.005,24.006c-.548,0-1.097-.198-1.524-.596l-1.99-1.849c-1.976-1.975-1.976-5.147-.026-7.096,.945-.944,2.201-1.464,3.536-1.464s2.591,.52,3.535,1.464h0c.945,.944,1.465,2.2,1.465,3.536s-.52,2.591-1.465,3.535l-2.001,1.871c-.428,.4-.978,.6-1.528,.6Zm-.005-9.006c-.801,0-1.555,.312-2.122,.879-1.169,1.169-1.169,3.072,0,4.242l1.964,1.824c.092,.085,.234,.085,.326,0l1.977-1.847c.542-.543,.854-1.296,.854-2.098s-.312-1.555-.879-2.122h0c-.566-.566-1.32-.878-2.121-.878Zm14.005-3.994c-.548,0-1.097-.199-1.524-.596l-1.99-1.849c-1.976-1.975-1.976-5.147-.026-7.096,.944-.944,2.2-1.464,3.536-1.464s2.59,.52,3.535,1.464h0c1.95,1.95,1.95,5.122,0,7.071l-2.001,1.871c-.428,.4-.979,.6-1.529,.6Zm-.005-9.006c-.802,0-1.555,.312-2.122,.878-1.169,1.17-1.169,3.073,0,4.243l1.963,1.824c.093,.086,.236,.084,.327,0l1.977-1.847c1.145-1.146,1.145-3.049-.024-4.219h0c-.567-.567-1.32-.879-2.121-.879Zm5,18c0-2.206-1.794-4-4-4h-5c-1.103,0-2-.897-2-2,0-.847,.536-1.604,1.333-1.886,.521-.184,.794-.755,.61-1.276-.184-.521-.754-.795-1.276-.61-1.595,.563-2.667,2.08-2.667,3.772,0,2.206,1.794,4,4,4h5c1.103,0,2,.897,2,2s-.897,2-2,2H11c-.552,0-1,.448-1,1s.448,1,1,1h9c2.206,0,4-1.794,4-4Z"/></svg>
