<?xml version="1.0" encoding="UTF-8"?>
<svg xmlns="http://www.w3.org/2000/svg" id="Layer_1" data-name="Layer 1" viewBox="0 0 24 24" width="512" height="512"><path d="M16,14h-3v-2c0-1.103-.897-2-2-2h-3c-1.103,0-2,.897-2,2v6c0,1.103,.897,2,2,2h8c1.103,0,2-.897,2-2v-2c0-1.103-.897-2-2-2Zm-5,4h-3v-2h3v2Zm0-4h-3v-2h3v2Zm5,4h-3v-2h3v2Zm3.949-12.465l-3.484-3.484c-1.322-1.322-3.08-2.051-4.95-2.051H7C4.243,0,2,2.243,2,5v14c0,2.757,2.243,5,5,5h10c2.757,0,5-2.243,5-5V10.485c0-1.87-.729-3.628-2.051-4.95Zm-1.414,1.414c.318,.318,.587,.671,.806,1.051h-4.341c-.552,0-1-.448-1-1V2.659c.38,.218,.733,.488,1.051,.806l3.484,3.484Zm1.465,12.051c0,1.654-1.346,3-3,3H7c-1.654,0-3-1.346-3-3V5c0-1.654,1.346-3,3-3h4.515c.163,0,.325,.008,.485,.023V7c0,1.654,1.346,3,3,3h4.977c.015,.16,.023,.322,.023,.485v8.515Z"/></svg>
