<?xml version="1.0" encoding="UTF-8"?>
<svg xmlns="http://www.w3.org/2000/svg" id="Layer_1" data-name="Layer 1" viewBox="0 0 24 24" width="512" height="512"><path d="M14.086,19.414c.392,.392,.905,.586,1.418,.586,.509,0,1.017-.191,1.399-.575l2.793-2.707c.396-.384,.406-1.018,.021-1.414-.386-.396-1.018-.406-1.414-.021l-2.814,2.707-1.674-1.623c2.359-1.509,3.966-3.933,4.162-6.715,.185-2.613-.768-5.17-2.613-7.015C13.519,.791,10.959-.165,8.349,.023,3.823,.343,0,4.589,0,9.296v5.038c0,2.021,1.643,3.666,3.661,3.666h4.477c1.336,0,2.614-.244,3.782-.685l2.166,2.099Zm-10.425-3.414c-.916,0-1.661-.747-1.661-1.666v-5.038c0-3.696,2.972-7.029,6.489-7.278,.167-.012,.333-.018,.498-.018,1.859,0,3.645,.732,4.962,2.051,1.436,1.435,2.176,3.425,2.033,5.46-.253,3.578-3.772,6.489-7.845,6.489H3.661ZM11.953,6.466c.224,1.271-.381,2.542-1.506,3.163-.447,.246-.447,.318-.447,.371,0,.553-.447,1-1,1s-1-.447-1-1c0-1.308,1.038-1.879,1.481-2.123,.289-.16,.595-.535,.502-1.065-.069-.393-.402-.726-.793-.794-.31-.058-.603,.021-.832,.216-.228,.19-.358,.47-.358,.767,0,.553-.447,1-1,1s-1-.447-1-1c0-.889,.391-1.727,1.072-2.299,.681-.572,1.578-.814,2.464-.653,1.21,.211,2.205,1.206,2.417,2.418Zm-1.703,6.784c0,.69-.56,1.25-1.25,1.25s-1.25-.56-1.25-1.25,.56-1.25,1.25-1.25,1.25,.56,1.25,1.25Zm13.75,2.75v5c0,1.657-1.343,3-3,3h-5c-2.955,0-5.535-1.615-6.92-4.004,.769-.006,1.518-.091,2.242-.248,1.101,1.371,2.787,2.252,4.678,2.252h5c.552,0,1-.448,1-1v-5c0-1.891-.881-3.577-2.252-4.678,.156-.724,.242-1.473,.248-2.242,2.389,1.385,4.004,3.965,4.004,6.92Z"/></svg>
