<?xml version="1.0" encoding="UTF-8"?>
<svg xmlns="http://www.w3.org/2000/svg" id="Layer_1" data-name="Layer 1" viewBox="0 0 24 24" width="512" height="512"><path d="M8,8.5c0,.828-.672,1.5-1.5,1.5s-1.5-.672-1.5-1.5,.672-1.5,1.5-1.5,1.5,.672,1.5,1.5Zm16,10.5v-6.66C24,5.862,19.096,.454,12.836,.029,9.363-.208,5.961,1.064,3.509,3.521,1.057,5.976-.211,9.378,.03,12.854c.44,6.354,6.052,11.146,13.054,11.146h5.917c2.757,0,5-2.243,5-5ZM12.701,2.024c5.215,.354,9.299,4.886,9.299,10.316v6.66c0,1.654-1.346,3-3,3h-5.917c-6.035,0-10.686-3.905-11.059-9.285-.201-2.899,.855-5.735,2.899-7.782,1.882-1.884,4.435-2.933,7.091-2.933,.228,0,.457,.007,.686,.023Zm-5.994,14.183l4.293-4.293,2.586,2.586c.779,.78,2.049,.78,2.828,0l3.293-3.293c.391-.391,.391-1.023,0-1.414s-1.023-.391-1.414,0l-3.293,3.293-2.586-2.586c-.756-.756-2.072-.756-2.828,0l-4.293,4.293c-.391,.391-.391,1.023,0,1.414,.195,.195,.451,.293,.707,.293s.512-.098,.707-.293Z"/></svg>
