<?xml version="1.0" encoding="UTF-8"?>
<svg xmlns="http://www.w3.org/2000/svg" id="Layer_1" data-name="Layer 1" viewBox="0 0 24 24" width="512" height="512"><path d="M19,6h-1.226c1.413-1.38,1.629-3.195,.545-4.64-.545-.728-1.34-1.198-2.239-1.326-.902-.131-1.795,.102-2.521,.646-.678,.508-1.178,1.155-1.547,1.813-.369-.659-.869-1.305-1.547-1.813C9.739,.135,8.844-.097,7.945,.034c-.899,.128-1.694,.599-2.239,1.326-1.078,1.437-.87,3.24,.547,4.64h-1.253C2.243,6,0,8.243,0,11v8c0,2.757,2.243,5,5,5h14c2.757,0,5-2.243,5-5V11c0-2.757-2.243-5-5-5Zm-4.24-3.72c.245-.184,.537-.28,.837-.28,.403,0,.898,.261,1.123,.56,.641,.854,.043,1.644-.343,2.013-1.561,1.385-3.217,1.427-3.358,1.428h-.013c.019-.091,.025-.186,.017-.283l-.002-.021c.089-.598,.461-2.458,1.739-3.416Zm-7.084,2.316c-.414-.395-1.011-1.182-.37-2.037,.225-.299,.552-.493,.922-.546,.373-.048,.739,.043,1.038,.267,1.279,.959,1.651,2.822,1.74,3.416l-.002,.021c-.008,.097-.002,.192,.017,.283h-.013c-.141,0-1.797-.042-3.332-1.403Zm-2.676,3.403h5.824c-.751,1.951-3.666,1.999-3.826,2-.552,0-.999,.448-.999,1s.448,1,1,1c1.417,0,3.697-.488,5-2.056,1.303,1.569,3.583,2.056,5,2.056,.552,0,1-.447,1-1s-.448-1-1-1c-.142,0-3.078-.026-3.827-2h5.827c1.654,0,3,1.346,3,3v6H2v-6c0-1.654,1.346-3,3-3Zm14,14H5c-1.654,0-3-1.346-3-3H22c0,1.654-1.346,3-3,3Z"/></svg>
