<?xml version="1.0" encoding="UTF-8"?>
<svg xmlns="http://www.w3.org/2000/svg" id="Layer_1" data-name="Layer 1" viewBox="0 0 24 24" width="512" height="512"><path d="M23,9c-.552,0-1,.447-1,1v1h-3V1c0-.553-.448-1-1-1s-1,.447-1,1v1h-2V1c0-.553-.448-1-1-1s-1,.447-1,1v1h-2V1c0-.553-.448-1-1-1s-1,.447-1,1v1h-2V1c0-.553-.448-1-1-1s-1,.447-1,1V11H2v-1c0-.553-.448-1-1-1s-1,.447-1,1v9.5c0,2.481,2.019,4.5,4.5,4.5h4.5c.552,0,1-.447,1-1v-4c0-1.103,.897-2,2-2s2,.897,2,2v4c0,.553,.448,1,1,1h4.5c2.481,0,4.5-2.019,4.5-4.5V10c0-.553-.448-1-1-1ZM7,4h10v7h-3v-3c0-1.105-.895-2-2-2s-2,.895-2,2v3h-3V4Zm12.5,18h-3.5v-3c0-2.206-1.794-4-4-4s-4,1.794-4,4v3h-3.5c-1.378,0-2.5-1.121-2.5-2.5v-6.5H22v6.5c0,1.379-1.122,2.5-2.5,2.5Z"/></svg>
