<?xml version="1.0" encoding="UTF-8"?>
<svg xmlns="http://www.w3.org/2000/svg" id="Layer_1" data-name="Layer 1" viewBox="0 0 24 24" width="512" height="512"><path d="M20.839,18.131h0l-.273-.227c1.577-1.951,2.435-4.365,2.435-6.903,0-.372-.019-.738-.055-1.101-.056-.55-.537-.936-1.096-.895-.549,.056-.95,.546-.895,1.096,.03,.296,.045,.596,.045,.899,0,2.232-.811,4.347-2.292,6H5.292c-1.48-1.652-2.292-3.767-2.292-6C3,6.037,7.037,2,12,2c.922,0,1.831,.139,2.7,.412,.528,.165,1.088-.129,1.254-.654,.165-.526-.127-1.088-.654-1.254-1.063-.334-2.174-.504-3.3-.504C5.935,0,1,4.935,1,11c0,2.538,.857,4.952,2.435,6.903l-.274,.228c-1.041,.868-1.789,2.073-2.105,3.393-.145,.603-.007,1.228,.377,1.715,.383,.484,.955,.762,1.571,.762H20.996c.616,0,1.188-.277,1.571-.762,.384-.487,.521-1.112,.377-1.716-.316-1.318-1.064-2.523-2.105-3.392ZM3.001,21.989c.217-.903,.729-1.728,1.44-2.321l.803-.668h13.512l.802,.668c.713,.594,1.225,1.418,1.438,2.332l-17.995-.011ZM14.824,9.176l1.418,.354c.445,.111,.758,.511,.758,.97s-.313,.858-.758,.97l-1.418,.354-.354,1.418c-.111,.445-.511,.758-.97,.758s-.858-.312-.97-.758l-.357-1.43-1.433-.385c-.443-.119-.748-.524-.74-.983,.009-.459,.328-.854,.774-.957l1.404-.324,.352-1.405c.11-.445,.511-.758,.97-.758s.858,.312,.97,.758l.354,1.418ZM23.371,3.071l-1.744-.698-.698-1.744c-.152-.38-.52-.629-.929-.629s-.776,.249-.929,.629l-.694,1.734-1.731,.655c-.382,.146-.638,.508-.646,.917s.234,.781,.611,.94l1.758,.74,.702,1.755c.152,.38,.52,.629,.929,.629s.776-.249,.929-.629l.698-1.744,1.744-.698c.38-.152,.629-.52,.629-.929s-.249-.776-.629-.929Z"/></svg>
