<?xml version="1.0" encoding="UTF-8"?>
<svg xmlns="http://www.w3.org/2000/svg" id="Layer_1" data-name="Layer 1" viewBox="0 0 24 24" width="512" height="512"><path d="M17.55,23.02c-1.07,0-2.07-.42-2.83-1.17l-7.17-7.17-1.47,1.47c-.88,.87-2.13,1.11-3.27,.64-1.14-.48-1.85-1.54-1.84-2.77V5.02s0,0,0,0c0-2.2,1.79-3.99,4-4H13.96s0,0,0,0c1.23,0,2.29,.71,2.77,1.84,.48,1.14,.23,2.39-.64,3.27l-1.48,1.47,7.17,7.17c1.56,1.56,1.56,4.1,0,5.66l-1.41,1.41c-.76,.76-1.76,1.17-2.83,1.17ZM7.55,12.26c.26,0,.51,.1,.71,.29l7.88,7.88c.76,.76,2.07,.76,2.83,0l1.41-1.41c.78-.78,.78-2.05,0-2.83l-7.88-7.88c-.19-.19-.29-.44-.29-.71s.11-.52,.29-.71l2.18-2.18c.43-.44,.27-.94,.21-1.09s-.3-.61-.92-.61H4.96c-1.1,0-2,.9-2,2V14.02c0,.62,.47,.86,.61,.92,.14,.06,.65,.22,1.09-.21l2.18-2.18c.2-.2,.45-.29,.71-.29Z"/></svg>
