<?xml version="1.0" encoding="UTF-8"?>
<svg xmlns="http://www.w3.org/2000/svg" id="Layer_1" data-name="Layer 1" viewBox="0 0 24 24" width="512" height="512"><path d="M12.836,.029C9.365-.205,5.962,1.065,3.509,3.521,1.057,5.976-.211,9.378,.029,12.854c.441,6.354,6.053,11.146,13.054,11.146h5.917c2.757,0,5-2.243,5-5v-6.66C24,5.862,19.097,.454,12.836,.029Zm9.164,18.971c0,1.654-1.346,3-3,3h-5.917c-6.034,0-10.686-3.905-11.058-9.285-.201-2.899,.855-5.735,2.898-7.782,1.882-1.884,4.435-2.933,7.091-2.933,.229,0,.457,.007,.687,.023,5.214,.354,9.299,4.886,9.299,10.316v6.66Zm-5.293-9.588c.391,.391,.391,1.024,0,1.414-.391,.391-1.023,.391-1.414,0l-2.293-2.293v8.467c0,.552-.447,1-1,1s-1-.448-1-1V8.634l-2.293,2.293c-.195,.195-.451,.293-.707,.293s-.512-.098-.707-.293c-.391-.391-.391-1.023,0-1.414l2.636-2.636c.556-.555,1.292-.876,2.071-.876s1.578,.282,2.172,.876l2.535,2.536Z"/></svg>
