<?xml version="1.0" encoding="UTF-8"?>
<svg xmlns="http://www.w3.org/2000/svg" id="Layer_1" data-name="Layer 1" viewBox="0 0 24 24" width="512" height="512"><path d="M23,17c-.552,0-1,.447-1,1v1.001c0,.551-.448,.999-.999,.999-.267,0-.518-.104-.707-.293-.188-.189-.292-.439-.292-.707l.012-10.993c.001-1.604-.622-3.112-1.755-4.247-1.133-1.135-2.641-1.76-4.245-1.76H6C2.691,2,0,4.691,0,8v11.003c0,1.652,1.344,2.997,3.01,2.997,1.647,0,2.992-1.34,2.997-3h4.02c-.002,.801,.308,1.554,.873,2.121,.565,.566,1.317,.879,2.124,.879,1.653,0,2.997-1.345,2.997-3h1.98c0,.028,0,.057,.003,.085,.021,.769,.33,1.488,.876,2.035,.566,.567,1.32,.88,2.122,.88,1.654,0,2.999-1.346,2.999-2.999v-1.001c0-.553-.448-1-1-1ZM6,4H14.014c1.069,0,2.074,.417,2.83,1.173,.756,.757,1.171,1.763,1.17,2.832l-.004,3.995H2v-4c0-2.206,1.794-4,4-4Zm10.02,13c-1.103,0-2,.897-2,2.003,0,.55-.447,.997-1.003,.997-.265,0-.514-.104-.701-.291-.187-.188-.29-.438-.289-.703,.001-.536-.206-1.039-.584-1.418s-.881-.588-1.416-.588H6.006c-1.099,0-1.996,.895-2,2.007-.001,.548-.449,.993-1.01,.993-.549,0-.997-.447-.997-.997v-5.003H18.008l-.003,3h-1.985Zm-7.02-9c0-.552,.448-1,1-1s1,.448,1,1-.448,1-1,1-1-.448-1-1Zm-4,0c0-.552,.448-1,1-1s1,.448,1,1-.448,1-1,1-1-.448-1-1Zm8,0c0-.552,.448-1,1-1s1,.448,1,1-.448,1-1,1-1-.448-1-1Z"/></svg>
