<?xml version="1.0" encoding="UTF-8"?>
<svg xmlns="http://www.w3.org/2000/svg" id="Layer_1" data-name="Layer 1" viewBox="0 0 24 24" width="512" height="512"><path d="M21.99,10.01v8.99c0,2.76-2.24,5-5,5H7s0,0,0,0c-1.33,0-2.59-.52-3.54-1.46-.94-.94-1.46-2.2-1.46-3.54V10c0-2.76,2.24-5,5-5h1c.55,0,1,.45,1,1s-.45,1-1,1h-1c-1.65,0-3,1.35-3,3v9c0,.8,.31,1.56,.88,2.12,.57,.57,1.32,.88,2.12,.88h9.99c1.65,0,3-1.35,3-3V10.01c0-.8-.31-1.56-.88-2.12-.57-.56-1.32-.88-2.12-.88h-.99s0,0,0,0c-.55,0-1-.45-1-1,0-.55,.45-1,1-1h.99s.01,0,.01,0c1.33,0,2.59,.52,3.53,1.46,.95,.94,1.47,2.2,1.47,3.54Zm-14.3,2.27c-.4-.38-1.03-.37-1.41,.03-.38,.4-.37,1.03,.04,1.41l3.57,3.4c.59,.59,1.36,.88,2.13,.88s1.52-.29,2.1-.86l3.59-3.41c.4-.38,.42-1.01,.04-1.41-.38-.4-1.01-.42-1.41-.03l-3.31,3.15V1c0-.55-.45-1-1-1s-1,.45-1,1V15.43l-3.31-3.15Z"/></svg>
