<?xml version="1.0" encoding="UTF-8"?>
<svg xmlns="http://www.w3.org/2000/svg" id="Layer_1" data-name="Layer 1" viewBox="0 0 24 24" width="512" height="512"><path d="M19,0H5C2.243,0,0,2.243,0,5v1c0,2.757,2.243,5,5,5h14c2.757,0,5-2.243,5-5v-1c0-2.757-2.243-5-5-5Zm3,6c0,1.654-1.346,3-3,3H5c-1.654,0-3-1.346-3-3v-1c0-1.654,1.346-3,3-3h14c1.654,0,3,1.346,3,3v1Zm-2,0c0,.552-.447,1-1,1H5c-.553,0-1-.448-1-1s.447-1,1-1h14c.553,0,1,.448,1,1Zm-7,8v9c0,.552-.447,1-1,1s-1-.448-1-1V14c0-.552,.447-1,1-1s1,.448,1,1Zm-4,0v6c0,2.206-1.794,4-4,4s-4-1.794-4-4c0-1.739,1.121-3.397,2.667-3.943,.521-.184,1.092,.09,1.276,.61,.184,.521-.09,1.092-.61,1.276-.747,.264-1.333,1.167-1.333,2.057,0,1.103,.897,2,2,2s2-.897,2-2v-6c0-.552,.447-1,1-1s1,.448,1,1Zm14,6c0,2.206-1.794,4-4,4s-4-1.794-4-4v-6c0-.552,.447-1,1-1s1,.448,1,1v6c0,1.103,.897,2,2,2s2-.897,2-2c0-.89-.586-1.793-1.333-2.057-.521-.184-.794-.755-.61-1.276,.185-.521,.755-.794,1.276-.61,1.546,.546,2.667,2.204,2.667,3.943Z"/></svg>
