<?xml version="1.0" encoding="UTF-8"?>
<svg xmlns="http://www.w3.org/2000/svg" id="Layer_1" data-name="Layer 1" viewBox="0 0 24 24" width="512" height="512"><path d="M12,18c-2.206,0-4-1.794-4-4v-4c0-2.206,1.794-4,4-4s4,1.794,4,4v4c0,2.206-1.794,4-4,4Zm0-10c-1.103,0-2,.897-2,2v4c0,1.103,.897,2,2,2s2-.897,2-2v-4c0-1.103-.897-2-2-2Zm7,16H5c-2.757,0-5-2.243-5-5V5C0,2.243,2.243,0,5,0h14c2.757,0,5,2.243,5,5v14c0,2.757-2.243,5-5,5ZM5,2c-1.654,0-3,1.346-3,3v14c0,1.654,1.346,3,3,3h14c1.654,0,3-1.346,3-3V5c0-1.654-1.346-3-3-3H5Z"/></svg>
