<?xml version="1.0" encoding="UTF-8"?>
<svg xmlns="http://www.w3.org/2000/svg" id="Layer_1" data-name="Layer 1" viewBox="0 0 24 24" width="512" height="512"><path d="M20,6h-1v-2c0-2.206-1.794-4-4-4H7C4.794,0,3,1.794,3,4v5c0,.739,.201,1.431,.552,2.025-1.995,.223-3.552,1.92-3.552,3.975v5c0,2.206,1.794,4,4,4H12c2.206,0,4-1.794,4-4v-1h4c2.206,0,4-1.794,4-4v-5c0-2.206-1.794-4-4-4ZM5,4c0-1.103,.897-2,2-2H15c1.103,0,2,.897,2,2v2h-5c-2.206,0-4,1.794-4,4v1h-1c-1.103,0-2-.897-2-2V4Zm7,9c.179,0,.353,.024,.518,.068l-3.523,3.522c-.527,.527-1.446,.527-1.975,0l-3.526-3.526c.161-.042,.331-.065,.505-.065H12Zm2,7c0,1.103-.897,2-2,2H4c-1.103,0-2-.897-2-2v-5c0-.184,.025-.361,.072-.53l3.535,3.535c.642,.642,1.495,.995,2.402,.995s1.761-.354,2.402-.995l3.522-3.522c.044,.165,.068,.338,.068,.517v5Zm8-5c0,1.103-.897,2-2,2h-4v-2c0-2.206-1.794-4-4-4h-2v-1c0-1.103,.897-2,2-2h8c1.103,0,2,.897,2,2v5Zm-2-4c0,.552-.448,1-1,1s-1-.448-1-1,.448-1,1-1,1,.448,1,1Z"/></svg>
