<?xml version="1.0" encoding="UTF-8"?>
<svg xmlns="http://www.w3.org/2000/svg" id="Layer_1" data-name="Layer 1" viewBox="0 0 24 24" width="512" height="512"><path d="M23.83,14.12l-1.56-5.84c-.88-3.15-3.47-5.48-6.58-6.11-.01-.01-.02-.03-.03-.04-1.57-1.38-3.58-2.14-5.66-2.14C5.94,0,2.5,2.76,1.63,6.68L.11,12.35c-.31,1.38,.03,2.81,.91,3.91,.89,1.1,2.21,1.74,3.62,1.74h.19c.06,.09,.12,.18,.19,.26,.89,1.1,2.21,1.74,3.62,1.74h.96c.23,2.24,2.1,4,4.4,4s4.17-1.76,4.4-4h.95c1.46,0,2.81-.67,3.7-1.84,.88-1.17,1.17-2.64,.78-4.04Zm-21.25,.89c-.5-.63-.69-1.44-.53-2.19l1.52-5.67c.67-3.04,3.32-5.16,6.43-5.16,.62,0,1.22,.11,1.8,.28-3.05,.8-5.46,3.22-6.17,6.4l-1.52,5.67c-.12,.53-.14,1.06-.08,1.58-.57-.13-1.08-.45-1.45-.92Zm11.42,6.99c-1.2,0-2.19-.86-2.4-2h4.8c-.21,1.14-1.2,2-2.4,2Zm7.46-5.04c-.5,.66-1.27,1.04-2.11,1.04H8.64c-.81,0-1.56-.36-2.06-.99-.5-.63-.69-1.44-.53-2.19l1.52-5.67c.67-3.04,3.32-5.16,6.43-5.16,2.95,0,5.55,1.98,6.34,4.81l1.56,5.84c.22,.8,.06,1.64-.44,2.31Z"/></svg>
