<?xml version="1.0" encoding="UTF-8"?>
<svg xmlns="http://www.w3.org/2000/svg" id="Layer_1" data-name="Layer 1" viewBox="0 0 24 24" width="512" height="512"><path d="M12,2V23c0,.55-.45,1-1,1s-1-.45-1-1V2H5c-1.65,0-3,1.35-3,3v1c0,.55-.45,1-1,1s-1-.45-1-1v-1C0,2.24,2.24,0,5,0h12c2.76,0,5,2.24,5,5v1c0,.55-.45,1-1,1s-1-.45-1-1v-1c0-1.65-1.35-3-3-3h-5Zm9.75,17.25l-1.75,1.75V12l1.75,1.75c.2,.2,.45,.29,.71,.29s.51-.1,.71-.29c.39-.39,.39-1.02,0-1.41l-2.75-2.75c-.39-.39-.89-.58-1.4-.58,0,0,0,0-.01,0s0,0-.01,0c-.51,0-1.01,.2-1.4,.58l-2.75,2.75c-.39,.39-.39,1.02,0,1.41s1.02,.39,1.41,0l1.75-1.75v9l-1.75-1.75c-.39-.39-1.02-.39-1.41,0s-.39,1.02,0,1.41l2.75,2.75c.39,.39,.9,.58,1.4,.58,0,0,0,0,0,0s0,0,0,0c.51,0,1.02-.2,1.4-.58l2.75-2.75c.39-.39,.39-1.02,0-1.41s-1.02-.39-1.41,0Z"/></svg>
