<?xml version="1.0" encoding="UTF-8"?>
<svg xmlns="http://www.w3.org/2000/svg" id="Layer_1" data-name="Layer 1" viewBox="0 0 24 24" width="512" height="512"><path d="M16,12v-3c0-.55-.45-1-1-1h-3c-2.21,0-4,1.79-4,4v3c0,.55,.45,1,1,1h3c2.21,0,4-1.79,4-4Zm-2,0c0,1.1-.9,2-2,2h-2v-2c0-1.1,.9-2,2-2h2v2ZM9,2h-2c-.55,0-1-.45-1-1s.45-1,1-1h2c.55,0,1,.45,1,1s-.45,1-1,1ZM0,9v-2c0-.55,.45-1,1-1s1,.45,1,1v2c0,.55-.45,1-1,1s-1-.45-1-1ZM.23,2.67C.63,1.52,1.52,.63,2.67,.23c.52-.18,1.09,.09,1.28,.61,.18,.52-.09,1.09-.61,1.28-.56,.2-1.02,.65-1.22,1.22-.15,.41-.53,.67-.94,.67-.11,0-.22-.02-.33-.06C.32,3.76,.04,3.19,.23,2.67ZM18,23c0,.55-.45,1-1,1h-2c-.55,0-1-.45-1-1s.45-1,1-1h2c.55,0,1,.45,1,1Zm6-8v2c0,.55-.45,1-1,1s-1-.45-1-1v-2c0-.55,.45-1,1-1s1,.45,1,1Zm-.23,6.33c-.4,1.15-1.29,2.04-2.44,2.44-.11,.04-.22,.06-.33,.06-.41,0-.8-.26-.94-.67-.18-.52,.09-1.09,.61-1.28,.56-.2,1.02-.65,1.22-1.22,.18-.52,.75-.79,1.28-.61,.52,.18,.79,.75,.61,1.28Zm-3.77-11.33h-1c-.55,0-1-.45-1-1s.45-1,1-1h1c1.69,0,3.21,1.07,3.77,2.67,.18,.52-.09,1.09-.61,1.28-.11,.04-.22,.06-.33,.06-.41,0-.8-.26-.94-.67-.28-.8-1.04-1.33-1.89-1.33ZM6,15c0,.55-.45,1-1,1h-1c-1.69,0-3.21-1.07-3.77-2.67-.18-.52,.09-1.09,.61-1.28,.52-.18,1.09,.09,1.28,.61,.28,.8,1.04,1.33,1.89,1.33h1c.55,0,1,.45,1,1Zm5.94,8.16c-.15,.41-.53,.67-.94,.67-.11,0-.22-.02-.33-.06-1.59-.56-2.67-2.08-2.67-3.77v-1c0-.55,.45-1,1-1s1,.45,1,1v1c0,.85,.54,1.6,1.33,1.89,.52,.18,.79,.75,.61,1.28Zm.11-22.32c.18-.52,.76-.79,1.28-.61,1.6,.56,2.67,2.08,2.67,3.77v1c0,.55-.45,1-1,1s-1-.45-1-1v-1c0-.85-.54-1.6-1.33-1.89-.52-.18-.79-.75-.61-1.28Z"/></svg>
