<?xml version="1.0" encoding="UTF-8"?>
<svg xmlns="http://www.w3.org/2000/svg" id="Layer_1" data-name="Layer 1" viewBox="0 0 24 24" width="512" height="512"><path d="M23,24H2.988C1.333,24-.012,22.654-.012,21V1C-.012,.448,.436,0,.988,0S1.988,.448,1.988,1V21c0,.552,.449,1,1,1H23c.552,0,1,.447,1,1s-.448,1-1,1ZM14,13c0,.552,.448,1,1,1s1-.448,1-1-.448-1-1-1-1,.448-1,1Zm6-6c0,.552,.448,1,1,1s1-.448,1-1-.448-1-1-1-1,.448-1,1Zm-9,11c0,.552,.448,1,1,1s1-.448,1-1-.448-1-1-1-1,.448-1,1Zm9-1c0,.552,.448,1,1,1s1-.448,1-1-.448-1-1-1-1,.448-1,1ZM9,5c0,.552,.448,1,1,1s1-.448,1-1-.448-1-1-1-1,.448-1,1Zm-4,7c0,.552,.448,1,1,1s1-.448,1-1-.448-1-1-1-1,.448-1,1Z"/></svg>
