<?xml version="1.0" encoding="UTF-8"?>
<svg xmlns="http://www.w3.org/2000/svg" id="Layer_1" data-name="Layer 1" viewBox="0 0 24 24" width="512" height="512"><path d="M14,18h-4c-2.21,0-4-1.79-4-4v-4c0-2.21,1.79-4,4-4h4c2.21,0,4,1.79,4,4v4c0,2.21-1.79,4-4,4Zm-4-10c-1.1,0-2,.9-2,2v4c0,1.1,.9,2,2,2h4c1.1,0,2-.9,2-2v-4c0-1.1-.9-2-2-2h-4Zm-6.06,2.33c.18-.52-.09-1.09-.61-1.28-.8-.28-1.33-1.04-1.33-1.89v-3.17c0-1.1,.9-2,2-2h3.17c.85,0,1.6,.54,1.89,1.33,.18,.52,.76,.8,1.28,.61,.52-.18,.79-.76,.61-1.28-.56-1.59-2.08-2.67-3.77-2.67h-3.17C1.79,0,0,1.79,0,4v3.17c0,1.69,1.07,3.21,2.67,3.77,.11,.04,.22,.06,.33,.06,.41,0,.8-.26,.94-.67Zm20.06,9.67v-3.17c0-1.69-1.07-3.21-2.67-3.77-.52-.19-1.09,.09-1.28,.61-.18,.52,.09,1.09,.61,1.28,.8,.28,1.33,1.04,1.33,1.89v3.17c0,1.1-.9,2-2,2h-3.17c-.85,0-1.6-.54-1.89-1.33-.18-.52-.76-.79-1.28-.61-.52,.18-.79,.76-.61,1.28,.56,1.59,2.08,2.67,3.77,2.67h3.17c2.21,0,4-1.79,4-4Z"/></svg>
