<?xml version="1.0" encoding="UTF-8"?>
<svg xmlns="http://www.w3.org/2000/svg" id="Layer_1" data-name="Layer 1" viewBox="0 0 24 24" width="512" height="512"><path d="M23,2H1c-.55,0-1-.45-1-1S.45,0,1,0H23c.55,0,1,.45,1,1s-.45,1-1,1Zm1,11c0-.55-.45-1-1-1H1c-.55,0-1,.45-1,1s.45,1,1,1H23c.55,0,1-.45,1-1ZM6,7.5v-1c0-1.38-1.12-2.5-2.5-2.5h-1c-1.38,0-2.5,1.12-2.5,2.5v1c0,1.38,1.12,2.5,2.5,2.5h1c1.38,0,2.5-1.12,2.5-2.5Zm-2.5-1.5c.28,0,.5,.22,.5,.5v1c0,.28-.22,.5-.5,.5h-1c-.28,0-.5-.22-.5-.5v-1c0-.28,.22-.5,.5-.5h1Zm11.5,1.5v-1c0-1.38-1.12-2.5-2.5-2.5h-1c-1.38,0-2.5,1.12-2.5,2.5v1c0,1.38,1.12,2.5,2.5,2.5h1c1.38,0,2.5-1.12,2.5-2.5Zm-2.5-1.5c.28,0,.5,.22,.5,.5v1c0,.28-.22,.5-.5,.5h-1c-.28,0-.5-.22-.5-.5v-1c0-.28,.22-.5,.5-.5h1Zm11.5,1.5v-1c0-1.38-1.12-2.5-2.5-2.5h-1c-1.38,0-2.5,1.12-2.5,2.5v1c0,1.38,1.12,2.5,2.5,2.5h1c1.38,0,2.5-1.12,2.5-2.5Zm-2.5-1.5c.28,0,.5,.22,.5,.5v1c0,.28-.22,.5-.5,.5h-1c-.28,0-.5-.22-.5-.5v-1c0-.28,.22-.5,.5-.5h1ZM6,19.5v-1c0-1.38-1.12-2.5-2.5-2.5h-1c-1.38,0-2.5,1.12-2.5,2.5v1c0,1.38,1.12,2.5,2.5,2.5h1c1.38,0,2.5-1.12,2.5-2.5Zm-2.5-1.5c.28,0,.5,.22,.5,.5v1c0,.28-.22,.5-.5,.5h-1c-.28,0-.5-.22-.5-.5v-1c0-.28,.22-.5,.5-.5h1Zm11.5,1.5v-1c0-1.38-1.12-2.5-2.5-2.5h-1c-1.38,0-2.5,1.12-2.5,2.5v1c0,1.38,1.12,2.5,2.5,2.5h1c1.38,0,2.5-1.12,2.5-2.5Zm-2.5-1.5c.28,0,.5,.22,.5,.5v1c0,.28-.22,.5-.5,.5h-1c-.28,0-.5-.22-.5-.5v-1c0-.28,.22-.5,.5-.5h1Zm11.5,1.5v-1c0-1.38-1.12-2.5-2.5-2.5h-1c-1.38,0-2.5,1.12-2.5,2.5v1c0,1.38,1.12,2.5,2.5,2.5h1c1.38,0,2.5-1.12,2.5-2.5Zm-2.5-1.5c.28,0,.5,.22,.5,.5v1c0,.28-.22,.5-.5,.5h-1c-.28,0-.5-.22-.5-.5v-1c0-.28,.22-.5,.5-.5h1Z"/></svg>
