<?xml version="1.0" encoding="UTF-8"?>
<svg xmlns="http://www.w3.org/2000/svg" id="Layer_1" data-name="Layer 1" viewBox="0 0 24 24" width="512" height="512"><path d="M7,0h-3C1.79,0,0,1.79,0,4v3c0,2.21,1.79,4,4,4h3c2.21,0,4-1.79,4-4v-3C11,1.79,9.21,0,7,0Zm2,7c0,1.1-.9,2-2,2h-3c-1.1,0-2-.9-2-2v-3c0-1.1,.9-2,2-2h3c1.1,0,2,.9,2,2v3Zm11,6h-3c-2.21,0-4,1.79-4,4v3c0,2.21,1.79,4,4,4h3c2.21,0,4-1.79,4-4v-3c0-2.21-1.79-4-4-4Zm2,7c0,1.1-.9,2-2,2h-3c-1.1,0-2-.9-2-2v-3c0-1.1,.9-2,2-2h3c1.1,0,2,.9,2,2v3ZM7,13h-3c-2.21,0-4,1.79-4,4v3c0,2.21,1.79,4,4,4h3c2.21,0,4-1.79,4-4v-3c0-2.21-1.79-4-4-4Zm2,7c0,1.1-.9,2-2,2h-3c-1.1,0-2-.9-2-2v-3c0-1.1,.9-2,2-2h3c1.1,0,2,.9,2,2v3Zm8.18-10.47c.38,.31,.85,.46,1.32,.46s.94-.15,1.32-.46c1.56-1.25,4.18-3.7,4.18-6.06,0-1.92-1.46-3.48-3.25-3.48-.85,0-1.65,.36-2.25,.94-.59-.59-1.39-.94-2.25-.94-1.79,0-3.25,1.56-3.25,3.48,0,2.35,2.62,4.81,4.18,6.06Zm-.93-7.53c.6,0,1.14,.5,1.26,1.17,.08,.48,.5,.83,.98,.83s.9-.35,.98-.83c.12-.67,.67-1.17,1.27-1.17,.69,0,1.25,.66,1.25,1.48,0,1.06-1.35,2.83-3.43,4.5-.04,.03-.1,.03-.14,0-2.08-1.67-3.43-3.44-3.43-4.5,0-.81,.56-1.48,1.25-1.48Z"/></svg>
