<?xml version="1.0" encoding="UTF-8"?>
<svg xmlns="http://www.w3.org/2000/svg" id="Layer_1" data-name="Layer 1" viewBox="0 0 24 24" width="512" height="512"><path d="M3,24a1,1,0,0,1-1-1V5.829A3.007,3.007,0,0,1,3,0,3.014,3.014,0,0,1,4.86,5.352L21.588,8.7A3.007,3.007,0,0,1,24,11.64v1.72A3.007,3.007,0,0,1,21.588,16.3L4,19.82V23A1,1,0,0,1,3,24ZM4,7.22V17.78l2-.4V7.62Zm4,.8v8.96l2-.4V8.42Zm4,.8v7.36l2-.4V9.22Zm4,.8v5.76l2-.4V10.02Zm4,.8v4.162l1.2-.24a1,1,0,0,0,.8-.981V11.64a1,1,0,0,0-.8-.981ZM3,2A1,1,0,0,0,3,4,1,1,0,0,0,3,2Z"/></svg>
