<?xml version="1.0" encoding="UTF-8"?>
<svg xmlns="http://www.w3.org/2000/svg" id="Layer_1" data-name="Layer 1" viewBox="0 0 24 24" width="512" height="512"><path d="M19,9V3c0-1.654-1.346-3-3-3H8c-1.654,0-3,1.346-3,3v6c0,3.52,2.612,6.441,6,6.928v6.072h-3c-.552,0-1,.447-1,1s.448,1,1,1h8c.552,0,1-.447,1-1s-.448-1-1-1h-3v-6.072c3.388-.487,6-3.408,6-6.928Zm-12,0V3c0-.552,.449-1,1-1h3.069s-1.968,2.814-1.999,2.917c-.147,.486-.055,1.021,.249,1.431,.303,.408,.788,.652,1.297,.652h2.068l-1.533,2.473c-.291,.47-.146,1.086,.323,1.377,.164,.102,.346,.15,.526,.15,.334,0,.662-.168,.851-.473l1.882-3.037c.327-.493,.356-1.124,.076-1.646-.28-.521-.821-.845-1.413-.845h-1.998l2.121-3h2.482c.551,0,1,.448,1,1v6c0,2.757-2.243,5-5,5s-5-2.243-5-5Z"/></svg>
