<?xml version="1.0" encoding="UTF-8"?>
<svg xmlns="http://www.w3.org/2000/svg" id="Layer_1" data-name="Layer 1" viewBox="0 0 24 24" width="512" height="512"><path d="M5,18c-.553,0-1-.448-1-1V7c0-.552,.447-1,1-1s1,.448,1,1v10c0,.552-.447,1-1,1Zm5-1V7c0-.552-.447-1-1-1s-1,.448-1,1v10c0,.552,.447,1,1,1s1-.448,1-1Zm10,0V7c0-.552-.447-1-1-1s-1,.448-1,1v10c0,.552,.447,1,1,1s1-.448,1-1Zm-6-.5V7.5c0-.829-.672-1.5-1.5-1.5s-1.5,.671-1.5,1.5v9c0,.829,.672,1.5,1.5,1.5s1.5-.671,1.5-1.5Zm-7,4.5c0-.552-.447-1-1-1h-2c-1.103,0-2-.897-2-2v-2c0-.552-.447-1-1-1s-1,.448-1,1v2c0,2.206,1.794,4,4,4h2c.553,0,1-.448,1-1Zm17-3v-2c0-.552-.447-1-1-1s-1,.448-1,1v2c0,1.103-.897,2-2,2h-2c-.553,0-1,.448-1,1s.447,1,1,1h2c2.206,0,4-1.794,4-4Zm0-10v-2c0-2.206-1.794-4-4-4h-2c-.553,0-1,.448-1,1s.447,1,1,1h2c1.103,0,2,.897,2,2v2c0,.552,.447,1,1,1s1-.448,1-1Zm-22,0v-2c0-1.103,.897-2,2-2h2c.553,0,1-.448,1-1s-.447-1-1-1h-2C1.794,2,0,3.794,0,6v2c0,.552,.447,1,1,1s1-.448,1-1Zm13.5,10h0c-.276,0-.5-.224-.5-.5V6.5c0-.276,.224-.5,.5-.5h0c.276,0,.5,.224,.5,.5v11c0,.276-.224,.5-.5,.5Z"/></svg>
