<?xml version="1.0" encoding="UTF-8"?>
<svg xmlns="http://www.w3.org/2000/svg" id="Layer_1" data-name="Layer 1" viewBox="0 0 24 24" width="512" height="512"><path d="M12.066,24c-5.58,0-10.066-4.486-10.066-10v-4C2.08-.512,16.239-3.833,20.96,5.554c.246,.495,.044,1.095-.45,1.341-.496,.244-1.095,.044-1.341-.45C15.44-1.066,4.019,1.62,4,10v4c0,4.411,3.589,8,8,8,2.984-.001,5.639-1.483,7.167-3.963,.38-.616,.394-1.365,.038-2.002-.362-.647-1.018-1.034-1.756-1.034h-4.448c-1.308-.006-1.307-1.994,0-2h4.448c1.473,0,2.782,.77,3.502,2.059,.714,1.279,.685,2.784-.081,4.026-1.895,3.076-5.186,4.913-8.804,4.915Z"/></svg>
