<?xml version="1.0" encoding="UTF-8"?>
<svg xmlns="http://www.w3.org/2000/svg" id="Layer_1" data-name="Layer 1" viewBox="0 0 24 24" width="512" height="512"><path d="M17,10c-3.859,0-7,3.14-7,7s3.141,7,7,7,7-3.14,7-7-3.141-7-7-7Zm0,12c-2.757,0-5-2.243-5-5s2.243-5,5-5,5,2.243,5,5-2.243,5-5,5Zm1.707-4.707c.391,.391,.391,1.023,0,1.414-.195,.195-.451,.293-.707,.293s-.512-.098-.707-.293l-1-1c-.188-.188-.293-.442-.293-.707v-2c0-.552,.447-1,1-1s1,.448,1,1v1.586l.707,.707Zm-9.707,4.707H5c-1.654,0-3-1.346-3-3v-5h6c.553,0,1-.448,1-1s-.447-1-1-1H2v-3c0-1.654,1.346-3,3-3h14c1.654,0,3,1.346,3,3,0,.552,.447,1,1,1s1-.448,1-1c0-2.757-2.243-5-5-5h-1.101c-.465-2.279-2.485-4-4.899-4h-2c-2.414,0-4.435,1.721-4.899,4h-1.101C2.243,4,0,6.243,0,9v10c0,2.757,2.243,5,5,5h4c.553,0,1-.448,1-1s-.447-1-1-1ZM11,2h2c1.304,0,2.415,.836,2.828,2h-7.656c.413-1.164,1.524-2,2.828-2Z"/></svg>
