<?xml version="1.0" encoding="UTF-8"?>
<svg xmlns="http://www.w3.org/2000/svg" id="Layer_1" data-name="Layer 1" viewBox="0 0 24 24" width="512" height="512"><path d="M18,2c-2.408,0-5,2.19-5,7,0,1.736,.816,3.369,1.605,4.947,.717,1.434,1.395,2.789,1.395,4.053v2.5c0,1.93,1.57,3.5,3.5,3.5s3.5-1.57,3.5-3.5v-2.5c0-1.377,.229-2.291,.47-3.257,.261-1.042,.53-2.12,.53-3.743,0-7.383-4.331-9-6-9Zm3,18.5c0,.827-.673,1.5-1.5,1.5s-1.5-.673-1.5-1.5v-1.5h3v1.5Zm.53-6.243c-.203,.812-.412,1.646-.494,2.743h-3.123c-.23-1.368-.883-2.675-1.519-3.947-.717-1.434-1.395-2.789-1.395-4.053,0-3.283,1.509-5,3-5,.04,0,4,.19,4,7,0,1.377-.229,2.291-.47,3.257ZM6,0C4.331,0,0,1.617,0,9c0,1.623,.27,2.701,.53,3.743,.241,.967,.47,1.88,.47,3.257v2.5c0,1.93,1.57,3.5,3.5,3.5s3.5-1.57,3.5-3.5v-2.5c0-1.264,.678-2.619,1.395-4.053,.789-1.579,1.605-3.211,1.605-4.947C11,2.19,8.408,0,6,0Zm0,18.5c0,.827-.673,1.5-1.5,1.5s-1.5-.673-1.5-1.5v-1.5h3v1.5Zm1.605-7.447c-.636,1.272-1.289,2.579-1.519,3.947H2.964c-.082-1.097-.291-1.931-.494-2.743-.241-.967-.47-1.88-.47-3.257C2,2.19,5.96,2,6,2c1.491,0,3,1.717,3,5,0,1.264-.678,2.619-1.395,4.053Z"/></svg>
