<?xml version="1.0" encoding="UTF-8"?>
<svg xmlns="http://www.w3.org/2000/svg" id="Layer_1" data-name="Layer 1" viewBox="0 0 24 24" width="512" height="512"><path d="M24,11c0-1.568-.752-3.04-2-3.979v-.021c0-1.897-1.327-3.489-3.102-3.898-.409-1.774-2.002-3.102-3.898-3.102-1.194,0-2.267,.526-3,1.357-.733-.832-1.806-1.357-3-1.357-1.896,0-3.489,1.327-3.898,3.102-1.774,.409-3.102,2.001-3.102,3.898v.021c-1.248,.939-2,2.41-2,3.979,0,.886,.235,1.737,.686,2.5-.45,.763-.686,1.614-.686,2.5,0,1.686,.858,3.244,2.267,4.166,.719,2.278,2.812,3.834,5.233,3.834,1.858,0,3.504-.926,4.5-2.342,.996,1.415,2.642,2.342,4.5,2.342,2.422,0,4.515-1.556,5.233-3.834,1.408-.922,2.267-2.48,2.267-4.166,0-.886-.235-1.737-.686-2.5,.45-.763,.686-1.614,.686-2.5ZM7.5,22c-1.634,0-3.033-1.115-3.401-2.712-.065-.281-.248-.52-.502-.656-.985-.528-1.597-1.536-1.597-2.631,0-.675,.234-1.322,.679-1.872,.296-.367,.296-.89,0-1.257-.444-.549-.679-1.196-.679-1.872,0-1.07,.591-2.067,1.543-2.603,.37-.208,.568-.627,.494-1.045-.02-.115-.037-.231-.037-.352,0-1.103,.897-2,2-2,.553,0,1-.448,1-1,0-1.103,.897-2,2-2s2,.897,2,2v4h-2.268c-.346-.598-.992-1-1.732-1-1.105,0-2,.895-2,2s.895,2,2,2c.74,0,1.386-.402,1.732-1h2.268v5h-2.268c-.346-.598-.992-1-1.732-1-1.105,0-2,.895-2,2s.895,2,2,2c.74,0,1.386-.402,1.732-1h2.268v1.5c0,1.93-1.57,3.5-3.5,3.5Zm13.821-7.872c.444,.549,.679,1.196,.679,1.872,0,1.096-.611,2.104-1.597,2.631-.254,.136-.437,.375-.502,.656-.368,1.597-1.768,2.712-3.401,2.712-1.93,0-3.5-1.57-3.5-3.5v-4.5h2c1.654,0,3-1.346,3-3v-.268c.598-.346,1-.992,1-1.732,0-1.105-.895-2-2-2s-2,.895-2,2c0,.74,.402,1.386,1,1.732v.268c0,.551-.448,1-1,1h-2V4c0-1.103,.897-2,2-2s2,.897,2,2c0,.552,.447,1,1,1,1.103,0,2,.897,2,2,0,.121-.018,.237-.037,.352-.074,.418,.124,.837,.494,1.045,.952,.535,1.543,1.533,1.543,2.603,0,.675-.234,1.322-.679,1.872-.296,.367-.296,.89,0,1.257Z"/></svg>
