<?xml version="1.0" encoding="UTF-8"?>
<svg xmlns="http://www.w3.org/2000/svg" id="Layer_1" data-name="Layer 1" viewBox="0 0 24 24" width="512" height="512"><path d="M24,16v5c0,1.657-1.343,3-3,3h-5c-2.955,0-5.535-1.615-6.92-4.004,.769-.006,1.518-.091,2.242-.248,1.101,1.371,2.787,2.252,4.678,2.252h5c.552,0,1-.448,1-1v-5c0-1.891-.881-3.577-2.252-4.678,.156-.724,.242-1.473,.248-2.242,2.389,1.385,4.004,3.965,4.004,6.92Zm-15.297,2H3c-1.493,0-3-1.134-3-3.666v-5.04C0,4.588,3.823,.342,8.349,.023c2.611-.181,5.169,.768,7.015,2.613,1.845,1.845,2.798,4.402,2.613,7.015-.319,4.526-4.566,8.349-9.274,8.349Zm0-2c.071,0,.143-.002,.214-.004-.513-.042-.917-.472-.917-.996v-1h-.268c-1.068,0-2.063-.574-2.598-1.499-.276-.478-.113-1.089,.365-1.366,.477-.277,1.089-.114,1.366,.365,.178,.308,.511,.5,.867,.5h2.268c.551,0,1-.449,1-1,0-.378-.271-.698-.644-.76l-3.042-.507c-1.341-.223-2.315-1.373-2.315-2.733,0-1.654,1.346-3,3-3v-1c0-.544,.435-.987,.976-.999-.162,0-.323,.006-.486,.017-3.518,.249-6.49,3.58-6.49,7.276v5.04c0,.391,.072,1.666,1,1.666h5.703Zm7.279-6.49c.144-2.035-.597-4.025-2.032-5.46-1.303-1.303-3.064-2.033-4.9-2.049,.529,.026,.95,.463,.95,.999v1h.268c1.067,0,2.063,.575,2.598,1.5,.276,.478,.113,1.089-.365,1.366-.477,.277-1.09,.113-1.366-.365-.179-.309-.511-.5-.867-.5h-2.268c-.551,0-1,.449-1,1,0,.378,.271,.698,.644,.76l3.042,.507c1.341,.223,2.315,1.373,2.315,2.733,0,1.654-1.346,3-3,3v1c0,.49-.352,.897-.817,.983,3.501-.243,6.561-3.108,6.799-6.473Z"/></svg>
