<?xml version="1.0" encoding="UTF-8"?>
<svg xmlns="http://www.w3.org/2000/svg" id="Layer_1" data-name="Layer 1" viewBox="0 0 24 24" width="512" height="512"><path d="M11,24a4.241,4.241,0,0,1-3.943-2.667,1,1,0,1,1,1.886-.666C9.72,22.649,12.991,22.337,13,20a2,2,0,0,0-2-2H1a1,1,0,0,1,0-2H11C16.276,16.139,16.272,23.863,11,24Zm9-5a4.241,4.241,0,0,1-3.943-2.667,1,1,0,0,1,1.886-.666C18.72,17.649,21.991,17.337,22,15a2,2,0,0,0-2-2H15a1,1,0,0,1,0-2h5C25.276,11.139,25.272,18.863,20,19ZM7,14C-2.251,13.706-2.249.293,7,0,16.251.294,16.249,13.707,7,14ZM7,2C.392,2.21.394,11.791,7,12,13.608,11.79,13.606,2.209,7,2ZM20,9H17a1,1,0,0,1,0-2h3a2,2,0,0,0,2-2c-.009-2.337-3.281-2.648-4.057-.667a1,1,0,1,1-1.886-.666C17.616-.415,23.952.421,24,5A4,4,0,0,1,20,9ZM7,8A1,1,0,0,1,6,7V4A1,1,0,0,1,8,4V7A1,1,0,0,1,7,8ZM6,10a1,1,0,0,0,2,0A1,1,0,0,0,6,10Z"/></svg>
