<?xml version="1.0" encoding="UTF-8"?>
<svg xmlns="http://www.w3.org/2000/svg" id="Layer_1" data-name="Layer 1" viewBox="0 0 24 24" width="512" height="512"><path d="M20.236,11l.101-.102c.425-.425,.66-.99,.66-1.591s-.234-1.166-.659-1.591l-1.062-1.062c-.877-.876-2.304-.876-3.181,0l-.106,.106c-.071,.071-.175,.093-.252,.057-1.833-.842-3.86-1.04-5.863-.569-3.378,.791-6.076,3.616-6.712,7.028-.56,3.005,.342,5.952,2.474,8.085,1.719,1.719,3.966,2.639,6.347,2.639,.573,0,1.155-.053,1.739-.162,3.416-.636,6.242-3.336,7.032-6.718,.469-2.006,.27-4.035-.575-5.868-.037-.079-.013-.182,.059-.254Zm-1.431,5.667c-.613,2.622-2.803,4.714-5.451,5.208-2.345,.436-4.646-.265-6.305-1.925-1.659-1.66-2.36-3.958-1.923-6.305,.494-2.645,2.584-4.834,5.203-5.447,.558-.13,1.117-.195,1.669-.195,1.002,0,1.985,.213,2.902,.635,.837,.386,1.843,.199,2.501-.46l.106-.106c.098-.096,.255-.097,.353,0l1.061,1.062h0c.06,.061,.073,.129,.073,.177,0,.047-.013,.116-.075,.178l-.101,.102c-.662,.661-.846,1.667-.46,2.505,.657,1.425,.811,3.007,.444,4.575Zm4.215-12.667c0,.899-.35,1.744-.986,2.38-.195,.195-.451,.293-.707,.293s-.512-.098-.707-.293c-.391-.391-.391-1.023,0-1.414,.532-.533,.532-1.399,0-1.932-.668-.667-1.579-1.034-2.515-1.001-4.956,.168-8.87,.94-8.909,.948-.539,.109-1.069-.243-1.176-.785-.108-.542,.243-1.068,.784-1.176,.166-.033,4.105-.811,9.233-.986,1.49-.046,2.939,.528,3.997,1.586,.636,.636,.986,1.481,.986,2.38ZM3.481,7.016c-.459,0-.859-.312-.97-.757l-.357-1.43-1.433-.386C.278,4.323-.027,3.918-.019,3.459s.328-.853,.775-.957l1.403-.324,.352-1.406C2.622,.328,3.022,.016,3.481,.016s.859,.312,.97,.757l.354,1.418,1.418,.354c.445,.111,.757,.511,.757,.97s-.312,.859-.757,.97l-1.418,.354-.354,1.418c-.111,.445-.511,.757-.97,.757Z"/></svg>
