<?xml version="1.0" encoding="UTF-8"?>
<svg xmlns="http://www.w3.org/2000/svg" id="Layer_1" data-name="Layer 1" viewBox="0 0 24 24" width="512" height="512"><path d="M22.707,22.293l-2.541-2.541c1.151-1.629,1.834-3.611,1.834-5.752v-4C21.496-3.251,2.5-3.241,2,10v4c-.065,8.706,10.661,13.26,16.851,7.265l2.442,2.442c.929,.921,2.335-.486,1.414-1.414Zm-10.707-.293c-4.411,0-8-3.589-8-8v-4c.377-10.591,15.627-10.583,16,0v4c0,1.589-.471,3.067-1.273,4.313l-2.02-2.02c-.929-.921-2.335,.486-1.414,1.414l2.144,2.144c-1.429,1.329-3.337,2.149-5.437,2.149Z"/></svg>
