<?xml version="1.0" encoding="UTF-8"?>
<svg xmlns="http://www.w3.org/2000/svg" id="Layer_1" data-name="Layer 1" viewBox="0 0 24 24" width="512" height="512"><path d="M23.534,22.155c-.153-.097-2.928-1.824-7.035-2.68,.418-1.801,1.217-6.164,.28-10.145-.156-.661-.327-1.311-.513-1.946,1.641,.955,3.342,1.386,4.539,1.578,.102,.017,.203,.024,.304,.024,.598,0,1.166-.282,1.531-.774,.433-.583,.504-1.35,.187-2.003-.626-1.289-1.764-3.09-3.629-4.354C16.204-.172,12.498-.032,11.979,0c-.515-.01-4.164-.003-7.14,2.012-1.821,1.233-2.959,2.932-3.593,4.14-.343,.653-.287,1.431,.146,2.03,.428,.593,1.141,.888,1.856,.771,.881-.146,2.04-.421,3.245-.944,.024,1.031,.2,1.994,.396,2.649,.174,.58,.598,1.033,1.165,1.244,.219,.082,.445,.122,.67,.122,.358,0,.713-.102,1.027-.302,.696-.444,1.523-1.18,2.245-2.081,.002,.122,.003,.242,.003,.36,0,3.844-1.838,7.832-2.504,9.149-5.182,.61-8.854,2.894-9.031,3.006-.467,.295-.606,.913-.311,1.379,.19,.301,.515,.466,.846,.466,.183,0,.367-.05,.533-.155,.04-.025,5.466-2.845,10.466-2.845,5.868,0,10.422,2.818,10.467,2.846,.466,.293,1.084,.153,1.379-.313,.294-.467,.155-1.083-.312-1.378ZM18.078,3.511c1.442,.977,2.361,2.392,2.891,3.45-1.143-.199-2.751-.641-4.204-1.625-1.432-.97-2.447-2.29-3.072-3.287,1.225,.125,2.937,.481,4.384,1.461ZM3.087,6.951c.539-.994,1.46-2.326,2.874-3.283,1.422-.963,3.084-1.372,4.299-1.544-.628,.987-1.628,2.266-3.025,3.212-1.433,.97-3.018,1.413-4.147,1.615Zm5.687,3.02c-.219-.797-.367-2.04-.226-3.112,1.417-1.006,2.462-2.26,3.176-3.315,.104,.627,.148,1.336,.041,2.048-.004,.021-.007,.043-.01,.065-.048,.296-.122,.592-.23,.882-.57,1.541-1.948,2.886-2.752,3.433Zm3.013,9.031c.889-1.961,2.213-5.471,2.213-9.002,0-1.223-.094-2.648-.199-3.748,.396,1.123,.742,2.307,1.031,3.535,.858,3.646,.048,7.825-.314,9.364-.806-.095-1.647-.151-2.519-.151-.071,0-.142,0-.213,.002Z"/></svg>
