<?xml version="1.0" encoding="UTF-8"?>
<svg xmlns="http://www.w3.org/2000/svg" id="Layer_1" data-name="Layer 1" viewBox="0 0 24 24" width="512" height="512"><path d="M22.536,6.464c-.704-.704-1.581-1.17-2.536-1.363V3c0-1.654-1.346-3-3-3s-3,1.346-3,3v2h-4V3c0-1.654-1.346-3-3-3s-3,1.346-3,3v2.101c-.954,.193-1.832,.659-2.536,1.363-.944,.944-1.464,2.2-1.464,3.536v8.5c0,3.033,2.467,5.5,5.5,5.5,2.979,0,5.406-2.382,5.492-5.34,0-.014,.008-.026,.008-.04v-5.62c0-.551,.449-1,1-1s1,.449,1,1v5.62c0,.014,.008,.026,.008,.04,.086,2.958,2.513,5.34,5.492,5.34,3.033,0,5.5-2.467,5.5-5.5V10c0-1.335-.52-2.591-1.464-3.536Zm-6.536-3.464c0-.551,.449-1,1-1s1,.449,1,1v2h-2V3ZM7,2c.551,0,1,.449,1,1v2h-2V3c0-.551,.449-1,1-1Zm-1.5,20c-1.93,0-3.5-1.57-3.5-3.5s1.57-3.5,3.5-3.5,3.5,1.57,3.5,3.5-1.57,3.5-3.5,3.5Zm6.5-12c-1.654,0-3,1.346-3,3v1.261c-.952-.787-2.172-1.261-3.5-1.261s-2.548,.474-3.5,1.261v-4.261c0-.801,.312-1.555,.879-2.121,.566-.566,1.319-.878,2.121-.878h14.001c.801,0,1.554,.312,2.121,.878s.878,1.32,.878,2.121v4.261c-.952-.787-2.172-1.261-3.5-1.261s-2.548,.474-3.5,1.261v-1.261c0-1.654-1.346-3-3-3Zm6.5,12c-1.93,0-3.5-1.57-3.5-3.5s1.57-3.5,3.5-3.5,3.5,1.57,3.5,3.5-1.57,3.5-3.5,3.5Z"/></svg>
