<?xml version="1.0" encoding="UTF-8"?>
<svg xmlns="http://www.w3.org/2000/svg" id="Layer_1" data-name="Layer 1" viewBox="0 0 24 24" width="512" height="512"><path d="M8,4C8,1.79,6.21,0,4,0S0,1.79,0,4v3c0,2.21,1.79,4,4,4s4-1.79,4-4v-3Zm-2,3c0,1.1-.9,2-2,2s-2-.9-2-2v-3c0-1.1,.9-2,2-2s2,.9,2,2v3Zm6,7c0,.55-.45,1-1,1-1.1,0-2,.9-2,2v3c0,.57,.24,1.11,.67,1.49,.41,.37,.45,1,.08,1.41-.2,.22-.47,.33-.75,.33-.24,0-.48-.08-.67-.25-.85-.76-1.33-1.84-1.33-2.98v-3c0-2.21,1.79-4,4-4,.55,0,1,.45,1,1Zm-2.15-9.85c-.39-.39-.39-1.02,0-1.41L12.29,.29c.29-.29,.72-.37,1.09-.22,.37,.15,.62,.52,.62,.92V9c0,.55-.45,1-1,1s-1-.45-1-1V3.41l-.74,.74c-.39,.39-1.02,.39-1.41,0ZM5,14v9c0,.55-.45,1-1,1s-1-.45-1-1v-6.59l-.74,.74c-.39,.39-1.02,.39-1.41,0s-.39-1.02,0-1.41l2.44-2.44c.29-.29,.72-.37,1.09-.22,.37,.15,.62,.52,.62,.92Zm17,.56v-1.56c0-2.21-1.79-4-4-4s-4,1.79-4,4v1.56c-1.19,.69-2,1.97-2,3.44v2c0,2.21,1.79,4,4,4h4c2.21,0,4-1.79,4-4v-2c0-1.47-.81-2.75-2-3.44Zm-6-1.56c0-1.1,.9-2,2-2s2,.9,2,2v1h-4v-1Zm6,7c0,1.1-.9,2-2,2h-4c-1.1,0-2-.9-2-2v-2c0-1.1,.9-2,2-2h4c1.1,0,2,.9,2,2v2Zm-2.5-1c0,.83-.67,1.5-1.5,1.5s-1.5-.67-1.5-1.5,.67-1.5,1.5-1.5,1.5,.67,1.5,1.5Z"/></svg>
