<?xml version="1.0" encoding="UTF-8"?>
<svg xmlns="http://www.w3.org/2000/svg" id="Layer_1" data-name="Layer 1" viewBox="0 0 24 24" width="512" height="512"><path d="M19,2h-1V1c0-.552-.448-1-1-1s-1,.448-1,1v1H8V1c0-.552-.448-1-1-1s-1,.448-1,1v1h-1C2.243,2,0,4.243,0,7v12c0,2.757,2.243,5,5,5h4c.552,0,1-.448,1-1s-.448-1-1-1H5c-1.654,0-3-1.346-3-3V10H23c.552,0,1-.448,1-1v-2c0-2.757-2.243-5-5-5Zm3,6H2v-1c0-1.654,1.346-3,3-3h14c1.654,0,3,1.346,3,3v1Zm-3.121,4.879l-5.707,5.707c-.755,.755-1.172,1.76-1.172,2.829v1.586c0,.552,.448,1,1,1h1.586c1.069,0,2.073-.417,2.828-1.172l5.707-5.707c.567-.567,.879-1.32,.879-2.122s-.312-1.555-.878-2.121c-1.134-1.134-3.11-1.134-4.243,0Zm2.828,2.828l-5.708,5.707c-.377,.378-.879,.586-1.414,.586h-.586v-.586c0-.534,.208-1.036,.586-1.414l5.708-5.707c.377-.378,1.036-.378,1.414,0,.189,.188,.293,.439,.293,.707s-.104,.518-.293,.707Zm-16.707-1.707c0-.552,.448-1,1-1h7c.552,0,1,.448,1,1s-.448,1-1,1H6c-.552,0-1-.448-1-1Zm6,4c0,.552-.448,1-1,1H6c-.552,0-1-.448-1-1s.448-1,1-1h4c.552,0,1,.448,1,1Z"/></svg>
