<?xml version="1.0" encoding="UTF-8"?>
<svg xmlns="http://www.w3.org/2000/svg" id="Layer_1" data-name="Layer 1" viewBox="0 0 24 24" width="512" height="512"><path d="M17,0H7C4.243,0,2,2.243,2,5v15c0,2.206,1.794,4,4,4h11c2.757,0,5-2.243,5-5V5c0-2.757-2.243-5-5-5ZM7,2h10c1.654,0,3,1.346,3,3v11H6c-.728,0-1.411,.196-2,.537V5c0-1.654,1.346-3,3-3Zm10,20H6c-1.103,0-2-.897-2-2s.897-2,2-2h14v1c0,1.654-1.346,3-3,3Zm-2.392-8.666c.251-1.215,.351-2.473,.39-3.334h2.935c-.27,1.6-1.177,2.98-2.448,3.882-.41,.291-.978-.055-.877-.548Zm-1.608-5.334h-1.954c.107-2.564,.416-4.829,.977-4.829s.87,2.265,.977,4.829Zm1.608-3.334c-.102-.493,.466-.839,.877-.548,1.271,.901,2.178,2.282,2.448,3.882h-2.935c-.039-.861-.14-2.119-.39-3.334ZM6.113,10h2.935c.039,.861,.14,2.119,.39,3.334,.102,.493-.466,.839-.877,.548-1.271-.902-2.178-2.282-2.448-3.882Zm2.935-2h-2.935c.27-1.6,1.177-2.98,2.448-3.882,.41-.291,.978,.055,.877,.548-.251,1.215-.351,2.473-.39,3.334Zm1.998,2h1.954c-.107,2.564-.435,4.829-.977,4.829s-.87-2.265-.977-4.829Z"/></svg>
