<?xml version="1.0" encoding="UTF-8"?>
<svg xmlns="http://www.w3.org/2000/svg" id="Layer_1" data-name="Layer 1" viewBox="0 0 24 24" width="512" height="512"><path d="M19.095,9.547c-.521-.452-1.012-.878-1.388-1.254-.196-.196-.446-.311-.743-.292-.277,.01-.538,.135-.72,.345-1.081,1.248-1.477,2.914-1.795,4.253-.09,.378-.201,.849-.311,1.173-.074-.202-.136-.499-.139-.772,0-.407-.247-.774-.624-.927-.376-.152-.81-.062-1.094,.23-1.129,1.164-2.282,2.631-2.282,4.696,0,3.86,3.141,7,7,7s7-3.14,7-7c0-3.195-2.835-5.656-4.905-7.453Zm-3.155,12.049c-.283-.283-.439-.66-.439-1.06s.156-.777,.439-1.061l1.061-1.061,1.061,1.061c.283,.284,.439,.66,.439,1.061s-.156,.777-.439,1.061c-.195,.195-.407,.404-1.061,.404s-.866-.209-1.061-.404Zm4.56-1.029v-.032c0-.935-.364-1.814-1.025-2.475l-1.768-1.768c-.391-.391-1.023-.391-1.414,0l-1.768,1.768c-.661,.661-1.025,1.54-1.025,2.475v.032c-.925-.908-1.5-2.172-1.5-3.567,0-.71,.214-1.325,.582-1.915,.375,.546,.937,.915,1.7,.915,1.414,0,1.77-1.494,2.113-2.939,.198-.835,.415-1.75,.792-2.524,.192,.17,.393,.343,.597,.52,1.878,1.631,4.216,3.66,4.216,5.943,0,1.396-.575,2.659-1.5,3.567Zm3.5-15.567v4c0,.552-.447,1-1,1s-1-.448-1-1V5c0-1.654-1.346-3-3-3H5c-1.654,0-3,1.346-3,3v14c0,1.654,1.346,3,3,3h4c.553,0,1,.448,1,1s-.447,1-1,1H5c-2.757,0-5-2.243-5-5V5C0,2.243,2.243,0,5,0h14c2.757,0,5,2.243,5,5ZM5,4c.552,0,1,.448,1,1s-.448,1-1,1-1-.448-1-1,.448-1,1-1Zm5,1c0,.552-.448,1-1,1s-1-.448-1-1,.448-1,1-1,1,.448,1,1Z"/></svg>
