<?xml version="1.0" encoding="UTF-8"?>
<svg xmlns="http://www.w3.org/2000/svg" id="Layer_1" data-name="Layer 1" viewBox="0 0 24 24" width="512" height="512"><path d="M20,23h-3c-2.21,0-4-1.79-4-4v-2c0-.55-.45-1-1-1H6c-.88,0-1.71-.39-2.29-1.06-.57-.67-.82-1.56-.67-2.44,.23-1.43,1.55-2.5,3.07-2.5h3.39c.43,0,.82-.18,1.11-.49,.29-.32,.42-.73,.38-1.17-.08-.75-.79-1.34-1.63-1.34H3c-.88,0-1.71-.39-2.29-1.06C.14,5.27-.1,4.38,.04,3.5,.27,2.08,1.59,1,3.11,1H12.18c3.35,0,6.46,1.66,8.32,4.45l1.82,2.73c1.1,1.65,1.68,3.57,1.68,5.55v5.28c0,2.21-1.79,4-4,4ZM6.11,12c-.54,0-1.02,.36-1.09,.82-.05,.3,.03,.6,.22,.82,.19,.22,.47,.35,.76,.35h6c1.65,0,3,1.35,3,3v2c0,1.1,.9,2,2,2h3c1.1,0,2-.9,2-2v-5.28c0-1.59-.46-3.12-1.34-4.44l-1.82-2.73c-1.49-2.23-3.98-3.56-6.66-3.56H3.11c-.54,0-1.02,.36-1.09,.82-.05,.3,.03,.6,.22,.82,.19,.22,.47,.35,.76,.35h6.36c1.86,0,3.45,1.38,3.62,3.14,.1,.99-.22,1.97-.89,2.71-.66,.73-1.61,1.15-2.6,1.15h-3.39Z"/></svg>
