<?xml version="1.0" encoding="UTF-8"?>
<svg xmlns="http://www.w3.org/2000/svg" id="Layer_1" data-name="Layer 1" viewBox="0 0 24 24" width="512" height="512"><path d="M12.67,21.89c-.21,.08-.44,.11-.67,.11-1.1,0-2-.9-2-2h1c.55,0,1-.45,1-1s-.45-1-1-1H5c-.59,0-1.15-.26-1.53-.72-.38-.45-.54-1.05-.43-1.63l1.28-7.18c.26-1.43,1.5-2.47,2.95-2.47h9.47c1.46,0,2.7,1.04,2.95,2.47l.66,3.7c.1,.54,.62,.91,1.16,.81,.54-.1,.91-.62,.81-1.16l-.66-3.7c-.42-2.36-2.45-4.08-4.84-4.11,.11-.32,.19-.65,.19-1.01,0-1.65-1.35-3-3-3h-4c-1.65,0-3,1.35-3,3,0,.35,.07,.69,.19,1.01-2.39,.04-4.42,1.75-4.84,4.11l-1.28,7.18c-.21,1.17,.11,2.36,.87,3.27,.76,.91,1.88,1.43,3.07,1.43h3c0,2.21,1.79,4,4,4,.46,0,.9-.08,1.33-.23,.52-.18,.79-.76,.61-1.28-.18-.52-.75-.79-1.28-.61ZM10,2h4c.55,0,1,.45,1,1s-.45,1-1,1h-4c-.55,0-1-.45-1-1s.45-1,1-1Zm14,17c0,.55-.45,1-1,1h-3v3c0,.55-.45,1-1,1s-1-.45-1-1v-3h-3c-.55,0-1-.45-1-1s.45-1,1-1h3v-3c0-.55,.45-1,1-1s1,.45,1,1v3h3c.55,0,1,.45,1,1Z"/></svg>
