<?xml version="1.0" encoding="UTF-8"?>
<svg xmlns="http://www.w3.org/2000/svg" id="Layer_1" data-name="Layer 1" viewBox="0 0 24 24" width="512" height="512"><path d="M16.635,20.321c.375,.406,.35,1.038-.056,1.413l-.793,.733c-1.003,.981-2.355,1.533-3.787,1.533s-2.783-.551-3.807-1.552l-3.943-3.643C1.314,15.871,.273,11.626,1.504,7.701c.165-.527,.725-.821,1.253-.655,.527,.165,.82,.726,.655,1.253-1.007,3.212-.155,6.686,2.224,9.064l3.935,3.635c1.336,1.306,3.542,1.286,4.837,.02l.813-.752c.405-.375,1.037-.352,1.413,.056Zm7.072,3.386c-.195,.195-.451,.293-.707,.293s-.512-.098-.707-.293L.293,1.707C-.098,1.316-.098,.684,.293,.293S1.316-.098,1.707,.293l2.725,2.725C6.483,1.07,9.159,0,12,0c2.938,0,5.7,1.145,7.778,3.222,2.078,2.077,3.222,4.839,3.222,7.778,0,2.84-1.069,5.516-3.018,7.568l3.725,3.725c.391,.391,.391,1.023,0,1.414ZM5.847,4.433l12.722,12.722c1.561-1.653,2.431-3.837,2.431-6.154,0-2.404-.936-4.664-2.636-6.364s-3.96-2.636-6.364-2.636c-2.306,0-4.48,.862-6.153,2.433Z"/></svg>
