<?xml version="1.0" encoding="UTF-8"?>
<svg xmlns="http://www.w3.org/2000/svg" id="Layer_1" data-name="Layer 1" viewBox="0 0 24 24" width="512" height="512"><path d="M13,0h-2c-2.206,0-4,1.794-4,4V20c0,2.206,1.794,4,4,4h2c2.206,0,4-1.794,4-4V4c0-2.206-1.794-4-4-4Zm0,22h-2c-1.103,0-2-.897-2-2V4c0-1.103,.897-2,2-2h2c1.103,0,2,.897,2,2v1h-2c-.553,0-1,.447-1,1s.447,1,1,1h2v2h-2c-.553,0-1,.447-1,1s.447,1,1,1h2v2h-2c-.553,0-1,.447-1,1s.447,1,1,1h2v2h-2c-.553,0-1,.447-1,1s.447,1,1,1h2v1c0,1.103-.897,2-2,2Z"/></svg>
