<?xml version="1.0" encoding="UTF-8"?>
<svg xmlns="http://www.w3.org/2000/svg" id="Layer_1" data-name="Layer 1" viewBox="0 0 24 24" width="512" height="512"><path d="M12,24c-1.432,0-2.784-.551-3.807-1.552l-3.943-3.643c-2.106-2.105-3.25-4.867-3.25-7.805s1.144-5.701,3.222-7.778C6.3,1.145,9.062,0,12,0s5.7,1.144,7.778,3.222h0c2.078,2.077,3.222,4.839,3.222,7.778s-1.144,5.7-3.222,7.778l-3.992,3.689c-1.002,.981-2.354,1.533-3.786,1.533Zm0-22c-2.404,0-4.664,.936-6.364,2.636-1.7,1.7-2.636,3.959-2.636,6.364s.936,4.664,2.636,6.364l3.936,3.635c1.336,1.306,3.542,1.286,4.837,.02l3.984-3.682c1.672-1.673,2.607-3.933,2.607-6.336s-.937-4.664-2.636-6.364c-1.7-1.7-3.961-2.636-6.364-2.636Zm-.094,12.419l5.793-5.707c.394-.388,.397-1.021,.01-1.414-.387-.393-1.02-.398-1.414-.011l-5.809,5.701-2.793-2.707c-.396-.383-1.029-.375-1.414,.022-.385,.396-.375,1.029,.021,1.414l2.782,2.696c.391,.391,.903,.585,1.416,.585s1.021-.193,1.407-.58Z"/></svg>
