<?xml version="1.0" encoding="UTF-8"?>
<svg xmlns="http://www.w3.org/2000/svg" id="Layer_1" data-name="Layer 1" viewBox="0 0 24 24" width="512" height="512"><path d="M20,10h-1v-2c0-2.206-1.794-4-4-4h-1.028c-.25-2.247-2.16-4-4.472-4S5.277,1.753,5.028,4h-1.028C1.794,4,0,5.794,0,8v6c0,2.757,2.243,5,5,5h1c0,2.757,2.243,5,5,5h8c2.757,0,5-2.243,5-5v-5c0-2.206-1.794-4-4-4ZM9.5,2c1.207,0,2.217,.86,2.45,2H7.05c.232-1.14,1.242-2,2.45-2Zm-4.5,15c-1.654,0-3-1.346-3-3v-6c0-1.103,.897-2,2-2h1v2c0,.553,.448,1,1,1s1-.447,1-1v-2h5v2c0,.553,.448,1,1,1s1-.447,1-1v-2h1c1.103,0,2,.897,2,2v2h-7c-2.206,0-4,1.794-4,4v3h-1Zm17,2c0,1.654-1.346,3-3,3H11c-1.654,0-3-1.346-3-3v-5c0-1.103,.897-2,2-2h10c1.103,0,2,.897,2,2v5Zm-3-4v1c0,2.206-1.794,4-4,4s-4-1.794-4-4v-1c0-.553,.448-1,1-1s1,.447,1,1v1c0,1.103,.897,2,2,2s2-.897,2-2v-1c0-.553,.448-1,1-1s1,.447,1,1Z"/></svg>
