<?xml version="1.0" encoding="UTF-8"?>
<svg xmlns="http://www.w3.org/2000/svg" id="Layer_1" data-name="Layer 1" viewBox="0 0 24 24" width="512" height="512"><path d="M24,15.5v.5c0,.55-.45,1-1,1s-1-.45-1-1v-.5c0-.83-.67-1.5-1.5-1.5h-1.5v8c0,.55-.45,1-1,1s-1-.45-1-1V14h-1.5c-.83,0-1.5,.67-1.5,1.5v.5c0,.55-.45,1-1,1s-1-.45-1-1v-.5c0-1.93,1.57-3.5,3.5-3.5h5c1.93,0,3.5,1.57,3.5,3.5ZM13,3c1.65,0,3,1.35,3,3v1c0,.55,.45,1,1,1s1-.45,1-1v-1c0-2.76-2.24-5-5-5H5C2.24,1,0,3.24,0,6v1c0,.55,.45,1,1,1s1-.45,1-1v-1c0-1.65,1.35-3,3-3h3V22c0,.55,.45,1,1,1s1-.45,1-1V3h3Z"/></svg>
