<?xml version="1.0" encoding="UTF-8"?>
<svg xmlns="http://www.w3.org/2000/svg" id="Layer_1" data-name="Layer 1" viewBox="0 0 24 24" width="512" height="512"><path d="M7,9c-2.21,0-4,1.79-4,4s1.79,4,4,4,4-1.79,4-4-1.79-4-4-4Zm0,6c-1.1,0-2-.9-2-2s.9-2,2-2,2,.9,2,2-.9,2-2,2Zm12-6h-4c-1.1,0-2,.9-2,2v4c0,1.1,.9,2,2,2h4c1.1,0,2-.9,2-2v-4c0-1.1-.9-2-2-2Zm0,6h-4v-4h4v4Zm0-12H5C2.24,3,0,5.24,0,8v8c0,2.76,2.24,5,5,5h14c2.76,0,5-2.24,5-5V8c0-2.76-2.24-5-5-5Zm3,13c0,1.65-1.35,3-3,3H5c-1.65,0-3-1.35-3-3V8c0-.35,.07-.69,.18-1H21.82c.11,.31,.18,.65,.18,1v8Z"/></svg>
