<?xml version="1.0" encoding="UTF-8"?>
<svg xmlns="http://www.w3.org/2000/svg" id="Layer_1" data-name="Layer 1" viewBox="0 0 24 24" width="512" height="512"><path d="M18.987,1.975h-6.528c-.154,0-.31-.037-.447-.105L8.856,.291c-.414-.207-.878-.316-1.342-.316h-2.527C2.23-.025-.013,2.218-.013,4.975v12c0,1.779,.958,3.438,2.499,4.33,.479,.278,1.09,.113,1.366-.364,.277-.479,.113-1.09-.364-1.366-.926-.536-1.501-1.532-1.501-2.6V7.975H21.987v9c0,1.067-.575,2.063-1.501,2.6-.478,.276-.642,.888-.364,1.366,.185,.32,.521,.499,.866,.499,.17,0,.342-.043,.5-.135,1.541-.892,2.499-2.551,2.499-4.33V6.975c0-2.757-2.243-5-5-5ZM1.987,4.975c0-1.654,1.346-3,3-3h2.527c.154,0,.31,.036,.447,.105l3.156,1.579c.415,.206,.879,.315,1.341,.315h6.528c1.302,0,2.402,.839,2.816,2H1.987v-1Zm9.991,5c-3.859,0-7,3.141-7,7s3.141,7,7,7,7-3.141,7-7-3.141-7-7-7Zm0,12c-2.757,0-5-2.243-5-5s2.243-5,5-5,5,2.243,5,5-2.243,5-5,5Zm1.707-4.707c.391,.391,.391,1.023,0,1.414-.195,.195-.451,.293-.707,.293s-.512-.098-.707-.293l-1-1c-.188-.188-.293-.441-.293-.707v-2c0-.553,.447-1,1-1s1,.447,1,1v1.586l.707,.707Z"/></svg>
