<?xml version="1.0" encoding="UTF-8"?>
<svg xmlns="http://www.w3.org/2000/svg" id="Layer_1" data-name="Layer 1" viewBox="0 0 24 24" width="512" height="512"><path d="M22.373,2.324A4.336,4.336,0,0,0,15.5,1.273L1.273,15.5A4.347,4.347,0,0,0,.059,19.242c.718,3.917,5.816,4.606,9.038,4.765C19.975,24.163,27.521,12.05,22.373,2.324ZM18.216,18.216A12.874,12.874,0,0,1,3.232,20.593a2.322,2.322,0,0,1-.545-3.682L16.911,2.686a2.321,2.321,0,0,1,3.682.546A12.871,12.871,0,0,1,18.216,18.216Zm.4-10.448a1.308,1.308,0,0,1-1.85,1.85,5.412,5.412,0,0,1-.751-1.966.526.526,0,0,1,.635-.635A5.412,5.412,0,0,1,18.614,7.768Zm-5,8a1.308,1.308,0,0,1-1.849,1.849,5.378,5.378,0,0,1-.752-1.966.526.526,0,0,1,.635-.634A5.394,5.394,0,0,1,13.616,15.765Zm3-3a1.308,1.308,0,0,1-1.85,1.85,5.412,5.412,0,0,1-.751-1.966.526.526,0,0,1,.635-.635A5.412,5.412,0,0,1,16.615,12.766Zm-8,4a1.308,1.308,0,0,1-1.849,1.849,5.369,5.369,0,0,1-.751-1.966.526.526,0,0,1,.634-.635A5.386,5.386,0,0,1,8.618,16.765Z"/></svg>
