<?xml version="1.0" encoding="UTF-8"?>
<svg xmlns="http://www.w3.org/2000/svg" id="Layer_1" data-name="Layer 1" viewBox="0 0 24 24" width="512" height="512"><path d="M23.28,8.46c.43-.12,.72-.52,.72-.96v-1.5c0-2.21-1.79-4-4-4H4C1.79,2,0,3.79,0,6v1.5c0,.44,.29,.83,.71,.96,.13,.04,1.29,.43,1.29,1.54s-1.15,1.5-1.28,1.54c-.43,.12-.72,.52-.72,.96v6.5c0,1.65,1.35,3,3,3H21c1.65,0,3-1.35,3-3v-6.5c0-.44-.29-.83-.71-.96-.13-.04-1.29-.43-1.29-1.54s1.15-1.5,1.28-1.54ZM2,19v-1h3v2H3c-.55,0-1-.45-1-1Zm15,1h-2v-2h2v2Zm-4,0h-2v-2h2v2Zm-4,0h-2v-2h2v2Zm12,0h-2v-2h3v1c0,.55-.45,1-1,1Zm1-13.16c-.92,.5-2,1.51-2,3.16s1.08,2.66,2,3.16v2.84H2v-2.84c.92-.5,2-1.51,2-3.16s-1.08-2.66-2-3.16v-.84c0-1.1,.9-2,2-2H20c1.1,0,2,.9,2,2v.84Zm-9,.16v6c0,.55-.45,1-1,1s-1-.45-1-1V7c0-.55,.45-1,1-1s1,.45,1,1Zm-5,0v6c0,.55-.45,1-1,1s-1-.45-1-1V7c0-.55,.45-1,1-1s1,.45,1,1Zm10,0v6c0,.55-.45,1-1,1s-1-.45-1-1V7c0-.55,.45-1,1-1s1,.45,1,1Z"/></svg>
