<?xml version="1.0" encoding="UTF-8"?>
<svg xmlns="http://www.w3.org/2000/svg" id="Layer_1" data-name="Layer 1" viewBox="0 0 24 24" width="512" height="512"><path d="M23.598,11.718l-2.701-7.427c-.716-1.968-2.604-3.291-4.699-3.291H7.802c-2.095,0-3.983,1.323-4.699,3.291L.402,11.718c-.267,.734-.402,1.502-.402,2.282v1c0,1.632,.786,3.084,2,3.997v2.003c0,1.654,1.346,3,3,3s3-1.346,3-3v-1h8v1c0,1.654,1.346,3,3,3s3-1.346,3-3v-2.003c1.214-.913,2-2.365,2-3.997v-1c0-.78-.135-1.548-.402-2.282ZM6,21c0,.551-.449,1-1,1s-1-.449-1-1v-1.101c.323,.066,.658,.101,1,.101h1v1Zm14,0c0,.551-.449,1-1,1s-1-.449-1-1v-1h1c.342,0,.677-.035,1-.101v1.101Zm2-6c0,1.654-1.346,3-3,3H5c-1.654,0-3-1.346-3-3v-1c0-.338,.036-.672,.108-1h1.892v1c0,.552,.448,1,1,1s1-.448,1-1v-1h1c.552,0,1-.448,1-1s-.448-1-1-1H2.792l2.191-6.025c.429-1.181,1.562-1.975,2.819-1.975h8.396c1.257,0,2.39,.793,2.819,1.975l2.191,6.025h-4.208c-.552,0-1,.448-1,1s.448,1,1,1h1v1c0,.552,.448,1,1,1s1-.448,1-1v-1h1.892c.072,.328,.108,.662,.108,1v1Zm-7.191-5.154c.28,.521,.25,1.151-.077,1.645l-1.881,3.037c-.189,.305-.517,.473-.851,.473-.18,0-.362-.048-.526-.15-.469-.291-.614-.908-.323-1.377l1.533-2.473h-2.068c-.509,0-.994-.244-1.297-.653s-.396-.943-.249-1.43c.025-.082,2.079-3.441,2.079-3.441,.289-.471,.905-.618,1.375-.328,.471,.289,.617,.905,.328,1.375l-1.523,2.476h2.067c.592,0,1.133,.324,1.413,.846Z"/></svg>
