<?xml version="1.0" encoding="UTF-8"?>
<svg xmlns="http://www.w3.org/2000/svg" id="Layer_1" data-name="Layer 1" viewBox="0 0 24 24" width="512" height="512"><path d="M6.885,15h14.115c.553,0,1-.447,1-1s-.447-1-1-1H12.181l5.333-2h3.486c.553,0,1-.447,1-1s-.447-1-1-1h-.885c.563-.834,.885-1.832,.885-2.877,0-1.878-.998-3.594-2.605-4.479-1.364-.75-3.581-1.645-6.395-1.645C6.647,0,3.428,3.158,3.293,3.293c-.39,.39-.39,1.02,0,1.41,.387,.391,1.021,.395,1.413,.007,.027-.027,2.8-2.71,7.295-2.71,2.389,0,4.272,.76,5.431,1.396,.968,.533,1.569,1.578,1.569,2.727,0,1.242-.743,2.375-1.868,2.877H3c-.553,0-1,.447-1,1s.447,1,1,1H11.817l-5.333,2H3c-.553,0-1,.447-1,1s.447,1,1,1h.927c-.589,.864-.927,1.901-.927,2.986,0,2.012,1.159,3.88,2.952,4.76,1.695,.832,3.73,1.254,6.048,1.254,5.272,0,9.426-3.069,9.6-3.2,.441-.331,.531-.956,.201-1.398s-.957-.532-1.399-.202c-.038,.028-3.812,2.801-8.401,2.801-2.01,0-3.748-.353-5.167-1.049-1.113-.547-1.833-1.71-1.833-2.965,0-1.276,.747-2.442,1.885-2.986Z"/></svg>
