<?xml version="1.0" encoding="UTF-8"?>
<svg xmlns="http://www.w3.org/2000/svg" id="Layer_1" data-name="Layer 1" viewBox="0 0 24 24" width="512" height="512"><path d="M22.827,1.62c-.738-.568-1.676-.758-2.575-.521-.356,.095-.736,.23-1.131,.374-.715,.259-1.454,.526-2.121,.526-1.36,0-3.071-.489-4.725-.962-1.787-.51-3.635-1.038-5.275-1.038C4.945,0,2.937,.813,1.614,1.496,.617,2.01-.002,3.029-.002,4.158V23c0,.553,.448,1,1,1s1-.447,1-1v-7.437c.892-.51,2.981-1.563,5.002-1.563,1.36,0,3.071,.489,4.725,.962,1.787,.51,3.635,1.038,5.275,1.038,1.803,0,3.712-.437,5.108-1.167,1.203-.63,1.892-1.644,1.892-2.78V4.004c0-.941-.428-1.811-1.173-2.384ZM11,6.756c.242,.068,.484,.137,.726,.206,1.787,.511,3.634,1.038,5.274,1.038,1.894,0,3.755-.633,5-1.174v1.79c-.918,.465-2.988,1.385-5,1.385-1.36,0-3.071-.489-4.725-.962-.423-.121-.849-.242-1.275-.358v-1.925Zm6-2.756c1.018,0,1.966-.343,2.802-.646,.336-.122,.659-.24,.962-.32,.293-.076,.6-.016,.843,.172,.25,.191,.393,.483,.393,.799v.611c-.918,.465-2.988,1.385-5,1.385-1.36,0-3.07-.488-4.725-.961-.426-.122-.852-.244-1.275-.358v-1.925c.242,.068,.484,.137,.725,.206,1.787,.51,3.635,1.038,5.275,1.038ZM2.531,3.273c.922-.476,2.729-1.273,4.469-1.273,.609,0,1.287,.098,2,.249v3.203c0,.005,0,.01,0,.015v2.742c-.688-.128-1.36-.209-2-.209-1.893,0-3.75,.699-5.002,1.303V4.158c0-.376,.204-.715,.533-.885ZM21.18,13.062c-1.122,.588-2.685,.938-4.18,.938-1.36,0-3.071-.489-4.725-.962-1.787-.51-3.635-1.038-5.275-1.038-1.893,0-3.75,.699-5.002,1.304v-1.74c.892-.51,2.981-1.564,5.002-1.564,1.36,0,3.071,.489,4.725,.962,1.787,.51,3.635,1.038,5.275,1.038,1.894,0,3.755-.633,5-1.174v1.227c0,.479-.446,.812-.82,1.009Z"/></svg>
