<?xml version="1.0" encoding="UTF-8"?>
<svg xmlns="http://www.w3.org/2000/svg" id="Layer_1" data-name="Layer 1" viewBox="0 0 24 24" width="512" height="512"><path d="M23,16v-7c.552,0,1-.447,1-1s-.448-1-1-1V2.996c0-.526-.213-1.042-.586-1.414l-1-1c-.779-.779-2.049-.779-2.828,0l-1,1c-.373,.372-.586,.888-.586,1.414V7h-2V2.996c0-.526-.213-1.042-.586-1.414l-1-1c-.779-.779-2.049-.779-2.828,0l-1,1c-.373,.372-.586,.888-.586,1.414V7h-2V2.996c0-.526-.213-1.042-.586-1.414l-1-1C4.635-.197,3.365-.197,2.586,.582L1.586,1.582c-.373,.372-.586,.888-.586,1.414V7c-.552,0-1,.447-1,1s.448,1,1,1v7c-.552,0-1,.447-1,1s.448,1,1,1v3.5c0,1.379,1.122,2.5,2.5,2.5h1c1.378,0,2.5-1.121,2.5-2.5v-3.5h2v3.5c0,1.379,1.122,2.5,2.5,2.5h1c1.378,0,2.5-1.121,2.5-2.5v-3.5h2v3.5c0,1.379,1.122,2.5,2.5,2.5h1c1.378,0,2.5-1.121,2.5-2.5v-3.5c.552,0,1-.447,1-1s-.448-1-1-1Zm-2,0h-2v-7h2v7Zm-2-13.004l1-1,1,1V7h-2V2.996Zm-8,0l1-1,1,1V7h-2V2.996Zm2,6.004v7h-2v-7h2ZM3,2.996l1-1,1,1V7H3V2.996Zm0,6.004h2v7H3v-7Zm2,12.5c0,.275-.224,.5-.5,.5h-1c-.276,0-.5-.225-.5-.5v-3.5h2v3.5Zm2-5.5v-7h2v7h-2Zm6,5.5c0,.275-.224,.5-.5,.5h-1c-.276,0-.5-.225-.5-.5v-3.5h2v3.5Zm2-5.5v-7h2v7h-2Zm6,5.5c0,.275-.224,.5-.5,.5h-1c-.276,0-.5-.225-.5-.5v-3.5h2v3.5Z"/></svg>
