<?xml version="1.0" encoding="UTF-8"?>
<svg xmlns="http://www.w3.org/2000/svg" id="Layer_1" data-name="Layer 1" viewBox="0 0 24 24" width="512" height="512"><path d="M12,24C5.383,24,0,18.617,0,12S5.383,0,12,0s12,5.383,12,12-5.383,12-12,12Zm0-22C6.486,2,2,6.486,2,12s4.486,10,10,10,10-4.486,10-10S17.514,2,12,2Zm4,15c0-.553-.448-1-1-1h-4.781c.426-.37,1.069-.72,1.742-1.086,1.754-.956,4.156-2.265,4.035-5.131-.089-2.121-1.844-3.783-3.995-3.783-2.206,0-4,1.794-4,4,0,.553,.448,1,1,1s1-.447,1-1c0-1.103,.897-2,2-2,1.058,0,1.954,.838,1.997,1.867,.064,1.513-1.088,2.253-2.994,3.29-.99,.54-1.925,1.049-2.559,1.797-.475,.56-.58,1.319-.272,1.983,.304,.655,.942,1.062,1.666,1.062h5.162c.552,0,1-.447,1-1Z"/></svg>
