<?xml version="1.0" encoding="UTF-8"?>
<svg xmlns="http://www.w3.org/2000/svg" id="Layer_1" data-name="Layer 1" viewBox="0 0 24 24" width="512" height="512"><path d="M23.94,14.658l-3.005-8.265c-.461-1.267-1.519-2.21-2.829-2.523l-5.105-1.221V1c0-.552-.448-1-1-1s-1,.448-1,1v1.17L6.531,1.102c-1.514-.404-3.061,.404-3.59,1.869L.063,10.649c-.042,.112-.063,.653-.063,.653,0,2.506,1.871,4.567,4.26,4.692,1.251,.063,2.434-.372,3.338-1.229,.891-.846,1.402-2.036,1.402-3.264,0,0-.022-.745-.067-.859L6.006,3.032c.012,.002,4.994,1.194,4.994,1.194V22H5c-.552,0-1,.448-1,1s.448,1,1,1h14c.552,0,1-.448,1-1s-.448-1-1-1h-6V4.705l4.641,1.11c.198,.047,.384,.124,.554,.224l-3.135,8.619c-.04,.109-.06,.644-.06,.644,0,2.506,2,4.698,4.503,4.698,1.158,0,2.249-.434,3.094-1.236,.892-.846,1.403-2.036,1.403-3.264,0,0,0-.538-.06-.842Zm-19.576-.662c-1.081-.057-1.986-.902-2.266-1.997H6.95c-.1,.499-.35,.954-.729,1.313-.502,.478-1.165,.719-1.856,.683Zm2.18-3.997H2.443l2.024-5.401,2.078,5.401Zm12.956-1.699l2.072,5.699h-4.145l2.072-5.699Zm-.136,9.695c-1.081-.057-1.986-.902-2.266-1.997h4.851c-.1,.499-.35,.954-.729,1.313-.503,.478-1.168,.717-1.856,.683Z"/></svg>
