<?xml version="1.0" encoding="UTF-8"?>
<svg xmlns="http://www.w3.org/2000/svg" id="Layer_1" data-name="Layer 1" viewBox="0 0 24 24" width="512" height="512"><path d="M14.84,15.85c-1.9,.31-3.97,.11-5.74-.55-.35-.79-1.24-2.67-1.99-3.42-.71-.71-1.74-.97-2.69-.8-.27-.67-.41-1.37-.41-2.08,0-3.86,4.04-7,9-7s9,3.14,9,7c0,1.2-.4,2.38-1.15,3.41-.32,.45-.22,1.07,.22,1.4,.18,.13,.38,.19,.58,.19,.31,0,.62-.14,.81-.41,1-1.38,1.53-2.97,1.53-4.59C24,4.04,19.07,0,13,0S2,4.04,2,9c0,1.07,.24,2.11,.69,3.11-.44,.53-.69,1.18-.69,1.88,0,.42,.09,.82,.25,1.19-1,.99-2.25,2.67-2.25,4.82,0,2.93,2.39,4,4,4,.55,0,.99-.44,1-.99,0-.55-.44-1-.99-1.01-.47,0-2.01-.17-2.01-2,0-1.47,.94-2.69,1.68-3.43,.92,.34,2.26,.44,3.43,.44,.3,0,.58,0,.84-.02,1.55,.65,3.29,1.01,5.04,1.01,.73,0,1.46-.06,2.16-.17,.54-.09,.91-.6,.83-1.15s-.6-.92-1.15-.83Zm-10.55-1.16c-.19-.19-.29-.44-.29-.7s.1-.51,.29-.7h0c.19-.19,.44-.29,.7-.29s.51,.1,.7,.29c.27,.27,.67,.97,1.05,1.71-1.19-.03-2.2-.15-2.45-.31Zm18.85,6.46l-1.55,.44-.44,1.55c-.33,1.15-1.96,1.15-2.29,0l-.44-1.55-1.55-.44c-1.15-.33-1.15-1.96,0-2.29l1.55-.44,.44-1.55c.33-1.15,1.96-1.15,2.29,0l.44,1.55,1.55,.44c1.15,.33,1.15,1.96,0,2.29Zm-5.89-12.65c1.01,.29,1.01,1.72,0,2l-1.36,.39-.39,1.36c-.29,1.01-1.72,1.01-2,0l-.39-1.36-1.36-.39c-1.01-.29-1.01-1.72,0-2l1.36-.39,.39-1.36c.29-1.01,1.72-1.01,2,0l.39,1.36,1.36,.39Z"/></svg>
