<?xml version="1.0" encoding="UTF-8"?>
<svg xmlns="http://www.w3.org/2000/svg" id="Layer_1" data-name="Layer 1" viewBox="0 0 24 24" width="512" height="512"><path d="M15,7.5C15,3.364,11.636,0,7.5,0h-2.5C2.243,0,0,2.243,0,5V23c0,.553,.448,1,1,1s1-.447,1-1V15H7.412l4.714,8.485c.183,.329,.523,.515,.875,.515,.164,0,.331-.04,.484-.126,.483-.269,.657-.877,.389-1.359l-4.332-7.797c3.146-.891,5.458-3.789,5.458-7.217Zm-7.5,5.5H2V5c0-1.654,1.346-3,3-3h2.5c3.033,0,5.5,2.468,5.5,5.5s-2.467,5.5-5.5,5.5Zm16.5,8c0,1.654-1.346,3-3,3h-2.268c-1.067,0-2.063-.574-2.598-1.499-.277-.479-.113-1.09,.364-1.366,.48-.279,1.091-.113,1.366,.364,.179,.31,.511,.501,.867,.501h2.268c.552,0,1-.448,1-1,0-.378-.271-.697-.644-.76l-3.041-.507c-1.342-.224-2.315-1.374-2.315-2.733,0-1.654,1.346-3,3-3h2.268c1.067,0,2.063,.574,2.598,1.499,.277,.479,.113,1.09-.364,1.366-.481,.277-1.091,.113-1.366-.364-.179-.31-.511-.501-.867-.501h-2.268c-.552,0-1,.448-1,1,0,.379,.271,.698,.645,.761l3.04,.507c1.342,.223,2.315,1.372,2.315,2.732Z"/></svg>
