<?xml version="1.0" encoding="UTF-8"?>
<svg xmlns="http://www.w3.org/2000/svg" id="Layer_1" data-name="Layer 1" viewBox="0 0 24 24" width="512" height="512"><path d="M23.68,16.73l-2.59,2.41c-.54,.54-1.3,.85-2.1,.85s-1.55-.31-2.12-.88l-2.56-2.39c-.4-.38-.43-1.01-.05-1.41,.38-.4,1.01-.42,1.41-.05l2.32,2.16V9c0-1.65-1.35-3-3-3h-4c-.55,0-1-.45-1-1s.45-1,1-1h4c2.76,0,5,2.24,5,5v8.43l2.32-2.16c.4-.38,1.04-.35,1.41,.05,.38,.4,.35,1.04-.05,1.41Zm-10.68,1.27h-4c-1.65,0-3-1.35-3-3V6.57l2.32,2.16c.19,.18,.44,.27,.68,.27,.27,0,.53-.11,.73-.32,.38-.4,.35-1.04-.05-1.41l-2.56-2.39c-1.13-1.13-3.13-1.11-4.22-.02L.32,7.27c-.4,.38-.43,1.01-.05,1.41,.38,.41,1.01,.43,1.41,.05l2.32-2.16V15c0,2.76,2.24,5,5,5h4c.55,0,1-.45,1-1s-.45-1-1-1Z"/></svg>
