<?xml version="1.0" encoding="UTF-8"?>
<svg xmlns="http://www.w3.org/2000/svg" id="Layer_1" data-name="Layer 1" viewBox="0 0 24 24" width="512" height="512"><path d="M2.5,2.5C2.5,1.12,3.62,0,5,0s2.5,1.12,2.5,2.5-1.12,2.5-2.5,2.5-2.5-1.12-2.5-2.5ZM7,15h-3c-1.1,0-2-.9-2-2v-3c0-1.1,.9-2,2-2,.55,0,1-.45,1-1s-.45-1-1-1C1.79,6,0,7.79,0,10v3c0,1.48,.81,2.77,2,3.46v6.54c0,.55,.45,1,1,1s1-.45,1-1v-6h2v6c0,.55,.45,1,1,1s1-.45,1-1v-7c0-.55-.45-1-1-1ZM19,5c1.38,0,2.5-1.12,2.5-2.5s-1.12-2.5-2.5-2.5-2.5,1.12-2.5,2.5,1.12,2.5,2.5,2.5Zm1,1c-.55,0-1,.45-1,1s.45,1,1,1c1.1,0,2,.9,2,2v3c0,1.1-.9,2-2,2h-3c-.55,0-1,.45-1,1v7c0,.55,.45,1,1,1s1-.45,1-1v-6h2v6c0,.55,.45,1,1,1s1-.45,1-1v-6.54c1.19-.69,2-1.99,2-3.46v-3c0-2.21-1.79-4-4-4Zm-2.87,1.91l-1.61-1.61c-.39-.39-1.02-.39-1.41,0-.39,.39-.39,1.02,0,1.41l1.29,1.29h-6.8l1.29-1.29c.39-.39,.39-1.02,0-1.41-.39-.39-1.02-.39-1.41,0l-1.61,1.61c-1.15,1.15-1.15,3.03,0,4.19l1.61,1.61c.2,.2,.45,.29,.71,.29s.51-.1,.71-.29c.39-.39,.39-1.02,0-1.41l-1.29-1.29h6.8l-1.29,1.29c-.39,.39-.39,1.02,0,1.41,.2,.2,.45,.29,.71,.29s.51-.1,.71-.29l1.61-1.61c1.15-1.15,1.15-3.03,0-4.19Z"/></svg>
