<?xml version="1.0" encoding="UTF-8"?>
<svg xmlns="http://www.w3.org/2000/svg" id="Layer_1" data-name="Layer 1" viewBox="0 0 24 24" width="512" height="512"><path d="M15.5,10h-.5v-.5c0-1.379-1.121-2.5-2.5-2.5h-1c-1.379,0-2.5,1.121-2.5,2.5v.5h-.5c-1.379,0-2.5,1.121-2.5,2.5v1c0,1.379,1.121,2.5,2.5,2.5h.5v.5c0,1.379,1.121,2.5,2.5,2.5h1c1.379,0,2.5-1.121,2.5-2.5v-.5h.5c1.379,0,2.5-1.121,2.5-2.5v-1c0-1.379-1.121-2.5-2.5-2.5Zm.5,3.5c0,.275-.225,.5-.5,.5h-1.5c-.553,0-1,.447-1,1v1.5c0,.275-.225,.5-.5,.5h-1c-.275,0-.5-.225-.5-.5v-1.5c0-.553-.447-1-1-1h-1.5c-.275,0-.5-.225-.5-.5v-1c0-.275,.225-.5,.5-.5h1.5c.553,0,1-.447,1-1v-1.5c0-.275,.225-.5,.5-.5h1c.275,0,.5,.225,.5,.5v1.5c0,.553,.447,1,1,1h1.5c.275,0,.5,.225,.5,.5v1Zm6-7.776V2c0-.553-.447-1-1-1s-1,.447-1,1v2.367L14.797,.855c-1.699-1.146-3.895-1.146-5.594,0L2.204,5.579c-1.38,.93-2.204,2.479-2.204,4.145v9.276c0,2.757,2.243,5,5,5h14c2.757,0,5-2.243,5-5V9.724c0-1.581-.744-3.058-2-3.999Zm0,13.276c0,1.654-1.346,3-3,3H5c-1.654,0-3-1.346-3-3V9.724c0-.999,.494-1.929,1.322-2.486L10.322,2.514c.51-.345,1.094-.517,1.678-.517s1.168,.172,1.678,.517l7.001,4.724c.827,.558,1.321,1.487,1.321,2.486v9.276Z"/></svg>
