<?xml version="1.0" encoding="UTF-8"?>
<svg xmlns="http://www.w3.org/2000/svg" id="Layer_1" data-name="Layer 1" viewBox="0 0 24 24" width="512" height="512"><path d="M11,24H5c-2.76,0-5-2.24-5-5V5C0,2.24,2.24,0,5,0h14c2.76,0,5,2.24,5,5v5c0,.55-.45,1-1,1s-1-.45-1-1V5c0-1.65-1.35-3-3-3H5c-1.65,0-3,1.35-3,3v14c0,1.65,1.35,3,3,3h6c.55,0,1,.45,1,1s-.45,1-1,1Zm1-10.5c.83,0,1.5-.67,1.5-1.5s-.67-1.5-1.5-1.5-1.5,.67-1.5,1.5,.67,1.5,1.5,1.5Zm10,1.5c0-1.65-1.35-3-3-3s-3,1.35-3,3,1.35,3,3,3,3-1.35,3-3Zm1.25,8.97c.54-.14,.86-.68,.72-1.22-.56-2.17-2.65-3.75-4.97-3.75s-4.41,1.58-4.97,3.75c-.14,.53,.18,1.08,.72,1.22,.53,.14,1.08-.18,1.22-.72,.33-1.28,1.63-2.25,3.03-2.25s2.7,.97,3.03,2.25c.12,.45,.52,.75,.97,.75,.08,0,.17-.01,.25-.03Zm-8.96-4.3c.53-.16,.83-.71,.67-1.24-.16-.53-.71-.83-1.24-.67-.55,.17-1.13,.25-1.71,.25-3.31,0-6-2.69-6-6s2.69-6,6-6c2.31,0,4.43,1.35,5.42,3.43,.24,.5,.83,.71,1.33,.47,.5-.24,.71-.83,.47-1.33-1.32-2.78-4.16-4.57-7.23-4.57-4.41,0-8,3.59-8,8s3.59,8,8,8c.78,0,1.55-.11,2.29-.33Z"/></svg>
