<?xml version="1.0" encoding="UTF-8"?>
<svg xmlns="http://www.w3.org/2000/svg" id="Layer_1" data-name="Layer 1" viewBox="0 0 24 24" width="512" height="512"><path d="M19,24H5c-2.757,0-5-2.243-5-5V5C0,2.243,2.243,0,5,0h14c2.757,0,5,2.243,5,5v14c0,2.757-2.243,5-5,5ZM5,2c-1.654,0-3,1.346-3,3v14c0,1.654,1.346,3,3,3h14c1.654,0,3-1.346,3-3V5c0-1.654-1.346-3-3-3H5Zm11,15c0-.552-.447-1-1-1h-4.781c.426-.37,1.069-.72,1.742-1.086,1.753-.956,4.156-2.264,4.035-5.131-.09-2.121-1.845-3.783-3.995-3.783-2.206,0-4,1.794-4,4,0,.552,.448,1,1,1s1-.448,1-1c0-1.103,.897-2,2-2,1.058,0,1.953,.838,1.997,1.868,.063,1.512-1.088,2.252-2.994,3.29-.99,.539-1.925,1.048-2.559,1.797-.475,.56-.579,1.32-.272,1.983,.304,.655,.942,1.062,1.666,1.062h5.162c.553,0,1-.448,1-1Z"/></svg>
