<?xml version="1.0" encoding="UTF-8"?>
<svg xmlns="http://www.w3.org/2000/svg" id="Layer_1" data-name="Layer 1" viewBox="0 0 24 24" width="512" height="512"><path d="M17.769,10.514c-1.507-1.586-3.51-2.479-5.638-2.513-2.152-.013-4.202,.781-5.742,2.296-.135,.133-.265,.27-.389,.41v-.708c0-4.411,3.589-8,8-8h3c.552,0,1-.448,1-1s-.448-1-1-1h-3C8.486,0,4,4.486,4,10c0,0-.005,6.087,0,6.129,.185,4.245,3.467,7.666,7.612,7.862,.131,.006,.261,.009,.391,.009,2.017,0,3.927-.743,5.416-2.115,1.586-1.461,2.501-3.451,2.576-5.602,.073-2.101-.738-4.203-2.226-5.769Zm-5.769,11.486c-3.314,0-6-2.686-6-6s2.686-6,6-6,6,2.686,6,6-2.686,6-6,6Z"/></svg>
