<?xml version="1.0" encoding="UTF-8"?>
<svg xmlns="http://www.w3.org/2000/svg" id="Layer_1" data-name="Layer 1" viewBox="0 0 24 24" width="512" height="512"><path d="M20.94,1.71c-.67-.57-1.56-.82-2.44-.67-1.43,.23-2.5,1.55-2.5,3.07v4.07c-.31-.11-.65-.17-1-.17-.77,0-1.47,.29-2,.77-.53-.48-1.23-.77-2-.77-.35,0-.69,.06-1,.17V3.11C10,1.59,8.92,.27,7.5,.04c-.88-.14-1.77,.1-2.44,.67-.67,.57-1.06,1.4-1.06,2.29V11.65l-1.5,1.5c-.96,.96-1.5,2.24-1.5,3.6s.53,2.64,1.49,3.6l1.59,1.59c1.32,1.32,3.08,2.05,4.95,2.05h6.97c3.31,0,6-2.69,6-6V4c0-.88-.39-1.71-1.06-2.29Zm-5.94,8.29c.55,0,1,.45,1,1v2c0,.55-.45,1-1,1s-1-.45-1-1v-2c0-.55,.45-1,1-1Zm-4,0c.55,0,1,.45,1,1v2c0,.55-.45,1-1,1s-1-.45-1-1v-2c0-.55,.45-1,1-1ZM6.35,2.24c.23-.19,.52-.27,.82-.22,.46,.08,.82,.56,.82,1.09v7.88c-.6-.39-1.31-.53-2-.45V3c0-.29,.13-.57,.35-.76Zm13.65,15.76c0,2.21-1.79,4-4,4h-6.97c-1.33,0-2.59-.52-3.54-1.46l-1.59-1.59c-.58-.58-.91-1.36-.91-2.19s.32-1.6,.91-2.19l1.77-1.76c.39-.39,1.02-.39,1.41,0,.39,.39,.39,1.02,0,1.41l-2.04,2.04c-.39,.39-.39,1.02,0,1.41s1.02,.39,1.41,0l2.04-2.04c.15-.15,.29-.32,.4-.49,.54,.53,1.28,.86,2.1,.86,.77,0,1.47-.29,2-.77,.53,.48,1.23,.77,2,.77,1.65,0,3-1.35,3-3V4.11c0-.54,.36-1.02,.82-1.09,.3-.05,.6,.03,.82,.22,.22,.19,.35,.47,.35,.76v14Z"/></svg>
