<?xml version="1.0" encoding="UTF-8"?>
<svg xmlns="http://www.w3.org/2000/svg" id="Layer_1" data-name="Layer 1" viewBox="0 0 24 24" width="512" height="512"><path d="M19,2h-1V1c0-.552-.447-1-1-1s-1,.448-1,1v1H8V1c0-.552-.447-1-1-1s-1,.448-1,1v1h-1C2.243,2,0,4.243,0,7v12c0,2.757,2.243,5,5,5h4c.553,0,1-.448,1-1s-.447-1-1-1H5c-1.654,0-3-1.346-3-3V10H23c.553,0,1-.448,1-1v-2c0-2.757-2.243-5-5-5Zm3,6H2v-1c0-1.654,1.346-3,3-3h14c1.654,0,3,1.346,3,3v1Zm-3.121,4.879l-5.707,5.707c-.756,.755-1.172,1.76-1.172,2.828v1.586c0,.552,.447,1,1,1h1.586c1.068,0,2.073-.417,2.828-1.172l5.707-5.707c.566-.567,.879-1.32,.879-2.122s-.313-1.555-.879-2.121c-1.17-1.17-3.072-1.17-4.242,0Zm2.828,2.828l-5.707,5.707c-.378,.378-.88,.586-1.414,.586h-.586v-.586c0-.526,.214-1.042,.586-1.414l5.707-5.707c.391-.39,1.023-.39,1.414,0,.189,.188,.293,.439,.293,.707s-.104,.518-.293,.707Z"/></svg>
