<?xml version="1.0" encoding="UTF-8"?>
<svg xmlns="http://www.w3.org/2000/svg" id="Layer_1" data-name="Layer 1" viewBox="0 0 24 24" width="512" height="512"><path d="M13.5,6.5c0,.828-.672,1.5-1.5,1.5s-1.5-.672-1.5-1.5,.672-1.5,1.5-1.5,1.5,.672,1.5,1.5Zm10.5,3.224v9.276c0,2.757-2.243,5-5,5h-3c-.552,0-1-.447-1-1V13c0-.552-.449-1-1-1h-4c-.551,0-1,.448-1,1v10c0,.553-.448,1-1,1h-3c-2.757,0-5-2.243-5-5V9.724c0-1.664,.824-3.214,2.203-4.146L9.204,.855c1.698-1.146,3.894-1.146,5.593,0l5.203,3.511V2c0-.553,.448-1,1-1s1,.447,1,1v3.724c1.257,.943,2,2.42,2,4Zm-2,8.276v-2h-5v2h5Zm-15-2H2v2H7v-2Zm0,6v-2H2.172c.413,1.164,1.524,2,2.828,2h2Zm.172-10H2v2H7v-1c0-.351,.061-.687,.172-1Zm14.828-2v-.276c0-.999-.494-1.929-1.322-2.487L13.678,2.514c-1.02-.689-2.336-.689-3.356,0L3.322,7.236c-.828,.559-1.322,1.488-1.322,2.487v.276H22Zm-5.172,2c.111,.313,.172,.649,.172,1v1h5v-2h-5.172Zm5,8h-4.828v2h2c1.304,0,2.415-.836,2.828-2Z"/></svg>
