<?xml version="1.0" encoding="UTF-8"?>
<svg xmlns="http://www.w3.org/2000/svg" id="Layer_1" data-name="Layer 1" viewBox="0 0 24 24" width="512" height="512"><path d="M18.89,10.06c.69-.65,1.11-1.56,1.11-2.56,0-1.93-1.57-3.5-3.5-3.5-.53,0-1.04,.12-1.5,.34V2c.55,0,1-.45,1-1s-.45-1-1-1h-6c-.55,0-1,.45-1,1s.45,1,1,1V6.93c0,.33-.17,.65-.45,.83l-3.33,2.22c-1.39,.93-2.23,2.49-2.23,4.16v4.86c0,2.76,2.24,5,5,5h8c2.76,0,5-2.24,5-5v-4.86c0-1.63-.79-3.15-2.11-4.08Zm-2.39-4.06c.83,0,1.5,.67,1.5,1.5,0,.6-.36,1.14-.89,1.37l-1.66-1.11c-.21-.14-.35-.34-.41-.58,.15-.69,.76-1.18,1.47-1.18Zm2.5,13c0,1.65-1.35,3-3,3H8c-1.65,0-3-1.35-3-3v-4h11c.55,0,1-.45,1-1s-.45-1-1-1H5.22c.22-.54,.61-1.02,1.11-1.36l3.33-2.22c.84-.56,1.34-1.49,1.34-2.5V2h2V6.93c0,1,.5,1.94,1.34,2.5l3.33,2.22c.84,.56,1.34,1.49,1.34,2.5v4.86Z"/></svg>
