<?xml version="1.0" encoding="UTF-8"?>
<svg xmlns="http://www.w3.org/2000/svg" id="Layer_1" data-name="Layer 1" viewBox="0 0 24 24" width="512" height="512"><path d="M23.961,13.848c-.176-1.254-.912-2.326-1.952-2.901l-2.962-1.963-.451-2.01c-.159-.794-.775-1.41-1.569-1.568l-2.012-.452-1.922-2.895C12.479,.95,11.407,.215,10.153,.039c-1.255-.176-2.488,.237-3.383,1.133l-1.598,1.598c-.896,.896-1.309,2.129-1.133,3.383s.912,2.326,1.948,2.898l3.758,2.518,.637,.637-6.088,6.088c-.392-.188-.83-.293-1.293-.293-1.654,0-3,1.346-3,3s1.346,3,3,3,3-1.346,3-3c0-.463-.105-.901-.293-1.293l6.088-6.088,.637,.637,2.474,3.686c.615,1.107,1.687,1.843,2.941,2.019,.19,.026,.379,.04,.567,.04,1.053,0,2.056-.413,2.816-1.173l1.598-1.598c.896-.896,1.309-2.129,1.133-3.383ZM3,22c-.551,0-1-.448-1-1s.449-1,1-1,1,.448,1,1-.449,1-1,1Zm7.255-12.497l-3.225-2.157c-.554-.308-.922-.844-1.01-1.471-.087-.627,.119-1.243,.566-1.691l1.598-1.598c.448-.448,1.067-.656,1.692-.566,.627,.088,1.163,.456,1.511,1.076l2.103,3.173-3.235,3.235Zm1.54,1.288l3.662-3.661,1.179,.235,.235,1.178-3.662,3.662-1.414-1.414Zm9.619,5.025l-1.598,1.598c-.449,.447-1.07,.654-1.692,.566-.627-.088-1.163-.456-1.514-1.08l-2.114-3.155,3.234-3.234,3.239,2.144c.554,.308,.922,.844,1.01,1.471,.087,.627-.119,1.243-.566,1.691Z"/></svg>
