<?xml version="1.0" encoding="UTF-8"?>
<svg xmlns="http://www.w3.org/2000/svg" id="Layer_1" data-name="Layer 1" viewBox="0 0 24 24" width="512" height="512"><path d="M21,12c-.552,0-1,.447-1,1,0,4.963-4.038,9-9,9h-1c-1.103,0-2-.897-2-2v-6.613l7.316-2.439c.524-.174,.807-.74,.632-1.265-.175-.523-.74-.81-1.265-.632l-6.684,2.228v-1.893l7.316-2.439c.524-.174,.807-.74,.632-1.265-.175-.523-.74-.809-1.265-.632l-6.684,2.228V1c0-.553-.448-1-1-1s-1,.447-1,1V7.946l-3.316,1.105c-.524,.174-.807,.74-.632,1.265,.14,.419,.53,.684,.949,.684,.104,0,.211-.017,.316-.052l2.684-.895v1.893l-3.316,1.105c-.524,.174-.807,.74-.632,1.265,.14,.419,.53,.684,.949,.684,.104,0,.211-.017,.316-.052l2.684-.895v5.946c0,2.206,1.794,4,4,4h1c6.065,0,11-4.935,11-11,0-.553-.448-1-1-1Z"/></svg>
