<?xml version="1.0" encoding="UTF-8"?>
<svg xmlns="http://www.w3.org/2000/svg" id="Layer_1" data-name="Layer 1" viewBox="0 0 24 24" width="512" height="512"><path d="M12,7.364v-1.364h1c.552,0,1-.448,1-1s-.448-1-1-1h-1c0-2.206-1.794-4-4-4S4,1.794,4,4v3.364C1.615,8.623,0,11.257,0,14v5c0,2.757,2.243,5,5,5h6c2.757,0,5-2.243,5-5v-5c0-2.743-1.615-5.377-4-6.636Zm-6-3.364c0-1.103,.897-2,2-2s2,.897,2,2v3H6v-3Zm8,15c0,1.654-1.346,3-3,3H5c-1.654,0-3-1.346-3-3v-5c0-2.085,1.337-4.156,3.204-5h5.591c1.867,.844,3.204,2.915,3.204,5v5Zm-5-6h-2c-1.654,0-3,1.346-3,3s1.346,3,3,3h2c1.654,0,3-1.346,3-3s-1.346-3-3-3Zm0,4h-2c-.551,0-1-.449-1-1s.449-1,1-1h2c.551,0,1,.449,1,1s-.449,1-1,1ZM18,5c0,.552-.448,1-1,1s-1-.448-1-1,.448-1,1-1,1,.448,1,1Zm6,0c0,.552-.448,1-1,1s-1-.448-1-1,.448-1,1-1,1,.448,1,1Zm-2-4c0-.552,.448-1,1-1s1,.448,1,1-.448,1-1,1-1-.448-1-1Zm2,8c0,.552-.448,1-1,1s-1-.448-1-1,.448-1,1-1,1,.448,1,1Zm-3-6c0,.552-.448,1-1,1s-1-.448-1-1,.448-1,1-1,1,.448,1,1Zm0,4c0,.552-.448,1-1,1s-1-.448-1-1,.448-1,1-1,1,.448,1,1Z"/></svg>
