<?xml version="1.0" encoding="UTF-8"?>
<svg xmlns="http://www.w3.org/2000/svg" id="Layer_1" data-name="Layer 1" viewBox="0 0 24 24" width="512" height="512"><path d="M3,15.83c-.11,0-.22-.02-.33-.06-1.15-.4-2.04-1.29-2.44-2.44-.18-.52,.09-1.09,.61-1.28,.52-.18,1.09,.09,1.28,.61,.2,.56,.65,1.02,1.22,1.22,.52,.18,.79,.75,.61,1.28-.15,.41-.53,.67-.94,.67Zm7-.83c0-.55-.45-1-1-1h-2c-.55,0-1,.45-1,1s.45,1,1,1h2c.55,0,1-.45,1-1Zm3.33,.77c1.15-.4,2.04-1.29,2.44-2.44,.18-.52-.09-1.09-.61-1.28-.52-.18-1.09,.09-1.28,.61-.2,.56-.65,1.02-1.22,1.22-.52,.18-.79,.75-.61,1.28,.15,.41,.53,.67,.94,.67,.11,0,.22-.02,.33-.06Zm2.67-6.77v-2c0-.55-.45-1-1-1s-1,.45-1,1v2c0,.55,.45,1,1,1s1-.45,1-1ZM10,1c0-.55-.45-1-1-1h-2c-.55,0-1,.45-1,1s.45,1,1,1h2c.55,0,1-.45,1-1ZM2,9v-2c0-.55-.45-1-1-1s-1,.45-1,1v2c0,.55,.45,1,1,1s1-.45,1-1Zm22,10v-6c0-2.76-2.24-5-5-5-.55,0-1,.45-1,1s.45,1,1,1c1.65,0,3,1.35,3,3v6c0,1.65-1.35,3-3,3h-6c-1.65,0-3-1.35-3-3,0-.55-.45-1-1-1s-1,.45-1,1c0,2.76,2.24,5,5,5h6c2.76,0,5-2.24,5-5ZM2.11,3.33c.2-.56,.65-1.02,1.22-1.22,.52-.18,.79-.75,.61-1.28C3.76,.32,3.19,.05,2.67,.23,1.52,.63,.63,1.52,.23,2.67c-.18,.52,.09,1.09,.61,1.28,.11,.04,.22,.06,.33,.06,.41,0,.8-.26,.94-.67Zm13.05,.61c.52-.18,.79-.75,.61-1.28-.4-1.15-1.29-2.04-2.44-2.44-.52-.18-1.09,.09-1.28,.61-.18,.52,.09,1.09,.61,1.28,.56,.2,1.02,.65,1.22,1.22,.15,.41,.53,.67,.94,.67,.11,0,.22-.02,.33-.06Z"/></svg>
