<?xml version="1.0" encoding="UTF-8"?>
<svg xmlns="http://www.w3.org/2000/svg" id="Layer_1" data-name="Layer 1" viewBox="0 0 24 24" width="512" height="512"><path d="M21,4.418V2h2c.552,0,1-.448,1-1s-.448-1-1-1H5C2.243,0,0,2.243,0,5V23c0,.552,.448,1,1,1s1-.448,1-1V5c0-1.654,1.346-3,3-3h2v2.418c-1.764,.773-3,2.536-3,4.582v6c0,2.757,2.243,5,5,5h10c2.757,0,5-2.243,5-5v-6c0-2.046-1.236-3.809-3-4.582ZM9,2h10v2H9V2Zm13,13c0,1.654-1.346,3-3,3H9c-1.654,0-3-1.346-3-3v-6c0-1.654,1.346-3,3-3h10c1.654,0,3,1.346,3,3v6Z"/></svg>
