<?xml version="1.0" encoding="UTF-8"?>
<svg xmlns="http://www.w3.org/2000/svg" id="Layer_1" data-name="Layer 1" viewBox="0 0 24 24" width="512" height="512"><path d="M24,18v2c0,2.21-1.79,4-4,4H4c-2.21,0-4-1.79-4-4v-2c0-2.21,1.79-4,4-4h2c.55,0,1,.45,1,1s-.45,1-1,1h-2c-1.1,0-2,.9-2,2v2c0,1.1,.9,2,2,2H20c1.1,0,2-.9,2-2v-2c0-1.1-.9-2-2-2h-2c-.55,0-1-.45-1-1s.45-1,1-1h2c2.21,0,4,1.79,4,4Zm0-14v2c0,2.21-1.79,4-4,4h-7v4h1.45c.69,0,1.04,.83,.55,1.32l-2.45,2.45c-.3,.3-.79,.3-1.1,0l-2.45-2.45c-.49-.49-.14-1.32,.55-1.32h1.45v-4H4C1.79,10,0,8.21,0,6v-2C0,1.79,1.79,0,4,0H20c2.21,0,4,1.79,4,4ZM2,4.59l2.59-2.59h-.59c-1.1,0-2,.9-2,2v.59Zm2.59,3.41L10.59,2h-3.17L2.32,7.09c.36,.55,.97,.91,1.68,.91h.59ZM16.59,2h-3.17l-6,6h3.17l6-6Zm0,6l5.09-5.09c-.36-.55-.97-.91-1.68-.91h-.59l-6,6h3.17Zm5.41-2.59l-2.59,2.59h.59c1.1,0,2-.9,2-2v-.59Z"/></svg>
