<?xml version="1.0" encoding="UTF-8"?>
<svg xmlns="http://www.w3.org/2000/svg" id="Layer_1" data-name="Layer 1" viewBox="0 0 24 24" width="512" height="512"><path d="M21,1h-4c-1.65,0-3,1.35-3,3v4c0,1.65,1.35,3,3,3h4c1.65,0,3-1.35,3-3V4c0-1.65-1.35-3-3-3Zm1,7c0,.55-.45,1-1,1h-4c-.55,0-1-.45-1-1V4c0-.55,.45-1,1-1h4c.55,0,1,.45,1,1v4Zm-1,7h-2c-1.65,0-3,1.35-3,3v2c0,1.65,1.35,3,3,3h2c1.65,0,3-1.35,3-3v-2c0-1.65-1.35-3-3-3Zm1,5c0,.55-.45,1-1,1h-2c-.55,0-1-.45-1-1v-2c0-.55,.45-1,1-1h2c.55,0,1,.45,1,1v2Zm-10.28-1.69c.38,.4,.37,1.03-.03,1.41l-3.59,3.41c-.55,.55-1.3,.86-2.1,.86s-1.55-.31-2.12-.88L.31,19.72c-.4-.38-.42-1.01-.03-1.41,.38-.4,1.01-.42,1.41-.03l3.31,3.15V1c0-.55,.45-1,1-1s1,.45,1,1V21.43l3.31-3.15c.4-.38,1.03-.36,1.41,.03Z"/></svg>
