<?xml version="1.0" encoding="UTF-8"?>
<svg xmlns="http://www.w3.org/2000/svg" id="Layer_1" data-name="Layer 1" viewBox="0 0 24 24" width="512" height="512"><path d="M22.293,15.895l-1.293-1.293v8.398c-.006,1.308-1.995,1.307-2,0V14.602l-1.293,1.293c-.391,.391-1.023,.391-1.414,0-.391-.39-.391-1.023,0-1.414l1.613-1.614c1.153-1.153,3.031-1.155,4.187,0l1.614,1.614c.921,.928-.486,2.335-1.414,1.414Z"/><path d="M17,0H7C4.239,0,2,2.239,2,5v15c0,2.209,1.791,4,4,4h10c1.308-.006,1.307-1.995,0-2H6c-1.213,0-2.178-1.086-1.972-2.338,.162-.984,1.088-1.662,2.085-1.662h7.888c1.308-.006,1.307-1.995,0-2h-6V2h9c1.657,0,3,1.343,3,3v4c.006,1.308,1.994,1.307,2,0V5c0-2.761-2.239-5-5-5ZM6,16c-.732,0-1.409,.212-2,.556V5c0-1.302,.839-2.402,2-2.816v13.816Z"/></svg>
