<?xml version="1.0" encoding="UTF-8"?>
<svg xmlns="http://www.w3.org/2000/svg" id="Layer_1" data-name="Layer 1" viewBox="0 0 24 24" width="512" height="512"><path d="M22.12,10.504c-.712-1.031-1.12-1.943-1.12-2.504v-2.935c0-2.563-1.91-4.699-4.443-4.969-.056-.006-.787-.096-1.557-.096h-6c-.692,0-1.5,.09-1.557,.096C4.91,.366,3,2.502,3,5.065v2.935c0,.561-.408,1.473-1.12,2.504-.576,.833-.88,1.811-.88,2.83v5.666c0,2.757,2.243,5,5,5h12c2.757,0,5-2.243,5-5v-5.666c0-1.019-.304-1.998-.88-2.83Zm-10.12-1.43l-2.573-7.074h5.145l-2.573,7.074ZM3,19v-2H7c.553,0,1-.448,1-1s-.447-1-1-1H3v-1.666c0-.611,.182-1.196,.524-1.693,.979-1.417,1.476-2.642,1.476-3.641v-2.935c0-1.432,.99-2.641,2.349-2.931l3.651,10.041v9.825H6c-1.654,0-3-1.346-3-3Zm15,3h-5V12.175l3.651-10.041c1.359,.29,2.349,1.5,2.349,2.931v2.935c0,.999,.496,2.224,1.476,3.641,.343,.497,.524,1.083,.524,1.693v1.666h-4c-.553,0-1,.448-1,1s.447,1,1,1h4v2c0,1.654-1.346,3-3,3Z"/></svg>
