<?xml version="1.0" encoding="UTF-8"?>
<svg xmlns="http://www.w3.org/2000/svg" id="Layer_1" data-name="Layer 1" viewBox="0 0 24 24" width="512" height="512"><path d="M19,3h-6.53c-.15,0-.31-.04-.45-.11l-3.16-1.58c-.41-.21-.88-.32-1.34-.32h-2.53C2.24,1,0,3.24,0,6v12c0,2.76,2.24,5,5,5h14c2.76,0,5-2.24,5-5V8c0-2.76-2.24-5-5-5Zm-14,0h2.53c.15,0,.31,.04,.45,.11l3.16,1.58h0c.41,.21,.88,.32,1.34,.32h6.53c1.3,0,2.42,.84,2.83,2H2v-1c0-1.65,1.35-3,3-3Zm14,18H5c-1.65,0-3-1.35-3-3V9H22v9c0,1.65-1.35,3-3,3Zm-1-6c0,.86-.36,1.67-1.02,2.27l-1.55,1.46c-.19,.18-.44,.27-.69,.27-.27,0-.53-.11-.73-.31-.38-.4-.36-1.04,.04-1.41l1.35-1.27H7c-.55,0-1-.45-1-1s.45-1,1-1H15.42l-1.35-1.27c-.4-.38-.42-1.01-.04-1.41s1.01-.42,1.41-.04l1.56,1.46c.65,.59,1.01,1.4,1.01,2.26Z"/></svg>
