<?xml version="1.0" encoding="UTF-8"?>
<svg xmlns="http://www.w3.org/2000/svg" id="Layer_1" data-name="Layer 1" viewBox="0 0 24 24" width="512" height="512"><path d="M2,23c0,.552-.448,1-1,1s-1-.448-1-1,.448-1,1-1,1,.448,1,1Zm5-7c-.552,0-1,.448-1,1s.448,1,1,1,1-.448,1-1-.448-1-1-1Zm3-3c-.552,0-1,.448-1,1s.448,1,1,1,1-.448,1-1-.448-1-1-1Zm-7.293,4.293c-.391-.391-1.023-.391-1.414,0s-.391,1.023,0,1.414l4,4c.195,.195,.451,.293,.707,.293s.512-.098,.707-.293c.391-.391,.391-1.023,0-1.414l-4-4ZM23.9,6.086c-1.185-2.695-3.324-4.827-6.023-6.003-.509-.221-1.096,.012-1.316,.518-.22,.507,.011,1.096,.518,1.316,2.237,.974,4.01,2.74,4.991,4.974,.165,.375,.531,.598,.916,.598,.134,0,.271-.027,.402-.085,.505-.222,.735-.812,.513-1.317Zm-8.9,4.914c0,.493-.181,.967-.509,1.333-.369,.411-.334,1.043,.077,1.412,.191,.171,.43,.255,.667,.255,.274,0,.548-.112,.745-.333,.658-.733,1.02-1.681,1.02-2.667,0-2.206-1.794-4-4-4-1.702,0-3.221,1.08-3.779,2.688-.182,.521,.094,1.092,.616,1.272,.521,.182,1.091-.095,1.272-.616,.28-.804,1.04-1.344,1.891-1.344,1.103,0,2,.897,2,2Zm-2.119-7.999c-4.022,.059-7.309,2.98-7.815,6.947-.07,.548,.318,1.048,.866,1.118,.544,.062,1.048-.317,1.119-.866,.378-2.969,2.843-5.155,5.86-5.199,1.63-.064,3.148,.589,4.301,1.725,1.154,1.137,1.789,2.655,1.789,4.274,0,1.2-.355,2.359-1.028,3.351-.897,1.32-.972,2.576-.972,3.649,0,2.206-1.794,4-4,4-.552,0-1,.447-1,1s.448,1,1,1c3.309,0,6-2.691,6-6,0-.877,.047-1.673,.627-2.526,.898-1.324,1.373-2.871,1.373-4.474,0-2.159-.847-4.183-2.385-5.698-1.537-1.516-3.568-2.33-5.734-2.301Z"/></svg>
