<?xml version="1.0" encoding="UTF-8"?>
<svg xmlns="http://www.w3.org/2000/svg" id="Layer_1" data-name="Layer 1" viewBox="0 0 24 24" width="512" height="512"><path d="M12,7c-2.757,0-5,2.243-5,5s2.243,5,5,5,5-2.243,5-5-2.243-5-5-5Zm0,8c-1.654,0-3-1.346-3-3s1.346-3,3-3,3,1.346,3,3-1.346,3-3,3Zm11-4h-1.05c-.471-4.717-4.233-8.48-8.95-8.95V1c0-.553-.448-1-1-1s-1,.447-1,1v1.05C6.283,2.52,2.52,6.283,2.05,11H1c-.552,0-1,.447-1,1s.448,1,1,1h1.05c.471,4.717,4.233,8.48,8.95,8.95v1.05c0,.553,.448,1,1,1s1-.447,1-1v-1.05c4.717-.471,8.48-4.233,8.95-8.95h1.05c.552,0,1-.447,1-1s-.448-1-1-1Zm-11,9c-4.411,0-8-3.589-8-8S7.589,4,12,4s8,3.589,8,8-3.589,8-8,8Z"/></svg>
