<?xml version="1.0" encoding="UTF-8"?>
<svg xmlns="http://www.w3.org/2000/svg" id="Layer_1" data-name="Layer 1" viewBox="0 0 24 24" width="512" height="512"><path d="M12,14.464c-.572,0-1.143-.153-1.653-.459L.485,8.088c-.301-.181-.485-.506-.485-.857s.184-.677,.485-.857L10.347,.456c1.021-.613,2.287-.613,3.307,0l9.861,5.917c.301,.181,.485,.506,.485,.857s-.184,.677-.485,.857l-9.861,5.917c-.51,.306-1.082,.458-1.653,.459ZM2.944,7.23l8.432,5.06c.385,.23,.864,.23,1.249,0l8.432-5.06L12.624,2.171c-.385-.23-.864-.23-1.248,0h0L2.944,7.23Zm21.056,12.77c0-.553-.448-1-1-1h-6c-.552,0-1,.447-1,1s.448,1,1,1h6c.552,0,1-.447,1-1Zm-11.143,3.286c.284-.474,.131-1.088-.343-1.372L1.515,15.314c-.475-.285-1.088-.131-1.372,.343-.284,.474-.131,1.088,.343,1.372l11,6.6c.161,.097,.338,.143,.514,.143,.34,0,.671-.173,.858-.485Zm-.343-4.225l11-6.6c.474-.284,.627-.898,.343-1.372s-.898-.627-1.372-.343l-10.485,6.291L1.515,10.747c-.475-.285-1.088-.132-1.372,.343-.284,.474-.131,1.088,.343,1.372l11,6.6c.159,.095,.336,.143,.515,.143s.356-.048,.515-.143Z"/></svg>
