<?xml version="1.0" encoding="UTF-8"?>
<svg xmlns="http://www.w3.org/2000/svg" id="Layer_1" data-name="Layer 1" viewBox="0 0 24 24" width="512" height="512"><path d="M23.923,15.615l-1.475-3.538c-.651-1.564-2.026-2.664-3.644-2.982l-.24-.958c-.167-.669-.766-1.137-1.455-1.137h-2.219c-.689,0-1.288,.468-1.455,1.137l-.24,.958c-1.618,.318-2.993,1.418-3.644,2.982l-1.475,3.538c-.051,.122-.077,.253-.077,.385v3c0,1.304,.836,2.415,2,2.828v.172c0,1.103,.897,2,2,2s2-.897,2-2h4c0,1.103,.897,2,2,2s2-.897,2-2v-.172c1.164-.413,2-1.524,2-2.828v-3c0-.132-.026-.263-.077-.385Zm-9.756-4.615h3.666c1.215,0,2.302,.725,2.77,1.847l.481,1.153H10.917l.481-1.153c.468-1.122,1.555-1.847,2.77-1.847Zm7.833,8c0,.552-.448,1-1,1H11c-.552,0-1-.448-1-1v-2.8l.083-.2h1.917v1c0,.553,.447,1,1,1s1-.447,1-1v-1h4v1c0,.553,.447,1,1,1s1-.447,1-1v-1h1.917l.083,.2v2.8ZM6.5,11h-2.5V6.265c0-.089,.003-.177,.009-.265h4.991v1c0,.553,.447,1,1,1s1-.447,1-1v-1h5.84c.31,0,.601-.143,.79-.388,.189-.244,.256-.562,.179-.861-.534-2.074-2.121-3.703-4.141-4.249C11.217-.164,8.783-.164,6.332,.502,3.781,1.193,2,3.563,2,6.265v2.735c-1.105,0-2,.895-2,2s.895,2,2,2v3c0,1.304,.836,2.416,2,2.829v1.171c0,.553,.447,1,1,1s1-.447,1-1v-2c0-.553-.447-1-1-1s-1-.448-1-1v-3h2.5c.553,0,1-.447,1-1s-.447-1-1-1Zm.355-8.568c2.111-.572,4.178-.572,6.289,0,.891,.241,1.653,.807,2.167,1.568H4.687c.508-.754,1.265-1.323,2.169-1.568Z"/></svg>
