<?xml version="1.0" encoding="UTF-8"?>
<svg xmlns="http://www.w3.org/2000/svg" id="Layer_1" data-name="Layer 1" viewBox="0 0 24 24" width="512" height="512"><path d="M5,24c-2.757,0-5-2.243-5-5V5C0,2.243,2.243,0,5,0h14c2.757,0,5,2.243,5,5v7c0,.552-.448,1-1,1s-1-.448-1-1V5c0-1.654-1.346-3-3-3H5c-1.654,0-3,1.346-3,3v14c0,1.654,1.346,3,3,3,.552,0,1,.447,1,1s-.448,1-1,1Zm0-20c-.552,0-1,.448-1,1s.448,1,1,1,1-.448,1-1-.448-1-1-1Zm4,0c-.552,0-1,.448-1,1s.448,1,1,1,1-.448,1-1-.448-1-1-1Zm10.43,19.977c.326-.007,.659-.048,.992-.123,1.707-.39,3.062-1.741,3.453-3.444,.569-2.479-.889-4.935-3.318-5.59h0c-.067-.018-.159-.036-.268-.057-.33-.061-.658-.135-.736-.322-.979-2.36-3.438-3.749-5.98-3.38-2.187,.318-4.013,1.995-4.543,4.174-.203,.833-.216,1.673-.04,2.44-1.508,.647-2.297,2.283-1.874,3.891,.291,1.105,1.193,2.007,2.296,2.297,.253,.067,.516,.105,.784,.114,.612,.017,2.321,.023,4.124,.023,2.111,0,4.352-.01,5.112-.023Zm-1.725-8.769c.503,1.207,1.752,1.436,2.223,1.522l.113,.021c1.213,.33,2.25,1.619,1.885,3.21-.217,.945-1,1.726-1.947,1.941-.199,.045-.396,.069-.586,.073-1.544,.029-7.918,.033-9.138,0-.113-.004-.225-.021-.334-.049-.413-.108-.763-.459-.872-.872-.2-.761,.238-1.333,.728-1.544,.87-.372,1.361-1.299,1.167-2.204-.113-.524-.104-1.063,.028-1.602,.339-1.394,1.5-2.465,2.888-2.667,.177-.026,.354-.039,.528-.039,1.439,0,2.757,.855,3.317,2.207Z"/></svg>
