<?xml version="1.0" encoding="UTF-8"?>
<svg xmlns="http://www.w3.org/2000/svg" id="Layer_1" data-name="Layer 1" viewBox="0 0 24 24" width="512" height="512"><path d="M23,10h-1.967c-.027-.001-.054-.001-.08,0H4v-3c0-1.654,1.346-3,3-3h.172c.413,1.164,1.524,2,2.828,2h3c1.654,0,3-1.346,3-3s-1.346-3-3-3h-3c-1.304,0-2.415,.836-2.828,2h-.172c-2.757,0-5,2.243-5,5v3H1c-.553,0-1,.447-1,1s.447,1,1,1h1.153l1.304,7.821c.403,2.422,2.478,4.179,4.932,4.179h7.223c2.454,0,4.528-1.757,4.932-4.179l1.304-7.821h1.153c.553,0,1-.447,1-1s-.447-1-1-1ZM10,2h3c.552,0,1,.448,1,1s-.448,1-1,1h-3c-.552,0-1-.448-1-1s.448-1,1-1Zm8.57,17.493c-.242,1.452-1.486,2.507-2.959,2.507h-7.223c-1.473,0-2.717-1.055-2.959-2.507l-1.249-7.493h15.639l-1.249,7.493Zm-10.527-3.617c.113-.345,.407-.558,.77-.558h1.853l.563-1.756c.111-.347,.407-.562,.771-.562s.66,.215,.771,.562l.563,1.756h1.853c.362,0,.657,.214,.77,.558,.112,.344,0,.691-.292,.905l-1.507,1.101,.573,1.771c.111,.346-.002,.693-.297,.906-.295,.212-.66,.211-.953-.005l-1.481-1.089-1.481,1.089c-.286,.211-.666,.212-.953,.005-.295-.213-.409-.56-.297-.906l.572-1.771-1.506-1.101c-.293-.214-.404-.561-.292-.905Z"/></svg>
