<?xml version="1.0" encoding="UTF-8"?>
<svg xmlns="http://www.w3.org/2000/svg" id="Layer_1" data-name="Layer 1" viewBox="0 0 24 24" width="512" height="512"><path d="M24,18.586c0,1.068-.416,2.072-1.172,2.828l-1.414,1.414c-.755,.756-1.76,1.172-2.828,1.172s-2.073-.416-2.829-1.172l-2.69-2.69c-.391-.391-.391-1.023,0-1.414s1.023-.391,1.414,0l2.69,2.69c.756,.756,2.073,.756,2.829,0l1.414-1.414c.378-.378,.586-.88,.586-1.414s-.208-1.036-.586-1.414l-1.931-1.932-1.415,1.414c-.391,.391-1.023,.391-1.414,0s-.391-1.023,0-1.414l2.122-2.121c.391-.391,1.023-.391,1.414,0l2.638,2.639c.756,.755,1.172,1.759,1.172,2.828ZM3.862,10.933c.195,.195,.451,.293,.707,.293s.512-.098,.707-.293c.391-.391,.391-1.023,0-1.414l-2.69-2.69c-.378-.378-.586-.88-.586-1.414s.208-1.036,.586-1.414l1.414-1.414c.756-.756,2.073-.756,2.829,0l1.932,1.932-1.415,1.414c-.391,.391-.391,1.023,0,1.414s1.023,.391,1.414,0l2.122-2.121c.188-.188,.293-.441,.293-.707s-.105-.52-.293-.707l-2.639-2.639C6.732-.34,4.097-.34,2.586,1.172l-1.414,1.414c-.756,.756-1.172,1.76-1.172,2.828s.416,2.073,1.172,2.828l2.69,2.69ZM22.925,6.269L6.95,22.242c-1.132,1.134-2.639,1.758-4.242,1.758H1c-.552,0-1-.447-1-1v-1.708c0-1.603,.624-3.109,1.757-4.242L17.731,1.075c1.431-1.431,3.761-1.433,5.193,0,1.431,1.432,1.431,3.762,0,5.193Zm-5.2,2.371l-2.365-2.365L3.171,18.464c-.755,.756-1.171,1.76-1.171,2.828v.708h.708c1.069,0,2.073-.416,2.828-1.172l12.19-12.189Zm3.785-6.15c-.652-.652-1.712-.651-2.365,0l-2.371,2.371,2.365,2.365,2.371-2.371c.651-.652,.651-1.713,0-2.365Z"/></svg>
