<?xml version="1.0" encoding="UTF-8"?>
<svg xmlns="http://www.w3.org/2000/svg" id="Layer_1" data-name="Layer 1" viewBox="0 0 24 24" width="512" height="512"><path d="M23.71,22.29l-6.91-6.91s.02-.05,.03-.08l.22-1.24h.15c1.18,0,1.82-.94,1.82-1.82,0-1.29-2.93-6.01-4.18-7.41-1.61-1.8-3.92-2.83-6.33-2.83-1.42,0-2.8,.37-4.04,1.04L1.71,.29C1.32-.1,.68-.1,.29,.29S-.1,1.32,.29,1.71L22.29,23.71c.2,.2,.45,.29,.71,.29s.51-.1,.71-.29c.39-.39,.39-1.02,0-1.41ZM8.5,4c1.85,0,3.61,.79,4.84,2.16,1.21,1.36,3.27,4.94,3.62,5.9h-.76c-.48,0-.9,.35-.98,.82l-.14,.79L5.94,4.53c.8-.34,1.67-.53,2.56-.53Zm5.5,14c0,.55-.45,1-1,1v.5c0,1.38-1.12,2.5-2.5,2.5H5.5c-1.4,0-2.5-1.15-2.5-2.62v-.73c0-.74-.23-1.44-.66-1.96C.85,14.86-.03,12.54,0,10.49c0-1.46,.38-2.91,1.11-4.19,.27-.48,.88-.65,1.36-.37,.48,.27,.65,.88,.37,1.36-.55,.97-.85,2.08-.85,3.21-.02,1.59,.71,3.47,1.89,4.92,.71,.87,1.11,2.02,1.11,3.22v.73c0,.37,.2,.62,.5,.62h5c.28,0,.5-.22,.5-.5v-1.5c0-.55,.45-1,1-1h1c.55,0,1,.45,1,1Zm5-1c0-.55,.45-1,1-1s1,.45,1,1-.45,1-1,1-1-.45-1-1Zm3,2c0-.55,.45-1,1-1s1,.45,1,1-.45,1-1,1-1-.45-1-1Zm0-4c0-.55,.45-1,1-1s1,.45,1,1-.45,1-1,1-1-.45-1-1Z"/></svg>
