<?xml version="1.0" encoding="UTF-8"?>
<svg xmlns="http://www.w3.org/2000/svg" id="Layer_1" data-name="Layer 1" viewBox="0 0 24 24" width="512" height="512"><path d="M4.262,9.772c.391-.389,1.023-.388,1.414,.002,.391,.391,.389,1.024-.002,1.415l-2.197,2.189c-.952,.952-1.477,2.218-1.477,3.564,0,1.346,.524,2.612,1.477,3.564,.955,.956,2.223,1.486,3.569,1.493,1.335,0,2.616-.518,3.558-1.458l2.208-2.215c.39-.391,1.022-.393,1.414-.002,.391,.39,.393,1.023,.002,1.415l-2.209,2.216c-1.32,1.32-3.113,2.045-4.983,2.045-1.877-.01-3.643-.749-4.973-2.079C.732,20.591,0,18.823,0,16.943c0-1.881,.732-3.649,2.063-4.98l2.198-2.191Zm4.267,4.284l-.801,.801c-.391,.391-.391,1.023,0,1.414,.195,.195,.451,.293,.707,.293s.512-.098,.707-.293l.801-.801c.391-.391,.391-1.023,0-1.414s-1.023-.391-1.414,0ZM.293,.293c.391-.391,1.023-.391,1.414,0L7.726,6.312l.003-.005L11.981,2.062C13.312,.732,15.079,0,16.96,0s3.648,.732,4.978,2.062c1.33,1.33,2.062,3.098,2.062,4.979s-.732,3.648-2.062,4.978l-4.245,4.253-.005,.003,6.019,6.019c.391,.391,.391,1.023,0,1.414-.195,.195-.451,.293-.707,.293s-.512-.098-.707-.293L.293,1.707c-.391-.391-.391-1.023,0-1.414ZM11.999,10.585l2.859-2.859c.391-.391,1.023-.391,1.414,0s.391,1.024,0,1.414l-2.859,2.859,2.862,2.862,.002-.003,4.246-4.253c.952-.952,1.477-2.218,1.477-3.564s-.524-2.612-1.477-3.564-2.218-1.476-3.563-1.476-2.612,.524-3.565,1.477l-4.253,4.246-.003,.002,2.86,2.86Z"/></svg>
