<?xml version="1.0" encoding="UTF-8"?>
<svg xmlns="http://www.w3.org/2000/svg" id="Layer_1" data-name="Layer 1" viewBox="0 0 24 24" width="512" height="512"><path d="M23.95,5.89c-.29-1.67-1.78-2.89-3.55-2.89H3.6C1.83,3,.34,4.21,.05,5.89c-.28,1.6,.55,3.12,1.95,3.78v7.33c0,2.21,1.79,4,4,4h12c2.21,0,4-1.79,4-4v-7.33c1.4-.66,2.22-2.18,1.95-3.78ZM4,17V8.95c0-.48-.33-.89-.8-.98-.7-.14-1.33-.83-1.18-1.74,.12-.7,.8-1.23,1.58-1.23H13.5c.83,0,1.5,.67,1.5,1.5,0,.71-.5,1.33-1.2,1.47-.47,.09-.8,.5-.8,.98v8.05c0,1.1-.9,2-2,2H6c-1.1,0-2-.9-2-2ZM20.8,7.97c-.47,.09-.8,.5-.8,.98v8.05c0,1.1-.9,2-2,2h-3.54c.34-.59,.54-1.27,.54-2v-7.34c1.2-.57,2-1.79,2-3.16,0-.54-.12-1.05-.34-1.5h3.74c.78,0,1.46,.53,1.58,1.23,.16,.91-.48,1.6-1.18,1.74Z"/></svg>
