<?xml version="1.0" encoding="UTF-8"?>
<svg xmlns="http://www.w3.org/2000/svg" id="Layer_1" data-name="Layer 1" viewBox="0 0 24 24" width="512" height="512"><path d="M8,4C8,1.794,6.206,0,4,0S0,1.794,0,4c0,1.86,1.276,3.428,3,3.873v8.253c-1.724,.445-3,2.013-3,3.873,0,2.206,1.794,4,4,4s4-1.794,4-4c0-1.86-1.276-3.428-3-3.873V7.873c1.724-.445,3-2.013,3-3.873Zm-6,0c0-1.103,.897-2,2-2s2,.897,2,2-.897,2-2,2-2-.897-2-2ZM6,20c0,1.103-.897,2-2,2s-2-.897-2-2,.897-2,2-2,2,.897,2,2Zm15-3.873v-6.127c0-.552-.447-1-1-1s-1,.448-1,1v6.127c-1.724,.445-3,2.013-3,3.873,0,2.206,1.794,4,4,4s4-1.794,4-4c0-1.86-1.276-3.428-3-3.873Zm-1,5.873c-1.103,0-2-.897-2-2s.897-2,2-2,2,.897,2,2-.897,2-2,2Zm3.707-15.707c.391,.391,.391,1.023,0,1.414-.195,.195-.451,.293-.707,.293s-.512-.098-.707-.293l-2.293-2.293-2.293,2.293c-.195,.195-.451,.293-.707,.293s-.512-.098-.707-.293c-.391-.391-.391-1.023,0-1.414l2.293-2.293-2.293-2.293c-.391-.391-.391-1.023,0-1.414s1.023-.391,1.414,0l2.293,2.293L22.293,.293c.391-.391,1.023-.391,1.414,0s.391,1.023,0,1.414l-2.293,2.293,2.293,2.293Z"/></svg>
