<?xml version="1.0" encoding="UTF-8"?>
<svg xmlns="http://www.w3.org/2000/svg" id="Layer_1" data-name="Layer 1" viewBox="0 0 24 24" width="512" height="512"><path d="M21.65,20.24l2.05,2.05c.39,.39,.39,1.02,0,1.41-.2,.2-.45,.29-.71,.29s-.51-.1-.71-.29l-6.94-6.94c-1.4-.55-2.35-1.98-2.35-3.76v-2c0-2.28,1.56-4,3.62-4h.29c1.16,0,2.26,.66,2.94,1.76,.29,.47,.14,1.09-.33,1.38-.47,.29-1.09,.14-1.38-.33-.32-.51-.76-.81-1.23-.81h-.29c-.96,0-1.62,.82-1.62,2v2c0,1.18,.67,2,1.62,2h.29c.47,0,.92-.29,1.23-.81,.29-.47,.9-.62,1.38-.33,.47,.29,.62,.91,.33,1.38-.43,.69-1.02,1.21-1.7,1.5l2.02,2.02c1.09-.46,1.82-1.54,1.82-2.76V8c0-1.65-1.35-3-3-3H6.41l2.05,2.05c.95,.17,1.82,.78,2.39,1.71,.29,.47,.14,1.09-.33,1.38-.47,.29-1.09,.14-1.38-.33-.32-.51-.76-.81-1.23-.81h-.29c-.96,0-1.62,.82-1.62,2v2c0,1.18,.67,2,1.62,2h.29c.47,0,.92-.29,1.23-.81,.29-.47,.91-.62,1.38-.33,.47,.29,.62,.91,.33,1.38-.68,1.1-1.77,1.76-2.94,1.76h-.29c-2.07,0-3.62-1.72-3.62-4v-2c0-1.62,.79-2.96,1.99-3.6L.29,1.71C-.1,1.32-.1,.68,.29,.29S1.32-.1,1.71,.29l2.71,2.71h14.59c2.76,0,5,2.24,5,5v8c0,1.76-.92,3.34-2.35,4.24Zm-6.65-1.24H5c-1.65,0-3-1.35-3-3V8c0-.25,.03-.51,.09-.75,.14-.54-.19-1.08-.72-1.22-.54-.14-1.08,.19-1.22,.72-.1,.41-.16,.83-.16,1.25v8c0,2.76,2.24,5,5,5H15c.55,0,1-.45,1-1s-.45-1-1-1Z"/></svg>
