<?xml version="1.0" encoding="UTF-8"?>
<svg xmlns="http://www.w3.org/2000/svg" id="Layer_1" data-name="Layer 1" viewBox="0 0 24 24" width="512" height="512"><path d="M14.519,11.418c.604-.629,.981-1.479,.981-2.418,0-1.93-1.57-3.5-3.5-3.5s-3.5,1.57-3.5,3.5c0,.939,.377,1.789,.981,2.419-.896,.734-1.481,1.835-1.481,3.081,0,2.206,1.794,4,4,4s4-1.794,4-4c0-1.247-.585-2.347-1.481-3.082Zm-4.019-2.418c0-.827,.673-1.5,1.5-1.5s1.5,.673,1.5,1.5-.673,1.5-1.5,1.5-1.5-.673-1.5-1.5Zm1.5,7.5c-1.103,0-2-.897-2-2s.897-2,2-2,2,.897,2,2-.897,2-2,2ZM12,0C5.383,0,0,5.383,0,12s5.383,12,12,12,12-5.383,12-12S18.617,0,12,0Zm0,22c-5.514,0-10-4.486-10-10S6.486,2,12,2s10,4.486,10,10-4.486,10-10,10Z"/></svg>
