<?xml version="1.0" encoding="UTF-8"?>
<svg xmlns="http://www.w3.org/2000/svg" id="Layer_1" data-name="Layer 1" viewBox="0 0 24 24" width="512" height="512"><path d="M9.707,14.293c.391,.391,.391,1.023,0,1.414l-6.293,6.293h4.586c.553,0,1,.448,1,1s-.447,1-1,1H3c-1.654,0-3-1.346-3-3v-5c0-.552,.447-1,1-1s1,.448,1,1v4.586l6.293-6.293c.391-.391,1.023-.391,1.414,0ZM21,0h-5c-.553,0-1,.448-1,1s.447,1,1,1h4.586l-6.293,6.293c-.391,.391-.391,1.023,0,1.414,.195,.195,.451,.293,.707,.293s.512-.098,.707-.293l6.293-6.293v4.586c0,.552,.447,1,1,1s1-.448,1-1V3c0-1.654-1.346-3-3-3Z"/></svg>
