<?xml version="1.0" encoding="UTF-8"?>
<svg xmlns="http://www.w3.org/2000/svg" id="Layer_1" data-name="Layer 1" viewBox="0 0 24 24" width="512" height="512"><path d="M15.707,9.707l-2.293,2.293,2.293,2.293c.391,.391,.391,1.023,0,1.414-.195,.195-.451,.293-.707,.293s-.512-.098-.707-.293l-2.293-2.293-2.293,2.293c-.195,.195-.451,.293-.707,.293s-.512-.098-.707-.293c-.391-.391-.391-1.023,0-1.414l2.293-2.293-2.293-2.293c-.391-.391-.391-1.023,0-1.414s1.023-.391,1.414,0l2.293,2.293,2.293-2.293c.391-.391,1.023-.391,1.414,0s.391,1.023,0,1.414Zm8.293,2.633v6.66c0,2.757-2.243,5-5,5h-5.917C6.082,24,.471,19.208,.029,12.854-.211,9.378,1.057,5.977,3.509,3.521,5.961,1.067,9.356-.207,12.836,.028c6.261,.426,11.164,5.833,11.164,12.312Zm-2,0c0-5.431-4.085-9.962-9.299-10.315-.229-.016-.458-.023-.686-.023-2.656,0-5.21,1.049-7.092,2.934-2.043,2.046-3.1,4.882-2.898,7.781,.372,5.38,5.023,9.284,11.058,9.284h5.917c1.654,0,3-1.346,3-3v-6.66Z"/></svg>
