<?xml version="1.0" encoding="UTF-8"?>
<svg xmlns="http://www.w3.org/2000/svg" id="Layer_1" data-name="Layer 1" viewBox="0 0 24 24" width="512" height="512"><path d="M14.993,5.994h-.004l-5.993,.005c-2.203,.002-3.996,1.796-3.996,4v2.999c0,1.069,.416,2.074,1.172,2.829s1.76,1.171,2.828,1.171h.003l5.993-.003c2.204-.001,3.997-1.796,3.997-4v-3c0-1.069-.417-2.074-1.173-2.83-.756-.754-1.76-1.17-2.827-1.17Zm-5.995,2.005l5.993-.005h.002c.181,0,.359,.024,.529,.071l-2.526,2.526c-.527,.527-1.448,.527-1.976,0l-2.526-2.527c.161-.042,.33-.065,.504-.065Zm7.995,4.996c0,1.102-.896,2-1.999,2l-5.993,.003h0c-.534,0-1.036-.208-1.414-.585s-.586-.88-.586-1.415v-2.999c0-.183,.025-.36,.072-.529l2.535,2.536c.642,.641,1.495,.995,2.402,.995s1.761-.354,2.401-.995l2.518-2.518c.043,.164,.065,.334,.065,.507v3ZM12,0C5.383,0,0,5.383,0,12s5.383,12,12,12,12-5.383,12-12S18.617,0,12,0Zm0,22c-5.514,0-10-4.486-10-10S6.486,2,12,2s10,4.486,10,10-4.486,10-10,10Z"/></svg>
