<?xml version="1.0" encoding="UTF-8"?>
<svg xmlns="http://www.w3.org/2000/svg" id="Layer_1" data-name="Layer 1" viewBox="0 0 24 24" width="512" height="512"><path d="M20.94,12H3.06c-.57,0-1.11-.24-1.49-.67-.38-.43-.56-1-.5-1.56C1.69,4.2,6.39,0,12,0s10.32,4.2,10.93,9.77c.06,.57-.12,1.14-.5,1.57-.38,.42-.92,.67-1.49,.67ZM12,2C7.41,2,3.57,5.43,3.06,9.99h0s17.88,.01,17.88,.01c-.49-4.57-4.34-8-8.94-8Zm11,13c0-.55-.45-1-1-1H2c-.55,0-1,.45-1,1s.45,1,1,1H22c.55,0,1-.45,1-1Zm-4,9H5c-2.21,0-4-1.79-4-4,0-1.1,.9-2,2-2H21c1.1,0,2,.9,2,2,0,2.21-1.79,4-4,4Zm2-4H3c0,1.1,.9,2,2,2h14c1.1,0,2-.9,2-2h0Z"/></svg>
