<?xml version="1.0" encoding="UTF-8"?>
<svg xmlns="http://www.w3.org/2000/svg" id="Layer_1" data-name="Layer 1" viewBox="0 0 24 24" width="512" height="512"><path d="M19,0H5C2.243,0,0,2.243,0,5v14c0,2.757,2.243,5,5,5h14c2.757,0,5-2.243,5-5V5c0-2.757-2.243-5-5-5Zm3,19c0,1.654-1.346,3-3,3H5c-1.654,0-3-1.346-3-3V5c0-1.654,1.346-3,3-3h14c1.654,0,3,1.346,3,3v14Zm-4.232-7.552c.309,.305,.309,.799,0,1.104l-4.418,4.361c-.498,.492-1.35,.143-1.35-.552v-3.361H7c-.553,0-1-.448-1-1s.447-1,1-1h5v-3.361c0-.695,.852-1.044,1.35-.552l4.418,4.361Z"/></svg>
