<?xml version="1.0" encoding="UTF-8"?>
<svg xmlns="http://www.w3.org/2000/svg" id="Layer_1" data-name="Layer 1" viewBox="0 0 24 24" width="512" height="512"><path d="M21,12H12.021l-2.054-2.935c-.905-1.293-2.388-2.065-3.966-2.065h-.5c-1.93,0-3.5,1.57-3.5,3.5v1.684c-1.161,.414-2,1.514-2,2.816v4c0,2.757,2.243,5,5,5h14c2.757,0,5-2.243,5-5v-4c0-1.654-1.346-3-3-3Zm-12,2v8h-2V14h2Zm2,0h2v8h-2V14Zm4,0h2v8h-2V14ZM5.5,9h.5c.926,0,1.796,.453,2.328,1.212l1.252,1.788H4v-1.5c0-.827,.673-1.5,1.5-1.5Zm-3.5,10v-4c0-.551,.449-1,1-1h2v8c-1.654,0-3-1.346-3-3Zm20,0c0,1.654-1.346,3-3,3V14h2c.551,0,1,.449,1,1v4ZM3,2.5C3,1.119,4.119,0,5.5,0s2.5,1.119,2.5,2.5-1.119,2.5-2.5,2.5-2.5-1.119-2.5-2.5Zm16-1.328v-.169c-.002-.552,.444-1.001,.997-1.003h.003c.551,0,.999,.446,1,.997v.172c0,.638,.258,1.261,.708,1.71,.833,.833,1.293,1.941,1.293,3.121,0,.552-.448,1-1,1s-1-.448-1-1c0-.645-.251-1.251-.707-1.707-.834-.834-1.293-1.942-1.293-3.122Zm-2.707,3.814c-.834-.834-1.293-1.942-1.293-3.122v-.864c0-.552,.448-1,1-1s1,.448,1,1v.864c0,.635,.258,1.258,.707,1.707,.833,.833,1.293,1.941,1.293,3.121v.308c0,.552-.448,1-1,1s-1-.448-1-1v-.308c0-.645-.251-1.251-.707-1.707Z"/></svg>
