<?xml version="1.0" encoding="UTF-8"?>
<svg xmlns="http://www.w3.org/2000/svg" id="Layer_1" data-name="Layer 1" viewBox="0 0 24 24" width="512" height="512"><path d="M15,19c0,.552-.447,1-1,1H5C2.244,20,0,17.757,0,15v-6C0,8.152,.217,7.314,.625,6.577c.269-.482,.877-.655,1.36-.389,.483,.268,.657,.877,.389,1.36-.245,.441-.374,.943-.374,1.452v6c0,1.654,1.346,3,3,3H14c.553,0,1,.448,1,1Zm3.637-2.125c-.033,.081-.08,.151-.129,.218l5.2,5.2c.391,.391,.391,1.023,0,1.414-.195,.195-.451,.293-.707,.293s-.512-.098-.707-.293L4.294,5.707h0L.293,1.707C-.097,1.316-.097,.684,.293,.293S1.317-.098,1.708,.293l3.707,3.707H14c2.618,0,4.748,2.03,4.959,4.594l1.757-1.772c.034-.034,.07-.066,.109-.096,.604-.454,1.399-.526,2.078-.188,.677,.338,1.097,1.018,1.097,1.775v7.319c0,.757-.42,1.437-1.097,1.775-.283,.141-.587,.211-.889,.211-.421,0-.837-.135-1.189-.399-.037-.028-.073-.059-.106-.092l-1.754-1.752c-.038,.516-.134,1.022-.328,1.501Zm.363-4.292l3.026,3.022-.026-7.238-3,3.027v1.189Zm-2-3.583c0-1.654-1.346-3-3-3H7.414l9.535,9.535c.031-.175,.051-.353,.051-.535v-6Z"/></svg>
