<?xml version="1.0" encoding="UTF-8"?>
<svg xmlns="http://www.w3.org/2000/svg" id="Layer_1" data-name="Layer 1" viewBox="0 0 24 24" width="512" height="512"><path d="M9.637,11.851L.653,15.104c-.321,.117-.561,.389-.636,.723-.074,.334,.027,.683,.27,.924l2.793,2.793L.3,22.325c-.391,.391-.391,1.023,0,1.414,.195,.195,.451,.293,.707,.293s.512-.098,.707-.293l2.78-2.78,2.793,2.793c.189,.189,.444,.293,.707,.293,.072,0,.146-.008,.217-.024,.334-.074,.607-.314,.724-.636l3.254-8.984,.006-.017c.249-.728,.065-1.518-.479-2.062-.543-.543-1.331-.727-2.077-.472Zm-2.048,9.375l-4.777-4.777,7.491-2.718-2.714,7.495ZM24.007,10.032c0,5.514-4.486,10-10,10-.553,0-1-.448-1-1s.447-1,1-1c4.411,0,8-3.589,8-8S18.418,2.032,14.007,2.032,6.007,5.621,6.007,10.032c0,.552-.447,1-1,1s-1-.448-1-1C4.007,4.518,8.493,.032,14.007,.032s10,4.486,10,10Zm-6,0c0-2.206-1.794-4-4-4-1.623,0-3.074,.969-3.696,2.468-.213,.51-.798,.751-1.308,.54s-.752-.797-.54-1.307c.934-2.249,3.109-3.701,5.544-3.701,3.309,0,6,2.691,6,6,0,2.437-1.454,4.613-3.705,5.545-.125,.052-.255,.077-.383,.077-.393,0-.765-.233-.924-.618-.211-.51,.031-1.095,.541-1.306,1.501-.622,2.471-2.073,2.471-3.697Z"/></svg>
