<?xml version="1.0" encoding="UTF-8"?>
<svg xmlns="http://www.w3.org/2000/svg" id="Layer_1" data-name="Layer 1" viewBox="0 0 24 24" width="512" height="512"><path d="M21.784,16h1.216c.552,0,1-.448,1-1v-6c0-.552-.448-1-1-1h-1.101c-.465-2.279-2.485-4-4.899-4H5.414L1.707,.293C1.316-.098,.683-.098,.292,.293S-.098,1.316,.292,1.707L22.293,23.707c.195,.195,.451,.293,.707,.293s.512-.098,.707-.293c.391-.391,.391-1.023,0-1.414l-3.582-3.582c.78-.72,1.364-1.679,1.659-2.711ZM7.414,6h9.586c1.654,0,3,1.346,3,3v5.5c0,1.034-.512,2.111-1.291,2.796L7.414,6Zm6.586,13c0,.552-.447,1-1,1H5c-2.757,0-5-2.243-5-5v-6c0-.879,.231-1.744,.669-2.5,.277-.479,.888-.642,1.366-.365,.479,.277,.642,.888,.365,1.366-.262,.454-.401,.972-.401,1.5v6c0,1.654,1.346,3,3,3H13c.553,0,1,.448,1,1Z"/></svg>
