<?xml version="1.0" encoding="UTF-8"?>
<svg xmlns="http://www.w3.org/2000/svg" id="Layer_1" data-name="Layer 1" viewBox="0 0 24 24" width="512" height="512"><path d="M19,24H1c-.55,0-1-.45-1-1s.45-1,1-1H19c1.65,0,3-1.35,3-3V1c0-.55,.45-1,1-1s1,.45,1,1V19c0,2.76-2.24,5-5,5ZM0,6.5c0,.83,.67,1.5,1.5,1.5s1.5-.67,1.5-1.5-.67-1.5-1.5-1.5S0,5.67,0,6.5ZM0,17.5c0,.83,.67,1.5,1.5,1.5s1.5-.67,1.5-1.5-.67-1.5-1.5-1.5S0,16.67,0,17.5ZM0,1.5c0,.83,.67,1.5,1.5,1.5s1.5-.67,1.5-1.5S2.33,0,1.5,0,0,.67,0,1.5Zm5,0c0,.83,.67,1.5,1.5,1.5s1.5-.67,1.5-1.5S7.33,0,6.5,0s-1.5,.67-1.5,1.5Zm5.5,0c0,.83,.67,1.5,1.5,1.5s1.5-.67,1.5-1.5S12.83,0,12,0s-1.5,.67-1.5,1.5Zm5.5,0c0,.83,.67,1.5,1.5,1.5s1.5-.67,1.5-1.5S18.33,0,17.5,0s-1.5,.67-1.5,1.5ZM0,12c0,.83,.67,1.5,1.5,1.5s1.5-.67,1.5-1.5-.67-1.5-1.5-1.5S0,11.17,0,12Z"/></svg>
