<?xml version="1.0" encoding="UTF-8"?>
<svg xmlns="http://www.w3.org/2000/svg" id="Layer_1" data-name="Layer 1" viewBox="0 0 24 24" width="512" height="512"><path d="M17,0H7C4.243,0,2,2.243,2,5v14c0,2.757,2.243,5,5,5h10c2.757,0,5-2.243,5-5V5c0-2.757-2.243-5-5-5Zm3,19c0,1.654-1.346,3-3,3H7c-1.654,0-3-1.346-3-3V5c0-1.654,1.346-3,3-3h10c1.654,0,3,1.346,3,3v14ZM14,4h-4c-1.637,0-2.971,1.318-2.999,2.948,0,.017-.001,11.052-.001,11.052,0,1.103,.897,2,2,2h6c1.103,0,2-.897,2-2,0,0,0-11.035-.001-11.052-.028-1.63-1.362-2.948-2.999-2.948Zm-5,4h6v3h-6v-3Zm0,10v-5h6.001v5h-6.001Z"/></svg>
