<?xml version="1.0" encoding="UTF-8"?>
<svg xmlns="http://www.w3.org/2000/svg" id="Layer_1" data-name="Layer 1" viewBox="0 0 24 24" width="512" height="512"><path d="M19,0H5C2.243,0,0,2.243,0,5v14c0,2.757,2.243,5,5,5h14c2.757,0,5-2.243,5-5V5c0-2.757-2.243-5-5-5Zm3,19c0,1.654-1.346,3-3,3H5c-1.654,0-3-1.346-3-3V5c0-1.654,1.346-3,3-3h14c1.654,0,3,1.346,3,3v14Zm-6-12v10c0,.552-.447,1-1,1s-1-.448-1-1v-3h-3c-1.654,0-3-1.346-3-3V7c0-.552,.447-1,1-1s1,.448,1,1v4c0,.551,.448,1,1,1h3V7c0-.552,.447-1,1-1s1,.448,1,1Z"/></svg>
