<?xml version="1.0" encoding="UTF-8"?>
<svg xmlns="http://www.w3.org/2000/svg" id="Layer_1" data-name="Layer 1" viewBox="0 0 24 24" width="512" height="512"><path d="M23.047,17.197l-4.318,3.935c-2.031,1.85-4.662,2.868-7.408,2.868H1c-.553,0-1-.447-1-1s.447-1,1-1H11.32c2.247,0,4.399-.833,6.061-2.347l4.284-3.902c.347-.348,.43-.944,.156-1.324-.18-.249-.442-.399-.74-.424-.291-.019-.58,.082-.788,.29l-4.234,3.886c-.538,.508-1.262,.821-2.059,.821h-5c-.553,0-1-.447-1-1s.447-1,1-1h5c.252,0,1-.115,1-1,0-.552-.448-1-1-1h-4.912c-2.403,0-4.664,.937-6.364,2.636l-.998,1.053c-.197,.207-.461,.312-.726,.312-.247,0-.495-.091-.688-.274-.4-.381-.417-1.014-.037-1.414l1.017-1.071c2.097-2.096,4.859-3.24,7.797-3.24h4.912c1.236,0,2.3,.752,2.759,1.822l2.151-1.974c.591-.593,1.456-.915,2.331-.839,.88,.07,1.683,.525,2.203,1.248,.844,1.174,.673,2.866-.397,3.939ZM4.006,2.162c-.042-.581,.172-1.153,.588-1.568C5.009,.178,5.581-.04,6.163,.006c2.877,.203,4.785,1.195,5.837,3.112C13.053,1.201,14.96,.209,17.838,.006c.591-.048,1.154,.172,1.568,.588,.416,.415,.63,.987,.588,1.569-.311,4.413-2.48,6.545-6.994,6.808v1.028c0,.553-.447,1-1,1s-1-.447-1-1v-1.028c-4.514-.264-6.683-2.395-6.994-6.809ZM13.032,6.968c3.361-.224,4.734-1.637,4.968-4.946-3.329,.214-4.744,1.585-4.968,4.946ZM6.021,2c.214,3.329,1.585,4.744,4.946,4.968-.224-3.361-1.637-4.734-4.946-4.968Z"/></svg>
