<?xml version="1.0" encoding="UTF-8"?>
<svg xmlns="http://www.w3.org/2000/svg" id="Layer_1" data-name="Layer 1" viewBox="0 0 24 24" width="512" height="512"><path d="M11.953,17.993c-1.557-.074-3.021-.722-4.121-1.823-.23-.23-.446-.482-.641-.748-.325-.446-.227-1.072,.22-1.397,.446-.325,1.071-.227,1.397,.219,.129,.178,.274,.349,.437,.511,.749,.75,1.744,1.19,2.802,1.24,.552,.026,.979,.495,.952,1.046-.025,.536-.468,.953-.998,.953h-.048ZM1.831,13.331C.65,14.511,0,16.081,0,17.75c0,1.669,.65,3.239,1.831,4.419,1.18,1.181,2.749,1.831,4.419,1.831s3.239-.65,4.419-1.831l1.058-1.058c.391-.391,.391-1.023,0-1.414s-1.023-.391-1.414,0l-1.058,1.058c-.803,.803-1.87,1.245-3.005,1.245s-2.202-.442-3.005-1.245-1.245-1.87-1.245-3.005,.442-2.203,1.245-3.005l3.037-3.038c.391-.391,.391-1.024,0-1.414-.391-.391-1.023-.391-1.414,0l-3.037,3.038ZM.293,1.707L22.293,23.707c.195,.195,.451,.293,.707,.293s.512-.098,.707-.293c.391-.391,.391-1.023,0-1.414l-6.581-6.581,5.043-5.043c1.181-1.18,1.831-2.75,1.831-4.419,0-1.669-.65-3.239-1.831-4.419C20.989,.65,19.42,0,17.75,0s-3.239,.65-4.419,1.831l-1.058,1.058c-.391,.391-.391,1.023,0,1.414s1.023,.391,1.414,0l1.058-1.058c.803-.803,1.87-1.245,3.005-1.245s2.202,.442,3.005,1.245,1.245,1.87,1.245,3.005-.442,2.203-1.245,3.005l-5.043,5.043-5.852-5.852c1.612-.808,3.575-.52,4.894,.798,.162,.162,.308,.333,.437,.511,.196,.269,.501,.411,.81,.411,.204,0,.41-.063,.588-.192,.446-.325,.545-.951,.22-1.397-.194-.266-.41-.518-.641-.748-2.095-2.095-5.297-2.408-7.76-.835L1.707,.293c-.391-.391-1.023-.391-1.414,0s-.391,1.023,0,1.414Z"/></svg>
