<?xml version="1.0" encoding="UTF-8"?>
<svg xmlns="http://www.w3.org/2000/svg" id="Layer_1" data-name="Layer 1" viewBox="0 0 24 24" width="512" height="512"><path d="M24,16v1c0,2.757-2.243,5-5,5h-1c-.552,0-1-.447-1-1s.448-1,1-1h1c1.654,0,3-1.346,3-3v-1c0-.553,.448-1,1-1s1,.447,1,1Zm0-9v2c0,.553-.448,1-1,1s-1-.447-1-1H7v11h4c.552,0,1,.447,1,1s-.448,1-1,1H5c-2.757,0-5-2.243-5-5V7C0,4.243,2.243,2,5,2h14c2.757,0,5,2.243,5,5ZM2,7h3v-3c-1.654,0-3,1.346-3,3Zm3,2H2v8c0,1.654,1.346,3,3,3V9Zm17-2c0-1.654-1.346-3-3-3H7v3h15Zm-7.127,11h2.127c1.654,0,3-1.346,3-3v-2.127l.293,.293c.195,.195,.451,.293,.707,.293s.512-.098,.707-.293c.391-.391,.391-1.023,0-1.414l-1.075-1.076c-.871-.871-2.391-.871-3.263,0l-1.076,1.076c-.391,.391-.391,1.023,0,1.414s1.024,.391,1.414,0l.293-.293v2.127c0,.552-.449,1-1,1h-2.127l.293-.293c.391-.391,.391-1.023,0-1.414s-1.024-.391-1.414,0l-1.075,1.076c-.436,.435-.676,1.015-.676,1.631s.24,1.196,.676,1.631l1.076,1.076c.195,.195,.451,.293,.707,.293s.512-.098,.707-.293c.391-.391,.391-1.023,0-1.414l-.293-.293Z"/></svg>
