<?xml version="1.0" encoding="UTF-8"?>
<svg xmlns="http://www.w3.org/2000/svg" id="Layer_1" data-name="Layer 1" viewBox="0 0 24 24" width="512" height="512"><g><path d="M21,24a4.375,4.375,0,0,1-3-1.226,4.334,4.334,0,0,1-6,0,4.334,4.334,0,0,1-6,0,4.184,4.184,0,0,1-5.668.2,1,1,0,0,1,1.336-1.489,2.2,2.2,0,0,0,3.387-.816,1,1,0,0,1,1.89,0,2.278,2.278,0,0,0,4.11,0,1.006,1.006,0,0,1,1.89,0,2.278,2.278,0,0,0,4.11,0,1.007,1.007,0,0,1,1.89,0,2.2,2.2,0,0,0,3.388.817,1,1,0,1,1,1.335,1.489A3.989,3.989,0,0,1,21,24Z"/><path d="M21,19a4.375,4.375,0,0,1-3-1.226,4.334,4.334,0,0,1-6,0,4.334,4.334,0,0,1-6,0,4.184,4.184,0,0,1-5.668.2,1,1,0,0,1,1.336-1.489,2.2,2.2,0,0,0,3.387-.816,1.007,1.007,0,0,1,1.89,0,2.278,2.278,0,0,0,4.11,0,1.006,1.006,0,0,1,1.89,0,2.278,2.278,0,0,0,4.11,0,1,1,0,0,1,1.89,0,2.2,2.2,0,0,0,3.388.817,1,1,0,1,1,1.335,1.489A3.989,3.989,0,0,1,21,19Z"/><path d="M15.705,3.293l-3-3a1,1,0,0,0-1.414,0l-3,3A1,1,0,0,0,9.705,4.708L11,3.415V11a1,1,0,0,0,2,0V3.415l1.3,1.293a1,1,0,0,0,1.413-1.415h0Z"/></g></svg>
