<?xml version="1.0" encoding="UTF-8"?>
<svg xmlns="http://www.w3.org/2000/svg" id="Layer_1" data-name="Layer 1" viewBox="0 0 24 24" width="512" height="512"><path d="M20,10H4C1.79,10,0,8.21,0,6v-2C0,1.79,1.79,0,4,0H20c2.21,0,4,1.79,4,4v2c0,2.21-1.79,4-4,4ZM4,2c-1.1,0-2,.9-2,2v2c0,1.1,.9,2,2,2H20c1.1,0,2-.9,2-2v-2c0-1.1-.9-2-2-2H4ZM20,24H4c-2.21,0-4-1.79-4-4v-2c0-2.21,1.79-4,4-4H20c2.21,0,4,1.79,4,4v2c0,2.21-1.79,4-4,4ZM4,16c-1.1,0-2,.9-2,2v2c0,1.1,.9,2,2,2H20c1.1,0,2-.9,2-2v-2c0-1.1-.9-2-2-2H4Z"/></svg>
