<?xml version="1.0" encoding="UTF-8"?>
<svg xmlns="http://www.w3.org/2000/svg" id="Layer_1" data-name="Layer 1" viewBox="0 0 24 24" width="512" height="512"><path d="M16,18h-4c-.552,0-1-.447-1-1s.448-1,1-1h4c.552,0,1,.447,1,1s-.448,1-1,1Zm5,1V7c0-2.757-2.243-5-5-5h-.171c-.413-1.164-1.525-2-2.829-2h-2c-1.304,0-2.416,.836-2.829,2h-.171c-2.757,0-5,2.243-5,5v12c0,2.757,2.243,5,5,5h8c2.757,0,5-2.243,5-5ZM9,4c.552,0,1-.447,1-1s.449-1,1-1h2c.551,0,1,.448,1,1s.448,1,1,1h1c1.654,0,3,1.346,3,3v12c0,1.654-1.346,3-3,3H8c-1.654,0-3-1.346-3-3V7c0-1.654,1.346-3,3-3h1Zm-1,12c-.552,0-1,.448-1,1s.448,1,1,1,1-.448,1-1-.448-1-1-1Zm9-3c0-.553-.448-1-1-1h-4c-.552,0-1,.447-1,1s.448,1,1,1h4c.552,0,1-.447,1-1Zm-9-1c-.552,0-1,.448-1,1s.448,1,1,1,1-.448,1-1-.448-1-1-1Zm9-3c0-.553-.448-1-1-1h-4c-.552,0-1,.447-1,1s.448,1,1,1h4c.552,0,1-.447,1-1Zm-9-1c-.552,0-1,.448-1,1s.448,1,1,1,1-.448,1-1-.448-1-1-1Z"/></svg>
