<?xml version="1.0" encoding="UTF-8"?>
<svg xmlns="http://www.w3.org/2000/svg" id="Layer_1" data-name="Layer 1" viewBox="0 0 24 24" width="512" height="512"><path d="M7,0h-3C1.794,0,0,1.794,0,4v3c0,2.206,1.794,4,4,4h3c2.206,0,4-1.794,4-4V4C11,1.794,9.206,0,7,0Zm2,7c0,1.103-.897,2-2,2h-3c-1.103,0-2-.897-2-2V4c0-1.103,.897-2,2-2h3c1.103,0,2,.897,2,2v3Zm-2-2v1c0,.552-.448,1-1,1h-1c-.552,0-1-.448-1-1v-1c0-.552,.448-1,1-1h1c.552,0,1,.448,1,1Zm10,6h3c2.206,0,4-1.794,4-4V4C24,1.794,22.206,0,20,0h-3C14.794,0,13,1.794,13,4v3c0,2.206,1.794,4,4,4Zm-2-7c0-1.103,.897-2,2-2h3c1.103,0,2,.897,2,2v3c0,1.103-.897,2-2,2h-3c-1.103,0-2-.897-2-2V4Zm2,2v-1c0-.552,.448-1,1-1h1c.552,0,1,.448,1,1v1c0,.552-.448,1-1,1h-1c-.552,0-1-.448-1-1ZM7,13h-3c-2.206,0-4,1.794-4,4v3c0,2.206,1.794,4,4,4h3c2.206,0,4-1.794,4-4v-3c0-2.206-1.794-4-4-4Zm2,7c0,1.103-.897,2-2,2h-3c-1.103,0-2-.897-2-2v-3c0-1.103,.897-2,2-2h3c1.103,0,2,.897,2,2v3Zm-2-2v1c0,.552-.448,1-1,1h-1c-.552,0-1-.448-1-1v-1c0-.552,.448-1,1-1h1c.552,0,1,.448,1,1Zm10-3.5v1c0,.828-.672,1.5-1.5,1.5h-1c-.828,0-1.5-.672-1.5-1.5v-1c0-.828,.672-1.5,1.5-1.5h1c.828,0,1.5,.672,1.5,1.5Zm3,4h0c0,.828-.672,1.5-1.5,1.5h0c-.828,0-1.5-.672-1.5-1.5h0c0-.828,.672-1.5,1.5-1.5h0c.828,0,1.5,.672,1.5,1.5Zm-3,3v1c0,.828-.672,1.5-1.5,1.5h-1c-.828,0-1.5-.672-1.5-1.5v-1c0-.828,.672-1.5,1.5-1.5h1c.828,0,1.5,.672,1.5,1.5Zm7-7v1c0,.828-.672,1.5-1.5,1.5h-1c-.828,0-1.5-.672-1.5-1.5v-1c0-.828,.672-1.5,1.5-1.5h1c.828,0,1.5,.672,1.5,1.5Z"/></svg>
