<?xml version="1.0" encoding="UTF-8"?>
<svg xmlns="http://www.w3.org/2000/svg" id="Layer_1" data-name="Layer 1" viewBox="0 0 24 24" width="512" height="512"><path d="M23.621,6.836l-1.352-2.826c-.349-.73-.99-1.296-1.758-1.552L14.214,.359c-1.428-.476-3-.476-4.428,0L3.49,2.458c-.769,.256-1.41,.823-1.759,1.554L.445,6.719c-.477,.792-.567,1.742-.247,2.609,.309,.84,.964,1.49,1.802,1.796l-.005,6.314c-.002,2.158,1.372,4.066,3.418,4.748l4.365,1.455c.714,.238,1.464,.357,2.214,.357s1.5-.119,2.214-.357l4.369-1.457c2.043-.681,3.417-2.585,3.419-4.739l.005-6.32c.846-.297,1.508-.946,1.819-1.79,.317-.858,.228-1.799-.198-2.499ZM10.419,2.257c1.02-.34,2.143-.34,3.162,0l4.248,1.416-5.822,1.95-5.834-1.95,4.246-1.415ZM2.204,7.666l1.327-2.782c.048,.025,7.057,2.373,7.057,2.373l-1.621,3.258c-.239,.398-.735,.582-1.173,.434l-5.081-1.693c-.297-.099-.53-.325-.639-.619-.109-.294-.078-.616,.129-.97Zm3.841,12.623c-1.228-.409-2.052-1.554-2.051-2.848l.005-5.648,3.162,1.054c1.344,.448,2.792-.087,3.559-1.371l.278-.557-.005,10.981c-.197-.04-.391-.091-.581-.155l-4.366-1.455Zm11.897-.001l-4.37,1.457c-.19,.063-.384,.115-.581,.155l.005-10.995,.319,.64c.556,.928,1.532,1.459,2.561,1.459,.319,0,.643-.051,.96-.157l3.161-1.053-.005,5.651c0,1.292-.826,2.435-2.052,2.844Zm4-11.644c-.105,.285-.331,.504-.619,.6l-5.118,1.706c-.438,.147-.934-.035-1.136-.365l-1.655-3.323s7.006-2.351,7.054-2.377l1.393,2.901c.157,.261,.186,.574,.081,.859Z"/></svg>
