<?xml version="1.0" encoding="UTF-8"?>
<svg xmlns="http://www.w3.org/2000/svg" id="Layer_1" data-name="Layer 1" viewBox="0 0 24 24" width="512" height="512"><path d="M9,11c-.552,0-1-.447-1-1,0-1.308,1.038-1.879,1.481-2.123,.29-.159,.595-.535,.502-1.066-.069-.392-.402-.725-.793-.793-.306-.056-.602,.022-.832,.216-.228,.19-.358,.47-.358,.767,0,.553-.448,1-1,1s-1-.447-1-1c0-.889,.391-1.727,1.072-2.299,.681-.572,1.577-.814,2.463-.653,1.209,.211,2.204,1.205,2.417,2.417,.223,1.272-.382,2.543-1.506,3.164-.447,.246-.447,.318-.447,.371,0,.553-.448,1-1,1Zm0,1c-.69,0-1.25,.56-1.25,1.25s.56,1.25,1.25,1.25,1.25-.56,1.25-1.25-.56-1.25-1.25-1.25Zm10.996-2.92c-.006,.769-.091,1.518-.248,2.242,1.371,1.101,2.252,2.787,2.252,4.678v5c0,.552-.448,1-1,1h-5c-1.891,0-3.577-.881-4.678-2.252-.724,.156-1.473,.242-2.242,.248,1.385,2.389,3.965,4.004,6.92,4.004h5c1.657,0,3-1.343,3-3v-5c0-2.955-1.615-5.535-4.004-6.92Zm-2.019,.571c.185-2.613-.768-5.17-2.613-7.016S10.964-.167,8.349,.023C3.823,.343,0,4.589,0,9.296v5.038c0,2.021,1.642,3.666,3.661,3.666h4.477c5.187,0,9.509-3.667,9.839-8.349Zm-4.027-5.601c1.436,1.435,2.176,3.425,2.033,5.46-.253,3.578-3.772,6.489-7.845,6.489H3.661c-.916,0-1.661-.747-1.661-1.666v-5.038c0-3.696,2.972-7.029,6.49-7.278,.167-.012,.333-.018,.499-.018,1.858,0,3.644,.732,4.961,2.051Z"/></svg>
