<?xml version="1.0" encoding="UTF-8"?>
<svg xmlns="http://www.w3.org/2000/svg" id="Layer_1" data-name="Layer 1" viewBox="0 0 24 24" width="512" height="512"><path d="M21,6H5c-.859,0-1.672-.372-2.235-.999,.55-.614,1.349-1.001,2.235-1.001H23c.553,0,1-.448,1-1s-.447-1-1-1H5C2.239,2,0,4.239,0,7v10c0,2.761,2.239,5,5,5H21c1.657,0,3-1.343,3-3V9c0-1.657-1.343-3-3-3Zm1,13c0,.551-.448,1-1,1H5c-1.654,0-3-1.346-3-3V6.998c.854,.639,1.904,1.002,3,1.002H21c.552,0,1,.449,1,1v10Zm-2-5c0,.552-.448,1-1,1s-1-.448-1-1,.448-1,1-1,1,.448,1,1Z"/></svg>
