<?xml version="1.0" encoding="UTF-8"?>
<svg xmlns="http://www.w3.org/2000/svg" id="Layer_1" data-name="Layer 1" viewBox="0 0 24 24" width="512" height="512"><path d="M12,10c1.1,0,2,.9,2,2s-.9,2-2,2-2-.9-2-2,.9-2,2-2Zm8.49,10.49c4.68-4.68,4.68-12.29,0-16.97-.39-.39-1.02-.39-1.41,0s-.39,1.02,0,1.41c3.9,3.9,3.9,10.24,0,14.14-.39,.39-.39,1.02,0,1.41,.2,.2,.45,.29,.71,.29s.51-.1,.71-.29Zm-3.54-3.54c1.32-1.32,2.05-3.08,2.05-4.95s-.73-3.63-2.05-4.95c-.39-.39-1.02-.39-1.41,0s-.39,1.02,0,1.41c.94,.94,1.46,2.2,1.46,3.54s-.52,2.59-1.46,3.54c-.39,.39-.39,1.02,0,1.41,.2,.2,.45,.29,.71,.29s.51-.1,.71-.29Zm-12.02,3.54c.39-.39,.39-1.02,0-1.41-3.9-3.9-3.9-10.24,0-14.14,.39-.39,.39-1.02,0-1.41s-1.02-.39-1.41,0C-1.16,8.19-1.16,15.81,3.51,20.49c.2,.2,.45,.29,.71,.29s.51-.1,.71-.29Zm3.54-3.54c.39-.39,.39-1.02,0-1.41-1.95-1.95-1.95-5.12,0-7.07,.39-.39,.39-1.02,0-1.41s-1.02-.39-1.41,0c-2.73,2.73-2.73,7.17,0,9.9,.2,.2,.45,.29,.71,.29s.51-.1,.71-.29Z"/></svg>
