<?xml version="1.0" encoding="UTF-8"?>
<svg xmlns="http://www.w3.org/2000/svg" id="Layer_1" data-name="Layer 1" viewBox="0 0 24 24" width="512" height="512"><path d="M11,9.5v3.5c0,2.206-1.794,4-4,4-.552,0-1-.447-1-1s.448-1,1-1c1.103,0,2-.897,2-2h-1.5c-.828,0-1.5-.672-1.5-1.5v-1.5c0-1.105,.895-2,2-2h1.5c.828,0,1.5,.672,1.5,1.5Zm5.5-1.5h-1.5c-1.105,0-2,.895-2,2v1.5c0,.828,.672,1.5,1.5,1.5h1.5c0,1.103-.897,2-2,2-.553,0-1,.447-1,1s.447,1,1,1c2.206,0,4-1.794,4-4v-3.5c0-.828-.672-1.5-1.5-1.5Zm7.5,4.34v6.66c0,2.757-2.243,5-5,5h-5.917C6.082,24,.47,19.208,.03,12.854-.211,9.378,1.057,5.977,3.509,3.521,5.96,1.066,9.364-.202,12.836,.028c6.26,.426,11.164,5.833,11.164,12.312Zm-2,0c0-5.431-4.085-9.962-9.299-10.315-.229-.016-.458-.023-.685-.023-2.657,0-5.209,1.049-7.092,2.934-2.043,2.046-3.1,4.882-2.899,7.781,.373,5.38,5.023,9.284,11.058,9.284h5.917c1.654,0,3-1.346,3-3v-6.66Z"/></svg>
