<?xml version="1.0" encoding="UTF-8"?>
<svg xmlns="http://www.w3.org/2000/svg" id="Layer_1" data-name="Layer 1" viewBox="0 0 24 24" width="512" height="512"><path d="M12.707,8.293c.391,.391,.391,1.023,0,1.414l-4.293,4.293h2.586c.552,0,1,.448,1,1s-.448,1-1,1h-3c-1.654,0-3-1.346-3-3v-3c0-.552,.448-1,1-1s1,.448,1,1v2.586l4.293-4.293c.391-.391,1.023-.391,1.414,0Zm11.293,.02v7.319c0,.756-.42,1.437-1.097,1.775-.283,.141-.587,.211-.889,.211-.42,0-.837-.135-1.189-.399-.038-.028-.073-.059-.106-.092l-1.756-1.754c-.194,2.581-2.333,4.628-4.962,4.628H5c-2.757,0-5-2.243-5-5v-6c0-2.757,2.243-5,5-5H14c2.618,0,4.748,2.029,4.959,4.594l1.756-1.772c.035-.035,.071-.066,.11-.096,.605-.454,1.401-.525,2.078-.188,.676,.338,1.097,1.019,1.097,1.775Zm-7,.687c0-1.654-1.346-3-3-3H5c-1.654,0-3,1.346-3,3v6c0,1.654,1.346,3,3,3H14c1.654,0,3-1.346,3-3v-6Zm5.025,6.605l-.025-7.239-3,3.028v1.189l3.025,3.022Z"/></svg>
