<?xml version="1.0" encoding="UTF-8"?>
<svg xmlns="http://www.w3.org/2000/svg" id="Layer_1" data-name="Layer 1" viewBox="0 0 24 24" width="512" height="512"><path d="M5,4h.18c.41,1.16,1.51,2,2.82,2h2c1.3,0,2.4-.84,2.82-2h.18c1.37,0,2.56,.92,2.91,2.25,.14,.54,.68,.86,1.22,.72,.53-.14,.86-.68,.72-1.22-.57-2.21-2.56-3.75-4.84-3.75h-.17c-.41-1.16-1.52-2-2.83-2h-2c-1.3,0-2.42,.84-2.83,2h-.17C2.24,2,0,4.24,0,7v12c0,2.76,2.24,5,5,5h3c.55,0,1-.45,1-1s-.45-1-1-1h-3c-1.65,0-3-1.35-3-3V7c0-1.65,1.35-3,3-3Zm3-2h2c.55,0,1,.45,1,1s-.45,1-1,1h-2c-.55,0-1-.45-1-1s.45-1,1-1Zm12,7h-5c-2.21,0-4,1.79-4,4v7c0,2.21,1.79,4,4,4h5c2.21,0,4-1.79,4-4v-7c0-2.21-1.79-4-4-4Zm2,11c0,1.1-.9,2-2,2h-5c-1.1,0-2-.9-2-2v-7c0-1.1,.9-2,2-2h5c1.1,0,2,.9,2,2v7Zm-2-6c0,.55-.45,1-1,1h-3c-.55,0-1-.45-1-1s.45-1,1-1h3c.55,0,1,.45,1,1Zm0,4c0,.55-.45,1-1,1h-3c-.55,0-1-.45-1-1s.45-1,1-1h3c.55,0,1,.45,1,1Z"/></svg>
