<?xml version="1.0" encoding="UTF-8"?>
<svg xmlns="http://www.w3.org/2000/svg" id="Layer_1" data-name="Layer 1" viewBox="0 0 24 24" width="512" height="512"><path d="M19,2V1c0-.552-.447-1-1-1s-1,.448-1,1v1h-6V1c0-.552-.447-1-1-1s-1,.448-1,1v1c-2.757,0-5,2.243-5,5V15c0,2.757,2.243,5,5,5h10c2.757,0,5-2.243,5-5V7c0-2.757-2.243-5-5-5Zm3,13c0,1.654-1.346,3-3,3H9c-1.654,0-3-1.346-3-3v-6H22v6ZM6,7c0-1.654,1.346-3,3-3h10c1.654,0,3,1.346,3,3H6Zm14,16c0,.552-.447,1-1,1H5c-2.757,0-5-2.243-5-5V8c0-.552,.447-1,1-1s1,.448,1,1v11c0,1.654,1.346,3,3,3h14c.553,0,1,.448,1,1Z"/></svg>
