<?xml version="1.0" encoding="UTF-8"?>
<svg xmlns="http://www.w3.org/2000/svg" id="Layer_1" data-name="Layer 1" viewBox="0 0 24 24" width="512" height="512"><path d="M2,3.414v6.586c0,.552-.448,1-1,1s-1-.448-1-1V3C0,1.346,1.346,0,3,0h7c.552,0,1,.448,1,1s-.448,1-1,1H3.414L15.707,14.293c.391,.391,.391,1.023,0,1.414-.195,.195-.451,.293-.707,.293s-.512-.098-.707-.293L2,3.414Zm12,.586c-1.143,0-2.264,.191-3.333,.569-.521,.184-.793,.755-.609,1.276,.145,.41,.531,.667,.943,.667,.11,0,.223-.019,.333-.058,.854-.302,1.751-.455,2.667-.455,4.411,0,8,3.589,8,8s-3.589,8-8,8-8-3.589-8-8c0-.915,.153-1.812,.455-2.667,.184-.521-.089-1.092-.609-1.276-.523-.185-1.093,.088-1.276,.609-.378,1.069-.569,2.19-.569,3.333,0,5.514,4.486,10,10,10s10-4.486,10-10S19.514,4,14,4Z"/></svg>
