<?xml version="1.0" encoding="UTF-8"?>
<svg xmlns="http://www.w3.org/2000/svg" id="Layer_1" data-name="Layer 1" viewBox="0 0 24 24" width="512" height="512"><path d="M12,0C5.925,0,1,4.925,1,11v9.882c0,1.451,.978,2.784,2.402,3.06,1.915,.372,3.598-1.092,3.598-2.942V11.251c0-2.814,2.174-5.169,4.846-5.249,1.511-.038,2.933,.571,3.939,1.73,.826,.951,1.216,2.208,1.216,3.468v9.681c0,1.451,.978,2.784,2.402,3.06,1.915,.372,3.598-1.092,3.598-2.942V11C23,4.925,18.075,0,12,0ZM5,21c0,.551-.448,1-1,1s-1-.449-1-1v-1h2v1Zm0-3H3v-2h2v2Zm0-4H3v-2h2v2Zm.107-4H3.093c.125-.902,.375-1.764,.731-2.566l1.735,1.002c-.205,.497-.359,1.021-.452,1.564Zm1.459-3.292l-1.742-1.006c.528-.725,1.155-1.368,1.861-1.907l1.014,1.755c-.418,.341-.798,.729-1.133,1.157Zm4.434-2.634c-.552,.083-1.083,.234-1.587,.445l-1.01-1.75c.81-.366,1.682-.612,2.597-.714v2.019Zm3.6,.422c-.512-.205-1.048-.348-1.6-.426V2.053c.908,.099,1.785,.333,2.609,.695l-1.009,1.748Zm2.901,2.173c-.192-.242-.4-.474-.626-.693-.174-.169-.356-.328-.544-.477l1.008-1.746c.282,.209,.554,.435,.814,.679,.406,.381,.772,.791,1.095,1.227l-1.748,1.009Zm1.003,1.731l1.748-1.01c.36,.822,.594,1.7,.693,2.61h-2.016c-.078-.553-.221-1.089-.425-1.6Zm2.496,12.6c0,.551-.448,1-1,1s-1-.449-1-1v-1h2v1Zm0-3h-2v-2h2v2Zm0-4h-2v-2h2v2Zm-10-4v13c0,.552-.447,1-1,1s-1-.448-1-1V10c0-.552,.447-1,1-1s1,.448,1,1Zm4,0v13c0,.552-.447,1-1,1s-1-.448-1-1V10c0-.552,.447-1,1-1s1,.448,1,1Z"/></svg>
