<?xml version="1.0" encoding="UTF-8"?>
<svg xmlns="http://www.w3.org/2000/svg" id="Layer_1" data-name="Layer 1" viewBox="0 0 24 24" width="512" height="512"><path d="M15,10c0,.55-.45,1-1,1h-2v2c0,.55-.45,1-1,1s-1-.45-1-1v-2h-2c-.55,0-1-.45-1-1s.45-1,1-1h2v-2c0-.55,.45-1,1-1s1,.45,1,1v2h2c.55,0,1,.45,1,1Zm9,3c0,.97-.7,2-2,2h-.33l-.22,1.66c-.33,2.48-2.46,4.34-4.96,4.34h-.49c0,1.65-1.35,3-3,3H6c-1.65,0-3-1.35-3-3v-.97c0-.9-.26-1.73-.74-2.36C.58,15.48-.2,12.75,.05,9.98,.5,4.95,4.46,.79,9.45,.11c4.04-.56,7.91,1.06,10.35,4.31,1.27,1.57,4.2,7.16,4.2,8.58Zm-2,0c-.12-.9-2.47-5.74-3.78-7.35-1.76-2.34-4.38-3.65-7.22-3.65-.42,0-.85,.03-1.28,.09-4.08,.56-7.31,3.96-7.69,8.07-.21,2.27,.44,4.5,1.81,6.3,.74,.97,1.15,2.24,1.15,3.57v.97c0,.55,.45,1,1,1h7c.55,0,1-.45,1-1v-1c0-.55,.45-1,1-1h1.49c1.5,0,2.78-1.12,2.97-2.61l.33-2.52c.07-.5,.49-.87,.99-.87h1.2Z"/></svg>
