<?xml version="1.0" encoding="UTF-8"?>
<svg xmlns="http://www.w3.org/2000/svg" id="Layer_1" data-name="Layer 1" viewBox="0 0 24 24" width="512" height="512"><path d="M23,24H1c-.55,0-1-.45-1-1s.45-1,1-1H23c.55,0,1,.45,1,1s-.45,1-1,1Zm-8.23-5.14s6.35-6.75,6.35-6.75c.87-.87,1.12-2.11,.65-3.24-.47-1.13-1.52-1.84-2.75-1.85h-2.07s-.03-3.05-.03-3.05c0-2.19-1.78-3.97-3.97-3.97h-1.98c-2.19,0-3.97,1.78-3.97,3.98v3.02s-2.05,0-2.05,0c-1.23,0-2.28,.71-2.75,1.85-.47,1.13-.22,2.38,.63,3.22l6.33,6.8c.77,.77,1.79,1.16,2.81,1.16s2.03-.39,2.81-1.16Zm-6.77-9.86c.27,0,.52-.11,.71-.29,.19-.19,.29-.44,.29-.71V3.97c0-1.09,.88-1.97,1.97-1.97h1.98c1.09,0,1.97,.89,1.97,1.98l.03,4.05c0,.55,.45,.99,1,.99h3.05c.61,0,.85,.47,.9,.61,.06,.14,.22,.64-.24,1.09l-6.33,6.73c-.77,.76-2.01,.75-2.75,.01l-6.33-6.8c-.43-.43-.27-.93-.21-1.07,.06-.14,.3-.61,.9-.61h3.06Z"/></svg>
