<?xml version="1.0" encoding="UTF-8"?>
<svg xmlns="http://www.w3.org/2000/svg" id="Layer_1" data-name="Layer 1" viewBox="0 0 24 24" width="512" height="512"><path d="M23.704,10.806c-.391-.391-1.023-.391-1.414,0l-.549,.549L12.659,2.273l.549-.549c.391-.391,.391-1.023,0-1.414s-1.023-.391-1.414,0L4.794,7.31c-.391,.391-.391,1.023,0,1.414,.195,.195,.451,.293,.707,.293s.512-.098,.707-.293l.581-.581,3.827,3.827L.293,22.293c-.391,.391-.391,1.023,0,1.414,.195,.195,.451,.293,.707,.293s.512-.098,.707-.293L12.03,13.384l3.841,3.841-.58,.58c-.391,.391-.391,1.023,0,1.414,.195,.195,.451,.293,.707,.293s.512-.098,.707-.293l7-7c.391-.391,.391-1.023,0-1.414Zm-9.088,2.337l-3.672-3.672,3.042-3.042,3.672,3.672c-.789,.789-2.195,2.195-3.042,3.042ZM11.245,3.687l1.327,1.327-3.042,3.042-1.327-1.327,3.042-3.042Zm4.786,10.87c.849-.849,2.254-2.254,3.042-3.042l1.254,1.254-3.042,3.042-1.254-1.254Z"/></svg>
