<?xml version="1.0" encoding="UTF-8"?>
<svg xmlns="http://www.w3.org/2000/svg" id="Layer_1" data-name="Layer 1" viewBox="0 0 24 24" width="512" height="512"><path d="M23.604,22.253c-.577,1.077-1.695,1.747-2.917,1.747h-2.687c-.552,0-1-.447-1-1s.448-1,1-1h2.687c.491,0,.922-.259,1.154-.691,.231-.433,.208-.935-.065-1.344-.021-.031-.04-.063-.057-.097l-2.274-4.41c-.16-.31-.147-.681,.035-.979s.505-.479,.854-.479h.404c.084,0,.146-.037,.186-.111s.036-.146-.011-.217l-2.794-5.2c-.166-.31-.157-.685,.023-.986s.506-.486,.858-.486c.083,0,.146-.037,.185-.109,.033-.061,.037-.12,.012-.178l-3.991-4.657c-.087-.08-.28-.133-.463,.053l-3.05,3.545c-.359,.418-.992,.465-1.411,.105-.418-.36-.465-.992-.105-1.41L13.275,.752c.987-1.006,2.509-.955,3.402-.051,0,0,4.157,4.851,4.181,4.889,.439,.681,.471,1.545,.084,2.256-.139,.255-.323,.475-.539,.652l2.224,4.146c.404,.598,.446,1.468,.061,2.188-.202,.377-.502,.68-.86,.882l1.646,3.192c.646,1.011,.698,2.287,.13,3.347Zm-7.604-6.905v4.152c0,2.481-2.019,4.5-4.5,4.5H4.5c-2.481,0-4.5-2.019-4.5-4.5v-4.152c0-1.548,.699-2.982,1.918-3.938l3-2.348c1.814-1.421,4.349-1.419,6.163,0l3,2.349c1.219,.955,1.918,2.39,1.918,3.938Zm-2,0c0-.929-.419-1.79-1.151-2.363l-3-2.348c-.544-.425-1.197-.639-1.849-.639s-1.305,.213-1.849,.64l-3,2.347c-.731,.573-1.151,1.435-1.151,2.363v4.152c0,1.379,1.122,2.5,2.5,2.5h7c1.378,0,2.5-1.121,2.5-2.5v-4.152Zm-5-.348h-2c-.552,0-1,.448-1,1v2c0,.552,.448,1,1,1h2c.552,0,1-.448,1-1v-2c0-.552-.448-1-1-1Z"/></svg>
