<?xml version="1.0" encoding="UTF-8"?>
<svg xmlns="http://www.w3.org/2000/svg" id="Layer_1" data-name="Layer 1" viewBox="0 0 24 24" width="512" height="512"><path d="M19,0H8C5.196,0,3,3.294,3,7.5v9.5c0,.823-.494,1.553-1.259,1.858-1.058,.422-1.741,1.399-1.741,2.488,0,1.463,1.19,2.653,2.653,2.653H11c2.757,0,5-2.243,5-5v-2h3c2.804,0,5-3.733,5-8.5S21.804,0,19,0Zm-5,19c0,1.654-1.346,3-3,3H2.653c-.36,0-.653-.293-.653-.653,0-.323,.249-.538,.483-.631,1.529-.611,2.517-2.07,2.517-3.716V7.5c0-3.241,1.581-5.5,3-5.5h7.745c-1.073,1.547-1.745,3.866-1.745,6.5v10.5Zm5-4c-1.419,0-3-2.67-3-6.5s1.581-6.5,3-6.5,3,2.67,3,6.5-1.581,6.5-3,6.5Zm1-6.5c0,.828-.448,1.5-1,1.5s-1-.672-1-1.5,.448-1.5,1-1.5,1,.672,1,1.5Z"/></svg>
