<?xml version="1.0" encoding="UTF-8"?>
<svg xmlns="http://www.w3.org/2000/svg" id="Layer_1" data-name="Layer 1" viewBox="0 0 24 24" width="512" height="512"><path d="M20.5,15H12.5c-1.93,0-3.5,1.57-3.5,3.5s1.57,3.5,3.5,3.5h8c1.93,0,3.5-1.57,3.5-3.5s-1.57-3.5-3.5-3.5Zm-9.5,3.5c0-.827,.673-1.5,1.5-1.5h1.5v3h-1.5c-.827,0-1.5-.673-1.5-1.5Zm9.5,1.5h-4.5v-3h4.5c.827,0,1.5,.673,1.5,1.5s-.673,1.5-1.5,1.5ZM12.5,9h8c1.93,0,3.5-1.57,3.5-3.5s-1.57-3.5-3.5-3.5H12.5c-1.93,0-3.5,1.57-3.5,3.5s1.57,3.5,3.5,3.5Zm9.5-3.5c0,.827-.673,1.5-1.5,1.5h-1.5v-3h1.5c.827,0,1.5,.673,1.5,1.5Zm-9.5-1.5h4.5v3h-4.5c-.827,0-1.5-.673-1.5-1.5s.673-1.5,1.5-1.5ZM4,6c1.654,0,3-1.346,3-3S5.654,0,4,0,1,1.346,1,3s1.346,3,3,3Zm3.937,3.649c.194,.517-.068,1.093-.585,1.287-.116,.043-.234,.063-.351,.063-.405,0-.786-.247-.937-.649-.303-.808-1.132-1.351-2.063-1.351s-1.761,.543-2.063,1.351c-.193,.519-.771,.779-1.288,.586-.517-.194-.779-.771-.585-1.287,.594-1.585,2.176-2.649,3.937-2.649s3.343,1.064,3.937,2.649Zm-.937,6.351c0-1.654-1.346-3-3-3s-3,1.346-3,3,1.346,3,3,3,3-1.346,3-3Zm.937,6.649c.194,.517-.068,1.093-.585,1.287-.116,.043-.234,.063-.351,.063-.405,0-.786-.247-.937-.649-.303-.808-1.132-1.351-2.063-1.351s-1.761,.543-2.063,1.351c-.193,.519-.771,.779-1.288,.586-.517-.194-.779-.771-.585-1.287,.594-1.585,2.176-2.649,3.937-2.649s3.343,1.064,3.937,2.649Z"/></svg>
