<?xml version="1.0" encoding="UTF-8"?>
<svg xmlns="http://www.w3.org/2000/svg" id="Layer_1" data-name="Layer 1" viewBox="0 0 24 24" width="512" height="512"><path d="M21.832,7.793C23.125,6.5,23.71,4.127,23.974,2.366A2.068,2.068,0,0,0,21.632.024c-1.984.331-4.7.912-5.865,2.712-2.167-3.775-4.828-.624-5.591,2.416-2.314-.645-3.331,2.018-4,4C3.718,8.322,2.094,12.29,2,14.5a7.625,7.625,0,0,0,1.649,4.437L.291,22.293a1,1,0,0,0,1.414,1.414l3.356-3.356A7.628,7.628,0,0,0,9.5,22c2.168-.079,6.251-1.764,5.371-4.181,1.925-.654,4.709-1.738,4-4,3.049-.794,6.211-3.416,2.388-5.589a3.067,3.067,0,0,0,.573-.437ZM17.618,3.579A7.872,7.872,0,0,1,22,2.07c-.646,3.757-1.289,5.265-4.971,4.9C16.935,5.711,17.051,4.147,17.618,3.579ZM13.492,3c1.129,1.215,2.137,3.849.955,5.144L12.923,9.663A7.868,7.868,0,0,0,12,7.127,6.055,6.055,0,0,1,13.492,3Zm-4,4c1.128,1.215,2.136,3.848.954,5.144L8.923,13.663A7.876,7.876,0,0,0,8,11.127,6.05,6.05,0,0,1,9.492,7Zm-4,4c1.127,1.214,2.136,3.848.955,5.143L5.08,17.505A4.947,4.947,0,0,1,5.491,11ZM9.5,20a5.482,5.482,0,0,1-3.005-1.081l1.365-1.365c1.3-1.184,3.929-.168,5.146.938A6.181,6.181,0,0,1,9.5,20Zm4-4c-.134,0-.553-.011-.631,0a7.866,7.866,0,0,0-2.532-.922l1.524-1.523c1.294-1.184,3.928-.167,5.145.938A6.181,6.181,0,0,1,13.5,16Zm4-4c-.134,0-.553-.01-.63,0a7.873,7.873,0,0,0-2.533-.923l1.524-1.523c1.294-1.183,3.928-.167,5.145.938A6.181,6.181,0,0,1,17.5,12Z"/></svg>
