<?xml version="1.0" encoding="UTF-8"?>
<svg xmlns="http://www.w3.org/2000/svg" id="Layer_1" data-name="Layer 1" viewBox="0 0 24 24" width="512" height="512"><path d="M12.85,.03C9.38-.21,5.97,1.06,3.51,3.52,1.06,5.97-.21,9.38,.03,12.85c.43,6.25,5.84,11.15,12.31,11.15h6.66c2.94,0,5-2.4,5-5.85v-5.82C24,5.87,19.1,.46,12.85,.03Zm9.15,18.12c0,2.3-1.21,3.85-3,3.85h-6.66c-5.42,0-9.95-4.08-10.31-9.28-.2-2.9,.86-5.74,2.9-7.79,1.88-1.88,4.43-2.93,7.09-2.93,.23,0,.47,0,.7,.02,5.21,.36,9.28,4.89,9.28,10.31v5.82Z"/></svg>
