<?xml version="1.0" encoding="UTF-8"?>
<svg xmlns="http://www.w3.org/2000/svg" id="Layer_1" data-name="Layer 1" viewBox="0 0 24 24" width="512" height="512"><path d="M19,24h-2.861c-.646,0-1.254-.313-1.629-.839-.375-.525-.472-1.204-.262-1.813l1.741-5.046c.032-.092,.001-.163-.03-.206-.031-.044-.088-.096-.185-.096h-2.87c-.317,0-.615-.15-.804-.404-.188-.255-.245-.584-.153-.887l1.37-4.497c.016-.053,.007-.102-.025-.146-.066-.089-.208-.084-.269,.007l-4.958,7.371c-.096,.146-.045,.291-.006,.363,.039,.072,.133,.192,.323,.192h2.755c.33,0,.638,.162,.824,.434s.228,.617,.109,.925l-1.29,3.358c-.294,.768-1.045,1.283-1.867,1.283h-3.913c-2.757,0-5-2.243-5-5V9.724c0-1.664,.824-3.214,2.203-4.146L9.204,.855c1.698-1.146,3.894-1.146,5.593,0l7,4.723h0c1.379,.932,2.203,2.481,2.203,4.146v9.276c0,2.757-2.243,5-5,5Zm-4.746-10h1.52c.719,0,1.397,.35,1.814,.935,.417,.586,.526,1.341,.292,2.02l-1.741,5.046h2.862c1.654,0,3-1.346,3-3V9.724c0-.998-.494-1.929-1.322-2.487L13.678,2.514c-1.02-.689-2.336-.689-3.356,0L3.322,7.236c-.828,.559-1.322,1.488-1.322,2.487v9.276c0,1.654,1.346,3,3,3h3.913l.768-2h-1.299c-.87,0-1.667-.475-2.082-1.239-.415-.764-.377-1.691,.097-2.421l4.961-7.374c.395-.602,1.071-.966,1.802-.966,.693,0,1.327,.319,1.739,.876,.413,.556,.533,1.255,.332,1.918l-.976,3.206Z"/></svg>
