<?xml version="1.0" encoding="UTF-8"?>
<svg xmlns="http://www.w3.org/2000/svg" id="Layer_1" data-name="Layer 1" viewBox="0 0 24 24" width="512" height="512"><path d="M3.771,13.38c-.198,.239-.483,.363-.771,.363-.224,0-.45-.075-.636-.229-1.502-1.24-2.363-3.068-2.363-5.015C0,4.916,2.916,2,6.5,2h5c3.584,0,6.5,2.916,6.5,6.5s-2.916,6.5-6.5,6.5c-.552,0-1-.447-1-1s.448-1,1-1c2.481,0,4.5-2.019,4.5-4.5s-2.019-4.5-4.5-4.5H6.5c-2.481,0-4.5,2.019-4.5,4.5,0,1.348,.597,2.613,1.637,3.472,.426,.352,.486,.982,.134,1.408Zm17.866-2.895c-.426-.35-1.056-.29-1.408,.135-.352,.426-.292,1.057,.134,1.408,1.04,.858,1.637,2.124,1.637,3.472,0,2.481-2.019,4.5-4.5,4.5h-5c-2.481,0-4.5-2.019-4.5-4.5s2.019-4.5,4.5-4.5c.552,0,1-.447,1-1s-.448-1-1-1c-3.584,0-6.5,2.916-6.5,6.5s2.916,6.5,6.5,6.5h5c3.584,0,6.5-2.916,6.5-6.5,0-1.946-.861-3.774-2.363-5.015Z"/></svg>
