<?xml version="1.0" encoding="UTF-8"?>
<svg xmlns="http://www.w3.org/2000/svg" id="Layer_1" data-name="Layer 1" viewBox="0 0 24 24" width="512" height="512"><path d="M22.459,9.097l-1.459-1.398v-3.699c0-2.206-1.794-4-4-4H7C4.794,0,3,1.794,3,4v3.699l-1.459,1.398c-.979,.938-1.541,2.254-1.541,3.611v6.292c0,2.757,2.243,5,5,5h14c2.757,0,5-2.243,5-5v-6.292c0-1.356-.562-2.673-1.541-3.611ZM7,2h10c1.103,0,2,.897,2,2V12.243l-4.878,4.879c-1.17,1.168-3.073,1.168-4.243,0l-4.878-4.879V4c0-1.103,.897-2,2-2Zm15,17c0,1.654-1.346,3-3,3H5c-1.654,0-3-1.346-3-3v-6.292c0-.195,.02-.389,.058-.579l6.407,6.407c.975,.975,2.255,1.462,3.536,1.462s2.561-.487,3.536-1.462l6.407-6.407c.038,.19,.058,.384,.058,.579v6.292ZM14,11c0-.378-.271-.698-.644-.76l-3.042-.507c-1.341-.223-2.315-1.373-2.315-2.733,0-1.654,1.346-3,3-3,0-.552,.448-1,1-1s1,.448,1,1h.268c1.067,0,2.063,.575,2.598,1.5,.276,.478,.113,1.089-.365,1.366-.476,.276-1.089,.114-1.366-.365-.179-.309-.511-.5-.867-.5h-2.268c-.551,0-1,.449-1,1,0,.378,.271,.698,.644,.76l3.042,.507c1.341,.223,2.315,1.373,2.315,2.733,0,1.654-1.346,3-3,3,0,.552-.448,1-1,1s-1-.448-1-1h-.268c-1.068,0-2.063-.574-2.598-1.499-.276-.478-.113-1.089,.365-1.366,.477-.277,1.089-.113,1.366,.365,.178,.308,.511,.5,.867,.5h2.268c.551,0,1-.449,1-1Z"/></svg>
