<?xml version="1.0" encoding="UTF-8"?>
<svg xmlns="http://www.w3.org/2000/svg" id="Layer_1" data-name="Layer 1" viewBox="0 0 24 24" width="512" height="512"><path d="M23.092,7.464c-.763-.931-1.89-1.464-3.093-1.464h-3.999v-1c0-1.654-1.346-3-3-3V1c0-.553-.447-1-1-1s-1,.447-1,1v1c-1.654,0-3,1.346-3,3v1h-3.999c-1.203,0-2.33,.533-3.093,1.464S-.157,9.604,.079,10.784l.72,3.599c.419,2.096,2.274,3.617,4.412,3.617h2.789v3c0,1.654,1.346,3,3,3h2c1.654,0,3-1.346,3-3v-3h2.789c2.138,0,3.993-1.521,4.412-3.617l.72-3.599c.236-1.18-.066-2.39-.829-3.32Zm-1.547,1.268c.382,.466,.533,1.07,.415,1.66l-.322,1.608h-5.638v-4h3.999c.602,0,1.165,.267,1.546,.731Zm-11.545,3.269v-4h4v4h-4Zm1-8h2c.552,0,1,.448,1,1v1h-4v-1c0-.552,.448-1,1-1ZM2.455,8.731c.381-.465,.944-.731,1.546-.731h3.999v4H2.362l-.322-1.608c-.118-.59,.033-1.194,.415-1.66Zm11.545,12.269c0,.552-.448,1-1,1h-2c-.552,0-1-.448-1-1v-3h4v3Zm4.789-5H5.211c-1.184,0-2.212-.84-2.449-2H21.238c-.237,1.16-1.265,2-2.449,2Z"/></svg>
