<?xml version="1.0" encoding="UTF-8"?>
<svg xmlns="http://www.w3.org/2000/svg" id="Layer_1" data-name="Layer 1" viewBox="0 0 24 24" width="512" height="512"><path d="M19,0H5C2.243,0,0,2.243,0,5v14c0,2.757,2.243,5,5,5h14c2.757,0,5-2.243,5-5V5c0-2.757-2.243-5-5-5Zm3,19c0,1.654-1.346,3-3,3H5c-1.654,0-3-1.346-3-3V5c0-1.654,1.346-3,3-3h14c1.654,0,3,1.346,3,3v14Zm-6-5c0,1.654-1.346,3-3,3v1c0,.553-.447,1-1,1s-1-.447-1-1v-1h-.268c-1.067,0-2.063-.574-2.598-1.499-.277-.479-.113-1.09,.364-1.366,.479-.279,1.09-.113,1.366,.364,.179,.31,.511,.501,.867,.501h2.268c.552,0,1-.448,1-1,0-.378-.271-.698-.644-.76l-3.041-.507c-1.342-.223-2.315-1.373-2.315-2.733,0-1.654,1.346-3,3-3v-1c0-.552,.447-1,1-1s1,.448,1,1v1h.268c1.067,0,2.063,.575,2.598,1.5,.277,.478,.113,1.089-.364,1.366-.48,.277-1.091,.113-1.366-.365-.179-.309-.511-.5-.867-.5h-2.268c-.552,0-1,.449-1,1,0,.378,.271,.698,.644,.76l3.041,.507c1.342,.223,2.315,1.373,2.315,2.733Z"/></svg>
