<?xml version="1.0" encoding="UTF-8"?>
<svg xmlns="http://www.w3.org/2000/svg" id="Layer_1" data-name="Layer 1" viewBox="0 0 24 24" width="512" height="512"><path d="M22,18v1c0,2.757-2.243,5-5,5H7c-2.757,0-5-2.243-5-5v-1c0-.553,.447-1,1-1s1,.447,1,1v1c0,1.654,1.346,3,3,3h10c1.654,0,3-1.346,3-3v-1c0-.553,.447-1,1-1s1,.447,1,1ZM2,10V5C2,2.243,4.243,0,7,0h4.515c1.87,0,3.628,.729,4.95,2.051l3.484,3.484c1.322,1.322,2.051,3.08,2.051,4.95,0,.553-.447,1-1,1s-1-.447-1-1c0-.165-.032-.323-.047-.485h-4.953c-1.654,0-3-1.346-3-3V2.047c-.162-.016-.32-.047-.485-.047H7c-1.654,0-3,1.346-3,3v5c0,.553-.447,1-1,1s-1-.447-1-1ZM15.051,3.465c-.315-.315-.675-.564-1.051-.781V7c0,.552,.448,1,1,1h4.316c-.217-.376-.466-.736-.781-1.051l-3.484-3.484ZM6,15c.553,0,1-.447,1-1s-.447-1-1-1H2c-.553,0-1,.447-1,1s.447,1,1,1H6Zm4-2c-.553,0-1,.447-1,1s.447,1,1,1h4c.553,0,1-.447,1-1s-.447-1-1-1h-4Zm12,0h-4c-.553,0-1,.447-1,1s.447,1,1,1h4c.553,0,1-.447,1-1s-.447-1-1-1Z"/></svg>
