<?xml version="1.0" encoding="UTF-8"?>
<svg xmlns="http://www.w3.org/2000/svg" id="Layer_1" data-name="Layer 1" viewBox="0 0 24 24" width="512" height="512"><path d="M24,3v14.04c0,2.22-1.491,4.197-3.626,4.808l-6.726,1.921c-1.078,.308-2.218,.308-3.296,0l-6.726-1.921c-2.135-.61-3.626-2.587-3.626-4.808V4c.006-1.308,1.994-1.307,2,0v13.04c0,1.333,.895,2.519,2.176,2.885l6.726,1.921c.719,.205,1.478,.205,2.198,0l6.725-1.921c1.281-.366,2.176-1.552,2.176-2.885V3c.006-1.308,1.994-1.307,2,0ZM4,14.937V4c0-1.267,.58-2.431,1.591-3.193C6.602,.044,7.88-.194,9.099,.154l1.726,.493c.446,.127,.845,.354,1.176,.651,.331-.297,.73-.524,1.176-.651l1.725-.493c2.461-.778,5.171,1.268,5.099,3.846V14.937c0,1.776-1.193,3.358-2.901,3.846l-3.451,.986c-1.079,.308-2.219,.308-3.296,0l-3.451-.986c-1.708-.488-2.901-2.07-2.901-3.846Zm9,2.936c.033-.009,3.549-1.013,3.549-1.013,.854-.244,1.451-1.035,1.451-1.923V4c0-.633-.29-1.215-.795-1.597-.508-.384-1.151-.499-1.754-.327l-1.725,.493c-.427,.122-.726,.517-.726,.961v14.342Zm-7-2.936c0,.888,.597,1.679,1.451,1.923,0,0,3.516,1.004,3.549,1.013V3.531c0-.444-.298-.839-.725-.961l-1.726-.493c-.603-.173-1.247-.057-1.754,.327-.505,.381-.795,.963-.795,1.597V14.937Z"/></svg>
