<?xml version="1.0" encoding="UTF-8"?>
<svg xmlns="http://www.w3.org/2000/svg" id="Layer_1" data-name="Layer 1" viewBox="0 0 24 24" width="512" height="512"><path d="M23.854,22.479l-4.545-7.437c.824-.474,1.614-1.027,2.352-1.674,.415-.364,.456-.996,.092-1.411-.366-.416-.996-.455-1.412-.092-.65,.57-1.347,1.055-2.075,1.47l-3.045-4.983c.485-.662,.78-1.47,.78-2.351,0-1.858-1.279-3.411-3-3.858V1c0-.552-.447-1-1-1s-1,.448-1,1v1.142c-1.721,.447-3,2-3,3.858,0,.881,.295,1.689,.78,2.351l-3.045,4.982c-.728-.414-1.425-.899-2.075-1.47-.416-.364-1.046-.324-1.412,.092-.364,.415-.323,1.046,.092,1.412,.737,.647,1.527,1.201,2.352,1.674L.146,22.479c-.288,.472-.14,1.087,.332,1.375,.163,.1,.343,.146,.521,.146,.337,0,.666-.17,.854-.479l4.648-7.606c1.76,.71,3.627,1.077,5.498,1.077s3.738-.367,5.498-1.077l4.648,7.606c.188,.309,.518,.479,.854,.479,.178,0,.357-.047,.521-.146,.472-.288,.62-.903,.332-1.375ZM12,4c1.103,0,2,.897,2,2s-.897,2-2,2-2-.897-2-2,.897-2,2-2ZM7.555,14.191l2.787-4.561c.506,.232,1.064,.37,1.657,.37s1.151-.138,1.657-.37l2.788,4.562c-2.859,1.067-6.03,1.067-8.889,0Z"/></svg>
