<?xml version="1.0" encoding="UTF-8"?>
<svg xmlns="http://www.w3.org/2000/svg" id="Layer_1" data-name="Layer 1" viewBox="0 0 24 24" width="512" height="512"><path d="M17,19c0,.553-.447,1-1,1H8c-.553,0-1-.447-1-1s.447-1,1-1h8c.553,0,1,.447,1,1Zm7-10c0,.553-.447,1-1,1h-1v9c0,2.757-2.243,5-5,5H7c-2.757,0-5-2.243-5-5V10H1c-.553,0-1-.447-1-1s.447-1,1-1h1.184c.302-.847,.969-1.514,1.816-1.816v-1.684C4,2.019,6.019,0,8.5,0h7c2.481,0,4.5,2.019,4.5,4.5v1.684c.847,.302,1.514,.969,1.816,1.816h1.184c.553,0,1,.447,1,1ZM6,4.5v1.5h4c.553,0,1,.447,1,1s-.447,1-1,1h-1c-.552,0-1,.448-1,1s.448,1,1,1h6c.552,0,1-.448,1-1s-.448-1-1-1h-1c-.553,0-1-.447-1-1s.447-1,1-1h4v-1.5c0-1.379-1.121-2.5-2.5-2.5h-7c-1.379,0-2.5,1.121-2.5,2.5Zm14,4.5c0-.552-.448-1-1-1h-1.184c.112,.314,.184,.648,.184,1,0,1.654-1.346,3-3,3h-6c-1.654,0-3-1.346-3-3,0-.352,.072-.686,.184-1h-1.184c-.552,0-1,.448-1,1v10c0,1.654,1.346,3,3,3h10c1.654,0,3-1.346,3-3V9Zm-12.5,7.5c.828,0,1.5-.672,1.5-1.5s-.672-1.5-1.5-1.5-1.5,.672-1.5,1.5,.672,1.5,1.5,1.5Zm4.5,0c.828,0,1.5-.672,1.5-1.5s-.672-1.5-1.5-1.5-1.5,.672-1.5,1.5,.672,1.5,1.5,1.5Zm4.5-3c-.828,0-1.5,.672-1.5,1.5s.672,1.5,1.5,1.5,1.5-.672,1.5-1.5-.672-1.5-1.5-1.5Z"/></svg>
