<?xml version="1.0" encoding="UTF-8"?>
<svg xmlns="http://www.w3.org/2000/svg" id="Layer_1" data-name="Layer 1" viewBox="0 0 24 24" width="512" height="512"><path d="M16.635,20.321c.375,.406,.35,1.039-.056,1.413l-.793,.732c-1.003,.981-2.355,1.533-3.787,1.533s-2.783-.552-3.807-1.553l-3.943-3.642C1.315,15.871,.273,11.626,1.504,7.701c.165-.527,.727-.821,1.253-.655,.527,.165,.82,.727,.655,1.253-1.007,3.213-.155,6.687,2.224,9.065l3.935,3.634c1.337,1.307,3.542,1.287,4.837,.02l.813-.752c.407-.375,1.041-.348,1.413,.056Zm7.072,3.386c-.195,.195-.451,.293-.707,.293s-.512-.098-.707-.293L.293,1.707C-.098,1.316-.098,.684,.293,.293S1.316-.098,1.707,.293l2.725,2.725C6.484,1.07,9.16,0,12,0c2.938,0,5.7,1.145,7.778,3.222,4.22,4.22,4.288,11.043,.204,15.347l3.725,3.725c.391,.391,.391,1.023,0,1.414ZM5.846,4.432l3.54,3.54c.722-.622,1.65-.972,2.614-.972,2.206,0,4,1.794,4,4,0,.982-.35,1.9-.971,2.615l3.539,3.539c3.303-3.497,3.244-9.07-.205-12.519-1.7-1.699-3.96-2.636-6.364-2.636-2.306,0-4.479,.862-6.154,2.432Zm7.761,7.761c.252-.339,.393-.753,.393-1.193,0-1.103-.897-2-2-2-.432,0-.85,.141-1.191,.395l2.799,2.799Z"/></svg>
