<?xml version="1.0" encoding="UTF-8"?>
<svg xmlns="http://www.w3.org/2000/svg" id="Layer_1" data-name="Layer 1" viewBox="0 0 24 24" width="512" height="512"><path d="M18.997,24H5.003c-1.048,0-2.002-.532-2.553-1.423-.55-.891-.6-1.982-.131-2.919l2.724-5.447c.682-1.364,2.053-2.211,3.578-2.211h6.758c1.525,0,2.896,.847,3.578,2.211l2.724,5.447c.469,.937,.419,2.028-.131,2.919-.551,.891-1.505,1.423-2.553,1.423ZM8.621,14c-.763,0-1.448,.423-1.789,1.105l-2.724,5.447c-.226,.45-.045,.831,.044,.973,.088,.143,.347,.474,.851,.474h13.994c.504,0,.763-.332,.851-.474,.089-.143,.27-.523,.044-.973l-2.724-5.447c-.341-.682-1.026-1.105-1.789-1.105h-6.758Zm13.379-2V5c0-2.757-2.243-5-5-5H7C4.243,0,2,2.243,2,5v7c0,.552,.447,1,1,1s1-.448,1-1V5c0-1.654,1.346-3,3-3h10c1.654,0,3,1.346,3,3v7c0,.552,.447,1,1,1s1-.448,1-1Z"/></svg>
