<?xml version="1.0" encoding="UTF-8"?>
<svg xmlns="http://www.w3.org/2000/svg" id="Layer_1" data-name="Layer 1" viewBox="0 0 24 24" width="512" height="512"><path d="M19,21c0,.553-.447,1-1,1H6c-.552,0-1-.447-1-1s.448-1,1-1h12c.553,0,1,.447,1,1Zm-13-3c.552,0,1-.448,1-1s-.448-1-1-1-1,.448-1,1,.448,1,1,1Zm-4,2c-.552,0-1,.448-1,1s.448,1,1,1,1-.448,1-1-.448-1-1-1Zm0-4c-.552,0-1,.448-1,1s.448,1,1,1,1-.448,1-1-.448-1-1-1Zm9,1c0-.552-.448-1-1-1s-1,.448-1,1,.448,1,1,1,1-.448,1-1Zm13-7.915l-.085,1.264c.002,1.431-1.219,2.651-2.719,2.651-.044,0-2.522-.322-2.522-.322-1.445-.038-2.613-1.208-2.648-2.654l-.155-1.292c-1.309-.494-2.609-.748-3.875-.754-1.311,.008-2.587,.243-3.864,.744l-.157,1.302c-.035,1.446-1.203,2.616-2.648,2.654,0,0-2.479,.322-2.523,.322C1.303,13,.083,11.779,.083,10.279L.002,9.153c-.003-1.451,.549-2.767,1.554-3.772C6.046,.892,17.954,.892,22.443,5.381c1.005,1.006,1.558,2.321,1.557,3.704Zm-1.998-.07c0-.779-.346-1.593-.974-2.22-3.983-3.983-14.625-3.431-18.057,0-.627,.627-.972,1.44-.971,2.288l.08,1.127c.002,.446,.298,.762,.672,.788,0,0,2.458-.319,2.502-.319,.397,0,.721-.324,.721-.722,0-.04,.24-2.051,.24-2.051,.042-.349,.264-.65,.584-.794,1.683-.753,3.476-1.135,5.206-1.135,1.704,.009,3.447,.388,5.179,1.128,.329,.141,.558,.445,.601,.801,0,0,.239,2.011,.239,2.051,0,.397,.324,.722,.722,.722,.044,0,2.502,.319,2.502,.319,.373-.026,.669-.339,.669-.719l.085-1.265Zm-7.002,7.985c0-.552-.448-1-1-1s-1,.448-1,1,.448,1,1,1,1-.448,1-1Zm7-1c-.552,0-1,.448-1,1s.448,1,1,1,1-.448,1-1-.448-1-1-1Zm0,4c-.552,0-1,.448-1,1s.448,1,1,1,1-.448,1-1-.448-1-1-1Zm-4-4c-.552,0-1,.448-1,1s.448,1,1,1,1-.448,1-1-.448-1-1-1Z"/></svg>
