<?xml version="1.0" encoding="UTF-8"?>
<svg xmlns="http://www.w3.org/2000/svg" id="Layer_1" data-name="Layer 1" viewBox="0 0 24 24" width="512" height="512"><path d="M22.44,10.37c.37-.72,.56-1.53,.56-2.36,0-2.56-1.83-4.67-4.19-4.96,.1-.07,.2-.16,.29-.25,.63-.63,.83-1.51,.89-2.12,.04-.38-.29-.71-.67-.67-.61,.06-1.49,.27-2.12,.89-.18,.18-.33,.39-.45,.61-.47-.72-1-1.18-1.11-1.27-.42-.35-1.05-.3-1.41,.12-.36,.42-.31,1.05,.11,1.41,.22,.19,.69,.68,.95,1.25h-.56c-1,0-1.95,.32-2.75,.92-.63-.47-1.38-.79-2.18-.89,.1-.07,.2-.16,.29-.25,.63-.63,.83-1.51,.89-2.12,.04-.38-.29-.71-.67-.67-.61,.06-1.49,.27-2.12,.89-.18,.18-.33,.39-.45,.61-.47-.72-1-1.18-1.11-1.27-.42-.35-1.05-.3-1.41,.12-.36,.42-.31,1.05,.11,1.41,.22,.19,.69,.68,.95,1.25h-.56C3.13,3.01,1,5.25,1,8.01c0,.83,.2,1.64,.56,2.36-.93,.51-1.56,1.5-1.56,2.63v6c0,2.76,2.24,5,5,5h14c2.76,0,5-2.24,5-5v-6c0-1.13-.63-2.12-1.56-2.63Zm-4.19-5.36c1.52,0,2.75,1.35,2.75,3,0,.74-.25,1.44-.7,1.99h-6.7c.26-.62,.4-1.3,.4-1.99,0-.94-.25-1.82-.67-2.57,.43-.28,.92-.43,1.42-.43h3.5Zm-12.5,0h3.5c1.52,0,2.75,1.35,2.75,3,0,.74-.25,1.45-.7,1.99H3.7c-.45-.55-.7-1.26-.7-1.99,0-1.65,1.23-3,2.75-3Zm16.25,13.99c0,1.65-1.35,3-3,3H5c-1.3,0-2.42-.84-2.83-2H19c.55,0,1-.45,1-1s-.45-1-1-1H2v-2H19c.55,0,1-.45,1-1s-.45-1-1-1H2v-1c0-.55,.45-1,1-1H21c.55,0,1,.45,1,1v6Z"/></svg>
