<?xml version="1.0" encoding="UTF-8"?>
<svg xmlns="http://www.w3.org/2000/svg" id="Layer_1" data-name="Layer 1" viewBox="0 0 24 24" width="512" height="512"><path d="M8,2h-3c-.552,0-1,.448-1,1V23c0,.553-.447,1-1,1s-1-.447-1-1V3C2,1.346,3.346,0,5,0h3c4.411,0,8,3.589,8,8v9c0,.553-.447,1-1,1s-1-.447-1-1V8c0-3.309-2.691-6-6-6ZM21,0c-.553,0-1,.447-1,1v15c0,3.309-2.691,6-6,6h-3c-.552,0-1-.448-1-1V7c0-.553-.447-1-1-1s-1,.447-1,1v14c0,1.654,1.346,3,3,3h3c4.411,0,8-3.589,8-8V1c0-.553-.447-1-1-1Z"/></svg>
