<?xml version="1.0" encoding="UTF-8"?>
<svg xmlns="http://www.w3.org/2000/svg" id="Layer_1" data-name="Layer 1" viewBox="0 0 24 24" width="512" height="512"><path d="M15,13.5c0-1.93-1.57-3.5-3.5-3.5H3.5c-1.93,0-3.5,1.57-3.5,3.5,0,1.393,.819,2.599,2,3.162v2.338H1c-.552,0-1,.447-1,1s.448,1,1,1h1v2c0,.553,.448,1,1,1s1-.447,1-1v-2h7v2c0,.553,.448,1,1,1s1-.447,1-1v-2h1c.552,0,1-.447,1-1s-.448-1-1-1h-1v-2.338c1.181-.563,2-1.769,2-3.162Zm-11.5-1.5H11.5c.827,0,1.5,.673,1.5,1.5s-.673,1.5-1.5,1.5H3.5c-.827,0-1.5-.673-1.5-1.5s.673-1.5,1.5-1.5Zm.5,7v-2h7v2H4ZM23.544,10.161c.448,.883,.562,1.808,.356,2.729-.442,1.985-2.284,3.28-4.365,3.09-.195-.024-.32,.019-.412,.102-.057,.05-.124,.14-.124,.279v6.64c0,.553-.448,1-1,1s-1-.447-1-1v-6.64c0-.674,.287-1.318,.786-1.767,.514-.462,1.207-.684,1.903-.609,1.107,.097,2.04-.54,2.259-1.528,.103-.464,.048-.926-.16-1.335-.18-.347-.556-1.071-.005-2.23,.144-.302,.216-.602,.216-.891,0-.646-.318-1.253-.852-1.625-.741-.519-1.17-1.39-1.148-2.331,.006-.271-.047-.548-.158-.822-.225-.557-.713-.995-1.273-1.146-.378-.102-.759-.102-1.138,0-.56,.15-1.047,.589-1.272,1.146-.111,.274-.165,.551-.158,.822,.022,.941-.407,1.812-1.148,2.33-.534,.373-.853,.98-.853,1.626,0,.553-.448,1-1,1s-1-.447-1-1c0-1.299,.638-2.52,1.708-3.266,.264-.185,.297-.482,.294-.644-.013-.545,.089-1.09,.303-1.619,.462-1.144,1.438-2.013,2.609-2.327,.717-.191,1.457-.191,2.172,0,1.172,.314,2.147,1.184,2.61,2.327,.214,.529,.316,1.074,.303,1.619-.003,.161,.03,.459,.294,.645,1.069,.745,1.707,1.966,1.707,3.265,0,.589-.138,1.177-.41,1.749-.104,.218-.096,.306-.096,.307,.003,.016,.032,.069,.05,.105Z"/></svg>
