<?xml version="1.0" encoding="UTF-8"?>
<svg xmlns="http://www.w3.org/2000/svg" id="Layer_1" data-name="Layer 1" viewBox="0 0 24 24" width="512" height="512"><path d="M4,6v-1.5C4,2.02,6.02,0,8.5,0h7c2.48,0,4.5,2.02,4.5,4.5v1.5c0,.55-.45,1-1,1s-1-.45-1-1v-1.5c0-1.38-1.12-2.5-2.5-2.5h-2.5V14c0,.55-.45,1-1,1s-1-.45-1-1V2h-2.5c-1.38,0-2.5,1.12-2.5,2.5v1.5c0,.55-.45,1-1,1s-1-.45-1-1Zm20,13s0,0,0-.01c0-.51-.2-1.02-.58-1.4l-2.75-2.75c-.39-.39-1.02-.39-1.41,0s-.39,1.02,0,1.41l1.75,1.75H3l1.75-1.75c.39-.39,.39-1.02,0-1.41s-1.02-.39-1.41,0l-2.75,2.75C.2,17.97,0,18.48,0,18.99c0,0,0,0,0,.01s0,0,0,.01c0,.51,.2,1.02,.58,1.4l2.75,2.75c.2,.2,.45,.29,.71,.29s.51-.1,.71-.29c.39-.39,.39-1.02,0-1.41l-1.75-1.75H21l-1.75,1.75c-.39,.39-.39,1.02,0,1.41,.2,.2,.45,.29,.71,.29s.51-.1,.71-.29l2.75-2.75c.39-.39,.58-.9,.58-1.4,0,0,0,0,0-.01Z"/></svg>
