<?xml version="1.0" encoding="UTF-8"?>
<svg xmlns="http://www.w3.org/2000/svg" id="Layer_1" data-name="Layer 1" viewBox="0 0 24 24" width="512" height="512"><path d="M8,11H2.792l2.191-6.025c.429-1.181,1.562-1.975,2.819-1.975h8.396c1.257,0,2.39,.793,2.819,1.975l1.589,4.367c.188,.519,.765,.788,1.281,.598,.52-.189,.787-.763,.598-1.282l-1.589-4.367c-.715-1.969-2.603-3.292-4.698-3.292H7.802c-2.095,0-3.983,1.323-4.699,3.291L.402,11.718c-.267,.734-.402,1.502-.402,2.282v1c0,1.632,.786,3.084,2,3.998v2.002c0,1.654,1.346,3,3,3s3-1.346,3-3v-2c0-.552-.448-1-1-1h-2c-1.654,0-3-1.346-3-3v-1c0-.338,.036-.672,.108-1h1.892v1c0,.552,.448,1,1,1s1-.448,1-1v-1h2c.552,0,1-.448,1-1s-.448-1-1-1Zm-4,8.899c.323,.066,.658,.101,1,.101h1v1c0,.551-.449,1-1,1s-1-.449-1-1v-1.101Zm13-9.899c-3.859,0-7,3.14-7,7s3.141,7,7,7,7-3.14,7-7-3.141-7-7-7Zm-5,7c0-2.5,1.845-4.578,4.245-4.943,0,0-2.154,3.789-2.175,3.861-.147,.487-.054,1.021,.249,1.43,.304,.409,.788,.652,1.297,.652h2.095l-2.166,3.783c-2.049-.625-3.544-2.533-3.544-4.783Zm5.757,4.943l1.975-3.453c.326-.493,.355-1.123,.075-1.645-.279-.521-.82-.845-1.412-.845h-2.1l2.161-3.783c2.049,.625,3.544,2.533,3.544,4.783,0,2.499-1.844,4.577-4.243,4.943Z"/></svg>
