<?xml version="1.0" encoding="UTF-8"?>
<svg xmlns="http://www.w3.org/2000/svg" id="Layer_1" data-name="Layer 1" viewBox="0 0 24 24" width="512" height="512"><path d="M12,19c-1.049,0-2.036-.409-2.778-1.151l-3.925-3.875c-.393-.388-.397-1.021-.009-1.414,.387-.394,1.021-.396,1.414-.009l3.929,3.88c.737,.737,2.003,.733,2.731,.004l3.935-3.884c.392-.388,1.023-.385,1.414,.009,.388,.393,.384,1.026-.01,1.414l-3.93,3.88c-.736,.738-1.723,1.146-2.772,1.146Zm.706-5.327l5.999-5.964c.392-.389,.394-1.022,.004-1.414-.39-.393-1.022-.395-1.414-.004l-5.294,5.263L6.705,6.291c-.391-.389-1.024-.386-1.415,.004-.389,.392-.387,1.025,.004,1.415l6.001,5.964c.195,.194,.45,.291,.705,.291s.51-.097,.705-.291Z"/></svg>
