<?xml version="1.0" encoding="UTF-8"?>
<svg xmlns="http://www.w3.org/2000/svg" id="Layer_1" data-name="Layer 1" viewBox="0 0 24 24" width="512" height="512"><path d="M21,5h-.773c-.16-.234-.304-.431-.427-.581C17.363,1.164,13.486-.451,9.453,.106,4.457,.793,.501,4.946,.046,9.982c-.25,2.77,.536,5.501,2.215,7.691,.477,.624,.739,1.46,.739,2.355v.971c0,1.654,1.346,3,3,3h7c1.654,0,3-1.346,3-3h.494c2.498,0,4.629-1.867,4.957-4.345l.069-.524c.072-.547-.312-1.05-.86-1.122-.548-.074-1.05,.313-1.122,.86l-.069,.523c-.197,1.486-1.476,2.607-2.975,2.607h-1.494c-.553,0-1,.447-1,1v1c0,.552-.448,1-1,1H6c-.552,0-1-.448-1-1v-.971c0-1.332-.409-2.601-1.151-3.571-1.372-1.791-2.016-4.027-1.811-6.296,.005-.054,.011-.108,.016-.162H10.126c.445,1.724,2.013,3,3.874,3h7c1.654,0,3-1.346,3-3v-2c0-1.654-1.346-3-3-3ZM9.725,2.088c3.032-.42,5.947,.656,7.967,2.912h-3.692c-1.861,0-3.429,1.276-3.874,3H2.513c1.101-3.097,3.872-5.453,7.211-5.912Zm12.275,7.912c0,.552-.448,1-1,1h-7c-1.103,0-2-.897-2-2s.897-2,2-2h7c.552,0,1,.448,1,1v2Z"/></svg>
